<?xml version="1.0" encoding="utf-8"?>
<!-- Generator: Adobe Illustrator 16.2.0, SVG Export Plug-In . SVG Version: 6.00 Build 0)  -->
<!DOCTYPE svg PUBLIC "-//W3C//DTD SVG 1.1//EN" "http://www.w3.org/Graphics/SVG/1.1/DTD/svg11.dtd">
<svg version="1.1" xmlns="http://www.w3.org/2000/svg" xmlns:xlink="http://www.w3.org/1999/xlink" x="0px" y="0px" width="560px"
	 height="1180px" viewBox="0 0 560 1180" enable-background="new 0 0 560 1180" xml:space="preserve">
<g id="图层_1">
	<g>
		<g>
			<path d="M89.489,821.55c0.03,20.588,0.935,41.158,1.447,61.736c0.504,20.281-0.344,40.375-1.156,60.63
				c-0.502,12.529-1.099,25.117-1.404,37.652c-0.091,3.752-0.416,8.399,1.38,11.84c2.098,4.021,7.287,4.048,10.012,0.705
				c4.037-4.952-2.995-12.072-7.071-7.07c-0.961,1.179,4.228-2.77,6.058,2.137c0.02,0.055-0.284-1.38-0.218-0.834
				c-0.23-1.915-0.192-3.871-0.177-5.796c0.037-4.661,0.36-9.323,0.635-13.975c0.792-13.368,0.846-26.769,1.511-40.148
				c1.771-35.638-0.964-71.232-1.016-106.877C99.479,815.102,89.479,815.101,89.489,821.55L89.489,821.55z"/>
		</g>
	</g>
	<g>
		<g>
			<path d="M104.53,862.965c28.615-8.91,55.866-21.967,83.643-33.108c2.1-0.842,3.671-2.405,3.671-4.821
				c-0.003-10.71,0.392-22.203-4.168-32.146c-2.686-5.855-11.303-0.771-8.635,5.047c3.703,8.074,2.8,18.451,2.803,27.099
				c1.224-1.607,2.447-3.214,3.671-4.821c-27.777,11.142-55.027,24.198-83.643,33.108C95.736,855.232,98.356,864.888,104.53,862.965
				L104.53,862.965z"/>
		</g>
	</g>
	<g>
		<g>
			<path d="M81.459,846.907c-20.329,36.595-40.66,73.188-60.99,109.781c-3.134,5.642,5.503,10.684,8.635,5.047
				c20.33-36.594,40.661-73.187,60.99-109.781C93.228,846.313,84.59,841.271,81.459,846.907L81.459,846.907z"/>
		</g>
	</g>
	<g>
		<path fill="#FFFFFF" d="M63.123,710.026c47.049-41.82,116.751,45.307,62.731,90.613c-59.246,48.791-116.751-78.415-47.049-92.355
			 M40.47,748.363c-43.564-6.971-6.971,80.157-31.367,101.067"/>
		<g>
			<path d="M66.659,713.562c27.646-24.056,62.755,2.454,71.578,31.641c5.036,16.66,1.241,34.099-10.597,46.896
				c-9.694,10.48-23.7,17.297-37.999,13.439c-20.258-5.465-33.019-27.694-36.818-46.961c-1.854-9.4-1.419-19.846,2.939-28.519
				c4.844-9.641,14.111-14.806,24.373-16.952c6.311-1.32,3.633-10.959-2.658-9.643c-13.779,2.882-25.913,11.028-31.59,24.21
				c-5.44,12.632-4.851,26.925-1.172,39.961c7.053,24.992,29.269,52.086,57.884,48.815c16.914-1.934,31.756-13.87,40.324-28.147
				c8.955-14.922,9.432-33.397,3.718-49.537c-10.675-30.152-44.74-55.716-76.548-39.66c-3.824,1.931-7.284,4.585-10.504,7.387
				C54.714,710.731,61.818,717.774,66.659,713.562L66.659,713.562z"/>
			<path d="M41.799,743.542c-52.956-7.796-12.782,81.471-36.231,102.354c-4.825,4.297,2.273,11.344,7.071,7.07
				c7.066-6.293,9.165-15.953,10.182-24.95c1.282-11.336,0.397-22.883-0.042-34.243c-0.392-10.133-1.112-20.845,1.511-30.749
				c2.019-7.625,6.86-11.016,14.852-9.839C45.446,754.113,48.161,744.479,41.799,743.542L41.799,743.542z"/>
		</g>
	</g>
	<g>
		<path fill="#FFFFFF" d="M47.44,771.017c-12.198,24.396,12.198,64.474-29.623,76.673"/>
		<g>
			<path d="M43.123,768.493c-6.299,13.139-4.215,27.808-4.293,41.885c-0.036,6.559-0.612,13.329-3.679,19.242
				c-3.749,7.227-11.186,10.969-18.663,13.248c-6.15,1.875-3.527,11.528,2.658,9.643c8.498-2.591,16.479-6.665,21.984-13.825
				c4.758-6.188,6.598-13.632,7.37-21.269c1.438-14.202-3.148-30.516,3.257-43.877C54.531,767.755,45.91,762.68,43.123,768.493
				L43.123,768.493z"/>
		</g>
	</g>
	<g>
		<g>
			<path d="M84.944,996.768c-12.631,22.915-22.052,47.333-30.014,72.214c-4.067,12.71-7.739,25.544-11.407,38.374
				c-1.844,6.448-3.684,12.898-5.554,19.34c-0.854,2.938-1.72,5.874-2.592,8.808c-0.436,1.465-1.923,8.442-2.436,8.717
				c1.284-0.168,2.568-0.336,3.853-0.504c-0.131-0.021-0.263-0.042-0.394-0.063c0.996,0.767,1.992,1.532,2.988,2.298
				c1.095,2.116,0.397,1.199,0.571-0.445c0.117-1.113,0.236-2.207,0.282-3.325c0.269-6.45-9.732-6.425-10,0
				c-0.159,3.808-1.642,10.295,3.894,11.179c7.55,1.205,8.785-8.208,10.357-13.435c4.739-15.758,9.103-31.626,13.726-47.417
				c9.143-31.228,19.603-62.105,35.36-90.692C96.693,996.164,88.057,991.12,84.944,996.768L84.944,996.768z"/>
		</g>
	</g>
	<g>
		<g>
			<path d="M89.667,989.249c-2.173,15.93,4.576,32.534,10.383,47.033c6.744,16.837,14.821,33.081,22.635,49.436
				c9.102,19.051,15.004,39.896,21.014,60.09c1.401,4.707,2.427,11.021,5.359,15.073c2.219,3.065,6.864,3.78,9.03,0.138
				c1.449-2.436,0.896-5.723,0.647-8.383c-0.596-6.363-10.601-6.422-10,0c0.098,1.05,0.186,2.098,0.248,3.15
				c0.222,3.745-1.067-0.097,2.15-1.557c1.284-0.168,2.569-0.336,3.853-0.505c2.319,2.234,3.105,2.756,2.358,1.566
				c-0.213-0.462-0.253-0.522-0.121-0.182c-0.468-1.117-0.847-2.274-1.235-3.421c-0.861-2.547-1.626-5.126-2.397-7.701
				c-2.072-6.922-4.173-13.834-6.369-20.718c-5.492-17.221-11.747-34.019-19.604-50.291c-6.855-14.197-13.68-28.43-19.417-43.124
				c-4.385-11.23-10.582-25.562-8.893-37.947C100.17,985.604,90.536,982.884,89.667,989.249L89.667,989.249z"/>
		</g>
	</g>
	<g>
		<path fill="#FFFFFF" d="M432.539,364.945c-48.791-12.934-76.671,51.734-81.898,87.301c-8.713,48.501,45.306,101.853,99.326,93.769
			c52.274-8.084,92.354-69.519,73.186-116.402c-8.713-22.634-60.989-71.136-88.87-66.285c-5.228,1.617-10.454,3.232-15.682,6.466"/>
		<g>
			<path d="M433.868,360.124c-41.571-10.517-68.573,29.027-80.892,62.996c-6.482,17.878-10.553,37.232-6.289,56.073
				c5.027,22.216,20.282,41.226,38.338,54.457c19.045,13.956,42.867,20.458,66.271,17.188c21.581-3.015,41.391-15.882,55.723-31.854
				c14.366-16.011,23.807-36.333,25.75-57.805c1.713-18.922-4.306-36.037-15.731-50.817c-12.333-15.955-28.278-29.876-45.367-40.519
				c-7.664-4.773-16.085-8.908-24.938-10.882c-10.896-2.43-21.193,0.948-30.655,6.518c-5.552,3.268-0.522,11.914,5.047,8.635
				c4.744-2.792,10.78-5.833,16.384-6.108c3.851-0.189,7.612,0.726,11.264,1.85c9.035,2.782,17.334,7.998,25.032,13.364
				c15.629,10.896,30.784,25.03,41.037,41.204c10.382,16.378,9.828,37.239,4.003,55.103c-6.733,20.65-21.59,38.716-39.859,50.246
				c-19.814,12.505-43.073,15.106-65.237,7.709c-22.06-7.361-40.874-24.305-51.509-44.826c-9.651-18.623-8.307-37.882-2.692-57.411
				c5.2-18.087,13.61-36.135,26.43-50.095c11.859-12.914,27.805-19.792,45.234-15.382
				C437.465,371.349,440.117,361.704,433.868,360.124L433.868,360.124z"/>
		</g>
	</g>
	<g>
		<g>
			<path d="M439.738,552.481c-2.139,54.938,8.172,109.276,9.381,164.059c0.563,25.571-1.054,51.147-1.191,76.717
				c-0.127,23.589,0.329,48.317,7.672,70.961c1.98,6.107,11.638,3.493,9.643-2.658c-7.253-22.365-7.431-46.609-7.306-69.894
				c0.137-25.525,1.714-51.039,1.15-76.567c-0.603-27.306-4.065-54.62-6.261-81.829c-2.166-26.835-4.137-53.853-3.088-80.788
				C449.989,546.03,439.988,546.055,439.738,552.481L439.738,552.481z"/>
		</g>
	</g>
	<g>
		<g>
			<path d="M448.45,864.505c0.671,24.258-5.056,48.032-12.164,71.062c-7.41,24.006-16.76,47.355-25.117,71.034
				c-8.888,25.181-16.14,50.989-23.452,76.662c-7.608,26.708-14.718,53.563-20.987,80.619c-1.454,6.275,8.188,8.939,9.643,2.658
				c6.271-27.057,13.401-53.903,20.987-80.619c7.442-26.212,14.929-52.512,24-78.214c16.219-45.952,38.469-93.411,37.091-143.202
				C458.272,858.069,448.271,858.053,448.45,864.505L448.45,864.505z"/>
		</g>
	</g>
	<g>
		<g>
			<path d="M450.876,858.944c24.638,49.921,33.572,105.12,45.907,158.859c6.808,29.662,12.466,59.554,18.479,89.382
				c2.119,10.518,4.51,20.99,5.808,31.653c1.098,9.024,2.425,20.414-2.234,28.698c-3.167,5.63,5.315,10.571,8.635,5.047
				c2.059-3.427,4.91-6.27,6.971-9.7c3.329-5.543-5.319-10.567-8.635-5.047c-2.059,3.427-4.909,6.27-6.971,9.7
				c2.878,1.683,5.757,3.364,8.635,5.047c4.758-8.458,4.8-18.707,4.146-28.128c-0.8-11.52-3.173-22.917-5.524-34.199
				c-6.335-30.399-11.958-60.932-18.783-91.231c-12.591-55.899-22.204-113.272-47.797-165.128
				C456.656,848.114,448.032,853.184,450.876,858.944L450.876,858.944z"/>
		</g>
	</g>
	<g>
		<g>
			<path d="M429.965,577.441c-23.074,47.715-59.874,87.121-83.596,134.521c-10.119,20.221-19.782,40.668-31.304,60.149
				c-5.874,9.933-12.268,19.608-19.571,28.553c-3.241,3.97-6.722,7.736-10.385,11.317c-2.771,2.708-8.925,5.979-7.542,10.654
				c0.772,2.612,3.485,4.224,6.151,3.492c1.912-0.525,3.533-1.784,5.521-2.07c6.362-0.917,3.646-10.552-2.658-9.643
				c-1.21,0.174-2.307,0.671-3.422,1.159c-0.353,0.154-2.91,1.133-2.1,0.911c2.051,1.164,4.101,2.328,6.151,3.492
				c-0.011-0.035-0.021-0.07-0.031-0.105c-0.429,1.621-0.857,3.243-1.286,4.864c3.149-3.373,6.934-6.228,10.145-9.586
				c3.61-3.777,6.935-7.822,10.135-11.948c7.054-9.095,13.277-18.773,19.091-28.697c11.133-19.007,20.475-38.979,30.324-58.66
				c23.523-47.003,60.124-86.024,83.013-133.356C441.394,576.71,432.771,571.637,429.965,577.441L429.965,577.441z"/>
		</g>
	</g>
	<g>
		<g>
			<path d="M442.163,584.105c33.711,44.547,62.076,92.432,78.452,146.093c5.901,19.336,12.85,38.319,18.191,57.832
				c4.658,17.016,10.953,38.188,5.663,55.745c-1.865,6.19,7.787,8.816,9.643,2.658c5.47-18.15-0.018-39.288-4.59-57.028
				c-5.316-20.626-12.647-40.628-18.98-60.945c-8.28-26.563-18.618-51.959-31.889-76.448c-13.872-25.6-30.301-49.756-47.855-72.953
				C446.959,573.986,438.269,578.96,442.163,584.105L442.163,584.105z"/>
		</g>
	</g>
	<g>
		<g>
			<path d="M248.057,761.036c2.187,21.956,16.964,38.817,22.832,59.529c1.754,6.194,11.404,3.559,9.643-2.658
				c-5.555-19.61-20.419-36.238-22.475-56.871C257.424,754.682,247.418,754.62,248.057,761.036L248.057,761.036z"/>
		</g>
	</g>
	<g>
		<path fill="#FFFF00" d="M251.314,764.269c-3.484,0-50.533,37.186-34.85-4.849c-17.426-6.467-10.456-32.335,8.713-27.485l0,0
			c-17.426-21.017,36.594-42.034,22.653-8.083c15.684-12.934,41.821,0,22.653,16.167c26.139-9.699,10.455,43.65-19.168,17.784"/>
		<g>
			<path d="M251.314,759.269c-3.505,0.345-6.603,2.749-9.525,4.541c-4.563,2.799-9.156,5.556-13.979,7.888
				c-2.084,1.007-4.232,1.825-6.472,2.415c-1.023,0.27-1.501,0.303-1.979,0.329c-0.146,0.008-1.698-0.137-0.573,0.045
				c-0.269-0.044-1.397-0.568-0.409-0.068c-0.356-0.181,0.187,0.347,0.176,0.318c-0.393-1.014-0.3-1.65-0.244-2.945
				c0.164-3.738,1.71-7.573,2.976-11.042c1.012-2.775-1.135-5.196-3.492-6.15c-4.727-1.914-7.144-6.485-5.989-11.426
				c1.327-5.671,6.821-7.585,12.043-6.417c5.188,1.16,7.915-4.516,4.865-8.356c-5.233-6.591,1.129-13.658,7.813-16.298
				c1.822-0.72,3.607-1.105,5.119-1.157c1.24-0.042,0.641-0.097,1.795,0.183c0.14,0.034,1.049,0.491,0.746,0.244
				c0.894,0.727,0.94,1.076,0.969,2.893c0.044,2.825-1.125,5.682-2.146,8.259c-2.082,5.248,4.946,7.522,8.357,4.864
				c4.619-3.599,11.609-5.131,17.117-2.698c6.714,2.964,2.408,8.31-1.536,11.795c-3.694,3.265,0.176,10.003,4.865,8.356
				c1.517-0.532,3.97-1.186,4.972-1.019c1.417,0.237,1.169,0.221,1.795,1.477c0.611,1.226-0.027,5.072-1.38,7.729
				c-5.024,9.859-15.188,7.318-22.348,1.241c-4.885-4.146-11.995,2.893-7.071,7.07c6.844,5.809,14.875,9.949,24.033,8.056
				c6.469-1.337,11.854-6.668,14.589-12.479c2.55-5.417,3.494-12.118,0.357-17.507c-3.65-6.272-11.522-6.346-17.604-4.21
				c1.622,2.785,3.243,5.571,4.865,8.356c7.952-7.026,12.195-18.969,1.844-26.108c-9.783-6.748-22.751-3.999-31.568,2.871
				c2.786,1.621,5.571,3.243,8.357,4.864c2.607-6.575,4.43-15.396-1.395-20.88c-4.63-4.359-11.837-3.864-17.389-1.842
				c-14.143,5.151-22.481,20.097-12.226,33.011c1.622-2.785,3.243-5.571,4.865-8.356c-10.621-2.375-20.378,2.125-24.104,12.585
				c-3.779,10.608,3.106,20.645,12.733,24.543c-1.164-2.05-2.328-4.101-3.492-6.15c-2.344,6.426-5.5,15.271-1.619,21.756
				c3.201,5.347,9.947,5.089,15.173,3.577c5.982-1.731,11.598-4.982,16.928-8.127c2.426-1.432,4.815-2.926,7.222-4.388
				c0.799-0.485,1.603-0.962,2.417-1.421c1.649-0.93,0.763-0.339-0.451-0.22C257.67,768.644,257.731,758.638,251.314,759.269
				L251.314,759.269z"/>
		</g>
	</g>
	<g>
		<g>
			<path d="M234.118,741.513c-0.018,0.715,0.319-1.577,0.114-0.829c0.5-1.817,2.381-3.57,4.619-3.398
				c1.179,0.488,2.357,0.977,3.536,1.465c-0.003-0.002-0.006-0.005-0.009-0.007c0.428,0.735,0.857,1.471,1.286,2.206
				c-0.001-0.005-0.002-0.009-0.003-0.013c0,0.886,0,1.771,0,2.658c-0.222,1.195-1.326,2.275-2.091,2.778
				c0.658-0.433-1.509,0.529-0.55,0.248c0.113-0.031,0.228-0.059,0.343-0.082c0.855-0.189-1.415,0.155-0.41,0.045
				c0.547-0.06,1.101-0.066,1.651-0.071c2.69-0.022,5.047-2.257,5-5c-0.024-1.416-0.476-2.743-1.495-3.763
				c-1.829-1.829-5.318-2.068-7.099,0.003c-0.896,1.043-1.357,2.188-1.704,3.49c-0.223,0.836-0.425,1.678-0.638,2.517
				c-0.094,0.369-0.19,0.738-0.293,1.105c-0.038,0.137-0.079,0.271-0.122,0.407c-0.017,0.052-0.035,0.103-0.053,0.153
				c0.411-1.156,0.881-2.102,2.18-2.771c1.284-0.168,2.568-0.336,3.853-0.505c-0.004-0.001-0.008-0.003-0.013-0.004
				c0.996,0.766,1.992,1.531,2.988,2.298c0.337,0.558,1.116,4.339,0.474,0.967c-0.042-0.208-0.08-0.417-0.113-0.627
				c0.103,0.834,0.125,0.987,0.065,0.46c-0.038-0.344-0.049-0.689-0.055-1.035c-0.008-0.485,0.216-1.884-0.079,0.029
				c0.037-0.241,0.101-0.477,0.169-0.709c0.22-0.742-0.664,1.36-0.198,0.472c0.215-0.412,0.801-0.965-0.396,0.457
				c0.674-0.8-0.876,0.589-0.476,0.318c0.374-0.254,1.146-0.447-0.716,0.268c0.125-0.048,0.255-0.076,0.386-0.102
				c-1.845,0.355-1.364,0.138-0.864,0.149c0.595,0.015-1.692-0.348-0.829-0.09c-0.939-0.28-1.798-0.889-2.336-1.814
				c-1.063-1.83-0.548-4.019,0.569-5.209c-1.863,1.986-1.972,5.099,0,7.07c1.88,1.881,5.207,1.988,7.071,0
				c1.788-1.906,2.313-4.638,0.964-6.961c-1.162-2-3.184-2.75-5.351-2.99c-3.792-0.421-7.131,3.201-7.667,6.679
				c-0.183,1.182-0.297,2.28-0.193,3.468c0.073,0.84,0.203,1.677,0.345,2.507c-0.387-2.258-0.026,0.139,0.08,0.528
				c0.886,3.261,4.519,4.48,7.383,3.003c1.321-0.682,2.007-2.016,2.454-3.351c0.305-0.914,0.506-1.868,0.74-2.802
				c0.125-0.5,0.251-0.999,0.386-1.496c0.051-0.188,0.105-0.376,0.162-0.563c0.025-0.082,0.053-0.163,0.082-0.244
				c-0.411,1.156-0.881,2.102-2.18,2.771c-1.284,0.168-2.568,0.336-3.853,0.505c0.004,0.001,0.008,0.003,0.013,0.004
				c-0.996-0.766-1.992-1.531-2.988-2.298c-0.344-0.568-0.646-1.884-0.652-2.296c1.667-1.667,3.333-3.333,5-5
				c-3.051,0.025-7.879,0.617-8.586,4.424c-0.417,2.243,0.25,4.46,2.31,5.666c1.545,0.905,3.563,0.916,5.1-0.017
				c1.814-1.102,2.639-3.018,2.691-5.073c0.069-2.726-2.327-5-5-5C236.34,736.513,234.187,738.789,234.118,741.513L234.118,741.513z
				"/>
		</g>
	</g>
	<g>
		<path fill="#FFFFFF" d="M296.621,376.262c22.653,1.616,59.247,27.483,81.9,40.417c45.307,24.25,90.612,48.501,134.177,72.752
			c3.483,3.233-1.743,1.617-3.486,1.617"/>
		<g>
			<path d="M296.621,381.262c15.487,1.335,30.508,10.673,43.648,18.257c15.477,8.932,30.421,18.635,46.183,27.073
				c20.84,11.157,41.672,22.328,62.461,33.578c10.295,5.571,20.577,11.167,30.845,16.789c5.095,2.79,10.184,5.589,15.27,8.395
				c2.251,1.242,4.5,2.486,6.748,3.731c1.122,0.622,2.244,1.243,3.365,1.865c1.613,0.895,3.424,3.279,3.67,0.256
				c0.826-1.439,1.651-2.878,2.477-4.317c1.781-1.021,2.137-0.297,0.62-0.52c-0.896-0.131-1.792-0.259-2.695-0.321
				c-6.44-0.44-6.397,9.563,0,10c2.874,0.196,5.803,1.025,8.135-1.306c3.924-3.924-0.263-8.592-3.802-10.561
				c-11.825-6.58-23.686-13.099-35.562-19.587c-24.12-13.177-48.328-26.191-72.553-39.174
				c-10.649-5.708-21.437-11.196-31.794-17.423c-8.594-5.166-17.082-10.502-25.72-15.595c-15.552-9.168-32.917-19.556-51.296-21.14
				C290.193,370.708,290.247,380.712,296.621,381.262L296.621,381.262z"/>
		</g>
	</g>
</g>
<g id="图层_2">
	<g>
		<g>
			<path d="M369,286c1.113,0.054,2.205,0.226,3.275,0.518c0.229-0.897,0.226-1.001-0.01-0.312c-0.408,0.902-0.917,1.76-1.342,2.655
				c-0.881,1.852-1.507,4.072-1.013,6.125c1.052,4.36,9.385,12.595,2.291,15.121c-3.617,1.289-2.059,7.087,1.596,5.786
				c11.33-4.036,6.496-13.693,2.246-21.531c-1.303-2.401,2.385-6.145,2.396-8.829c0.021-4.651-6.136-5.207-9.44-5.533
				C365.149,279.62,365.187,285.623,369,286L369,286z"/>
		</g>
	</g>
	<g>
		<g>
			<path d="M358,290c2.045,17.724,2.974,35.878,9.107,52.797c1.119,3.087,5.893,2.741,5.893-0.797c0-1.667,0-3.333,0-5
				c0-3.869-6-3.869-6,0c0,1.667,0,3.333,0,5c1.964-0.266,3.929-0.532,5.893-0.797c-5.958-16.436-6.906-33.984-8.893-51.203
				C363.562,286.203,357.557,286.16,358,290L358,290z"/>
		</g>
	</g>
	<g>
		<g>
			<path d="M383,287c5.351-0.067,10.649-0.933,16-1c-0.863-0.495-1.727-0.991-2.591-1.486c0.092,0.167,0.183,0.333,0.273,0.5
				c-0.101-0.771-0.201-1.541-0.303-2.312c-0.138,0.785-1.025,1.637-1.272,2.5c-1.07,3.727,4.72,5.307,5.785,1.595
				c0.214-0.743,1.039-1.166,1.186-2c0.229-1.304,0.152-2.14-0.487-3.312c-0.498-0.911-1.562-1.499-2.591-1.486
				c-5.351,0.067-10.649,0.933-16,1C379.134,281.049,379.129,287.049,383,287L383,287z"/>
		</g>
	</g>
	<g>
		<g>
			<path d="M393.879,287.879c-6.047,7.381-9.317,16.13-13.47,24.607c-1.694,3.46,3.479,6.503,5.182,3.028
				c3.888-7.937,6.867-16.479,12.53-23.393C400.552,289.155,396.332,284.883,393.879,287.879L393.879,287.879z"/>
		</g>
	</g>
	<g>
		<g>
			<path d="M385.107,312.203c-0.521,3.809-0.161,7.493,0.849,11.199c0.641,2.351,1.648,5.672,4.246,6.491
				c3.701,1.167,5.271-4.626,1.596-5.786c1.231,0.389,1.313,1.144,0.708-0.077c-0.452-0.912-0.693-1.964-0.959-2.94
				c-0.633-2.322-0.981-4.892-0.654-7.292C391.409,310.016,385.628,308.383,385.107,312.203L385.107,312.203z"/>
		</g>
	</g>
	<g>
		<g>
			<path d="M391.798,305.893c5.242-1.045,12.398-3.085,17.05,0.634c6.972,5.576,3.705,17.07-4.646,18.58
				c-3.803,0.688-2.187,6.47,1.596,5.786c11.444-2.07,15.128-14.404,10.671-24.124c-4.794-10.457-17.165-8.476-26.267-6.663
				C386.409,300.863,388.02,306.646,391.798,305.893L391.798,305.893z"/>
		</g>
	</g>
	<g>
		<g>
			<path d="M394,320c5.721-0.068,11.503-0.917,17.202-0.107c3.783,0.537,5.413-5.244,1.596-5.786
				c-6.295-0.894-12.48-0.182-18.798-0.107C390.134,314.046,390.129,320.046,394,320L394,320z"/>
		</g>
	</g>
	<g>
		<g>
			<path d="M401,332c5.734-0.068,11.729-1.056,16.514-4.41c3.143-2.203,0.149-7.407-3.027-5.181
				c-3.97,2.782-8.729,3.534-13.486,3.59C397.134,326.046,397.129,332.046,401,332L401,332z"/>
		</g>
	</g>
	<g>
		<g>
			<path d="M428.107,275.797c1.758,8.996-0.141,18.354-3.698,26.688c-1.501,3.517,3.667,6.577,5.182,3.028
				c4.239-9.934,6.398-20.584,4.302-31.312C433.151,270.407,427.368,272.019,428.107,275.797L428.107,275.797z"/>
		</g>
	</g>
	<g>
		<g>
			<path d="M437.798,294.893c3.306-0.93,6.633-1.727,10.015-2.328c2.523-0.449,8.038-1.635,10.066,0.556
				c2.633,2.846,6.865-1.408,4.242-4.242c-5.78-6.247-19.136-1.679-25.919,0.228C432.483,290.153,434.065,295.942,437.798,294.893
				L437.798,294.893z"/>
		</g>
	</g>
	<g>
		<g>
			<path d="M440.798,311.893c8.323-1.186,16.162-4.064,24-7c3.589-1.344,2.035-7.146-1.596-5.786c-7.838,2.936-15.676,5.814-24,7
				C435.385,306.651,437.015,312.432,440.798,311.893L440.798,311.893z"/>
		</g>
	</g>
	<g>
		<g>
			<path d="M448.107,282.203c-1.236,7.052-0.263,14.436,0.123,21.527c0.209,3.853,0.344,7.708,0.214,11.566
				c-0.068,2.049,0.036,6.762-1.958,8.113c-3.184,2.156-0.186,7.357,3.027,5.181c5.689-3.854,5.07-12.876,4.96-18.875
				c-0.156-8.434-2.048-17.547-0.581-25.917C454.556,280.015,448.774,278.396,448.107,282.203L448.107,282.203z"/>
		</g>
	</g>
	<g>
		<g>
			<path d="M438,330c11.8-0.151,23.288-2.921,35-4c3.819-0.352,3.854-6.355,0-6c-11.708,1.079-23.209,3.849-35,4
				C434.134,324.05,434.129,330.05,438,330L438,330z"/>
		</g>
	</g>
	<g>
		<g>
			<path d="M487,278c0.832,14.88-2.648,35.017-15.514,44.41c-3.092,2.257-0.103,7.466,3.027,5.181
				C489.242,316.837,493.967,295.3,493,278C492.785,274.153,486.784,274.132,487,278L487,278z"/>
		</g>
	</g>
	<g>
		<g>
			<path d="M493.409,308.514c5.541,10.444,15.507,16.722,25.077,23.076c0.504-1.863,1.009-3.727,1.514-5.59
				c-1.596-0.269-3.091-0.799-4.486-1.59c-3.46-1.694-6.503,3.479-3.027,5.181c2.515,1.231,4.733,2.091,7.514,2.41
				c3.202,0.367,3.757-4.101,1.514-5.59c-8.724-5.793-17.869-11.396-22.923-20.924C496.776,302.067,491.598,305.099,493.409,308.514
				L493.409,308.514z"/>
		</g>
	</g>
	<g>
		<g>
			<path d="M119.797,645.893c8.121-2.336,17.671-4.428,24.717-9.302c3.158-2.186,0.163-7.389-3.028-5.182
				c-6.626,4.585-15.635,6.498-23.283,8.698C114.491,641.175,116.071,646.965,119.797,645.893L119.797,645.893z"/>
		</g>
	</g>
	<g>
		<g>
			<path d="M133,624c2.122,15.807,5.042,32.315,2.107,48.202c1.828-0.238,3.656-0.478,5.483-0.716c-2.479-3.487-5.524-6.518-8-10
				c-2.221-3.125-7.428-0.134-5.181,3.027c2.479,3.487,5.524,6.518,8,10c1.349,1.897,4.965,2.087,5.483-0.716
				c3.052-16.524,0.316-33.344-1.893-49.798C138.493,620.224,132.486,620.175,133,624L133,624z"/>
		</g>
	</g>
	<g>
		<g>
			<path d="M128.514,662.591c6.159-4.108,12.298-8.274,17.607-13.47c2.77-2.709-1.476-6.949-4.242-4.242
				c-4.952,4.845-10.649,8.699-16.393,12.53C122.284,659.545,125.285,664.744,128.514,662.591L128.514,662.591z"/>
		</g>
	</g>
	<g>
		<g>
			<path d="M149.797,633.893c6.239-1.109,12.223-3.12,17.717-6.302c3.346-1.938,0.326-7.124-3.028-5.182
				c-5.068,2.936-10.535,4.676-16.283,5.698C144.397,628.784,146.015,634.565,149.797,633.893L149.797,633.893z"/>
		</g>
	</g>
	<g>
		<g>
			<path d="M152,630c-0.146,11.801-3.04,23.983-0.125,35.658c1.318,5.276,5.307,7.957,10.705,7.427
				c5.012-0.493,12.698-3.702,15.01-8.571c1.651-3.475-3.521-6.521-5.181-3.027c-1.722,3.624-8.282,5.694-11.915,5.706
				c-3.8,0.012-3.613-7.636-3.734-10.055c-0.458-9.09,1.127-18.076,1.24-27.138C158.048,626.129,152.048,626.134,152,630L152,630z"
				/>
		</g>
	</g>
	<g>
		<g>
			<path d="M154,644c6.07,0.002,12.188-0.029,18.203,0.893c-0.441-1.671-0.883-3.343-1.324-5.014
				c-3.281,4.12-7.769,6.519-12.676,8.229c-2.546,0.887-3.163,5.23,0,5.785c4.354,0.765,7.565-0.531,11.595-2
				c3.605-1.313,2.049-7.113-1.595-5.785c-2.742,0.999-5.389,2.529-8.405,2c0,1.929,0,3.856,0,5.785
				c5.814-2.025,11.422-4.87,15.324-9.771c1.225-1.538,1.16-4.633-1.324-5.014c-6.568-1.007-13.165-1.105-19.797-1.107
				C150.131,637.999,150.131,643.999,154,644L154,644z"/>
		</g>
	</g>
	<g>
		<g>
			<path d="M185.107,617.202c-2.161,6.914-6.752,12.712-9.697,19.284c-0.701,1.564-0.303,4.094,1.793,4.406
				c5.876,0.877,10.563-0.857,15.312-4.302c3.099-2.249,0.11-7.458-3.028-5.182c-3.231,2.344-6.531,4.318-10.688,3.698
				c0.598,1.469,1.195,2.938,1.793,4.406c3.166-7.063,7.975-13.271,10.303-20.716C192.051,615.094,186.258,613.522,185.107,617.202
				L185.107,617.202z"/>
		</g>
	</g>
	<g>
		<g>
			<path d="M193.107,626.202c-3.06,7.842-7.517,15.011-11.697,22.284c-1.509,2.625,1.486,5.593,4.104,4.104
				c3.147-1.79,6.828-2.196,10-4c3.362-1.912,0.34-7.097-3.028-5.182c-3.147,1.79-6.828,2.196-10,4
				c1.368,1.368,2.736,2.737,4.104,4.104c4.452-7.744,9.045-15.369,12.303-23.716C200.301,624.188,194.498,622.64,193.107,626.202
				L193.107,626.202z"/>
		</g>
	</g>
	<g>
		<g>
			<path d="M190.121,663.121c5.23-4.137,10.77-7.862,16-12c3.034-2.399-1.243-6.615-4.242-4.242c-5.23,4.137-10.77,7.862-16,12
				C182.845,661.278,187.122,665.494,190.121,663.121L190.121,663.121z"/>
		</g>
	</g>
	<g>
		<g>
			<path d="M211.41,606.486c-3.668,5.674-6.038,11.958-9,18c-1.696,3.46,3.478,6.502,5.181,3.027c2.962-6.041,5.332-12.325,9-18
				C218.698,606.254,213.502,603.25,211.41,606.486L211.41,606.486z"/>
		</g>
	</g>
	<g>
		<g>
			<path d="M209.797,624.893c7.189-2.132,14.544-5.661,22.203-4.893c-0.964-1.266-1.929-2.531-2.893-3.798
				c-3.108,7.874-8.536,14.58-15.621,19.207c-3.225,2.106-0.222,7.304,3.028,5.182c8.489-5.545,14.666-13.387,18.379-22.793
				c0.78-1.978-1.152-3.623-2.893-3.798c-8.224-0.825-16.086,2.82-23.797,5.107C204.502,620.205,206.079,625.996,209.797,624.893
				L209.797,624.893z"/>
		</g>
	</g>
	<g>
		<g>
			<path d="M209,642c7.98-0.995,15.949-1.925,24-2c-0.863-1.505-1.727-3.01-2.59-4.514c-1.73,3.069-4.042,4.988-6.924,6.923
				c-3.194,2.145-0.194,7.345,3.028,5.182c3.731-2.505,6.842-5.113,9.076-9.077c1.104-1.959-0.283-4.535-2.59-4.514
				c-8.051,0.075-16.02,1.005-24,2C205.213,636.473,205.167,642.479,209,642L209,642z"/>
		</g>
	</g>
	<g>
		<g>
			<path d="M212.203,653.893c6.788,1.164,12.696-1.582,16.388-7.379c2.085-3.273-3.109-6.28-5.181-3.027
				c-2.139,3.357-5.58,5.313-9.612,4.621C210.014,647.458,208.395,653.24,212.203,653.893L212.203,653.893z"/>
		</g>
	</g>
	<g>
		<g>
			<path d="M219,639c-0.066,2.842-1.003,5.529-1.893,8.202c-1.225,3.683,4.57,5.248,5.786,1.596c1.064-3.2,2.028-6.398,2.107-9.798
				C225.09,635.129,219.09,635.138,219,639L219,639z"/>
		</g>
	</g>
	<g>
		<g>
			<path d="M207,640c-1.157,13.372,0.97,34.64,19.611,31.61c8.17-1.327,15.673-7.654,21.247-13.37
				c5.479-5.619,10.835-13.127,11.142-21.24c0.146-3.871-5.854-3.856-6,0c-0.45,11.915-14.714,24.172-25.02,28.015
				C212.356,670.84,212.16,649.703,213,640C213.334,636.144,207.331,636.176,207,640L207,640z"/>
		</g>
	</g>
	<g>
		<g>
			<path d="M277,627c3.869,0,3.869-6,0-6S273.131,627,277,627L277,627z"/>
		</g>
	</g>
	<g>
		<g>
			<path d="M280,623c0-0.008,0.001-0.016,0.002-0.023c-2,0-4,0-6,0c0.784,10.94,0.963,22.057,0.998,33.023
				c0.013,3.898,5.764,3.83,6,0c0.146-2.372,0.797-4.637,1-7c0.332-3.856-5.671-3.824-6,0c-0.203,2.359-0.854,4.622-1,7c2,0,4,0,6,0
				c-0.035-10.967-0.214-22.083-0.998-33.023c-0.277-3.867-5.716-3.862-6,0C274.001,622.984,274,622.992,274,623
				C273.716,626.862,279.718,626.835,280,623L280,623z"/>
		</g>
	</g>
	<g>
		<g>
			<path d="M271.107,669.798c0.423,2.079,1.008,5.266,3.232,6.212c3.246,1.38,5.452-1.13,7.251-3.496
				c0.992-1.305,0.206-3.353-1.077-4.104c-1.54-0.901-3.117-0.223-4.104,1.077c0.18-0.237-0.405,0.479-0.479,0.563
				c-0.206,0.235-0.429,0.454-0.659,0.664c-0.432,0.396,0.572-0.327-0.106,0.027c0.312-0.193,0.652-0.284,1.021-0.274
				c0.191,0.03,0.382,0.06,0.573,0.09c0.533,0.26,0.668,0.316,0.405,0.17c0.43,0.361,0.537,0.432,0.322,0.212
				c0.31,0.421,0.379,0.497,0.207,0.227c-0.06-0.104-0.114-0.211-0.164-0.32c0.367,0.757,0.053,0.085-0.005-0.085
				c-0.281-0.83-0.456-1.699-0.631-2.558c-0.326-1.603-2.195-2.506-3.69-2.095C271.547,666.563,270.781,668.196,271.107,669.798
				L271.107,669.798z"/>
		</g>
	</g>
	<g>
		<g>
			<path d="M242.593,58.116c25.542-0.113,50.93-4.352,76.496-3c-1.667-1.667-3.333-3.333-5-5
				c3.128,32.55,7.558,64.958,12.178,97.324c0.168-1.284,0.336-2.568,0.504-3.853c3.477-0.579,4.104-1.17,1.886-1.773
				c-1.186-0.419-2.324-0.54-3.567-0.704c-6.38-0.838-6.299,9.172,0,10c2.711,0.356,4.313,2.206,7.202,0.629
				c3.679-2.007,3.883-5.107,3.349-8.85c-1.485-10.408-2.944-20.82-4.342-31.241c-2.745-20.469-5.233-40.975-7.209-61.534
				c-0.271-2.828-2.074-4.845-5-5c-25.566-1.352-50.954,2.887-76.496,3C236.146,48.145,236.143,58.145,242.593,58.116
				L242.593,58.116z"/>
		</g>
	</g>
	<g>
		<g>
			<path d="M237.593,54.616c0.921,19.266,4.449,38.311,6.299,57.492c1.819,18.873,2.478,38.743-4.62,56.673
				c3.274,0.443,6.547,0.886,9.821,1.329c-0.024-2.999-0.364-6.046-2.183-8.523c-3.772-5.141-12.457-0.161-8.635,5.047
				c0.832,1.134,0.806,2.089,0.817,3.477c0.048,5.985,7.831,6.358,9.821,1.329c14.654-37.019,0.497-78.799-1.321-116.824
				C247.286,48.197,237.285,48.167,237.593,54.616L237.593,54.616z"/>
		</g>
	</g>
	<g>
		<g>
			<path d="M245.593,156.11c-15.331,1.874-29.832,7.254-44.827,10.678c-3.89,0.888-4.555,5.684-2.207,8.357
				c13.646,15.528,26.235,31.95,39.936,47.435c13.435,15.185,28.294,30.993,46.572,40.342c0.841-3.106,1.683-6.211,2.523-9.317
				c-2.881-0.221-5.702-3.697-7.976-5.317c-5.264-3.752-10.25,4.926-5.047,8.635c4.411,3.144,7.354,6.248,13.022,6.682
				c4.947,0.379,6.855-7.102,2.523-9.317c-17.581-8.994-31.583-24.222-44.547-38.778c-13.752-15.441-26.29-31.907-39.936-47.436
				c-0.735,2.786-1.471,5.571-2.207,8.357c14.068-3.212,27.795-8.564,42.169-10.321C251.909,165.338,251.984,155.329,245.593,156.11
				L245.593,156.11z"/>
		</g>
	</g>
	<g>
		<g>
			<path d="M325.089,152.611c17.264,1.604,34.921,3.995,51.168,10.321c-1.164-2.05-2.328-4.1-3.492-6.15
				c-7.798,19.356-18.071,38.004-28.73,55.904c-6.111,10.263-12.608,20.412-20.104,29.729c-4.674,5.81-10.986,13.792-18.17,15.87
				c-6.183,1.788-3.551,11.438,2.658,9.643c8.466-2.448,15.097-9.619,20.64-16.097c8.188-9.569,15.143-20.207,21.701-30.932
				c11.962-19.562,23.067-40.161,31.647-61.458c1.093-2.713-1.188-5.253-3.492-6.15c-17.059-6.642-35.706-8.994-53.826-10.678
				C318.667,142.014,318.725,152.02,325.089,152.611L325.089,152.611z"/>
		</g>
	</g>
	<g>
		<g>
			<path d="M287.761,266.427c7.635,1.769,14.716,1.313,21.853-2.004c5.844-2.716,0.762-11.334-5.047-8.635
				c-4.578,2.127-9.31,2.117-14.147,0.996C284.144,255.33,281.479,264.971,287.761,266.427L287.761,266.427z"/>
		</g>
	</g>
</g>
<g id="图层_3">
	<g>
	</g>
	<g>
	</g>
	<g>
	</g>
	<g>
	</g>
	<g>
	</g>
	<g>
	</g>
	<g>
	</g>
	<g>
	</g>
	<g>
	</g>
	<g>
	</g>
	<g>
	</g>
	<g>
	</g>
	<g>
	</g>
	<g>
	</g>
	<g>
	</g>
</g>
</svg>
