<?xml version="1.0" encoding="utf-8"?>
<!-- Generator: Adobe Illustrator 16.2.0, SVG Export Plug-In . SVG Version: 6.00 Build 0)  -->
<!DOCTYPE svg PUBLIC "-//W3C//DTD SVG 1.0//EN" "http://www.w3.org/TR/2001/REC-SVG-20010904/DTD/svg10.dtd">
<svg version="1.0" id="图层_1" xmlns="http://www.w3.org/2000/svg" xmlns:xlink="http://www.w3.org/1999/xlink" x="0px" y="0px"
	 width="560px" height="960px" viewBox="0 0 560 960" enable-background="new 0 0 560 960" xml:space="preserve">
<g>
	<g>
		<path d="M306.609,242.18c-18.275-12.942-43.762-7.731-63.066-0.132c-20.357,8.012-39.006,21.409-51.289,39.686
			c-24.056,35.795-20.914,90.532,5.613,124.146c22.502,28.515,61.517,36.083,95.653,29.509
			c39.556-7.618,74.787-35.568,87.704-74.222c6.287-18.816,3.933-38.824-2.745-57.153c-5.806-15.939-13.666-31.451-25.269-43.932
			c-16.729-17.995-52.06-44.108-74.959-21.283c-4.571,4.557,2.5,11.627,7.071,7.071c13.863-13.817,35.633-0.309,47.794,9.28
			c7.212,5.687,14.025,12.295,19.533,19.664c7.319,9.791,12.581,21.957,16.741,33.378c4.443,12.196,6.506,24.897,5.072,37.84
			c-1.53,13.811-8.289,26.732-16.151,37.938c-10.422,14.854-25.499,26.055-41.839,33.629c-31.199,14.461-70.941,14.662-99.154-6.507
			c-15.464-11.603-24.039-29.375-28.28-47.808c-5.194-22.569-3.423-47.286,6.986-68.139c9.387-18.807,26.366-32.41,45.098-41.248
			c17.589-8.298,43.072-15.383,60.44-3.083C306.838,254.551,311.826,245.874,306.609,242.18L306.609,242.18z"/>
	</g>
</g>
<g>
	<g>
		<path d="M271.57,443.237c6.917,13.257,3.651,31.057,2.063,45.238c-2.3,20.528-6.382,40.752-7.699,61.41
			c-1.318,20.674,0.308,41.574,0.79,62.265c0.455,19.496,0.759,39.002,0.582,58.504c-0.059,6.451,9.941,6.445,10,0
			c0.177-19.503-0.138-39.007-0.582-58.504c-0.486-21.354-2.029-42.83-0.668-64.169c1.331-20.871,5.559-41.368,7.869-62.119
			c1.732-15.556,3.805-33.251-3.719-47.671C277.221,432.471,268.591,437.527,271.57,443.237L271.57,443.237z"/>
	</g>
</g>
<g>
	<g>
		<path d="M262.307,444.669c-12.106,27.764-25.475,54.978-36.142,83.354c-6.241,16.601-10.766,33.499-15.003,50.676
			c-4.317,17.501-8.61,35.012-13.406,52.389c-2.093,7.586-4.287,15.152-6.817,22.605c-0.796,2.347-1.832,5.24-2.672,7.201
			c-0.41,0.956-0.858,1.896-1.334,2.82c-0.238,0.461-1.772,2.706-0.842,1.547c-1.045,1.302,0.598-0.215,0.788-0.259
			c-6.276,1.475-3.614,11.116,2.658,9.643c3.906-0.918,5.912-5.399,7.365-8.704c2.663-6.053,4.67-12.378,6.599-18.694
			c5.234-17.142,9.542-34.572,13.863-51.962c3.308-13.315,6.338-26.728,10.159-39.908c8.648-29.83,21.95-58.056,34.758-86.258
			c2.929-6.449,5.83-12.91,8.661-19.402C273.492,443.867,264.878,438.771,262.307,444.669L262.307,444.669z"/>
	</g>
</g>
<g>
	<g>
		<path d="M278.732,444.733c0.142,8.448,3.021,16.03,6.757,23.5c4.271,8.537,8.631,16.762,12.193,25.645
			c7.352,18.331,13.386,37.181,19.12,56.069c6.112,20.13,11.777,40.486,18.399,60.455c3.076,9.275,6.118,18.643,9.565,27.786
			c1.653,4.387,4.263,8.534,5.487,13.042c0.816,3.002,0.529,6.589,3.667,8.314c1.438,0.79,3.638,1.061,5.047,0
			c1.497-1.126,2.36-2.288,3.246-3.921c3.076-5.668-5.559-10.716-8.635-5.047c-0.967,1.45-0.854,1.561,0.342,0.333
			c1.683,0,3.365,0,5.047,0c-0.083-0.046-0.167-0.092-0.25-0.138c0.766,0.996,1.531,1.992,2.298,2.988
			c-1.064-2.708-1.212-5.811-2.175-8.598c-1.524-4.414-4.064-8.546-5.67-12.985c-3.345-9.252-6.454-18.652-9.501-28.007
			c-6.306-19.355-11.809-39.04-17.723-58.52c-5.397-17.779-11.188-35.451-17.96-52.759c-3.217-8.221-6.671-16.243-10.856-24.018
			c-4.097-7.611-8.251-15.293-8.399-24.141C288.625,438.292,278.625,438.281,278.732,444.733L278.732,444.733z"/>
	</g>
</g>
<g>
	<g>
		<path d="M266.169,675.158c-7.621,25.081-14.311,50.428-20.841,75.811c-6.566,25.523-13.473,50.986-19.5,76.642
			c-5.855,24.922-11.095,50.055-17.535,74.832c-2.066,7.948-5.138,15.652-7.789,23.416c-2.026,5.935-5.079,12.962-3.996,19.357
			c1.076,6.349,10.711,3.647,9.643-2.658c0.168,0.992,0.232-1.213,0.305-1.591c0.298-1.552,0.741-3.077,1.174-4.594
			c1.107-3.885,2.455-7.703,3.777-11.519c2.683-7.744,5.526-15.429,7.422-23.413c5.924-24.946,11.646-49.939,17.516-74.897
			c5.889-25.035,12.698-49.883,19.107-74.792c6.37-24.758,12.926-49.473,20.358-73.936
			C277.691,671.63,268.038,669.006,266.169,675.158L266.169,675.158z"/>
	</g>
</g>
<g>
	<g>
		<path d="M267.987,679.024c26.046,42.044,32.242,93.22,44.969,140.146c7.328,27.019,17.191,53.307,22.745,80.799
			c2.111,10.449,3.725,20.963,6.198,31.343c1.987,8.342,4.141,18.26,9.992,24.857c4.286,4.835,11.332-2.265,7.07-7.07
			c-2.161-2.438-3.208-6.005-4.232-9.027c-1.709-5.043-2.945-10.25-4.121-15.438c-2.463-10.863-4.052-21.891-6.403-32.774
			c-5.842-27.03-15.695-53.005-22.775-79.708c-12.319-46.467-19.057-96.608-44.808-138.175
			C273.234,668.509,264.581,673.526,267.987,679.024L267.987,679.024z"/>
	</g>
</g>
<g>
	<path fill="#FFFF00" d="M392.517,249.023c14.285-10.989,29.67-30.769,21.978-49.451c-13.187-28.571-70.329-19.78-95.604-29.67
		c-30.769-10.989-61.538-38.462-45.055-73.626c16.483-36.264,65.935-35.165,100-38.461c46.154-4.396,140.659,5.494,127.473,72.527
		c-4.396,24.176-24.176,38.461-42.857,52.747c-24.176,17.583-36.264,43.956-58.241,63.736"/>
	<g>
		<path d="M396.052,252.559c17.386-13.63,35.678-40.369,19.009-61.455c-11.492-14.538-32.704-17.135-49.841-19.12
			c-19.152-2.217-37.791-2.683-55.411-11.355c-19.873-9.781-39.776-28.678-34.695-52.856c4.67-22.222,24.214-33.562,44.678-38.568
			c19.117-4.677,39.409-5.416,58.983-6.792c16.347-1.15,32.976-0.482,49.169,2.009c16.669,2.565,33.552,7.128,47.878,16.284
			c10.004,6.394,17.71,15.649,20.608,27.28c4.036,16.194-1.817,33.746-12.294,46.186c-13.266,15.75-32.001,25.511-45.971,40.563
			c-14.521,15.645-25.646,34.088-41.492,48.556c-4.772,4.357,2.319,11.409,7.07,7.071c19.772-18.052,32.593-42.319,53.06-59.691
			c18.999-16.126,40.915-29.004,48.3-54.488c4.778-16.489,2.83-35.05-7.61-48.948c-9.877-13.147-24.937-20.953-40.212-26.128
			c-33.268-11.271-67.976-9.475-102.361-6.751c-20.673,1.638-42.152,3.824-60.761,13.698c-18.962,10.062-32.303,31.551-29.52,53.341
			c2.702,21.155,19.778,36.847,37.602,46.563c16.141,8.8,32.918,11.068,50.931,12.798c16.503,1.585,35.672,2.351,49.688,12.264
			c20.984,14.843,0.07,41.532-13.878,52.468C383.909,249.464,391.039,256.488,396.052,252.559L396.052,252.559z"/>
	</g>
</g>
<g>
	<g>
		<path d="M337.077,120.452c0-0.274,0-0.549,0-0.824c0-6.448-10-6.448-10,0c0,0.275,0,0.55,0,0.824
			C327.077,126.901,337.077,126.901,337.077,120.452c0-0.274,0-0.549,0-0.824c0-6.448-10-6.448-10,0c0,0.275,0,0.55,0,0.824
			C327.077,126.901,337.077,126.901,337.077,120.452L337.077,120.452z"/>
	</g>
</g>
<g>
	<g>
		<path d="M369.439,123.254c6.448,0,6.448-10,0-10S362.991,123.254,369.439,123.254L369.439,123.254z"/>
	</g>
</g>
<g>
	<g>
		<path d="M412.297,123.254c6.448,0,6.448-10,0-10S405.849,123.254,412.297,123.254L412.297,123.254z"/>
	</g>
</g>
<g>
	<g>
		<path d="M438.066,122.65c0,0.366,0,0.733,0,1.099c0,2.726,2.274,5,5,5s5-2.274,5-5c0-0.366,0-0.733,0-1.099c0-2.726-2.274-5-5-5
			S438.066,119.924,438.066,122.65L438.066,122.65z"/>
	</g>
</g>
<g>
	<g>
		<path d="M277.132,405.468c59.043,0,118.087,0,177.13,0c1.935,0,1.935-3,0-3c-0.436,0-0.87,0-1.306,0c-1.935,0-1.935,3,0,3
			c0.436,0,0.87,0,1.306,0c1.935,0,1.935-3,0-3c-59.043,0-118.087,0-177.13,0C275.197,402.468,275.197,405.468,277.132,405.468
			L277.132,405.468z"/>
	</g>
</g>
<g>
	<g>
		<path d="M236.473,449.721c-14.652,0-29.304,0-43.956,0c-1.935,0-1.935,3,0,3c0.732,0,1.465,0,2.198,0c1.935,0,1.935-3,0-3
			c-38.828,0-77.656,0-116.484,0c-1.935,0-1.935,3,0,3c38.828,0,77.656,0,116.484,0c1.935,0,1.935-3,0-3c-0.732,0-1.465,0-2.198,0
			c-1.935,0-1.935,3,0,3c14.652,0,29.304,0,43.956,0C238.407,452.721,238.407,449.721,236.473,449.721L236.473,449.721z"/>
	</g>
</g>
<g>
	<g>
		<path d="M293.615,541.731c54.579,0,109.157,0,163.736,0c1.935,0,1.935-3,0-3c-6.228,0-12.454,0-18.682,0c-1.935,0-1.935,3,0,3
			c6.228,0,12.454,0,18.682,0c1.935,0,1.935-3,0-3c-54.579,0-109.157,0-163.736,0C291.681,538.731,291.681,541.731,293.615,541.731
			L293.615,541.731z"/>
	</g>
</g>
<g>
	<g>
		<path d="M247.461,673.896c-57.679,0-115.358,0-173.038,0c-1.935,0-1.935,3,0,3c0.17,0,0.34,0,0.51,0c1.935,0,1.935-3,0-3
			c-0.17,0-0.34,0-0.51,0c-1.935,0-1.935,3,0,3c57.679,0,115.358,0,173.038,0C249.396,676.896,249.396,673.896,247.461,673.896
			L247.461,673.896z"/>
	</g>
</g>
<g>
	<g>
		<path d="M85.429,395.177c1.112-8.299,16.096-26.119,23.996-14.55c2.797,4.096-0.23,10.26-2.26,13.979
			c-2.605,4.775-6.258,9.018-10.491,12.419c-5.027,4.041,2.096,11.069,7.071,7.071c11.015-8.853,24.927-30.525,10.766-42.577
			c-16.463-14.011-36.896,7.341-39.082,23.657C74.574,401.553,84.585,401.471,85.429,395.177L85.429,395.177z"/>
	</g>
</g>
<g>
	<g>
		<path d="M100.982,431.362c2.887,1.443,5.828,2.761,8.887,3.801c2.582,0.877,5.46-0.982,6.15-3.492
			c0.755-2.745-0.914-5.274-3.492-6.15c-0.725-0.247-1.443-0.504-2.159-0.776c-0.325-0.125-0.648-0.255-0.97-0.388
			c0.43,0.179,0.379,0.153-0.152-0.078c-1.088-0.484-2.152-1.02-3.217-1.552c-2.438-1.219-5.397-0.67-6.841,1.794
			C97.879,426.755,98.545,430.145,100.982,431.362L100.982,431.362z"/>
	</g>
</g>
<g>
	<g>
		<path d="M442.987,346.5c-2.194-4.988,3.142-11.327,6.401-14.401c5.212-4.914,12.84-6.264,18.714-1.641
			c10.026,7.89-11.106,21.975-17.574,23.634c-6.243,1.602-3.593,11.246,2.658,9.643c16.431-4.215,39.617-28.649,19.098-42.496
			c-18.004-12.149-46.903,9.912-37.932,30.308C436.944,357.438,445.558,352.344,442.987,346.5L442.987,346.5z"/>
	</g>
</g>
<g>
	<g>
		<path d="M451.253,379.792c0.246,2.856,1.907,4.978,4.735,5.702c1.846,0.472,3.87,0.396,5.759,0.396c2.726,0,5-2.275,5-5
			c0-2.726-2.274-5-5-5c-1.063,0-2.126,0.003-3.188-0.058c-1.381-0.08,0.817,0.167,0.088,0.019
			c-0.127-0.028-0.251-0.064-0.374-0.107c1.862,0.602,2.813,2.128,2.979,4.048c-0.234-2.714-2.097-5-5-5
			C453.705,374.792,451.019,377.073,451.253,379.792L451.253,379.792z"/>
	</g>
</g>
<g>
	<g>
		<path d="M429.206,485.057c-3.817-11.325,15.738-22.755,25.234-19.825c5.968,1.842,5.162,11.313,4.012,15.726
			c-1.579,6.06-5.826,12.544-12.32,13.793c-6.329,1.217-3.642,10.854,2.658,9.643c19.811-3.81,28.41-36.051,11.085-47.6
			c-8.342-5.561-20.976-0.189-28.124,4.808c-8.154,5.699-15.702,15.69-12.188,26.113
			C421.612,493.792,431.272,491.185,429.206,485.057L429.206,485.057z"/>
	</g>
</g>
<g>
	<g>
		<path d="M447.223,510.323c-1.717,1.78-2.479,3.944-1.996,6.395c0.42,2.13,2.267,3.8,4.107,4.755
			c2.42,1.255,5.413,0.644,6.841-1.794c1.324-2.261,0.623-5.587-1.794-6.841c-0.34-0.176-0.663-0.364-0.974-0.589
			c0.338,0.261,0.675,0.521,1.012,0.782c-0.182-0.146-0.347-0.296-0.501-0.472c0.261,0.337,0.521,0.675,0.782,1.012
			c-0.087-0.114-0.16-0.226-0.227-0.353c0.168,0.397,0.336,0.796,0.504,1.194c-0.049-0.118-0.083-0.229-0.108-0.354
			c0.06,0.443,0.119,0.886,0.179,1.329c-0.011-0.122-0.01-0.231,0.003-0.354c-0.06,0.443-0.119,0.887-0.178,1.33
			c0.025-0.124,0.06-0.236,0.105-0.354c-0.168,0.398-0.336,0.796-0.504,1.194c0.081-0.169,0.176-0.32,0.287-0.471
			c-0.261,0.337-0.521,0.675-0.782,1.012c0.1-0.123,0.204-0.239,0.313-0.354c1.891-1.961,1.953-5.118,0-7.07
			C452.394,508.423,449.113,508.361,447.223,510.323L447.223,510.323z"/>
	</g>
</g>
<g>
	<g>
		<path d="M81.766,620.213c-4.914-3.916-0.66-8.605,3.055-11.795c4.359-3.742,10.372-5.326,15.479-2.333
			c9.569,5.609,1.44,23.677-3.626,29.513c-4.207,4.845,2.836,11.948,7.071,7.07c10.427-12.009,17.863-38.726-1.325-46.656
			c-9.427-3.896-19.26,0.212-26.32,6.813c-7.038,6.58-9.794,17.772-1.404,24.458C79.683,631.259,86.809,624.23,81.766,620.213
			L81.766,620.213z"/>
	</g>
</g>
<g>
	<g>
		<path d="M100.209,660.616c0.732,0,1.465,0,2.198,0c2.726,0,5-2.274,5-5s-2.274-5-5-5c-0.732,0-1.465,0-2.198,0
			c-2.726,0-5,2.274-5,5S97.483,660.616,100.209,660.616L100.209,660.616z"/>
	</g>
</g>
<g>
	<g>
		<path d="M225.483,442.831c5.981,0.31,13.144,4.07,17.925,7.488c-0.102-0.786-0.203-1.571-0.304-2.356
			c-1.907,2.37-3.855,4.7-5.908,6.945c-0.905,0.991-4.23,5.198-5.819,4.757c-1.868-0.518-2.659,2.376-0.798,2.893
			c2.238,0.621,4.224-1.234,5.785-2.583c3.33-2.878,6.114-6.474,8.862-9.89c0.642-0.797,0.54-1.753-0.304-2.356
			c-5.184-3.706-12.958-7.561-19.438-7.897C223.549,439.73,223.559,442.731,225.483,442.831L225.483,442.831z"/>
	</g>
</g>
<g>
	<g>
		<path d="M281.565,394.116c-4.346,4.425-8,9.296-11.224,14.589c-0.432,0.71-0.148,1.631,0.538,2.053
			c2.464,1.515,4.121,3.975,6.594,5.495c1.653,1.016,3.159-1.58,1.514-2.591c-2.464-1.514-4.12-3.975-6.593-5.495
			c0.179,0.684,0.358,1.368,0.538,2.053c3.09-5.076,6.587-9.739,10.754-13.982C285.043,394.856,282.923,392.734,281.565,394.116
			L281.565,394.116z"/>
	</g>
</g>
<g>
	<g>
		<path d="M293.268,527.745c-1.43,5.648-5.014,10.051-9.504,13.624c-0.495,0.394-0.579,1.311-0.234,1.817
			c2.653,3.903,5.503,7.606,9.329,10.428c1.56,1.15,3.053-1.455,1.514-2.59c-3.393-2.503-5.904-5.897-8.253-9.352
			c-0.078,0.605-0.156,1.212-0.234,1.817c4.881-3.884,8.729-8.835,10.275-14.948C296.635,526.666,293.742,525.87,293.268,527.745
			L293.268,527.745z"/>
	</g>
</g>
<g>
	<g>
		<path d="M236.511,665.468c2.06,1.592,4.006,3.278,5.891,5.073c1.147,1.094,2.213,2.268,3.277,3.44
			c1.37,1.511,2.761,1.78,1.286,3.59c-1.682,2.064-4.903,6.616-7.594,7.368c-1.86,0.52-1.069,3.414,0.798,2.893
			c4.208-1.175,8.399-7.193,10.787-10.58c0.273-0.388,0.297-1.129,0-1.514c-3.599-4.658-7.662-8.79-12.323-12.392
			C237.122,662.18,234.981,664.286,236.511,665.468L236.511,665.468z"/>
	</g>
</g>
<g>
</g>
<g>
</g>
<g>
</g>
<g>
</g>
<g>
</g>
<g>
</g>
<g>
</g>
<g>
</g>
<g>
</g>
<g>
</g>
<g>
</g>
<g>
</g>
<g>
</g>
<g>
</g>
<g>
</g>
</svg>
