<?xml version="1.0" encoding="utf-8"?>
<!-- Generator: Adobe Illustrator 16.2.0, SVG Export Plug-In . SVG Version: 6.00 Build 0)  -->
<!DOCTYPE svg PUBLIC "-//W3C//DTD SVG 1.1//EN" "http://www.w3.org/Graphics/SVG/1.1/DTD/svg11.dtd">
<svg version="1.1" id="图层_1" xmlns="http://www.w3.org/2000/svg" xmlns:xlink="http://www.w3.org/1999/xlink" x="0px" y="0px"
	 width="560px" height="1180px" viewBox="0 0 560 1180" enable-background="new 0 0 560 1180" xml:space="preserve">
<g>
	<g>
		<path d="M155.668,379.632c-56.547-42.67-126.899,14.241-139.231,72.793c-3.076,14.604-2.671,30.076,2.559,44.142
			c5.736,15.426,16.93,27.671,30.668,36.469c34.396,22.027,78.864,25.085,113.583,2.353c28.068-18.378,46.224-51.032,45.67-84.708
			c-0.283-17.208-5.997-34.027-15.715-48.167c-5.92-8.614-13.331-16.952-21.531-23.441c-9.324-7.378-19.866-10.229-31.613-8.45
			c-6.359,0.963-3.647,10.598,2.658,9.643c13.093-1.982,22.873,5.718,31.333,14.717c7.263,7.725,13.481,15.981,18.007,25.601
			c7.575,16.101,8.588,34.729,4.437,51.875c-8.49,35.071-39.033,63.503-74.974,68.235c-21.412,2.819-42.197-2.997-61.04-12.938
			c-14.03-7.401-26.037-18.87-31.841-33.847c-10.91-28.153,0.664-60.518,18.552-83.079c12.282-15.491,28.778-28.294,47.96-33.771
			c19.619-5.602,39.346-0.96,55.47,11.208C155.773,392.154,160.748,383.464,155.668,379.632L155.668,379.632z"/>
	</g>
</g>
<g>
	<g>
		<path d="M109.129,558.799c3.081,10.589,1.352,21.689-0.444,32.355c-1.985,11.787-3.655,23.191-3.654,35.169
			c0.002,27.58,0.084,55.163,0.964,82.731c0.832,26.07,3.273,51.787,6.211,77.688c2.97,26.178,5.313,52.866,0.842,79.014
			c-1.079,6.306,8.557,9.005,9.643,2.658c4.428-25.89,2.761-51.951-0.066-77.917c-2.958-27.178-5.717-54.099-6.63-81.443
			c-0.92-27.565-0.958-55.153-0.964-82.731c-0.002-12.233,1.878-23.817,3.853-35.855c1.864-11.372,3.16-23.085-0.112-34.327
			C116.974,549.961,107.323,552.593,109.129,558.799L109.129,558.799z"/>
	</g>
</g>
<g>
	<g>
		<path d="M109.633,578.764c-26.573,35.76-44.986,77.565-59.293,119.544c-13.782,40.438-24.345,83.374-25.659,126.249
			c-0.198,6.452,9.803,6.433,10,0c1.272-41.534,11.668-82.894,24.806-122.124c13.97-41.716,32.431-83.163,58.78-118.622
			C122.12,578.628,113.433,573.65,109.633,578.764L109.633,578.764z"/>
	</g>
</g>
<g>
	<g>
		<path d="M113.951,601.598c15.619-0.539,28.301,17.463,36.29,28.607c11.45,15.975,20.716,33.409,30.103,50.636
			c9.667,17.742,21.266,34.38,33.166,50.691c15.372,21.07,32.245,41.373,52.378,58.08c6.886,5.714,14.197,10.919,21.917,15.444
			c5.575,3.269,10.605-5.377,5.047-8.635c-22.464-13.169-40.771-32.229-57.116-52.26c-14.758-18.086-29.028-37.611-40.845-57.771
			c-9.066-15.466-17.032-31.527-26.462-46.791c-9.672-15.656-20.84-32.489-36.595-42.633c-5.284-3.402-11.553-5.588-17.882-5.369
			C107.521,591.819,107.499,601.82,113.951,601.598L113.951,601.598z"/>
	</g>
</g>
<g>
	<g>
		<path d="M109.129,875.22c2.929,9.368-2.376,20.005-6.419,28.245c-4.837,9.858-10.787,19.12-15.687,28.943
			c-6.804,13.642-10.938,29.253-15.544,43.749c-4.86,15.298-9.273,30.735-13.581,46.196c-10.584,37.99-26.115,76.257-29.125,115.86
			c-0.624,8.206-0.856,18.795,4.429,25.7c3.862,5.047,12.555,0.076,8.635-5.047c-3.488-4.559-3.403-11.122-3.266-16.737
			c0.224-9.121,1.893-18.184,3.744-27.093c4.008-19.291,9.756-38.205,15.644-56.992c7.842-25.026,14.214-50.482,22.001-75.533
			c2.309-7.426,4.732-14.815,7.248-22.175c2.598-7.601,4.941-15.646,8.45-22.881c4.788-9.873,10.77-19.132,15.687-28.944
			c5.335-10.648,11.198-23.89,7.427-35.95C116.854,866.428,107.2,869.048,109.129,875.22L109.129,875.22z"/>
	</g>
</g>
<g>
	<g>
		<path d="M113.552,883.219c33.175,44.384,49.873,98.569,62.208,151.911c7.229,31.262,17.187,61.802,23.166,93.368
			c2.423,12.793,3.625,25.723,5.495,38.613c0.25,1.719,0.476,3.71,1.863,4.943c1.615,1.436,4.125,2.073,6.06,0.782
			c2.35-1.569,2.62-3.783,2.634-6.345c0.034-6.45-9.966-6.447-10,0c-0.006,1.095-0.445,2.039,0.057,0.674
			c0.766-0.996,1.532-1.992,2.298-2.988c-0.012,0.008-0.024,0.016-0.036,0.024c2.02,0.261,4.04,0.521,6.059,0.781
			c1.752,1.558,1.211,2.548,0.853,0.404c-0.162-0.97-0.274-1.828-0.378-2.624c-0.476-3.636-0.898-7.278-1.335-10.919
			c-0.855-7.116-1.609-14.28-2.904-21.333c-5.142-28.017-13.177-55.407-20.377-82.941c-7.084-27.093-13.132-54.295-22.234-80.828
			c-8.985-26.189-20.335-51.737-35.348-75.053c-2.977-4.623-6.153-9.114-9.444-13.518
			C118.375,873.071,109.687,878.048,113.552,883.219L113.552,883.219z"/>
	</g>
</g>
<g>
	<g>
		<path d="M544.776,505.17c15.807-29.41,12.194-65.762-7.368-92.535c-10.033-13.73-24.104-25.548-38.721-34.116
			c-15.723-9.217-33.96-13.252-51.82-8.688c-6.244,1.596-3.594,11.241,2.658,9.643c16.045-4.101,31.556,0.317,45.523,8.505
			c13.052,7.651,25.653,18.658,34.598,30.898c17.076,23.37,20.279,55.599,6.495,81.246
			C533.09,505.802,541.723,510.852,544.776,505.17L544.776,505.17z"/>
	</g>
</g>
<g>
	<g>
		<path d="M458.066,366.125c-51.296,2.614-100.385,41.774-102.481,95.386c-2.203,56.347,58.363,92.498,108.908,90.236
			c11.5-0.515,22.9-3.024,33.596-7.245c5.926-2.338,3.347-12.013-2.658-9.643c-47.435,18.72-114.174-2.934-128.054-55.973
			c-7.026-26.851,5.478-55.213,24.422-74.006c17.48-17.341,41.781-27.508,66.268-28.756
			C464.482,375.798,464.515,365.796,458.066,366.125L458.066,366.125z"/>
	</g>
</g>
<g>
	<g>
		<path d="M447.144,558.103c-0.114,52.091-9.093,103.582-12.723,155.445c-1.602,22.879-3.366,45.775-4.816,68.665
			c-1.405,22.163-1.419,45.267,5.874,66.506c2.081,6.062,11.742,3.458,9.643-2.658c-7.221-21.031-6.798-43.639-5.409-65.554
			c1.455-22.958,3.236-45.923,4.843-68.87c3.586-51.235,12.476-102.067,12.589-153.534
			C457.158,551.654,447.158,551.655,447.144,558.103L447.144,558.103z"/>
	</g>
</g>
<g>
	<g>
		<path d="M437.956,858.979c-14.723,19.256-24.312,42.18-33.56,64.408c-9.839,23.647-19.661,47.291-29.563,70.908
			c-22.641,54.006-34.723,111.599-49.329,168.092c-0.837,3.236-1.688,6.469-2.546,9.7c-1.671,6.291,7.564,8.7,9.643,2.658
			c0.658-1.913,1.316-3.827,1.975-5.74c2.104-6.115-7.558-8.719-9.643-2.658c-0.658,1.913-1.316,3.827-1.975,5.74
			c3.214,0.886,6.429,1.772,9.643,2.658c14.962-56.342,26.637-113.809,47.979-168.232c4.716-12.025,10.273-23.69,15.252-35.607
			c4.992-11.95,9.709-24.015,14.578-36.016c9.308-22.943,18.926-46.422,33.188-66.813c0.962-1.376,1.973-2.717,2.992-4.051
			C450.509,858.9,441.816,853.93,437.956,858.979L437.956,858.979z"/>
	</g>
</g>
<g>
	<g>
		<path d="M432.816,857.98c14.723,18.355,22.076,41.666,27.552,64.199c5.799,23.865,9.084,48.248,13.191,72.437
			c10.009,58.949,30.6,117.082,30.831,177.339c0.008,1.963,1.226,3.53,2.374,4.996c2.427,3.098,7.406,1.061,8.356-2.206
			c0.512-1.755,0.329-3.238,1.065-4.988c2.5-5.941-7.181-8.509-9.643-2.658c-0.49,0.896-0.793,1.848-0.91,2.859
			c0.112-0.541-0.595,3.64-0.155,2.129c2.786-0.735,5.571-1.472,8.357-2.207c1.148,1.467,0.493-3.37,0.492-3.405
			c-0.034-1.831-0.108-3.662-0.183-5.492c-0.148-3.677-0.409-7.348-0.701-11.016c-0.626-7.852-1.627-15.67-2.749-23.464
			c-2.243-15.565-5.428-30.985-8.806-46.339c-6.263-28.472-13.201-56.781-18.224-85.513c-4.213-24.097-7.473-48.354-12.966-72.213
			c-5.247-22.791-12.614-45.966-26.099-65.326c-1.483-2.13-3.091-4.178-4.715-6.202C435.852,845.879,428.823,853.003,432.816,857.98
			L432.816,857.98z"/>
	</g>
</g>
<g>
	<g>
		<path d="M443.699,580.244c-14.759,8.034-22.709,27.006-29.144,41.553c-8.226,18.597-14.57,37.943-22.553,56.635
			c-4.431,10.373-10.507,19.724-16.599,29.193c-8.728,13.564-17.933,26.821-27.412,39.869
			c-9.076,12.492-18.688,24.729-28.828,36.378c-3.382,3.884-6.439,6.674-10.785,9.349c-3.489,2.147-7.242,4.06-10.397,6.702
			c-2.116,1.773-3.556,4.87-1.914,7.483c1.835,2.924,4.932,3.059,8.023,2.648c6.296-0.836,6.378-10.847,0-10
			c-0.831,0.11-1.644,0.201-2.48,0.229c0.896,2.462,1.791,4.924,2.688,7.387c0.38-0.308,0.464-0.4,0.249-0.279
			c1.371-1.041,2.888-1.91,4.355-2.805c3.844-2.343,7.782-4.554,11.325-7.346c4.904-3.864,8.863-9.55,12.813-14.355
			c5.037-6.128,9.884-12.412,14.817-18.623c9.827-12.37,18.789-25.531,27.626-38.619c7.689-11.389,15.971-22.948,22.037-35.306
			c8.546-17.407,14.415-36.135,21.696-54.082c3.838-9.461,8.003-18.818,12.971-27.745c3.619-6.502,7.908-13.637,14.042-18.091
			c0.798-0.579,1.651-1.071,2.516-1.541C454.411,585.795,449.364,577.161,443.699,580.244L443.699,580.244z"/>
	</g>
</g>
<g>
	<g>
		<path d="M451.594,595.935c30.856,16.352,41.742,52.424,51.665,83.441c13.674,42.747,35.65,85.142,28.947,131.406
			c-0.914,6.305,8.721,9.021,9.643,2.658c3.521-24.298,0.078-48.331-6.515-71.817c-6.197-22.076-15.449-43.093-22.433-64.905
			c-10.743-33.554-22.949-71.766-56.261-89.418C450.947,584.283,445.894,592.914,451.594,595.935L451.594,595.935z"/>
	</g>
</g>
<g>
	<g>
		<path d="M494.011,466.37c-6.826,7.579-8.755,18.098-9.438,27.956c-0.909,13.137,1.114,26.626,4.45,39.309
			c5.525,21.004,18.343,50.161,42.726,53.985c6.307,0.989,9.015-8.646,2.658-9.643c-20.921-3.281-30.919-29.257-35.741-47
			c-2.99-11.004-4.52-22.415-4.226-33.821c0.2-7.798,1.193-17.665,6.641-23.714C505.384,468.664,498.335,461.569,494.011,466.37
			L494.011,466.37z"/>
	</g>
</g>
<g>
	<g>
		<path d="M537.438,511.736c1.688,11.69-2.976,23.097-6.724,33.924c-3.953,11.418-6.705,22.858-4.431,34.938
			c1.192,6.333,10.829,3.643,9.643-2.658c-2.201-11.694,2.136-23.041,5.925-33.922c3.99-11.458,6.991-22.744,5.229-34.94
			C546.162,502.716,536.527,505.432,537.438,511.736L537.438,511.736z"/>
	</g>
</g>
<g>
	<g>
		<path d="M494.243,472.963c16.752,5.696,33.781,14.527,41.255,31.491c2.595,5.89,11.209,0.796,8.635-5.047
			c-8.495-19.284-28.217-29.621-47.231-36.086C490.779,461.238,488.173,470.899,494.243,472.963L494.243,472.963z"/>
	</g>
</g>
<g>
	<path fill="#FF0000" d="M274.091,525.593c1.5-20.999-23.999-31.499-34.499-47.998c-23.999-41.998,37.498-73.497,52.498-28.499
		c8.999-34.499,55.497-9,40.498,22.499c-10.5,22.499-44.998,34.499-55.498,56.997"/>
	<g>
		<path d="M279.091,525.593c1.475-31.766-48.299-41.143-38.907-74.525c2.842-10.1,12.101-17.104,22.177-18.788
			c12.197-2.039,21.233,7.567,24.908,18.146c1.578,4.544,8.253,4.983,9.643,0c2.639-9.463,10.115-15.714,20.001-11.462
			c9.209,3.96,15.034,13.874,13.332,23.844c-2.416,14.149-16.253,24-26.841,32.134c-11.479,8.819-24.116,17.759-30.63,31.127
			c-2.813,5.771,5.81,10.844,8.634,5.047c14.032-28.793,63.88-38.96,58.653-77.283c-1.67-12.241-12.213-22.783-24.02-25.579
			c-14.196-3.361-25.12,6.412-28.772,19.514c3.214,0,6.429,0,9.643,0c-4.896-14.093-15.428-25.049-30.977-25.632
			c-13.083-0.491-25.593,7.589-32.112,18.606c-8,13.519-5.18,31.287,4.277,43.298c9.998,12.699,31.844,23.187,30.991,41.553
			C268.792,532.042,278.793,532.014,279.091,525.593L279.091,525.593z"/>
	</g>
</g>
<g>
</g>
<g>
</g>
<g>
</g>
<g>
</g>
<g>
</g>
<g>
</g>
<g>
</g>
<g>
</g>
<g>
</g>
<g>
</g>
<g>
</g>
<g>
</g>
<g>
</g>
<g>
</g>
<g>
</g>
</svg>
