<?xml version="1.0" encoding="utf-8"?>
<!-- Generator: Adobe Illustrator 16.2.0, SVG Export Plug-In . SVG Version: 6.00 Build 0)  -->
<!DOCTYPE svg PUBLIC "-//W3C//DTD SVG 1.0//EN" "http://www.w3.org/TR/2001/REC-SVG-20010904/DTD/svg10.dtd">
<svg version="1.0" id="图层_1" xmlns="http://www.w3.org/2000/svg" xmlns:xlink="http://www.w3.org/1999/xlink" x="0px" y="0px"
	 width="560px" height="1180px" viewBox="0 0 560 1180" enable-background="new 0 0 560 1180" xml:space="preserve">
<g>
	<g>
		<path d="M155.668,379.632c-56.547-42.67-126.899,14.241-139.231,72.793c-3.076,14.604-2.671,30.076,2.559,44.142
			c5.736,15.426,16.93,27.671,30.668,36.469c34.396,22.027,78.864,25.085,113.583,2.353c28.068-18.378,46.224-51.032,45.67-84.708
			c-0.283-17.208-5.997-34.027-15.715-48.167c-5.92-8.614-13.331-16.952-21.531-23.441c-9.324-7.378-19.866-10.229-31.613-8.45
			c-6.359,0.963-3.647,10.598,2.658,9.643c13.093-1.982,22.873,5.718,31.333,14.717c7.263,7.725,13.481,15.981,18.007,25.601
			c7.575,16.101,8.588,34.729,4.437,51.875c-8.49,35.071-39.033,63.503-74.974,68.235c-21.412,2.819-42.197-2.997-61.04-12.938
			c-14.03-7.401-26.037-18.87-31.841-33.847c-10.91-28.153,0.664-60.518,18.552-83.079c12.282-15.491,28.778-28.294,47.96-33.771
			c19.619-5.602,39.346-0.96,55.47,11.208C155.773,392.154,160.748,383.464,155.668,379.632L155.668,379.632z"/>
	</g>
</g>
<g>
	<g>
		<path d="M109.129,558.799c3.081,10.589,1.352,21.689-0.444,32.355c-1.985,11.787-3.655,23.191-3.654,35.169
			c0.002,27.58,0.084,55.163,0.964,82.731c0.832,26.07,3.273,51.787,6.211,77.688c2.97,26.178,5.313,52.866,0.842,79.014
			c-1.079,6.306,8.557,9.005,9.643,2.658c4.428-25.89,2.761-51.951-0.066-77.917c-2.958-27.178-5.717-54.099-6.63-81.443
			c-0.92-27.565-0.958-55.153-0.964-82.731c-0.002-12.233,1.878-23.817,3.853-35.855c1.864-11.372,3.16-23.085-0.112-34.327
			C116.974,549.961,107.323,552.593,109.129,558.799L109.129,558.799z"/>
	</g>
</g>
<g>
	<g>
		<path d="M109.633,578.764c-26.573,35.76-44.986,77.565-59.293,119.544c-13.782,40.438-24.345,83.374-25.659,126.249
			c-0.198,6.452,9.803,6.433,10,0c1.272-41.534,11.668-82.894,24.806-122.124c13.97-41.716,32.431-83.163,58.78-118.622
			C122.12,578.628,113.433,573.65,109.633,578.764L109.633,578.764z"/>
	</g>
</g>
<g>
	<g>
		<path d="M113.951,601.598c15.619-0.539,28.301,17.463,36.29,28.607c11.45,15.975,20.716,33.409,30.103,50.636
			c9.667,17.742,21.266,34.38,33.166,50.691c15.372,21.07,32.245,41.373,52.378,58.08c6.886,5.714,14.197,10.919,21.917,15.444
			c5.575,3.269,10.605-5.377,5.047-8.635c-22.464-13.169-40.771-32.229-57.116-52.26c-14.758-18.086-29.028-37.611-40.845-57.771
			c-9.066-15.466-17.032-31.527-26.462-46.791c-9.672-15.656-20.84-32.489-36.595-42.633c-5.284-3.402-11.553-5.588-17.882-5.369
			C107.521,591.819,107.499,601.82,113.951,601.598L113.951,601.598z"/>
	</g>
</g>
<g>
	<g>
		<path d="M109.129,875.22c2.929,9.368-2.376,20.005-6.419,28.245c-4.837,9.858-10.787,19.12-15.687,28.943
			c-6.804,13.642-10.938,29.253-15.544,43.749c-4.86,15.298-9.273,30.735-13.581,46.196c-10.584,37.99-26.115,76.257-29.125,115.86
			c-0.624,8.206-0.856,18.795,4.429,25.7c3.862,5.047,12.555,0.076,8.635-5.047c-3.488-4.559-3.403-11.122-3.266-16.737
			c0.224-9.121,1.893-18.184,3.744-27.093c4.008-19.291,9.756-38.205,15.644-56.992c7.842-25.026,14.214-50.482,22.001-75.533
			c2.309-7.426,4.732-14.815,7.248-22.175c2.598-7.601,4.941-15.646,8.45-22.881c4.788-9.873,10.77-19.132,15.687-28.944
			c5.335-10.648,11.198-23.89,7.427-35.95C116.854,866.428,107.2,869.048,109.129,875.22L109.129,875.22z"/>
	</g>
</g>
<g>
	<g>
		<path d="M113.552,883.219c33.175,44.384,49.873,98.569,62.208,151.911c7.229,31.262,17.187,61.802,23.166,93.368
			c2.423,12.793,3.625,25.723,5.495,38.613c0.25,1.719,0.476,3.71,1.863,4.943c1.615,1.436,4.125,2.073,6.06,0.782
			c2.35-1.569,2.62-3.783,2.634-6.345c0.034-6.45-9.966-6.447-10,0c-0.006,1.095-0.445,2.039,0.057,0.674
			c0.766-0.996,1.532-1.992,2.298-2.988c-0.012,0.008-0.024,0.016-0.036,0.024c2.02,0.261,4.04,0.521,6.059,0.781
			c1.752,1.558,1.211,2.548,0.853,0.404c-0.162-0.97-0.274-1.828-0.378-2.624c-0.476-3.636-0.898-7.278-1.335-10.919
			c-0.855-7.116-1.609-14.28-2.904-21.333c-5.142-28.017-13.177-55.407-20.377-82.941c-7.084-27.093-13.132-54.295-22.234-80.828
			c-8.985-26.189-20.335-51.737-35.348-75.053c-2.977-4.623-6.153-9.114-9.444-13.518
			C118.375,873.071,109.687,878.048,113.552,883.219L113.552,883.219z"/>
	</g>
</g>
<g>
	<g>
		<path d="M544.776,505.17c15.807-29.41,12.194-65.762-7.368-92.535c-10.033-13.73-24.104-25.548-38.721-34.116
			c-15.723-9.217-33.96-13.252-51.82-8.688c-6.244,1.596-3.594,11.241,2.658,9.643c16.045-4.101,31.556,0.317,45.523,8.505
			c13.052,7.651,25.653,18.658,34.598,30.898c17.076,23.37,20.279,55.599,6.495,81.246
			C533.09,505.802,541.723,510.852,544.776,505.17L544.776,505.17z"/>
	</g>
</g>
<g>
	<g>
		<path d="M458.066,366.125c-51.296,2.614-100.385,41.774-102.481,95.386c-2.203,56.347,58.363,92.498,108.908,90.236
			c11.5-0.515,22.9-3.024,33.596-7.245c5.926-2.338,3.347-12.013-2.658-9.643c-47.435,18.72-114.174-2.934-128.054-55.973
			c-7.026-26.851,5.478-55.213,24.422-74.006c17.48-17.341,41.781-27.508,66.268-28.756
			C464.482,375.798,464.515,365.796,458.066,366.125L458.066,366.125z"/>
	</g>
</g>
<g>
	<g>
		<path d="M447.144,558.103c-0.114,52.091-9.093,103.582-12.723,155.445c-1.602,22.879-3.366,45.775-4.816,68.665
			c-1.405,22.163-1.419,45.267,5.874,66.506c2.081,6.062,11.742,3.458,9.643-2.658c-7.221-21.031-6.798-43.639-5.409-65.554
			c1.455-22.958,3.236-45.923,4.843-68.87c3.586-51.235,12.476-102.067,12.589-153.534
			C457.158,551.654,447.158,551.655,447.144,558.103L447.144,558.103z"/>
	</g>
</g>
<g>
	<g>
		<path d="M437.956,858.979c-14.723,19.256-24.312,42.18-33.56,64.408c-9.839,23.647-19.661,47.291-29.563,70.908
			c-22.641,54.006-34.723,111.599-49.329,168.092c-0.837,3.236-1.688,6.469-2.546,9.7c-1.671,6.291,7.564,8.7,9.643,2.658
			c0.658-1.913,1.316-3.827,1.975-5.74c2.104-6.115-7.558-8.719-9.643-2.658c-0.658,1.913-1.316,3.827-1.975,5.74
			c3.214,0.886,6.429,1.772,9.643,2.658c14.962-56.342,26.637-113.809,47.979-168.232c4.716-12.025,10.273-23.69,15.252-35.607
			c4.992-11.95,9.709-24.015,14.578-36.016c9.308-22.943,18.926-46.422,33.188-66.813c0.962-1.376,1.973-2.717,2.992-4.051
			C450.509,858.9,441.816,853.93,437.956,858.979L437.956,858.979z"/>
	</g>
</g>
<g>
	<g>
		<path d="M432.816,857.98c14.723,18.355,22.076,41.666,27.552,64.199c5.799,23.865,9.084,48.248,13.191,72.437
			c10.009,58.949,30.6,117.082,30.831,177.339c0.008,1.963,1.226,3.53,2.374,4.996c2.427,3.098,7.406,1.061,8.356-2.206
			c0.512-1.755,0.329-3.238,1.065-4.988c2.5-5.941-7.181-8.509-9.643-2.658c-0.49,0.896-0.793,1.848-0.91,2.859
			c0.112-0.541-0.595,3.64-0.155,2.129c2.786-0.735,5.571-1.472,8.357-2.207c1.148,1.467,0.493-3.37,0.492-3.405
			c-0.034-1.831-0.108-3.662-0.183-5.492c-0.148-3.677-0.409-7.348-0.701-11.016c-0.626-7.852-1.627-15.67-2.749-23.464
			c-2.243-15.565-5.428-30.985-8.806-46.339c-6.263-28.472-13.201-56.781-18.224-85.513c-4.213-24.097-7.473-48.354-12.966-72.213
			c-5.247-22.791-12.614-45.966-26.099-65.326c-1.483-2.13-3.091-4.178-4.715-6.202C435.852,845.879,428.823,853.003,432.816,857.98
			L432.816,857.98z"/>
	</g>
</g>
<g>
	<g>
		<path d="M443.699,580.244c-14.759,8.034-22.709,27.006-29.144,41.553c-8.226,18.597-14.57,37.943-22.553,56.635
			c-4.431,10.373-10.507,19.724-16.599,29.193c-8.728,13.564-17.933,26.821-27.412,39.869
			c-9.076,12.492-18.688,24.729-28.828,36.378c-3.382,3.884-6.439,6.674-10.785,9.349c-3.489,2.147-7.242,4.06-10.397,6.702
			c-2.116,1.773-3.556,4.87-1.914,7.483c1.835,2.924,4.932,3.059,8.023,2.648c6.296-0.836,6.378-10.847,0-10
			c-0.831,0.11-1.644,0.201-2.48,0.229c0.896,2.462,1.791,4.924,2.688,7.387c0.38-0.308,0.464-0.4,0.249-0.279
			c1.371-1.041,2.888-1.91,4.355-2.805c3.844-2.343,7.782-4.554,11.325-7.346c4.904-3.864,8.863-9.55,12.813-14.355
			c5.037-6.128,9.884-12.412,14.817-18.623c9.827-12.37,18.789-25.531,27.626-38.619c7.689-11.389,15.971-22.948,22.037-35.306
			c8.546-17.407,14.415-36.135,21.696-54.082c3.838-9.461,8.003-18.818,12.971-27.745c3.619-6.502,7.908-13.637,14.042-18.091
			c0.798-0.579,1.651-1.071,2.516-1.541C454.411,585.795,449.364,577.161,443.699,580.244L443.699,580.244z"/>
	</g>
</g>
<g>
	<g>
		<path d="M451.594,595.935c30.856,16.352,41.742,52.424,51.665,83.441c13.674,42.747,35.65,85.142,28.947,131.406
			c-0.914,6.305,8.721,9.021,9.643,2.658c3.521-24.298,0.078-48.331-6.515-71.817c-6.197-22.076-15.449-43.093-22.433-64.905
			c-10.743-33.554-22.949-71.766-56.261-89.418C450.947,584.283,445.894,592.914,451.594,595.935L451.594,595.935z"/>
	</g>
</g>
<g>
	<g>
		<path d="M494.011,466.37c-6.826,7.579-8.755,18.098-9.438,27.956c-0.909,13.137,1.114,26.626,4.45,39.309
			c5.525,21.004,18.343,50.161,42.726,53.985c6.307,0.989,9.015-8.646,2.658-9.643c-20.921-3.281-30.919-29.257-35.741-47
			c-2.99-11.004-4.52-22.415-4.226-33.821c0.2-7.798,1.193-17.665,6.641-23.714C505.384,468.664,498.335,461.569,494.011,466.37
			L494.011,466.37z"/>
	</g>
</g>
<g>
	<g>
		<path d="M537.438,511.736c1.688,11.69-2.976,23.097-6.724,33.924c-3.953,11.418-6.705,22.858-4.431,34.938
			c1.192,6.333,10.829,3.643,9.643-2.658c-2.201-11.694,2.136-23.041,5.925-33.922c3.99-11.458,6.991-22.744,5.229-34.94
			C546.162,502.716,536.527,505.432,537.438,511.736L537.438,511.736z"/>
	</g>
</g>
<g>
	<g>
		<path d="M494.243,472.963c16.752,5.696,33.781,14.527,41.255,31.491c2.595,5.89,11.209,0.796,8.635-5.047
			c-8.495-19.284-28.217-29.621-47.231-36.086C490.779,461.238,488.173,470.899,494.243,472.963L494.243,472.963z"/>
	</g>
</g>
<g>
	<path fill="#FF0000" d="M274.091,525.593c1.5-20.999-23.999-31.499-34.499-47.998c-23.999-41.998,37.498-73.497,52.498-28.499
		c8.999-34.499,55.497-9,40.498,22.499c-10.5,22.499-44.998,34.499-55.498,56.997"/>
	<g>
		<path d="M279.091,525.593c1.475-31.766-48.299-41.143-38.907-74.525c2.842-10.1,12.101-17.104,22.177-18.788
			c12.197-2.039,21.233,7.567,24.908,18.146c1.578,4.544,8.253,4.983,9.643,0c2.639-9.463,10.115-15.714,20.001-11.462
			c9.209,3.96,15.034,13.874,13.332,23.844c-2.416,14.149-16.253,24-26.841,32.134c-11.479,8.819-24.116,17.759-30.63,31.127
			c-2.813,5.771,5.81,10.844,8.634,5.047c14.032-28.793,63.88-38.96,58.653-77.283c-1.67-12.241-12.213-22.783-24.02-25.579
			c-14.196-3.361-25.12,6.412-28.772,19.514c3.214,0,6.429,0,9.643,0c-4.896-14.093-15.428-25.049-30.977-25.632
			c-13.083-0.491-25.593,7.589-32.112,18.606c-8,13.519-5.18,31.287,4.277,43.298c9.998,12.699,31.844,23.187,30.991,41.553
			C268.792,532.042,278.793,532.014,279.091,525.593L279.091,525.593z"/>
	</g>
</g>
<g>
	<g>
		<path d="M272.896,252.515c6.344-1.439,12.886-1.082,19.348-1.091c5.129-0.007,10.209-0.589,15.342-0.573
			c7.578,0.023,18.217,1.019,24.132-4.752c4.622-4.51-2.454-11.576-7.07-7.071c-1.846,1.801-6.198,1.588-8.578,1.717
			c-4.226,0.228-8.466,0.063-12.695,0.123c-4.898,0.069-9.761,0.572-14.677,0.553c-6.214-0.023-12.372,0.072-18.459,1.453
			C263.949,244.298,266.616,253.939,272.896,252.515L272.896,252.515z"/>
	</g>
</g>
<g>
	<g>
		<path d="M263.766,251.303c4.824,19.564-5.908,41.854,7.095,59.617c9.137,12.481,26.839,18.591,41.875,16.147
			c7.466-1.213,14.375-4.79,18.961-10.91c6.21-8.289,7.075-18.856,6.966-28.875c-0.092-8.356-0.329-16.792-0.655-25.146
			c-0.262-6.675-0.357-15.678-5.298-20.828c-4.471-4.661-11.533,2.419-7.07,7.071c3.01,3.138,2.325,12.073,2.452,16.159
			c0.203,6.531,0.219,13.044,0.483,19.578c0.35,8.647,0.328,17.649-4.28,25.261c-3.108,5.134-9.305,7.556-15.021,8.11
			c-11.855,1.149-25.971-4.282-31.95-14.993c-4.329-7.754-3.51-17.735-3.005-26.248c0.549-9.26,1.337-18.49-0.91-27.601
			C271.865,242.386,262.221,245.042,263.766,251.303L263.766,251.303z"/>
	</g>
</g>
<g>
	<g>
		<path d="M273.056,269.225c17.885-0.035,35.75-1.098,53.635-1.14c6.448-0.015,6.449-10.015,0-10
			c-17.885,0.042-35.75,1.105-53.635,1.14C266.608,259.238,266.607,269.238,273.056,269.225L273.056,269.225z"/>
	</g>
</g>
<g>
	<g>
		<path d="M273.553,285.187c17.774,0.397,36.241-5.834,53.797-1.318c6.25,1.608,8.899-8.037,2.658-9.643
			c-18.65-4.798-37.631,1.381-56.455,0.961C267.1,275.043,267.114,285.043,273.553,285.187L273.553,285.187z"/>
	</g>
</g>
<g>
	<g>
		<path d="M278.358,299.261c16.215-3.256,32.957-0.485,49.327-0.391c6.45,0.037,6.446-9.963,0-10
			c-17.367-0.1-34.771-2.708-51.985,0.749C269.38,290.887,272.063,300.525,278.358,299.261L278.358,299.261z"/>
	</g>
</g>
<g>
	<path fill="#FFFF00" d="M268.587,247.409c-21.354,1.075-29.302-34.929-35.261-50.513c-10.925-28.482-9.932-65.561,16.886-81.682
		c27.314-16.659,69.031-19.883,91.876,5.374c21.852,24.72,16.389,60.724,9.932,90.818c-2.483,10.749-9.932,29.556-19.864,35.466"/>
	<g>
		<path d="M268.587,242.409c-8.688,0.202-13.923-7.123-17.763-14.001c-4.556-8.158-7.337-17.213-10.287-26.034
			c-3.21-9.599-6.777-18.878-8.081-28.999c-1.406-10.92-0.704-22.038,2.937-32.461c7.495-21.462,31.976-31.111,52.924-33.334
			c23.56-2.5,46.553,6.142,57.797,27.88c9.172,17.732,7.343,39.66,4.192,58.663c-1.486,8.966-3.204,17.916-6.326,26.469
			c-2.837,7.774-7.117,17.335-14.348,21.963c-5.412,3.464-0.402,12.122,5.047,8.635c9.355-5.988,14.486-16.666,18.455-26.656
			c4.251-10.699,6.09-22.373,7.744-33.711c3.514-24.07,3.007-50.332-12.503-70.408c-14.17-18.34-37.708-24.853-60.059-22.834
			c-21.337,1.927-44.872,10.888-57.085,29.337c-7.387,11.159-9.696,25.236-9.394,38.382c0.305,13.3,4.184,25.445,8.435,37.885
			c6.138,17.962,14.069,49.789,38.315,49.225C275.025,252.26,275.04,242.259,268.587,242.409L268.587,242.409z"/>
	</g>
</g>
<g>
	<path fill="#FFFF00" d="M288.451,239.713c-3.973-13.112-3.467-27.934-5.95-41.045l1.499-1.71v0.57l-0.505,1.14
		c-1.49-10.261-22.85-16.532-21.36-27.934c0.994-7.41,10.924-7.98,14.4-6.27c8.442,3.42,6.952,10.261,14.897,1.71
		c9.436-9.122,3.477-3.421,12.912,2.28c8.442,4.561,6.951-7.411,12.91-9.121c14.9-4.56,7.946,22.803,4.968,29.644
		c-7.45,18.243-5.961,33.064-5.961,53.017"/>
	<g>
		<path d="M293.272,238.384c-3.845-13.369-3.516-27.419-5.959-41.045c-0.429,1.622-0.857,3.243-1.286,4.865
			c0.497-0.57,0.994-1.14,1.49-1.71c-2.845-1.179-5.69-2.357-8.535-3.536c0,1.373,1.051-2.801,0.187-0.813
			c3.046,0.398,6.093,0.796,9.139,1.194c-1.579-7.953-9.437-12.687-15.212-17.49c-2.072-1.723-5.632-4.384-6.013-7.31
			c-0.478-3.666,4.167-4.272,6.827-3.713c3.215,0.675,5.35,3.771,8.001,5.455c3.827,2.433,7.839,0.136,10.839-2.361
			c1.957-1.629,3.66-3.627,5.529-5.365c2.498-2.324-5.463-3.528-4.155-1.47c0.399,0.629,0.796,1.243,1.232,1.848
			c2.598,3.6,7.224,7.546,11.932,7.532c3.78-0.011,6.349-1.944,8.362-5c1.701-2.582,1.765-5.61,4.951-5.636
			c2.113-0.018-0.009,12.926-0.362,14.541c-1.916,8.755-5.918,16.756-7.521,25.638c-2.26,12.515-1.483,25.34-1.456,37.984
			c0.014,6.448,10.014,6.449,10,0c-0.03-13.975-0.915-28.041,2.466-41.73c2.1-8.501,5.932-16.091,7.172-24.85
			c0.996-7.041,1.333-15.763-5.284-20.21c-2.955-1.985-7.316-1.601-10.458-0.397c-4.099,1.571-5.845,5.269-7.744,8.916
			c0.161-0.31-0.468,0.944-0.549,1.001c1.112-0.779,0.225-0.442-1.301-1.439c-1.385-0.907-2.233-2.344-3.094-3.699
			c-2.438-3.84-6.571-3.861-9.902-1.24c-2.102,1.653-3.999,3.596-5.851,5.519c-1.906,1.98-2.216,0.73,0.24,1.783
			c-0.306-0.131-0.992-0.812-1.252-1.047c-3.523-3.197-7.375-5.239-12.083-5.87c-9.162-1.229-18.49,6.38-16.248,16.011
			c2.045,8.785,10.852,13.554,17.102,19.13c1.943,1.733,3.671,3.52,4.188,6.127c0.799,4.025,7.42,5.144,9.139,1.194
			c0.614-1.412,1.179-2.657,1.179-4.233c0-4.143-5.591-6.915-8.536-3.536c-1.766,2.026-3.3,3.653-2.776,6.575
			c0.83,4.627,1.31,9.285,1.75,13.962c0.858,9.113,1.669,18.253,4.208,27.083C285.408,247.228,295.059,244.595,293.272,238.384
			L293.272,238.384z"/>
	</g>
</g>
<g>
	<g>
		<path d="M270.573,252.124c10.166-0.078,20.311-1.338,30.479-1.101c9.718,0.227,18.842,3.547,28.459,0.353
			c6.089-2.022,3.479-11.682-2.658-9.643c-8.379,2.783-17.267-0.165-25.801-0.71c-10.096-0.645-20.369,1.023-30.479,1.101
			C264.127,242.173,264.123,252.173,270.573,252.124L270.573,252.124z"/>
	</g>
</g>
<g>
	<g>
		<path d="M186.11,254.938c12.726-3.351,25.536-7.736,36.579-15.041c5.352-3.54,0.349-12.204-5.047-8.635
			c-10.38,6.865-22.231,10.883-34.19,14.033C177.221,246.936,179.867,256.582,186.11,254.938L186.11,254.938z"/>
	</g>
</g>
<g>
	<g>
		<path d="M178.077,213.643c9.443,0.19,18.277-2.947,27.402-4.881c6.307-1.337,3.632-10.976-2.658-9.643
			c-8.241,1.747-16.221,4.695-24.744,4.524C171.625,203.513,171.637,213.514,178.077,213.643L178.077,213.643z"/>
	</g>
</g>
<g>
	<g>
		<path d="M171,165.33c10.877,0.123,21.589,2.065,32.404,2.993c6.428,0.552,6.375-9.453,0-10
			c-10.815-0.928-21.527-2.871-32.404-2.993C164.549,155.257,164.556,165.257,171,165.33L171,165.33z"/>
	</g>
</g>
<g>
	<g>
		<path d="M181.641,124.106c6.139-1.542,13.453,4.046,18.868,6.337c5.866,2.481,10.968-6.13,5.047-8.635
			c-8.378-3.544-17.044-9.739-26.573-7.345C172.731,116.034,175.384,125.678,181.641,124.106L181.641,124.106z"/>
	</g>
</g>
<g>
	<g>
		<path d="M201.731,85.624c4.804,5.832,10.483,10.714,16.389,15.392c2.135,1.69,4.979,2.092,7.071,0c1.76-1.76,2.14-5.376,0-7.071
			c-5.906-4.677-11.584-9.56-16.389-15.392c-1.735-2.106-5.284-1.787-7.071,0C199.667,80.617,200,83.522,201.731,85.624
			L201.731,85.624z"/>
	</g>
</g>
<g>
	<g>
		<path d="M236.575,68.025c2.627,6.899,5.188,13.806,7.077,20.951c1.647,6.229,11.293,3.583,9.643-2.658
			c-1.889-7.145-4.449-14.051-7.077-20.951C243.946,59.402,234.276,61.988,236.575,68.025L236.575,68.025z"/>
	</g>
</g>
<g>
	<g>
		<path d="M275.878,59c0.773,6.853,1.833,13.669,2.608,20.522c0.716,6.333,10.724,6.402,10,0
			c-0.774-6.853-1.835-13.669-2.607-20.522C285.164,52.667,275.156,52.598,275.878,59L275.878,59z"/>
	</g>
</g>
<g>
	<g>
		<path d="M312.932,58.099c-3.144,7.864-3.152,17.063-1.863,25.318c0.992,6.356,10.628,3.648,9.643-2.658
			c-1.021-6.536-0.602-13.834,1.863-20.002C324.97,54.764,315.294,52.187,312.932,58.099L312.932,58.099z"/>
	</g>
</g>
<g>
	<g>
		<path d="M357.627,70.925c-3.109,8.378-8.634,15.599-10.801,24.37c-1.547,6.261,8.097,8.917,9.643,2.658
			c2.144-8.676,7.704-16.027,10.801-24.37C369.519,67.525,359.85,64.935,357.627,70.925L357.627,70.925z"/>
	</g>
</g>
<g>
	<g>
		<path d="M384.948,101.797c-3.854,6.8-9.846,12.868-16.457,17.018c-5.446,3.419-0.432,12.074,5.047,8.635
			c8.032-5.042,15.357-12.334,20.045-20.606C396.767,101.226,388.127,96.188,384.948,101.797L384.948,101.797z"/>
	</g>
</g>
<g>
	<g>
		<path d="M401.397,150.379c-8.806-2.609-17.017,3.663-25.54,4.524c-6.353,0.642-6.415,10.648,0,10
			c4.127-0.417,7.979-1.624,11.914-2.882c3.226-1.032,7.554-3.011,10.968-1.999C404.938,161.858,407.565,152.207,401.397,150.379
			L401.397,150.379z"/>
	</g>
</g>
<g>
	<g>
		<path d="M401.186,186.969c-7.526-0.085-14.582-1.475-21.764-3.669c-6.184-1.89-8.807,7.764-2.658,9.643
			c7.998,2.444,16.044,3.932,24.422,4.026C407.637,197.042,407.63,187.042,401.186,186.969L401.186,186.969z"/>
	</g>
</g>
<g>
	<g>
		<path d="M399.507,241.877c-9.487-8.148-21.062-13.881-33.121-17.105c-6.238-1.668-8.882,7.979-2.658,9.643
			c10.34,2.765,20.549,7.525,28.709,14.534C397.301,253.126,404.407,246.086,399.507,241.877L399.507,241.877z"/>
	</g>
</g>
<g>
</g>
<g>
</g>
<g>
</g>
<g>
</g>
<g>
</g>
<g>
</g>
<g>
</g>
<g>
</g>
<g>
</g>
<g>
</g>
<g>
</g>
<g>
</g>
<g>
</g>
<g>
</g>
<g>
</g>
</svg>
