<?xml version="1.0" encoding="utf-8"?>
<!-- Generator: Adobe Illustrator 16.2.0, SVG Export Plug-In . SVG Version: 6.00 Build 0)  -->
<!DOCTYPE svg PUBLIC "-//W3C//DTD SVG 1.0//EN" "http://www.w3.org/TR/2001/REC-SVG-20010904/DTD/svg10.dtd">
<svg version="1.0" xmlns="http://www.w3.org/2000/svg" xmlns:xlink="http://www.w3.org/1999/xlink" x="0px" y="0px" width="560px"
	 height="960px" viewBox="0 0 560 960" enable-background="new 0 0 560 960" xml:space="preserve">
<g id="图层_2">
	<g>
		<g>
			<path fill="#FFFF00" d="M103,291c26.096,0.582,52.24,1.582,78.215,4.263c26.499,2.736,52.792,6.462,79.496,6.203
				c26.337-0.255,52.61-2.521,78.909-3.744c12.832-0.597,25.678-0.897,38.523-0.672c6.38,0.112,12.754,0.42,19.119,0.868
				c3.173,0.224,6.341,0.525,9.505,0.849c1.897,0.194,3.79,0.427,5.683,0.661c-6.796-0.838-0.315-0.008,0.904,0.179
				c0-16.071,0-32.143,0-48.214c-1.234,0.184-2.471,0.36-3.708,0.53c6.867-0.963,0.438-0.094-0.816,0.056
				c-3.13,0.375-6.267,0.692-9.403,0.999c-6.323,0.619-12.662,1.082-19.002,1.499c-13.406,0.881-26.835,1.399-40.255,2.011
				c-27.05,1.232-53.926,3.752-80.844,6.638c-12.964,1.39-25.923,2.819-38.891,4.173c-14.107,1.473-28.139,1.661-42.177,4.062
				c-5.713,0.977-11.233,2.823-16.903,4.014c-1.066,0.215-2.136,0.41-3.21,0.586c7.353-1.272,1.824-0.255,0.189-0.108
				c-3.435,0.309-6.892,0.271-10.333,0.148c-1.219-0.099-2.437-0.216-3.652-0.353c-6.162-0.644,5.727,0.825-0.196,0.008
				c-4.379-0.604-8.758-1.225-13.152-1.718c-7.963-0.893-15.78,0.032-23.646,1.456c4.431,16.071,8.861,32.143,13.292,48.214
				c4.425-1.73,8.987-2.879,13.645-3.787c1.013-0.19,2.028-0.367,3.046-0.531c5.607-0.94-6.085,0.727-0.37,0.019
				c3.2-0.396,6.416-0.667,9.63-0.916c11.988-0.927,24.053-1.125,36.068-1.455c27.571-0.758,55.156-0.894,82.736-0.929
				c27.047-0.034,54.081-0.066,81.075,1.871c12.664,0.909,25.239,2.526,37.854,3.922c1.787,0.198,10.921,1.43,2.755,0.286
				c3.197,0.448,6.373,1.018,9.534,1.665c2.579,0.529,5.121,1.207,7.645,1.952c1.459,0.431,2.886,0.956,4.31,1.486
				c-6.792-2.53-2.255-0.914-0.691-0.103c4.206-15.529,8.412-31.058,12.618-46.587c-3.146-0.043-6.264-0.248-9.396-0.552
				c-1.271-0.134-2.539-0.28-3.807-0.441c6.763,0.819,0.284,0.042-0.928-0.125c-8.097-1.109-16.024-1.738-24.183-2.056
				c-13.093-0.509-26.203-0.515-39.298-0.073c-27.94,0.942-55.613,5.189-83.067,10.277c-25.813,4.784-51.495,10.283-77.508,13.918
				c7.072-0.988-3.261,0.371-4.814,0.551c-3.156,0.365-6.333,0.617-9.497,0.91c-6.228,0.577-12.428,0.771-18.659,0.157
				c6.646,0.654-1.167-0.335-2.64-0.618c-2.516-0.482-5.027-0.968-7.558-1.369c-8.989-1.423-17.371-2.212-26.292,0.313
				C102.14,304.425,94.5,314.319,94.5,325.5c0,13.585,11.372,25.057,25,25c25.875-0.107,51.723-3.235,77.551-4.602
				c25.829-1.366,51.698-1.834,77.557-2.196c26.024-0.364,51.624,1.074,77.442,4.427c-7.006-0.91,3.375,0.476,4.909,0.694
				c3.21,0.457,6.416,0.933,9.622,1.411c7.083,1.057,14.172,2.046,21.277,2.937c1.037,0.129,2.073,0.26,3.109,0.393
				c5.686,0.723-6.038-0.857-0.324-0.027c2.638,0.383,5.26,0.851,7.874,1.366c2.539,0.5,5.042,1.148,7.526,1.867
				c1.426,0.413,2.818,0.925,4.208,1.444c-6.833-2.553-2.475-0.992-0.871-0.127c1.991-15.231,3.981-30.463,5.972-45.694
				c-2.358,0.888-4.73,1.571-7.191,2.116c-1.013,0.208-2.03,0.388-3.054,0.539c7.494-1.216,1.987-0.368,0.317-0.252
				c-5.991,0.415-12.033,0.098-18.019-0.259c-12.84-0.768-25.687-1.468-38.522-2.307c-28.062-1.834-56.101-4.187-84.239-4.374
				c-29.057-0.193-58.044,2.562-86.396,9.013c-26.232,5.969-51.855,14.392-78.396,19.023C89.042,337.78,81.5,349.693,81.5,360
				c0,13.701,11.374,24.903,25,25c54.777,0.389,109.561,0.145,164.319-1.43c26.83-0.771,53.67-2.518,80.515-2.542
				c6.22-0.005,12.438,0.178,18.647,0.527c3.094,0.174,6.182,0.438,9.267,0.732c1.844,0.176,3.683,0.4,5.521,0.625
				c-6.938-0.85-0.638-0.027,0.659,0.185c13.394,2.188,26.665,5.626,39.925,8.509c0-16.071,0-32.143,0-48.214
				c-2.795,0.461-2.375,0.438,1.262-0.069c-1.211,0.146-2.424,0.269-3.64,0.37c-3.063,0.283-6.145,0.36-9.218,0.413
				c-5.574,0.096-11.153-0.168-16.719-0.436c-12.116-0.582-24.234-0.992-36.356-1.433c-24.892-0.906-49.816-1.61-74.683,0.262
				c-25.385,1.911-50.521,5.469-75.67,9.36c-5.714,0.884-11.429,1.767-17.148,2.623c-3.171,0.475-6.345,0.933-9.521,1.382
				c-2.86,0.396-2.538,0.356,0.966-0.118c-1.86,0.245-3.724,0.467-5.588,0.684c-5.5,0.639-11.017,0.982-16.554,0.926
				c-1.217-0.025-2.433-0.077-3.647-0.157c-1.406-0.077-7.466-1.074-0.626,0.027c-3.089-0.497-6.099-1.364-9.067-2.333
				c-12.957-4.229-27.268,4.792-30.753,17.461c-3.742,13.604,4.518,26.529,17.461,30.753c25.993,8.484,53.936,2.166,80.144-1.855
				c12.086-1.854,24.162-3.765,36.273-5.448c2.853-0.39,2.553-0.349-0.9,0.121c1.916-0.252,3.834-0.49,5.752-0.727
				c3.197-0.395,6.399-0.75,9.603-1.091c6.412-0.684,12.839-1.206,19.275-1.607c24.925-1.552,49.737-1.163,74.683-0.262
				c25.914,0.936,52.257,3.881,77.964-0.631C449.457,389.709,457,377.815,457,367.5c0-10.656-7.569-21.762-18.354-24.107
				c-13.278-2.886-26.539-6.174-39.926-8.509c-14.424-2.516-29.028-3.637-43.654-3.833c-26.748-0.358-53.548,1.584-80.277,2.401
				c-56.077,1.713-112.19,1.946-168.289,1.547c2.215,16.369,4.431,32.738,6.646,49.107c25.926-4.524,51.026-12.567,76.604-18.608
				c5.978-1.411,11.991-2.661,18.031-3.768c3.034-0.556,6.082-1.032,9.133-1.483c-6.904,1.02-0.559,0.099,0.73-0.05
				c1.927-0.223,3.859-0.41,5.789-0.603c14.339-1.431,28.769-1.821,43.171-1.725c28.13,0.187,56.189,2.655,84.242,4.488
				c12.725,0.832,25.461,1.515,38.19,2.276c13.078,0.782,27.214,0.64,39.608-4.027c8.379-3.155,14.984-8.46,17.461-17.461
				c2.893-10.519-1.674-22.946-11.489-28.233c-10.665-5.745-21.977-8.391-33.853-10.042c-4.298-0.597-8.601-1.161-12.906-1.701
				c-1.015-0.126-2.03-0.254-3.045-0.383c-5.485-0.692,6.125,0.869,0.832,0.105c-7.06-1.018-14.105-2.116-21.17-3.095
				c-27.984-3.875-55.812-6.545-84.086-6.174c-26.498,0.348-52.997,0.808-79.468,2.079c-27.127,1.303-54.256,4.684-81.422,4.797
				c2.215,16.369,4.431,32.738,6.646,49.107c2.561-0.652,1.682-0.618-2.637,0.104c1.454-0.174,2.942-0.085,4.398-0.025
				c2.715,0.248,2.03,0.117-2.053-0.391c1.539,0.211,3.066,0.51,4.593,0.794c6.904,1.284,13.793,2.476,20.794,3.166
				c13.926,1.371,28.7-1.46,42.458-3.332c25.392-3.453,50.477-8.708,75.643-13.47c12.567-2.378,25.167-4.579,37.83-6.377
				c2.848-0.393,2.534-0.352-0.941,0.125c1.903-0.249,3.81-0.475,5.716-0.7c3.18-0.376,6.366-0.696,9.554-1
				c6.457-0.615,12.958-0.902,19.437-1.172c13.085-0.546,26.191-0.492,39.278-0.071c3.29,0.106,6.577,0.256,9.864,0.416
				c1.652,0.081,12.035,1.162,4.881,0.182c8.48,1.162,16.965,2.526,25.54,2.646c24.259,0.336,34.976-34.99,12.618-46.587
				c-13.063-6.776-26.567-9.24-40.978-11.156c-12.638-1.681-25.349-3.139-38.047-4.267c-28.189-2.505-56.484-2.505-84.759-2.485
				c-28.892,0.02-57.786,0.168-86.669,0.933c-12.558,0.333-25.148,0.611-37.676,1.58c-12.555,0.971-25.811,2.253-37.635,6.876
				c-12.68,4.958-21.36,16.577-17.461,30.753c3.853,14.008,17.356,19.885,30.753,17.461c2.875-0.498,2.464-0.46-1.233,0.114
				c1.687-0.179,3.388-0.182,5.082-0.188c2.713-0.011,5.427,0.284,8.119,0.586c2.743,0.346,2.159,0.263-1.753-0.249
				c3.333,0.458,6.667,0.924,10.004,1.351c2.978,0.38,5.946,0.737,8.947,0.845c13.778,0.494,26.701-3.366,39.992-6.159
				c1.164-0.232,2.332-0.442,3.503-0.632c6.141-1.05-5.751,0.648,0.464-0.045c2.979-0.333,5.971-0.54,8.96-0.745
				c6.551-0.45,13.106-0.705,19.64-1.387c13.623-1.422,27.236-2.934,40.855-4.389c26.258-2.806,52.474-5.105,78.859-6.307
				c28.313-1.29,56.485-2.701,84.563-6.794C437.466,298.029,445,285.571,445,275.5c0-10.134-7.535-22.447-18.354-24.107
				c-27.661-4.245-55.242-4.965-83.165-3.838c-26.967,1.088-53.871,3.433-80.864,3.886c-26.686,0.448-53.004-3.12-79.474-5.974
				c-26.602-2.868-53.407-3.871-80.144-4.467c-13.628-0.304-25,11.602-25,25C78,279.858,89.378,290.696,103,291L103,291z"/>
		</g>
	</g>
	<g>
		<g>
			<path fill="#FFFF00" d="M58.393,258.146c0.401,1.7,1.828,11.366,0.932,3.835c0.354,2.974,0.502,5.972,0.633,8.962
				c0.265,6.052,0.156,12.121,0.17,18.177c0.014,5.991,0.194,11.97,0.807,17.932c0.333,2.804,0.701,5.604,1.106,8.399
				c0.19,1.346,1.042,7.426,0.184,0.392c0.362,2.968,0.282,5.987,0.177,8.967c-0.206,5.823-0.976,11.594-0.96,17.43
				c0.017,6.016,1.196,12.021,1.842,17.988c0.332,3.067,0.427,6.133,0.35,9.215c-0.227,2.833-0.14,2.47,0.26-1.09
				c-0.243,1.49-0.593,2.971-0.873,4.455c-1.273,6.752-1.812,12.936-1.021,19.691c0.809,6.905,2.216,12.572,7.322,17.678
				c6.424,6.424,15.602,8.597,24.324,6.429c7.771-1.931,13.442-6.613,20.236-10.346c-6.167,3.388-2.154,0.902-0.338,0.236
				c1.542-0.565,3.128-0.989,4.713-1.411c1.603-0.426,7.187-1.023-0.082-0.23c2.16-0.235,8.773,0.872,1.249-0.469
				c1.777,0.317,6.254,2.579-0.236-0.417c1.368,0.631,2.696,1.368,4.034,2.06c4.154,2.147,8.532,4.1,13.06,5.297
				c10.934,2.891,21.581,0.142,32.363-1.792c-6.945,1.246-1.125,0.313,0.425,0.234c1.8-0.091,3.607-0.043,5.408-0.003
				c3.657,0.081,7.308,0.477,10.939,0.894c6.35,0.729-5.656-0.808,0.685,0.08c1.831,0.256,3.661,0.519,5.491,0.775
				c5.833,0.817,11.67,1.632,17.538,2.167c15.705,1.433,31.533,1.414,47.253,2.822c1.882,0.169,3.761,0.368,5.639,0.569
				c1.251,0.134,7.692,0.96,0.83,0.034c5.463,0.737,10.907,1.48,16.396,1.99c8.416,0.78,16.88,0.976,25.327,1.034
				c16.155,0.11,32.304-0.559,48.456,0.005c16.688,0.583,32.61,4.585,49.137,0.13c3.125-0.842,6.199-1.841,9.342-2.624
				c1.657-0.413,7.029-0.768-0.011-0.142c1.658-0.147,3.321-0.144,4.984-0.137c7.575,0.031,15.114,1.453,22.659,1.996
				c13.058,0.938,24.969-1.669,35.093-10.149c7.329-6.139,11.414-15.535,14.435-24.335c2.659-7.745,4.144-16.106,5.128-24.196
				c1.289-10.6-0.941-21.222-2.806-31.633c-0.196-1.103-0.382-2.208-0.557-3.314c0.473,3.835,0.546,4.344,0.221,1.528
				c-0.277-2.461-0.231-4.937-0.189-7.409c0.085-4.975,0.669-9.942,1.21-14.882c1.209-11.036,1.831-21.114-1.192-32.015
				c-0.555-1.999-1.178-3.979-1.735-5.977c-0.273-1.005-0.516-2.017-0.728-3.037c0.421,4.085,0.517,4.751,0.29,1.998
				c0.063-2.732-0.13-2.116-0.579,1.849c0.741-2.866,0.392-2.219-1.051,1.941c0.715-1.36,1.748-2.579,2.576-3.872
				c4.748-7.413,5.468-16.661,3.761-25.068c-0.353-1.739-0.902-3.358-1.541-5.012c-1.134-2.931-5.744-13.71-1.871-4.42
				c-13.929,8.108-27.856,16.216-41.785,24.324c-1.633-2.685-3.266-5.37-4.898-8.055c0-4.431,0-8.861,0-13.292
				c0.633-1.353,1.266-2.705,1.898-4.057c2.872-3.412,3.366-4.211,1.481-2.396c5.366-4.854,2.668-2.085,1.078-0.965
				c-11.112,7.836-16.3,21.69-8.969,34.205c6.445,11.002,23.048,16.836,34.205,8.969c6.277-4.427,10.902-8.319,15.377-14.578
				c7.954-11.123,3.488-26.007-4.817-35.187c-7.481-8.269-20.966-9.374-30.296-3.909c-8.754,5.128-15.733,18.051-11.489,28.233
				c1.108,2.659,2.223,5.315,3.365,7.959c-3.137-7.258-1.126-2.628-0.55-0.959c0.119,0.417,0.239,0.835,0.358,1.253
				c-0.738-2.804-0.755-5.608-0.05-8.413c1.243-5.528,2.047-4.473,0.305-1.98c-6.827,9.768-7.361,21.85-5.293,33.189
				c0.563,3.082,1.417,6.063,2.309,9.063c0.439,1.477,0.843,2.958,1.22,4.451c1.346,5.319-0.362-6.126-0.039-0.705
				c0.467,7.838-1.377,16.092-2.099,23.887c-0.843,9.111-0.05,17.583,1.304,26.631c0.491,3.285,1.148,6.546,1.718,9.818
				c1.003,5.773-0.637-5.983,0.015-0.142c0.249,2.228,0.291,4.464,0.277,6.703c-0.009,1.507-0.939,7.169,0.16,0.453
				c-0.168,1.027-0.456,2.054-0.679,3.07c-0.497,2.272-1.01,4.539-1.569,6.796c-0.586,2.369-1.29,4.703-2.082,7.011
				c-1.54,4.487,2.66-5.803,0.708-1.57c-0.633,1.371-1.418,2.655-2.248,3.911c3.982-6.025,2.802-3.469,1.142-1.874
				c1.151-0.887,2.304-1.774,3.455-2.662c-2.154,1.25-1.067,0.862,3.261-1.163c-1.603,0.642-5.133,0.619,1.316,0.009
				c-1.689,0.16-3.396,0.134-5.091,0.124c-7.595-0.047-15.146-1.462-22.711-2.001c-8.326-0.593-16.824,0.566-24.854,2.751
				c-3.07,0.836-6.091,1.817-9.184,2.572c-5.36,1.307,6.176-0.353-0.016-0.063c-2.381,0.112-4.782-0.129-7.148-0.355
				c-15.713-1.498-31.109-2.615-46.925-2.503c-16.216,0.115-32.424,0.583-48.62-0.5c-1.952-0.131-3.9-0.31-5.849-0.491
				c-1.33-0.123-10.088-1.229-3.018-0.274c-5.961-0.805-11.909-1.568-17.897-2.138c-9.476-0.9-18.991-1.364-28.496-1.832
				c-8.684-0.427-17.367-0.707-26.001-1.776c6.98,0.865,0.636,0.073-0.661-0.11c-4.045-0.574-8.093-1.129-12.144-1.659
				c-4.857-0.636-9.709-1.153-14.604-1.36c-5.85-0.248-11.592,0.458-17.375,1.301c-1.763,0.257-3.503,0.569-5.25,0.919
				c-1.541,0.308-9.586,1.446-2.104,0.616c-1.928,0.214-7.029-0.71-0.175,0.512c-1.006-0.228-1.992-0.526-2.956-0.895
				c3.623,1.578,4.236,1.791,1.839,0.638c-5.099-2.54-10.209-5.221-15.742-6.684c-10.536-2.786-22.275-1.288-32.464,2.111
				c-4.926,1.643-9.838,3.656-14.281,6.35c-1.775,1.076-3.472,2.292-5.214,3.419c-0.832,0.531-1.686,1.024-2.561,1.48
				c3.891-1.44,4.61-1.82,2.158-1.14c10.549,8.036,21.097,16.071,31.646,24.107c-0.282-2.409-0.506-4.796-0.517-7.222
				c0.012-0.761,0.054-1.52,0.128-2.277c-0.645,8.403-0.52,3.857-0.124,1.758c1.429-7.574,2.499-14.995,1.964-22.694
				c-0.42-6.045-1.566-12.013-1.951-18.064c-0.407-6.387,0.56-12.821,0.901-19.19c0.16-2.997,0.069-5.979-0.177-8.967
				c-0.338-2.834-0.71-5.664-1.118-8.489c-0.265-1.416-1.036-7.418-0.172-0.302c-0.793-6.54-0.796-13.173-0.811-19.75
				c-0.032-14.263-0.221-28.473-3.517-42.448c-3.128-13.262-17.99-20.972-30.753-17.461
				C62.361,231.104,55.268,244.894,58.393,258.146L58.393,258.146z"/>
		</g>
	</g>
	<g>
		<g>
			<path fill="#FFFF00" d="M453.146,219.893c-11.994-4.496-25.641-3.127-38.146-2.393c-9.283,0.545-18.431,1.716-27.646,2.956
				c-6.546,0.88,5.557-0.733-0.99,0.127c-1.906,0.25-3.816,0.478-5.727,0.7c-3.723,0.433-7.452,0.719-11.194,0.909
				c-14.611,0.74-29.271,0.34-43.885-0.085c-1.782-0.052-3.56-0.106-5.34-0.21c-6.181-0.36,5.686,0.959-0.429-0.008
				c-3.512-0.556-6.998-1.239-10.519-1.741c-10.532-1.502-20.571-2.1-30.917,1.246c-12.954,4.189-21.196,17.176-17.461,30.753
				c3.492,12.696,17.786,21.655,30.753,17.461c1.164-0.419,2.35-0.761,3.559-1.026c-6.146,1.557-1.59,0.209,0.41,0.162
				c1.755-0.042,3.516,0.14,5.26,0.302c-7.098-0.657-1.1-0.104,0.355,0.144c8.075,1.375,16.127,2.675,24.327,2.918
				c14.027,0.417,28.063,0.706,42.091,0.165c6.915-0.267,13.767-1.038,20.624-1.939c3.489-0.458,6.977-0.936,10.465-1.406
				c-6.744,0.909-0.202,0.044,0.99-0.105c3.809-0.479,7.626-0.85,11.454-1.126c5.536-0.399,11.107-0.715,16.655-0.9
				c3.076-0.102,6.148-0.03,9.217,0.189c5.432,0.389-6.072-1.102-0.957-0.045c1.291,0.267,2.526,0.707,3.757,1.168
				c12.774,4.788,27.385-5.215,30.754-17.461C474.468,236.611,465.895,224.671,453.146,219.893L453.146,219.893z"/>
		</g>
	</g>
	<g>
		<g>
			<path fill="#FFFF00" d="M297.646,259.107c-7.518,1.302-3.167,0.433-1.101,0.44c2.685,0.186,1.896,0.027-2.364-0.477
				c0.973,0.156,1.939,0.343,2.9,0.561c4.028,0.846,7.944,2.268,11.823,3.62c9.012,3.143,17.564,5.511,27.183,6.213
				c9.506,0.694,19.158,0.478,28.692,0.984c9.735,0.517,19.468,1.017,29.22,1.052c13.629,0.048,25-11.409,25-25
				c0-13.665-11.373-24.952-25-25c-9.752-0.035-19.484-0.533-29.22-1.052c-10.015-0.534-20.128-0.359-30.115-1.088
				c7.56,0.552,2.8,0.331,0.862-0.101c-1.992-0.444-3.946-1.063-5.893-1.674c-3.999-1.254-7.924-2.746-11.898-4.074
				c-11.029-3.687-21.933-4.602-33.383-2.618c-13.441,2.328-20.806,18.592-17.46,30.753
				C270.767,255.727,284.231,261.431,297.646,259.107L297.646,259.107z"/>
		</g>
	</g>
	<g>
		<g>
			<path fill="#FFFF00" d="M286.646,215.893c-11.589-1.674-21.472-1.283-33.025,0.307c-4.295,0.59-8.572,1.293-12.856,1.95
				c-6.313,0.968,5.853-0.641-0.654,0.052c-2.507,0.267-5.01,0.577-7.512,0.883c-17.33,2.12-34.262,2.916-51.714,2.952
				c-17.702,0.037-35.407-0.107-53.071-1.373c-8.49-0.608-16.502-0.729-24.996,0.026c-1.771,0.157-3.53,0.305-5.308,0.337
				c4.186,0.695,4.953,0.725,2.302,0.088c-0.937-0.283-1.867-0.587-2.792-0.91c-4.583-1.548-9.695-2.748-14.521-2.206
				c-6.895,0.774-12.589,2.234-17.678,7.322C60.155,229.99,57.5,236.396,57.5,243c0,13.072,11.381,25.734,25,25
				c22.616-1.22,45.175,2.016,67.793,1.063c11.735-0.495,23.292-1.567,35.066-1.393c11.717,0.173,23.42,0.797,35.141,0.831
				c13.628,0.039,25-11.402,25-25c0-13.658-11.373-24.96-25-25c-11.07-0.032-22.129-0.545-33.195-0.794
				c-11.774-0.265-23.35,0.477-35.083,1.252c-23.236,1.536-46.469-2.212-69.722-0.958c0,16.667,0,33.333,0,50
				c4.779-0.537-6.377-1.66-1.479-0.449c1.385,0.343,2.744,0.88,4.094,1.336c5.034,1.7,10.508,2.374,15.795,1.965
				c8.461-0.652,16.475-1.035,24.949-0.339c17.642,1.448,35.374,1.54,53.064,1.526c16.808-0.014,33.237-0.417,49.936-2.49
				c9.628-1.195,19.266-2.247,28.854-3.752c1.839-0.289,3.678-0.579,5.518-0.86c2.831-0.409,2.457-0.363-1.123,0.138
				c1.22-0.147,2.441-0.274,3.665-0.38c1.808-0.173,3.622-0.236,5.436-0.289c1.644-0.048,9.607,0.779,2.147-0.299
				c6.984,1.009,12.915,1.199,19.264-2.52c5.588-3.274,9.77-8.692,11.489-14.941C307.375,234.766,300.157,217.845,286.646,215.893
				L286.646,215.893z"/>
		</g>
	</g>
	<g>
		<g>
			<path fill="#FFFF00" d="M102.146,433.107c1.614-0.463,3.213-0.847,4.86-1.172c-7.065,1.395-1.673,0.25,0.021,0.119
				c3.457-0.268,6.936-0.288,10.4-0.397c8.062-0.255,16.095-0.929,24.136-1.531c16.077-1.204,32.181-0.206,48.286-0.554
				c32.406-0.701,65.079-3.43,97.435-0.23c6.439,0.637-5.585-0.841,0.752,0.072c1.818,0.262,3.635,0.542,5.453,0.812
				c5.215,0.774,10.442,1.5,15.689,2.01c9.634,0.936,19.149-0.7,28.658-2.12c3.639-0.543,7.267-1.158,10.899-1.739
				c1.818-0.291,3.64-0.563,5.463-0.83c-6.945,1.018-0.714,0.129,0.611-0.016c3.351-0.367,6.739-0.65,10.108-0.46
				c-7.198-0.407-3.383-0.416-1.224,0.187c1.791,0.5,7.875,3.183,0.298-0.106c8.664,3.761,15.644,6.684,25.021,7.775
				c7.38,0.859,15.334-1.045,22.669-1.916c7.625-0.905,15.255-1.751,22.909-2.368c5.278-0.426,10.518-1.177,15.755-1.956
				c6.248-0.929-5.705,0.59,0.555-0.027c2.485-0.245,9.364,0.945,1.31-0.581c2.482,0.47,5.075,1.255,7.456,2.09
				c10.487,3.677,22.862-2.32,28.233-11.489c6.216-10.612,3.102-21.282-3.909-30.296c-1.462-1.879-3.829-3.145-5.872-4.472
				c-11.441-7.431-27.564-2.367-34.205,8.969c-7.132,12.175-2.437,26.797,8.969,34.205c-1.416-1.116-2.831-2.231-4.247-3.347
				c8.108-13.928,16.216-27.856,24.324-41.785c-7.02-2.461-14.636-3.78-22.059-3.295c-5.24,0.342-10.454,1.309-15.646,2.081
				c7.032-1.045,0.676-0.198-0.663-0.098c-2.548,0.19-5.093,0.432-7.637,0.677c-7.649,0.735-15.277,1.695-22.908,2.598
				c-3.651,0.432-7.305,0.883-10.967,1.208c-2.112,0.188-6.427-0.905,1.279,0.463c-1.719-0.305-3.383-0.921-5.014-1.521
				c-4.7-1.729,5.708,2.495,1.103,0.449c-2.789-1.238-5.599-2.417-8.417-3.593c-2.52-1.05-5.032-1.943-7.695-2.556
				c-10.609-2.438-21.017-0.768-31.61,0.709c-7.278,1.015-14.512,2.311-21.786,3.349c7.104-1.015,0.633-0.144-0.722-0.024
				c-1.849,0.164-3.711,0.146-5.565,0.136c-1.827-0.01-3.653-0.163-5.474-0.305c-1.209-0.108-2.416-0.235-3.621-0.381
				c3.635,0.507,4.043,0.559,1.224,0.157c-17.534-2.526-34.681-3.921-52.39-4.001c-16.32-0.074-32.607,0.487-48.914,1.081
				c-16.306,0.594-32.528,0.317-48.831,0.335c-15.393,0.017-30.815,1.906-46.206,2.451c-7.225,0.256-14.628,1.02-21.586,3.017
				c-13.089,3.757-21.104,17.509-17.461,30.753C74.975,428.668,89.053,436.865,102.146,433.107L102.146,433.107z"/>
		</g>
	</g>
	<g>
		<g>
			<path fill="#FFFF00" d="M477.679,413.329c0.741,2.419-0.367,5.122-0.569,7.58c-0.295,3.585,1.676,6.93,4.355,9.127
				c2.588,2.122,5.927,1.839,7.853-1.012c3.627-5.368,4.604-11.569,2-17.547c-1.09-2.5-4.7-3.048-6.841-1.794
				c-2.556,1.497-2.883,4.342-1.794,6.841c1.071,2.458-0.674,5.49-2,7.453c2.617-0.337,5.235-0.675,7.853-1.012
				c-1.848-1.515-1.53-1.754-1.094-3.984c0.552-2.816,0.731-5.531-0.12-8.31C485.438,404.524,475.783,407.147,477.679,413.329
				L477.679,413.329z"/>
		</g>
	</g>
	<g>
		<g>
			<path fill="#FFFF00" d="M63,409.5c0.051,4.498,0.635,8.955,1.679,13.329c1.327,5.559,9.821,4.259,9.821-1.329c0-3.5,0-7,0-10.5
				c0-5.54-8.645-6.953-9.821-1.329c-1.039,4.965-0.257,9.825-0.179,14.829c3.106-0.841,6.211-1.683,9.317-2.523
				c-1.172-1.721-2.385-3.464-3.782-5.012c-2.488-2.755-7.521-1.362-8.357,2.207c-0.764,3.26,0.157,8.857,4.821,8.329
				c3.621-0.41,7.545-0.709,11.171-0.179c2.694,0.395,5.362-0.625,6.15-3.492c0.655-2.379-0.791-5.755-3.492-6.15
				c-4.597-0.673-9.212-0.702-13.829-0.179c1.179,0.488,2.357,0.977,3.536,1.464c-0.058-0.049-0.116-0.099-0.174-0.148
				c0.488,1.178,0.977,2.357,1.464,3.536c-0.106-0.815-0.244,0.498-0.005-0.523c-2.786,0.735-5.571,1.471-8.357,2.207
				c0.833,0.922,1.52,1.963,2.218,2.988c2.679,3.933,9.399,2.725,9.317-2.523c-0.063-3.98-1.001-8.239-0.179-12.171
				c-3.274-0.443-6.547-0.886-9.821-1.329c0,3.5,0,7,0,10.5c3.274-0.443,6.547-0.886,9.821-1.329
				c-0.845-3.541-1.28-7.03-1.321-10.671C72.927,403.056,62.927,403.049,63,409.5L63,409.5z"/>
		</g>
	</g>
	<g>
		<g>
			<path fill="#FFFF00" d="M68.821,226.329c0.754-2.042,1.536-3.968,1.679-6.329c-3.333,0-6.667,0-10,0
				c0.517,4.153,1.876,7.438,5.289,10.005c3.299,2.482,8.089,1.371,11.234-0.688c2.276-1.489,3.224-4.4,1.794-6.841
				c-1.325-2.261-4.558-3.288-6.841-1.794c-0.725,0.474-0.935,0.616-1.513,0.778c0.507-0.051,0.471-0.07-0.109-0.058
				c0.335,0.007,1.318,0.478,0.481-0.033c0.397,0.242,0.212,0.068,0.008-0.289c0.411,0.718-0.415-1.648-0.344-1.082
				c-0.336-2.704-2.02-5-5-5c-2.85,0-4.836,2.28-5,5c-0.076,1.26-0.884,2.487-1.321,3.671c-0.945,2.559,1.033,5.474,3.492,6.15
				C65.468,230.591,67.878,228.884,68.821,226.329L68.821,226.329z"/>
		</g>
	</g>
	<g>
		<g>
			<path fill="#FFFF00" d="M476.5,228.5c1.73,0.018,2.511,0.034,4.011,0.405c0.317,0.085,0.631,0.184,0.94,0.296
				c-0.476-0.21-0.461-0.189,0.045,0.061c0.483,0.317,0.49,0.294,0.02-0.066c0.204,0.174,0.395,0.361,0.571,0.563
				c-0.37-0.496-0.404-0.507-0.104-0.035c-0.214-0.585-0.228-0.603-0.041-0.053c0.12,0.563,0.143,0.557,0.067-0.018
				c0.03,0.323,0.044,0.646,0.041,0.971c0.021,1.233-0.365,2.463-0.872,4.047c-1.97,6.16,7.687,8.775,9.643,2.658
				c1.555-4.86,1.979-10.157-1.414-14.333c-3.041-3.744-8.403-4.45-12.907-4.496C470.049,218.435,470.055,228.435,476.5,228.5
				L476.5,228.5z"/>
		</g>
	</g>
</g>
<g id="图层_1">
	<g>
		<g>
			<path d="M21.583,180.495c0,122.413,0,244.827,0,367.24c0,129.64,0,259.28,0,388.92c0,7.304,0,14.608,0,21.912
				c0,6.448,10,6.448,10,0c0-130.089,0-260.178,0-390.267c0-122.955,0-245.909,0-368.864c0-6.313,0-12.627,0-18.941
				C31.583,174.046,21.583,174.046,21.583,180.495L21.583,180.495z"/>
		</g>
	</g>
	<g>
		<g>
			<path d="M27.681,184.396c132.385,0,264.77,0,397.155,0c35.747,0,71.494,0,107.241,0c6.448,0,6.448-10,0-10
				c-127.138,0-254.275,0-381.412,0c-40.995,0-81.989,0-122.984,0C21.232,174.396,21.232,184.396,27.681,184.396L27.681,184.396z"/>
		</g>
	</g>
	<g>
		<g>
			<path d="M525.978,181.593c0,133.231,0,266.463,0,399.695c0,119.435,0,238.869,0,358.304c0,6.803,0,13.605,0,20.408
				c0,6.448,10,6.448,10,0c0-117.577,0-235.154,0-352.731c0-133.232,0-266.463,0-399.695c0-8.66,0-17.32,0-25.98
				C535.978,175.145,525.978,175.145,525.978,181.593L525.978,181.593z"/>
		</g>
	</g>
	<g>
		<path fill="#FFFF00" d="M60,216c0,0,278.67,0,418.23,0c3.297,0,14.77,0,14.77,0 M60,221v211 M63,431c0,0,262.483,0,394.352,0
			c10.989,0,33.648,0,33.648,0 M493,218c0,0,0,35.022,0,52.604c0-1.099,0-2.198,0-2.198c0,27.472,0,56.044,0,84.615
			c0,16.483,0,32.967,0,49.451c0,4.396,0,26.527,0,26.527"/>
		<g>
			<path d="M59.549,220.659c132.915,0,265.83,0,398.744,0c11.569,0,23.139,0,34.708,0c6.449,0,6.449-10,0-10
				c-0.161,0-0.323,0-0.484,0c-6.448,0-6.448,10,0,10c0.161,0,0.323,0,0.484,0c6.449,0,6.449-10,0-10c-124.547,0-249.093,0-373.64,0
				c-19.937,0-39.875,0-59.812,0C53.101,210.659,53.101,220.659,59.549,220.659L59.549,220.659z"/>
			<path d="M54.549,221.154c0,70.33,0,140.659,0,210.989c0,6.449,10,6.449,10,0c0-70.33,0-140.659,0-210.989
				C64.549,214.705,54.549,214.705,54.549,221.154L54.549,221.154z"/>
			<path d="M62.846,436.044c132.67,0,265.339,0,398.009,0c10.188,0,20.375,0,30.563,0c6.448,0,6.448-10,0-10
				c-131.543,0-263.086,0-394.628,0c-11.314,0-22.629,0-33.943,0C56.397,426.044,56.397,436.044,62.846,436.044L62.846,436.044z"/>
			<path d="M487.517,217.857c0,17.583,0,35.165,0,52.748c0,6.449,10,6.449,10,0c0-0.732,0-1.465,0-2.198c0-6.449-10-6.449-10,0
				c0,54.003,0,108.006,0,162.009c0,6.448,10,6.448,10,0c0-0.523,0-1.047,0-1.57c0-6.449-10-6.449-10,0c0,0.523,0,1.047,0,1.57
				c0,6.448,10,6.448,10,0c0-54.003,0-108.006,0-162.009c0-6.449-10-6.449-10,0c0,0.732,0,1.465,0,2.198c0,6.449,10,6.449,10,0
				c0-17.583,0-35.165,0-52.748C497.517,211.408,487.517,211.408,487.517,217.857L487.517,217.857z"/>
		</g>
	</g>
	<g>
		<g>
			<path d="M378.23,487.692c6.448,0,6.448-10,0-10S371.782,487.692,378.23,487.692L378.23,487.692z"/>
		</g>
	</g>
	<g>
		<g>
			<path d="M380.429,487.692c35.531,0,71.062,0,106.593,0c6.448,0,6.448-10,0-10c-35.531,0-71.062,0-106.593,0
				C373.98,477.692,373.98,487.692,380.429,487.692L380.429,487.692z"/>
		</g>
	</g>
	<g>
		<g>
			<path d="M486.418,483.791c0,43.59,0,87.18,0,130.77c0,6.448,10,6.448,10,0c0-43.59,0-87.18,0-130.77
				C496.418,477.342,486.418,477.342,486.418,483.791L486.418,483.791z"/>
		</g>
	</g>
	<g>
		<g>
			<path d="M367.736,485.989c0,43.224,0,86.446,0,129.67c0,6.448,10,6.448,10,0c0-43.224,0-86.446,0-129.67
				C377.736,479.541,367.736,479.541,367.736,485.989L367.736,485.989z"/>
		</g>
	</g>
	<g>
		<g>
			<path d="M489.22,612.857c-36.63,0-73.26,0-109.89,0c-6.448,0-6.448,10,0,10c36.63,0,73.26,0,109.89,0
				C495.668,622.857,495.668,612.857,489.22,612.857L489.22,612.857z"/>
		</g>
	</g>
	<g>
		<g>
			<path d="M271.637,506.374c16.325,0,32.649,0,48.973,0c6.448,0,6.448-10,0-10c-0.573,0-1.147,0-1.721,0c-6.448,0-6.448,10,0,10
				c0.573,0,1.147,0,1.721,0c6.448,0,6.448-10,0-10c-16.324,0-32.648,0-48.973,0C265.188,496.374,265.188,506.374,271.637,506.374
				L271.637,506.374z"/>
		</g>
	</g>
	<g>
		<g>
			<path d="M313.89,505.77c0,16.141,0,32.281,0,48.422c0,6.449,10,6.449,10,0c0-0.39,0-0.78,0-1.17c0-6.448-10-6.448-10,0
				c0,0.39,0,0.78,0,1.17c0,6.449,10,6.449,10,0c0-16.141,0-32.281,0-48.422C323.89,499.321,313.89,499.321,313.89,505.77
				L313.89,505.77z"/>
		</g>
	</g>
	<g>
		<g>
			<path d="M263.341,504.67c0,16.483,0,32.968,0,49.451c0,6.448,10,6.448,10,0c0-16.483,0-32.968,0-49.451
				C273.341,498.222,263.341,498.222,263.341,504.67L263.341,504.67z"/>
		</g>
	</g>
	<g>
		<g>
			<path d="M270.539,561.318c14.402,0,28.803,0,43.206,0c6.448,0,6.448-10,0-10c-0.482,0-0.965,0-1.447,0c-6.448,0-6.448,10,0,10
				c0.482,0,0.965,0,1.447,0c6.448,0,6.448-10,0-10c-14.402,0-28.804,0-43.206,0C264.09,551.318,264.09,561.318,270.539,561.318
				L270.539,561.318z"/>
		</g>
	</g>
	<g>
		<g>
			<path d="M218.89,499.67c-15.019,0-30.037,0-45.055,0c-6.449,0-6.449,10,0,10c15.019,0,30.037,0,45.055,0
				C225.339,509.67,225.339,499.67,218.89,499.67L218.89,499.67z"/>
		</g>
	</g>
	<g>
		<g>
			<path d="M211.692,507.967c0,15.751,0,31.502,0,47.253c0,6.448,10,6.448,10,0c0-15.751,0-31.502,0-47.253
				C221.692,501.519,211.692,501.519,211.692,507.967L211.692,507.967z"/>
		</g>
	</g>
	<g>
		<g>
			<path d="M217.791,550.22c-16.483,0-32.967,0-49.45,0c-6.449,0-6.449,10,0,10c16.483,0,32.967,0,49.45,0
				C224.24,560.22,224.24,550.22,217.791,550.22L217.791,550.22z"/>
		</g>
	</g>
	<g>
		<g>
			<path d="M168.945,553.021c0-15.286,0-30.572,0-45.858c0-6.449-10-6.449-10,0c0,0.268,0,0.536,0,0.804c0,6.448,10,6.448,10,0
				c0-0.268,0-0.536,0-0.804c0-6.449-10-6.449-10,0c0,15.286,0,30.572,0,45.858C158.945,559.47,168.945,559.47,168.945,553.021
				L168.945,553.021z"/>
		</g>
	</g>
	<g>
		<g>
			<path d="M169.439,598.682c49.451,0,98.901,0,148.352,0c6.448,0,6.448-10,0-10c-49.451,0-98.901,0-148.352,0
				C162.991,588.682,162.991,598.682,169.439,598.682L169.439,598.682z"/>
		</g>
	</g>
	<g>
		<g>
			<path d="M30.978,681.099c132.636,0,265.271,0,397.907,0c32.2,0,64.399,0,96.599,0c6.448,0,6.448-10,0-10
				c-132.38,0-264.76,0-397.139,0c-32.456,0-64.911,0-97.366,0C24.529,671.099,24.529,681.099,30.978,681.099L30.978,681.099z"/>
		</g>
	</g>
	<g>
		<g>
			<path d="M405.099,560.714c0,15.751,0,31.502,0,47.253c0,6.448,10,6.448,10,0c0-15.751,0-31.502,0-47.253
				C415.099,554.266,405.099,554.266,405.099,560.714L405.099,560.714z"/>
		</g>
	</g>
	<g>
		<g>
			<path d="M412.297,564.615c12.82,0,25.641,0,38.461,0c6.448,0,6.448-10,0-10c-12.82,0-25.641,0-38.461,0
				C405.849,554.615,405.849,564.615,412.297,564.615L412.297,564.615z"/>
		</g>
	</g>
	<g>
		<g>
			<path d="M444.659,561.813c0,18.314,0,36.63,0,54.944c0,6.448,10,6.448,10,0c0-18.314,0-36.63,0-54.944
				C454.659,555.365,444.659,555.365,444.659,561.813L444.659,561.813z"/>
		</g>
	</g>
	<g>
		<g>
			<path d="M111.278,257.9c9.281-1.655,18.2-4.809,27.481-6.466c-0.615-0.615-1.23-1.23-1.845-1.845
				c-1.979,8.353-7.504,15.15-14.163,20.353c-1.523,1.19,0.616,3.297,2.121,2.121c7.038-5.499,12.848-12.867,14.934-21.676
				c0.28-1.181-0.718-2.046-1.845-1.845c-9.281,1.656-18.199,4.811-27.481,6.466C108.578,255.347,109.386,258.237,111.278,257.9
				L111.278,257.9z"/>
		</g>
	</g>
	<g>
		<g>
			<path d="M118.405,278.529c4.482-4.401,9.389-7.683,15.504-9.313c1.867-0.498,1.074-3.392-0.798-2.893
				c-6.596,1.759-11.991,5.335-16.827,10.084C114.902,277.765,117.024,279.885,118.405,278.529L118.405,278.529z"/>
		</g>
	</g>
	<g>
		<g>
			<path d="M119.132,256.055c-2.585,8.01-3.99,16.349-5.936,24.525c-1.786,7.505-3.862,16.351-9.844,21.692
				c-1.446,1.291,0.683,3.405,2.121,2.121c5.747-5.131,8.04-13.157,9.949-20.349c2.393-9.017,3.733-18.299,6.603-27.191
				C122.621,255.006,119.724,254.222,119.132,256.055L119.132,256.055z"/>
		</g>
	</g>
	<g>
		<g>
			<path d="M114.972,288.463c3.233,1.616,6.465,3.232,9.698,4.849c1.17,0.584,2.534-0.365,2.204-1.694
				c-0.62-2.5-1.397-5.106-1.562-7.683c-0.367,0.482-0.734,0.964-1.101,1.446c4.122-1.243,8.251-1.556,12.533-1.563
				c-0.354-0.854-0.707-1.707-1.061-2.561c-3.454,3.584-6.215,7.743-9.699,11.315c-1.227,1.258,0.318,3.11,1.818,2.356
				c3.488-1.755,6.604-3.558,8.62-7.004c0.979-1.674-1.615-3.183-2.591-1.515c-1.741,2.979-4.571,4.432-7.544,5.928
				c0.606,0.786,1.212,1.571,1.818,2.356c3.483-3.573,6.246-7.731,9.699-11.315c0.9-0.934,0.267-2.563-1.061-2.561
				c-4.556,0.007-8.949,0.349-13.331,1.67c-0.61,0.184-1.144,0.774-1.101,1.446c0.182,2.859,0.982,5.709,1.669,8.481
				c0.734-0.565,1.469-1.129,2.204-1.694c-3.233-1.616-6.466-3.232-9.699-4.849C114.761,285.01,113.241,287.598,114.972,288.463
				L114.972,288.463z"/>
		</g>
	</g>
	<g>
		<g>
			<path d="M141.914,245.896c2.767,4.425,2.767,8.607,0,13.033c-1.028,1.646,1.568,3.15,2.591,1.514
				c3.304-5.286,3.304-10.775,0-16.062C143.481,242.746,140.885,244.25,141.914,245.896L141.914,245.896z"/>
		</g>
	</g>
	<g>
		<g>
			<path d="M140.375,261.133c4.85-1.616,9.699-3.232,14.548-4.849c1.826-0.608,1.043-3.506-0.798-2.893
				c-4.849,1.616-9.699,3.233-14.548,4.849C137.751,258.849,138.534,261.746,140.375,261.133L140.375,261.133z"/>
		</g>
	</g>
	<g>
		<g>
			<path d="M143.209,266.037c2.155,0,4.311,0,6.466,0c1.935,0,1.935-3,0-3c-2.155,0-4.311,0-6.466,0
				C141.274,263.037,141.274,266.037,143.209,266.037L143.209,266.037z"/>
		</g>
	</g>
	<g>
		<g>
			<path d="M155.081,258.626c-4.85,4.85-9.699,9.699-14.548,14.549c-1.056,1.056,0.007,2.923,1.459,2.507
				c3.372-0.965,6.736-2,10.173-2.716c1.625-0.338,4.012-0.964,4.093,1.27c0.07,1.929,3.07,1.936,3,0
				c-0.313-8.628-13.83-2.658-18.063-1.446c0.487,0.835,0.973,1.671,1.459,2.507c4.85-4.85,9.699-9.699,14.548-14.549
				C158.571,259.378,156.45,257.257,155.081,258.626L155.081,258.626z"/>
		</g>
	</g>
	<g>
		<g>
			<path d="M143.608,288.614c7.401-1.935,14.519-4.859,21.373-8.233c1.735-0.854,0.214-3.442-1.515-2.591
				c-6.628,3.263-13.499,6.061-20.656,7.932C140.94,286.21,141.734,289.104,143.608,288.614L143.608,288.614z"/>
		</g>
	</g>
	<g>
		<g>
			<path d="M151.408,274.235c0.014,2.456,2.004,17.626-1.732,17.898c-1.917,0.14-1.931,3.141,0,3
				c2.944-0.214,4.238-2.208,4.725-4.96c0.911-5.147,0.037-10.745,0.007-15.938C154.397,272.301,151.397,272.3,151.408,274.235
				L151.408,274.235z"/>
		</g>
	</g>
	<g>
		<g>
			<path d="M93.957,267.449c2.576,1.408,2.488,4.181,2.49,6.787c0.001,1.935,3.001,1.935,3,0c-0.002-3.722-0.381-7.412-3.976-9.377
				C93.773,263.93,92.26,266.521,93.957,267.449L93.957,267.449z"/>
		</g>
	</g>
	<g>
		<g>
			<path d="M101.297,277.468c-0.226,8.567-3.604,16.202-7.878,23.491c-0.98,1.673,1.613,3.182,2.591,1.515
				c4.544-7.751,8.047-15.908,8.287-25.005C104.348,275.533,101.348,275.538,101.297,277.468L101.297,277.468z"/>
		</g>
	</g>
	<g>
		<g>
			<path d="M100.423,301.395c9.332,7.169,21.599,9.26,33.006,10.507c12.906,1.411,25.92,1.031,38.877,1.013
				c1.935-0.002,1.935-3.002,0-3c-11.566,0.016-23.121,0.23-34.667-0.63c-12.169-0.906-25.751-2.836-35.701-10.481
				C100.403,297.625,98.912,300.233,100.423,301.395L100.423,301.395z"/>
		</g>
	</g>
	<g>
		<g>
			<path d="M192.103,251.434c10.668-1.616,21.08-4.626,31.931-4.795c-0.432-0.752-0.863-1.505-1.295-2.257
				c-1.455,3.069-2.454,6.728-4.615,9.396c-0.75,0.925-0.446,2.074,0.662,2.507c5.878,2.3,11.634,6.589,11.427,13.506
				c-0.199,6.652-7.554,9.939-13.044,11.082c-1.894,0.394-1.09,3.285,0.798,2.893c7.452-1.55,14.329-5.874,15.246-13.974
				c0.926-8.18-7.036-13.819-13.629-16.398c0.221,0.835,0.441,1.671,0.662,2.507c2.368-2.923,3.488-6.636,5.084-10.002
				c0.468-0.989-0.08-2.276-1.295-2.257c-11.123,0.173-21.792,3.246-32.729,4.902C189.397,248.83,190.211,251.721,192.103,251.434
				L192.103,251.434z"/>
		</g>
	</g>
	<g>
		<g>
			<path d="M198.34,252.822c-1.738,11.537-4.884,22.747-8.082,33.947c-0.533,1.864,2.362,2.655,2.893,0.798
				c3.198-11.2,6.345-22.411,8.082-33.947C201.518,251.728,198.627,250.914,198.34,252.822L198.34,252.822z"/>
		</g>
	</g>
	<g>
		<g>
			<path d="M204.636,275.735c3.274-0.189,5.992-0.969,9.3-0.054c-0.349-0.615-0.698-1.23-1.047-1.845
				c-0.501,2.817,1.037,5.828,2.087,8.351c1.867,4.487,3.946,8.88,5.675,13.425c1.516,3.984,3.329,8.788,2.469,13.109
				c-1.135,5.705-9.456,3.759-13.235,2.864c-1.881-0.445-2.68,2.447-0.798,2.893c4.78,1.131,10.684,2.28,14.799-1.158
				c3.082-2.575,2.59-7.463,1.941-10.933c-1.019-5.447-3.444-10.653-5.649-15.7c-1.326-3.036-5.018-8.561-4.396-12.053
				c0.144-0.806-0.206-1.612-1.047-1.845c-3.712-1.028-6.391-0.268-10.098-0.054C202.713,272.847,202.702,275.847,204.636,275.735
				L204.636,275.735z"/>
		</g>
	</g>
	<g>
		<g>
			<path d="M195.694,304.627c14.279-10.326,32.898-12.669,49.753-16.014c1.896-0.376,1.091-3.268-0.798-2.893
				c-17.108,3.395-35.969,5.83-50.47,16.315C192.628,303.159,194.123,305.763,195.694,304.627L195.694,304.627z"/>
		</g>
	</g>
	<g>
		<g>
			<path d="M265.203,256.133c9.509-6.843,22.098-10.988,33.588-12.782c1.703-0.266,1.253-2.959-0.398-2.946
				c-2.614,0.021-5.066,0.238-7.223,1.821c-1.542,1.132-0.048,3.737,1.514,2.591c1.77-1.299,3.613-1.395,5.709-1.412
				c-0.133-0.982-0.266-1.964-0.398-2.946c-11.672,1.822-24.63,6.122-34.306,13.083
				C262.134,254.662,263.629,257.266,265.203,256.133L265.203,256.133z"/>
		</g>
	</g>
	<g>
		<g>
			<path d="M280.728,235.439c-1.756,15.563-9.459,29.539-21.888,39.117c-1.509,1.164-0.018,3.771,1.515,2.591
				c13.363-10.3,21.483-24.959,23.373-41.708C283.944,233.519,280.942,233.54,280.728,235.439L280.728,235.439z"/>
		</g>
	</g>
	<g>
		<g>
			<path d="M282.626,257.9c9.945-1.637,20.088-2.981,29.917,0c-0.12-0.914-0.239-1.828-0.358-2.742
				c-4.455,2.811-9.217,4.651-14.19,6.316c-1.825,0.611-1.043,3.509,0.797,2.893c5.234-1.752,10.222-3.662,14.907-6.618
				c1.105-0.698,0.904-2.359-0.358-2.742c-10.344-3.138-21.042-1.724-31.511,0C279.923,255.321,280.734,258.211,282.626,257.9
				L282.626,257.9z"/>
		</g>
	</g>
	<g>
		<g>
			<path d="M272.928,267.6c4.252-0.852,8.492-1.728,12.687-2.832c1.994-0.525,3.945-1.178,5.884-1.876
				c0.518-0.186,3.347-1.736,3.697-1.639c-0.299-0.735-0.598-1.469-0.896-2.204c-0.735,0.392-1.526,0.643-2.372,0.754
				c-1.89,0.248-1.914,3.251,0,3c1.764-0.231,3.924-0.644,4.963-2.24c0.532-0.82,0.004-1.955-0.896-2.204
				c-0.588-0.162-1.021-0.239-1.59,0.031c-2.621,1.248-5.303,2.212-8.073,3.057c-4.643,1.415-9.448,2.307-14.2,3.259
				C270.234,265.087,271.039,267.978,272.928,267.6L272.928,267.6z"/>
		</g>
	</g>
	<g>
		<g>
			<path d="M274.262,266.153c0,7.294-0.111,14.637,0.479,21.912c0.188,2.311,2.341,7.266,4.084,2.734
				c0.696-1.809-2.206-2.584-2.893-0.798c1.145-2.975,2.46,1.961,1.979-0.48c-0.143-0.727-0.173-1.489-0.233-2.225
				c-0.184-2.272-0.233-4.558-0.293-6.836c-0.125-4.767-0.123-9.538-0.124-14.307C277.262,264.219,274.262,264.219,274.262,266.153
				L274.262,266.153z"/>
		</g>
	</g>
	<g>
		<g>
			<path d="M279.752,277.147c2.85-1.332,5.881-2.028,9.002-2.352c1.759-0.183,5.438-0.689,6.962,0.5
				c1.506,1.175,3.646-0.932,2.121-2.121c-4.86-3.792-14.729-0.894-19.6,1.382C276.486,275.375,278.01,277.961,279.752,277.147
				L279.752,277.147z"/>
		</g>
	</g>
	<g>
		<g>
			<path d="M279.394,285.381c6.183-1.383,12.243-0.662,18.14-3.384c-0.505-0.864-1.009-1.727-1.514-2.591
				c-2.93,1.469-5.923,2.885-8.386,5.084c-1.446,1.291,0.684,3.405,2.121,2.121c2.252-2.011,5.104-3.274,7.778-4.614
				c1.745-0.875,0.218-3.39-1.514-2.591c-5.54,2.558-11.593,1.777-17.424,3.082C276.708,282.911,277.509,285.803,279.394,285.381
				L279.394,285.381z"/>
		</g>
	</g>
	<g>
		<g>
			<path d="M277.495,283.935c0.121,2.251,1.498,4.246,1.617,6.466c0.071,1.334,1.566,1.949,2.561,1.061
				c1.814-1.62,4.591-1.558,6.466-3.233c1.446-1.291-0.684-3.405-2.121-2.121c-1.814,1.62-4.591,1.558-6.466,3.233
				c0.854,0.354,1.707,0.707,2.561,1.061c-0.12-2.251-1.498-4.246-1.617-6.466C280.392,282.011,277.391,282,277.495,283.935
				L277.495,283.935z"/>
		</g>
	</g>
	<g>
		<g>
			<path d="M261.612,298.313c17.868-6.426,36.296-11.11,54.96-14.548c1.663-0.306,1.282-3.068-0.398-2.946
				c-4.998,0.362-8.749,3.166-13.33,4.903c-1.791,0.679-1.015,3.58,0.797,2.893c4.186-1.587,7.972-4.465,12.533-4.796
				c-0.133-0.982-0.266-1.964-0.398-2.946c-18.665,3.438-37.094,8.122-54.961,14.548
				C259.008,296.069,259.787,298.969,261.612,298.313L261.612,298.313z"/>
		</g>
	</g>
	<g>
		<g>
			<path d="M282.783,292.573c-5.317,5.543-9.231,12.239-14.548,17.782c-0.995,1.037-0.019,3,1.459,2.507
				c11.315-3.771,22.631-7.543,33.946-11.316c1.826-0.609,1.043-3.506-0.797-2.893c-11.315,3.773-22.631,7.544-33.947,11.316
				c0.487,0.835,0.973,1.671,1.459,2.507c5.317-5.543,9.232-12.239,14.548-17.782C286.243,293.298,284.124,291.174,282.783,292.573
				L282.783,292.573z"/>
		</g>
	</g>
	<g>
		<g>
			<path d="M301.228,298.313c6.776,1.588,12.179,7.876,15.269,13.859c0.888,1.72,3.477,0.202,2.59-1.514
				c-3.435-6.652-9.546-13.477-17.062-15.238C300.143,294.979,299.344,297.871,301.228,298.313L301.228,298.313z"/>
		</g>
	</g>
	<g>
		<g>
			<path d="M107.554,346.03c-2.352,7.549-7.325,13.578-12.801,19.119c-1.361,1.376,0.76,3.499,2.121,2.121
				c5.844-5.912,11.066-12.397,13.573-20.442C111.023,344.975,108.127,344.189,107.554,346.03L107.554,346.03z"/>
		</g>
	</g>
	<g>
		<g>
			<path d="M105.302,357.417c0,4.396,0,8.792,0,13.187c0,1.935,3,1.935,3,0c0-4.396,0-8.792,0-13.187
				C108.302,355.483,105.302,355.483,105.302,357.417L105.302,357.417z"/>
		</g>
	</g>
	<g>
		<g>
			<path d="M118.542,338.337c-1.087,4.078-3.272,7.338-6.208,10.327c-1.356,1.38,0.764,3.503,2.121,2.121
				c3.286-3.345,5.763-7.088,6.979-11.65C121.934,337.263,119.04,336.47,118.542,338.337L118.542,338.337z"/>
		</g>
	</g>
	<g>
		<g>
			<path d="M112.297,357.819c5.223-0.081,10.328-1.251,15.043-3.501c1.745-0.833,0.222-3.419-1.515-2.591
				c-4.227,2.017-8.854,3.021-13.528,3.092C110.364,354.849,110.361,357.849,112.297,357.819L112.297,357.819z"/>
		</g>
	</g>
	<g>
		<g>
			<path d="M118.489,348.626c-0.08,5.587-1.237,10.883-3.243,16.084c-0.697,1.808,2.204,2.583,2.893,0.798
				c2.102-5.448,3.267-11.04,3.35-16.882C121.517,346.691,118.517,346.693,118.489,348.626L118.489,348.626z"/>
		</g>
	</g>
	<g>
		<g>
			<path d="M117.449,366.405c2.11-0.984,4.471-1.209,6.594-2.198c1.752-0.816,0.228-3.402-1.515-2.591
				c-2.11,0.983-4.471,1.208-6.593,2.198C114.183,364.631,115.708,367.217,117.449,366.405L117.449,366.405z"/>
		</g>
	</g>
	<g>
		<g>
			<path d="M105.356,376.799c-0.687,3.819-2.086,7.562-2.49,11.424c-0.242,2.318,0.221,4.461,2.837,4.76c1.92,0.22,1.899-2.783,0-3
				c-0.271-0.031,2.352-11.311,2.545-12.387C108.588,375.705,105.698,374.897,105.356,376.799L105.356,376.799z"/>
		</g>
	</g>
	<g>
		<g>
			<path d="M111.597,379.743c3.785-1.245,7.294-1.524,7.754,3.222c0.295,3.044-0.373,6.223-0.808,9.218
				c-0.188,1.298,0.941,2.332,2.204,1.694c7.02-3.549,13.859-7.44,20.879-10.989c1.727-0.874,0.208-3.461-1.514-2.591
				c-7.02,3.549-13.859,7.44-20.88,10.989c0.735,0.565,1.469,1.129,2.204,1.694c0.633-4.36,1.797-9.277,0.179-13.542
				c-1.754-4.622-7.068-3.821-10.815-2.589C108.97,377.452,109.753,380.35,111.597,379.743L111.597,379.743z"/>
		</g>
	</g>
	<g>
		<g>
			<path d="M165.946,335.781c-3.227,4.25-6.989,8.019-10.754,11.785c-1.369,1.369,0.752,3.49,2.121,2.121
				c3.955-3.955,7.835-7.93,11.224-12.391C169.708,335.754,167.1,334.262,165.946,335.781L165.946,335.781z"/>
		</g>
	</g>
	<g>
		<g>
			<path d="M150.058,354.468c5.609-1.126,11.121-2.365,16.483-4.396c-0.615-0.349-1.23-0.698-1.845-1.047
				c4.562,12.057,4.34,25.355,4.342,38.063c0.752-0.432,1.505-0.863,2.257-1.295c-1.729-1.06-2.751-2.69-4.093-4.161
				c-1.306-1.433-3.421,0.695-2.121,2.121c1.554,1.704,2.717,3.415,4.699,4.63c0.977,0.598,2.257-0.176,2.257-1.295
				c-0.002-12.949,0.2-26.57-4.45-38.86c-0.267-0.707-1.029-1.356-1.845-1.047c-5.362,2.03-10.874,3.269-16.483,4.396
				C147.364,351.957,148.169,354.848,150.058,354.468L150.058,354.468z"/>
		</g>
	</g>
	<g>
		<g>
			<path d="M150.357,354.121c0.001,7.182-0.823,15.389,1.153,22.376c0.525,1.858,3.42,1.068,2.893-0.798
				c-1.894-6.697-1.044-14.686-1.045-21.579C153.357,352.187,150.357,352.187,150.357,354.121L150.357,354.121z"/>
		</g>
	</g>
	<g>
		<g>
			<path d="M154.454,359.963c2.455-0.875,4.64-2.042,7.293-2.144c-0.354-0.854-0.707-1.707-1.061-2.561
				c-2.697,2.955-3.908,6.948-6.593,9.89c-1.195,1.31,0.292,3.058,1.818,2.356c1.797-0.827,3.695-1.371,5.494-2.198
				c-0.684-0.684-1.368-1.369-2.052-2.052c-1.498,2.745-3.431,5.089-4.546,8.05c-0.683,1.814,2.218,2.59,2.893,0.798
				c1.017-2.701,2.878-4.831,4.245-7.334c0.763-1.398-0.722-2.665-2.052-2.052c-1.798,0.827-3.696,1.371-5.495,2.198
				c0.606,0.786,1.212,1.571,1.818,2.356c2.697-2.955,3.908-6.948,6.593-9.89c0.84-0.919,0.311-2.613-1.061-2.561
				c-2.965,0.114-5.339,1.271-8.091,2.251C151.847,357.715,152.626,360.614,154.454,359.963L154.454,359.963z"/>
		</g>
	</g>
	<g>
		<g>
			<path d="M151.458,373.554c-0.377,0.124-0.77,0.289-1.165,0.35c0.615,0.349,1.23,0.698,1.845,1.048
				c-0.001-0.005-0.003-0.01-0.004-0.015c-0.229,0.564-0.459,1.129-0.689,1.694c2.857-1.799,6.651-2.738,9.771-3.988
				c4.106-1.646,8.298-3.198,12.277-5.138c1.739-0.848,0.217-3.435-1.514-2.591c-3.995,1.947-8.207,3.492-12.328,5.143
				c-3.108,1.245-6.871,2.188-9.721,3.983c-0.566,0.356-0.879,1.032-0.689,1.694c0.001,0.005,0.003,0.01,0.004,0.015
				c0.246,0.854,1.03,1.173,1.845,1.047c0.396-0.061,0.788-0.225,1.166-0.35C154.084,375.844,153.301,372.947,151.458,373.554
				L151.458,373.554z"/>
		</g>
	</g>
	<g>
		<g>
			<path d="M172.389,353.722c-3.433,13.291-10.237,28.293-24.227,33.018c-1.822,0.615-1.041,3.514,0.798,2.893
				c15.06-5.086,22.6-20.702,26.322-35.113C175.766,352.645,172.872,351.851,172.389,353.722L172.389,353.722z"/>
		</g>
	</g>
	<g>
		<g>
			<path d="M188.873,348.228c-1.25,6.673-4.253,12.679-8.406,18.02c-1.172,1.507,0.935,3.647,2.121,2.121
				c4.476-5.755,7.826-12.132,9.177-19.343C192.12,347.135,189.229,346.328,188.873,348.228L188.873,348.228z"/>
		</g>
	</g>
	<g>
		<g>
			<path d="M188.819,366.209c1.153,8.679,3.029,17.258,1.152,25.974c0.964,0,1.928,0,2.893,0c-0.602-1.847-0.5-3.657-1.099-5.494
				c-0.596-1.831-3.493-1.047-2.893,0.798c0.601,1.848,0.5,3.657,1.099,5.494c0.433,1.33,2.563,1.531,2.893,0
				c1.942-9.02,0.149-17.785-1.045-26.772C191.568,364.32,188.564,364.296,188.819,366.209L188.819,366.209z"/>
		</g>
	</g>
	<g>
		<g>
			<path d="M206.455,344.931c-2.235,5.356-5.643,10.089-8.64,15.026c-1.006,1.659,1.588,3.165,2.591,1.515
				c3.145-5.181,6.598-10.125,8.942-15.743C210.092,343.943,207.188,343.173,206.455,344.931L206.455,344.931z"/>
		</g>
	</g>
	<g>
		<g>
			<path d="M207.201,355.567c3.88-0.851,7.596-0.063,10.932,2.047c1.641,1.037,3.145-1.56,1.515-2.591
				c-4.022-2.543-8.594-3.368-13.244-2.349C204.514,353.089,205.315,355.981,207.201,355.567L207.201,355.567z"/>
		</g>
	</g>
	<g>
		<g>
			<path d="M200.966,371.9c5.351-3.322,13.372-6.693,17.607,0.002c3.729,5.893,1.32,14.426-1.129,20.281
				c0.835-0.22,1.671-0.441,2.507-0.662c-1.587-1.599-3.028-3.226-4.161-5.19c-0.966-1.675-3.559-0.165-2.591,1.514
				c1.259,2.184,2.858,4.013,4.63,5.798c0.873,0.88,2.089,0.337,2.507-0.662c3.039-7.262,5.027-17.043-0.071-23.903
				c-5.247-7.059-14.75-3.533-20.813,0.231C197.813,370.327,199.317,372.923,200.966,371.9L200.966,371.9z"/>
		</g>
	</g>
	<g>
		<g>
			<path d="M209.902,366.551c-3.407,4.709-5.54,10.076-6.744,15.743c-0.401,1.887,2.491,2.689,2.893,0.798
				c1.155-5.437,3.174-10.508,6.442-15.027C213.629,366.494,211.025,364.999,209.902,366.551L209.902,366.551z"/>
		</g>
	</g>
	<g>
		<g>
			<path d="M233.874,349.725c0,1.832,0,3.663,0,5.495c0,1.935,3,1.935,3,0c0-1.832,0-3.663,0-5.495
				C236.874,347.791,233.874,347.791,233.874,349.725L233.874,349.725z"/>
		</g>
	</g>
	<g>
		<g>
			<path d="M232.774,361.813c0.158,6.875,2.155,13.45,3.351,20.179c0.201,1.13,1.772,1.418,2.507,0.662
				c3.595-3.703,6.635-7.814,9.026-12.391c0.895-1.713-1.694-3.229-2.591-1.515c-2.275,4.356-5.135,8.259-8.557,11.785
				c0.835,0.221,1.671,0.441,2.507,0.662c-1.148-6.463-3.091-12.777-3.243-19.381C235.73,359.881,232.73,359.877,232.774,361.813
				L232.774,361.813z"/>
		</g>
	</g>
	<g>
		<g>
			<path d="M251.516,354.317c2.219-1.292,4.527-2.355,6.939-3.239c1.037-0.38,2.096-0.692,3.166-0.967
				c0.333-0.082,0.668-0.153,1.006-0.213c1.243-0.242,0.302,0.442-0.127-0.873c0.598,1.83,3.496,1.046,2.893-0.798
				c-1.454-4.449-13.331,2.3-15.39,3.499C248.331,352.7,249.84,355.293,251.516,354.317L251.516,354.317z"/>
		</g>
	</g>
	<g>
		<g>
			<path d="M261.346,349.725c0,8.059,0,16.117,0,24.176c0,1.935,3,1.935,3,0c0-8.059,0-16.117,0-24.176
				C264.346,347.791,261.346,347.791,261.346,349.725L261.346,349.725z"/>
		</g>
	</g>
	<g>
		<g>
			<path d="M263.604,372.999c2.429-1.298,3.743-3.655,4.934-6.033c0.863-1.724-1.725-3.244-2.591-1.514
				c-0.955,1.908-1.897,3.909-3.857,4.956C260.382,371.32,261.897,373.91,263.604,372.999L263.604,372.999z"/>
		</g>
	</g>
	<g>
		<g>
			<path d="M248.213,364.41c1.039,6.767,1.043,13.649,1.045,20.48c0,1.935,3,1.935,3,0c-0.002-7.112-0.072-14.234-1.153-21.278
				C250.813,361.705,247.922,362.518,248.213,364.41L248.213,364.41z"/>
		</g>
	</g>
	<g>
		<g>
			<path d="M249.659,385.291c10.534,0.962,20.925-1.092,31.168-3.35c1.889-0.417,1.087-3.308-0.798-2.893
				c-9.999,2.204-20.09,4.182-30.371,3.243C247.732,382.115,247.749,385.117,249.659,385.291L249.659,385.291z"/>
		</g>
	</g>
	<g>
		<g>
			<path d="M287.72,339.835c-0.061,2.801-0.775,5.517-1.993,8.034c-0.839,1.733,1.748,3.256,2.59,1.515
				c1.454-3.005,2.33-6.202,2.403-9.549C290.762,337.899,287.762,337.903,287.72,339.835L287.72,339.835z"/>
		</g>
	</g>
	<g>
		<g>
			<path d="M294.014,345.677c4.282-1.249,8.839-1.215,13.187-2.198c-0.614-0.615-1.229-1.23-1.845-1.845
				c-2.444,7.579-10.493,10.866-16.893,14.488c-1.684,0.953-0.172,3.545,1.514,2.591c7.229-4.093,15.528-7.775,18.271-16.281
				c0.368-1.141-0.784-2.085-1.845-1.845c-4.35,0.983-8.899,0.948-13.187,2.198C291.363,343.325,292.152,346.22,294.014,345.677
				L294.014,345.677z"/>
		</g>
	</g>
	<g>
		<g>
			<path d="M284.628,360.372c1.261,2.52,2.653,4.865,4.63,6.897c1.351,1.389,3.47-0.734,2.121-2.121
				c-1.799-1.851-3.015-3.999-4.161-6.29C286.353,357.128,283.765,358.647,284.628,360.372L284.628,360.372z"/>
		</g>
	</g>
	<g>
		<g>
			<path d="M286.321,361.062c7.747-2.822,16.868-5.549,24.119-0.151c-0.102-0.786-0.202-1.571-0.304-2.356
				c-5.213,5.059-11.083,9.194-17.278,12.952c0.505,0.864,1.009,1.727,1.514,2.591c4.259-2.794,8.652-5.372,13.187-7.692
				c1.723-0.882,0.204-3.47-1.514-2.591c-4.534,2.321-8.929,4.898-13.187,7.692c-1.605,1.054-0.152,3.602,1.514,2.591
				c6.415-3.891,12.492-8.187,17.886-13.422c0.753-0.731,0.45-1.794-0.304-2.356c-7.891-5.875-17.946-3.241-26.43-0.151
				C283.722,358.826,284.5,361.726,286.321,361.062L286.321,361.062z"/>
		</g>
	</g>
	<g>
		<g>
			<path d="M299.861,360.315c-1.415,6.706-4.844,13.381-5.548,20.179c-0.199,1.924,2.803,1.904,3,0
				c0.284-2.743,1.631-5.675,2.419-8.303c1.099-3.662,2.231-7.334,3.021-11.078C303.152,359.226,300.261,358.423,299.861,360.315
				L299.861,360.315z"/>
		</g>
	</g>
	<g>
		<g>
			<path d="M304.257,370.206c-1.093,6.261,0.736,13.316,8.041,14.165c6.967,0.81,13.222-3.765,15.73-10.071
				c0.716-1.799-2.187-2.573-2.893-0.798c-1.801,4.524-6.02,7.668-10.895,7.974c-6.222,0.391-7.992-5.313-7.092-10.473
				C307.479,369.112,304.589,368.302,304.257,370.206L304.257,370.206z"/>
		</g>
	</g>
	<g>
		<g>
			<path d="M329.179,347.875c5.54-0.911,12.612-2.316,17.223,1.812c0-0.707,0-1.414,0-2.121c-3.338,4.281-7.521,7.408-12.525,9.504
				c-1.757,0.736-0.986,3.64,0.797,2.893c5.498-2.303,10.167-5.552,13.85-10.276c0.479-0.615,0.663-1.528,0-2.121
				c-5.576-4.992-13.354-3.7-20.141-2.583C326.477,345.295,327.287,348.186,329.179,347.875L329.179,347.875z"/>
		</g>
	</g>
	<g>
		<g>
			<path d="M329.179,359.963c2.545-0.421,15.951-1.131,14.234-6.241c-0.612-1.824-3.511-1.042-2.893,0.798
				c0.096,0.285-11.042,2.368-12.139,2.55C326.477,357.386,327.287,360.276,329.179,359.963L329.179,359.963z"/>
		</g>
	</g>
	<g>
		<g>
			<path d="M322.938,361.414c-1.179,4.542-1.801,7.645,1.484,11.35c0.705,0.795,1.808,0.414,2.355-0.304
				c5.643-7.386,17.686-13.175,26.52-8.252c-0.102-0.786-0.202-1.571-0.304-2.356c-5.367,6.155-12.119,10.329-20.217,11.702
				c-1.904,0.323-1.095,3.213,0.797,2.893c8.55-1.449,15.876-5.978,21.541-12.474c0.619-0.709,0.587-1.86-0.304-2.356
				c-10.406-5.799-23.967,0.615-30.623,9.33c0.785-0.102,1.57-0.203,2.355-0.304c-2.507-2.828-1.542-5.238-0.713-8.431
				C326.317,360.337,323.424,359.543,322.938,361.414L322.938,361.414z"/>
		</g>
	</g>
	<g>
		<g>
			<path d="M328.433,342.432c2.94,9.602,2.206,19.378,2.145,29.271c-0.012,1.936,2.978,1.933,3,0
				c-0.161-1.305,0.137-2.517,0.894-3.639c1.167-1.545-1.44-3.037-2.59-1.514c-1.222,1.618-1.28,3.147-1.304,5.152c1,0,2,0,3,0
				c0.063-10.164,0.766-20.218-2.252-30.069C330.761,339.79,327.864,340.577,328.433,342.432L328.433,342.432z"/>
		</g>
	</g>
	<g>
		<g>
			<path d="M336.125,344.63c0.988,6.958,2.047,14.192-0.947,20.822c-0.79,1.748,1.795,3.275,2.59,1.514
				c3.373-7.467,2.368-15.258,1.25-23.134C338.746,341.923,335.856,342.738,336.125,344.63L336.125,344.63z"/>
		</g>
	</g>
	<g>
		<g>
			<path d="M326.235,373.201c0.89,2.3,0.688,3.856,2.887,5.292c0.525,0.343,1.402,0.257,1.817-0.235
				c4.121-4.886,9.641-8.055,16.124-6.208c-0.367-0.482-0.734-0.964-1.102-1.446c-0.14,2.781-2.71,2.97-4.752,4.199
				c-1.655,0.996-0.148,3.591,1.514,2.591c3.444-2.073,6.009-2.213,6.238-6.79c0.033-0.666-0.483-1.271-1.102-1.446
				c-7.457-2.125-14.234,1.279-19.042,6.979c0.605-0.078,1.212-0.156,1.817-0.235c-1.116-0.729-1.065-2.355-1.508-3.499
				C328.438,370.619,325.536,371.394,326.235,373.201L326.235,373.201z"/>
		</g>
	</g>
	<g>
		<g>
			<path d="M337.375,374.243c-1.335,2.63-2.88,5.164-4.396,7.692c-0.998,1.663,1.597,3.171,2.59,1.514
				c1.517-2.528,3.062-5.062,4.396-7.692C340.838,374.036,338.25,372.517,337.375,374.243L337.375,374.243z"/>
		</g>
	</g>
	<g>
		<g>
			<path d="M343.408,377.394c3.261,2.173,6.531,4.331,10.248,5.646c1.828,0.647,2.608-2.252,0.797-2.893
				c-3.452-1.221-6.504-3.327-9.531-5.344C343.307,373.727,341.807,376.327,343.408,377.394L343.408,377.394z"/>
		</g>
	</g>
	<g>
		<g>
			<path d="M370.343,339.078c-4.445,7.667-9.568,14.959-13.188,23.077c-0.781,1.75,1.804,3.278,2.59,1.514
				c3.62-8.118,8.742-15.41,13.188-23.077C373.905,338.915,371.313,337.405,370.343,339.078L370.343,339.078z"/>
		</g>
	</g>
	<g>
		<g>
			<path d="M371.239,355.567c3.27,1.128,6.695,2.7,9.228,5.108c1.4,1.333,3.525-0.786,2.121-2.121
				c-2.923-2.78-6.774-4.578-10.552-5.88C370.202,352.042,369.422,354.941,371.239,355.567L371.239,355.567z"/>
		</g>
	</g>
	<g>
		<g>
			<path d="M366.143,365.511c2.198,0,4.396,0,6.594,0c1.935,0,1.935-3,0-3c-2.198,0-4.396,0-6.594,0
				C364.208,362.511,364.208,365.511,366.143,365.511L366.143,365.511z"/>
		</g>
	</g>
	<g>
		<g>
			<path d="M364.344,374.249c5.458-1.012,11.024-1.186,16.483-2.198c-0.614-0.349-1.229-0.698-1.845-1.047
				c0.682,4.642-0.878,6.226-4.806,8.196c-1.729,0.868-0.21,3.455,1.514,2.591c2.109-1.058,4.112-2.083,5.493-4.057
				c1.485-2.124,1.04-5.154,0.691-7.528c-0.126-0.857-1.122-1.182-1.845-1.047c-5.458,1.012-11.024,1.185-16.483,2.198
				C361.646,371.708,362.453,374.599,364.344,374.249L364.344,374.249z"/>
		</g>
	</g>
	<g>
		<g>
			<path d="M370.881,381.79c3.383,2.111,9.335,3.981,13.243,2.349c1.758-0.734,0.987-3.638-0.797-2.893
				c-3.217,1.343-8.159-0.316-10.933-2.047C370.748,378.172,369.244,380.769,370.881,381.79L370.881,381.79z"/>
		</g>
	</g>
	<g>
		<g>
			<path d="M383.383,356.515c4.473-3.061,9.27-4.08,14.628-4.191c-0.354-0.854-0.707-1.707-1.061-2.561
				c-6.263,7.519-11.225,16.245-10.329,26.335c0.169,1.908,2.912,1.955,3,0c0.377-8.366,7.302-10.329,12.824-4.434
				c0-0.707,0-1.414,0-2.121c-1.967,2.419-4.265,2.181-7.03,2.911c-1.869,0.493-1.075,3.386,0.797,2.893
				c3.396-0.895,6.003-0.789,8.354-3.682c0.529-0.65,0.603-1.478,0-2.121c-7.479-7.985-17.451-4.409-17.945,6.555c1,0,2,0,3,0
				c-0.825-9.3,3.671-17.275,9.45-24.214c0.792-0.95,0.347-2.59-1.061-2.561c-5.848,0.121-11.259,1.259-16.142,4.6
				C380.283,355.01,381.781,357.611,383.383,356.515L383.383,356.515z"/>
		</g>
	</g>
	<g>
		<g>
			<path d="M392.115,369.505c-0.156,4.487-2.225,8.491-4.19,12.43c-0.861,1.725,1.726,3.245,2.59,1.514
				c2.214-4.433,4.425-8.901,4.601-13.944C395.183,367.57,392.183,367.576,392.115,369.505L392.115,369.505z"/>
		</g>
	</g>
	<g>
		<g>
			<path d="M395.617,379.054c2.406,3.464,5.715,5.892,9.688,7.283c1.83,0.641,2.61-2.258,0.797-2.893
				c-3.191-1.118-5.958-3.117-7.895-5.904C397.112,375.963,394.51,377.46,395.617,379.054L395.617,379.054z"/>
		</g>
	</g>
	<g>
		<g>
			<path d="M412.695,355.567c5.709-2.151,12.19-3.155,18.282-3.243c1.933-0.028,1.936-3.028,0-3
				c-6.328,0.092-13.155,1.118-19.079,3.351C410.105,353.35,410.882,356.251,412.695,355.567L412.695,355.567z"/>
		</g>
	</g>
	<g>
		<g>
			<path d="M416.291,354.121c0,7.692,0,15.384,0,23.077c0,1.935,3,1.935,3,0c0-7.692,0-15.384,0-23.077
				C419.291,352.187,416.291,352.187,416.291,354.121L416.291,354.121z"/>
		</g>
	</g>
	<g>
		<g>
			<path d="M425.082,358.517c1.14,10.211-0.7,21.228,2.252,31.168c0.549,1.85,3.444,1.062,2.893-0.798
				c-2.865-9.651-1.036-20.444-2.145-30.371C427.87,356.616,424.867,356.596,425.082,358.517L425.082,358.517z"/>
		</g>
	</g>
	<g>
		<g>
			<path d="M418.548,365.306c0.554-0.271,1.111-0.525,1.619-0.513c-0.12-0.003,0.081,0.087,0.085,0.092
				c0.291,0.261,0.462,0.641,0.64,0.982c0.892,1.717,3.48,0.2,2.59-1.515c-0.578-1.114-1.363-2.087-2.605-2.458
				c-1.304-0.389-2.7,0.262-3.842,0.821C415.297,363.567,416.818,366.154,418.548,365.306L418.548,365.306z"/>
		</g>
	</g>
	<g>
		<g>
			<path d="M417.829,371.665c0.652,0.69,0.659,1.339,0.66,2.236c0.002,1.935,3.002,1.935,3,0c-0.002-1.681-0.355-3.106-1.539-4.357
				C418.618,368.136,416.5,370.261,417.829,371.665L417.829,371.665z"/>
		</g>
	</g>
	<g>
		<g>
			<path d="M414.494,380.896c4.931-0.088,9.517-1.367,13.944-3.501c1.742-0.84,0.22-3.427-1.514-2.591
				c-3.951,1.905-8.034,3.014-12.431,3.092C412.562,377.93,412.559,380.93,414.494,380.896L414.494,380.896z"/>
		</g>
	</g>
	<g>
		<g>
			<path d="M434.673,364.358c3.147-1.039,6.153-1.969,9.492-2.144c-0.5-0.5-1-1-1.5-1.5c-1.262,10.259-7.866,20.163-18.679,21.63
				c-1.91,0.259-1.094,3.149,0.797,2.893c12.205-1.657,19.473-13.065,20.882-24.523c0.097-0.784-0.756-1.539-1.5-1.5
				c-3.586,0.188-6.89,1.128-10.289,2.251C432.048,362.069,432.831,364.967,434.673,364.358L434.673,364.358z"/>
		</g>
	</g>
	<g>
		<g>
			<path d="M429.917,370.566c7.792,7.688,17.923,16.599,29.633,15.824c1.92-0.127,1.933-3.128,0-3
				c-10.885,0.72-20.286-7.816-27.512-14.945C430.66,367.085,428.538,369.206,429.917,370.566L429.917,370.566z"/>
		</g>
	</g>
	<g>
		<g>
			<path d="M480.58,30.108c0,46.998,0,93.995,0,140.993c0,6.449,10,6.449,10,0c0-46.998,0-93.995,0-140.993
				C490.58,23.66,480.58,23.66,480.58,30.108L480.58,30.108z"/>
		</g>
	</g>
	<g>
		<g>
			<path d="M464.581,176.101c6.448,0,6.448-10,0-10S458.133,176.101,464.581,176.101L464.581,176.101z"/>
		</g>
	</g>
	<g>
		<g>
			<path d="M466.081,176.101c11.999,0,23.999,0,35.998,0c6.448,0,6.448-10,0-10c-11.999,0-23.999,0-35.998,0
				C459.633,166.101,459.633,176.101,466.081,176.101L466.081,176.101z"/>
		</g>
	</g>
	<g>
	</g>
	<g>
	</g>
	<g>
	</g>
	<g>
	</g>
	<g>
	</g>
	<g>
	</g>
	<g>
	</g>
	<g>
	</g>
	<g>
	</g>
	<g>
	</g>
	<g>
	</g>
	<g>
	</g>
	<g>
	</g>
	<g>
	</g>
	<g>
	</g>
</g>
</svg>
