<?xml version="1.0" encoding="utf-8"?>
<!-- Generator: Adobe Illustrator 16.2.0, SVG Export Plug-In . SVG Version: 6.00 Build 0)  -->
<!DOCTYPE svg PUBLIC "-//W3C//DTD SVG 1.1//EN" "http://www.w3.org/Graphics/SVG/1.1/DTD/svg11.dtd">
<svg version="1.1" id="图层_1" xmlns="http://www.w3.org/2000/svg" xmlns:xlink="http://www.w3.org/1999/xlink" x="0px" y="0px"
	 width="560px" height="960px" viewBox="0 0 560 960" enable-background="new 0 0 560 960" xml:space="preserve">
<g>
	<path fill="#FFFFFF" d="M147.959,105.879C79.534,119.82,30.66,197.656,66.094,258.065c48.875,84.806,160.064,45.308,175.949-38.337
		c10.996-59.248-39.1-132.437-106.303-108.041"/>
	<g>
		<path d="M146.63,101.058c-42.612,8.953-78.953,41.495-92.512,82.869c-13.515,41.238,3.308,86.039,38.353,110.872
			c30.41,21.549,70.931,19.079,102.098,0.636c33.303-19.706,55.142-57.364,53.923-96.225c-0.888-28.31-13.378-56.796-34.191-76.083
			c-21.851-20.25-51.883-26.174-79.89-16.26c-6.035,2.136-3.437,11.8,2.658,9.643c20.005-7.081,40.765-5.824,59.035,5.266
			c17.058,10.354,29.29,27.889,36.134,46.361c14.13,38.135,2.811,79.879-27.01,107.072c-26.153,23.849-65.775,33.135-98.158,16.724
			c-18.397-9.324-32.367-26.099-40.926-44.62c-8.812-19.068-8.597-40.972-2.384-60.728c12.016-38.209,46.723-67.731,85.528-75.884
			C155.598,109.375,152.921,99.736,146.63,101.058L146.63,101.058z"/>
	</g>
</g>
<g>
	<g>
		<path d="M141.737,311.505c-1.206,50.222-1.188,100.48,1.222,150.667c1.15,23.956-1.69,47.904-0.542,71.865
			c0.581,12.123,2.16,24.167,3.218,36.251c0.503,5.742,0.738,11.494,0.636,17.258c-0.061,3.4-0.338,6.811-0.811,10.177
			c-0.333,2.365-1.279,4.844-1.279,7.231c0,6.448,10,6.448,10,0c0-1.055,0-2.108,0-3.163c0-6.448-10-6.448-10,0
			c0,1.055,0,2.108,0,3.163c0,6.448,10,6.448,10,0c0-1.986,0.908-4.474,1.192-6.49c0.42-2.99,0.668-5.986,0.831-9
			c0.345-6.388-0.056-12.81-0.568-19.176c-0.975-12.098-2.524-24.127-3.218-36.251c-1.369-23.945,1.557-47.908,0.542-71.865
			c-2.128-50.223-2.428-100.414-1.222-150.667C151.892,305.053,141.892,305.068,141.737,311.505L141.737,311.505z"/>
	</g>
</g>
<g>
	<g>
		<path d="M143.574,612.226c-38.959,110.138-28.12,229.657-52.751,342.709c3.274,0.443,6.547,0.886,9.821,1.329
			c0.221-1.786,0.897-3.536,1.122-5.354c0.792-6.39-9.218-6.313-10,0c-0.221,1.786-0.897,3.536-1.122,5.354
			c-0.697,5.627,8.635,6.774,9.821,1.329c24.63-113.042,13.806-232.61,52.751-342.709
			C155.373,608.788,145.708,606.189,143.574,612.226L143.574,612.226z"/>
	</g>
</g>
<g>
	<g>
		<path d="M144.44,603.477c-3.027,10.292-1.001,21.541,1.149,31.799c2.386,11.383,5.999,22.457,8.759,33.745
			c7.559,30.912,16.743,61.383,23.817,92.434c7.179,31.51,14.419,62.959,22.06,94.366c3.364,13.827,6.176,27.861,10.053,41.553
			c3.178,11.222,7.063,22.229,9.944,33.537c1.444,5.668,3.292,12.313,2.315,18.216c-1.044,6.306,8.591,9.009,9.643,2.658
			c1.598-9.652-1.183-19.636-3.74-28.889c-3.046-11.024-6.915-21.808-9.799-32.878c-7.893-30.291-14.778-60.941-22.027-91.396
			c-7.509-31.548-14.114-63.218-22.467-94.575c-3.766-14.136-7.636-28.241-11.352-42.386c-3.035-11.553-6.561-22.969-8.674-34.744
			c-1.212-6.75-2.001-14.106-0.038-20.781C155.907,599.934,146.256,597.304,144.44,603.477L144.44,603.477z"/>
	</g>
</g>
<g>
	<path fill="#FFFFFF" d="M443.232,653.258c-86.115,5.15-76.392-151.938,6.946-133.911c34.723,7.727,55.558,56.655,52.78,86.27
		c-4.168,39.916-31.946,37.341-63.893,48.929c-2.777,0-4.166,1.287-6.945,2.576"/>
	<g>
		<path d="M443.232,648.258c-13.364,0.709-26.346-2.632-36.374-11.805c-9.313-8.519-14.555-20.432-17.161-32.587
			c-5.175-24.134,0.468-53.736,19.485-70.653c9.559-8.503,22.161-11.267,34.64-9.924c20.381,2.193,34.75,18.604,43.69,35.777
			c9.194,17.66,14.052,39.369,7.849,58.746c-5.897,18.424-25.482,22.388-41.894,26.98c-8.021,2.244-16.448,4.293-23.87,8.011
			c-5.767,2.889-0.701,11.515,5.047,8.635c9.273-4.646,20.548-6.693,30.564-9.542c8.411-2.393,16.967-5.163,24.239-10.147
			c16.323-11.186,20.354-32.602,18.129-51.127c-4.503-37.509-31.172-79.54-73.133-77.643c-28.114,1.271-46.893,24.377-53.493,50.017
			c-6.638,25.78-2.665,56.246,15.18,76.772c11.783,13.555,29.477,19.424,47.102,18.489
			C449.646,657.918,449.68,647.916,443.232,648.258L443.232,648.258z"/>
	</g>
</g>
<g>
	<g>
		<path d="M429.976,658.08c5.857,7.143,6.552,19.354,7.517,28.096c1.343,12.162,1.693,24.405,2.686,36.596
			c1.02,12.539,3.848,24.819,6.061,37.18c2.38,13.289,4.948,28.219,0.508,41.34c-2.073,6.126,7.587,8.732,9.643,2.658
			c4.553-13.453,2.461-28.365,0.274-42.065c-2.142-13.418-5.47-26.627-6.574-40.196c-1.067-13.129-1.443-26.3-3.047-39.384
			c-1.312-10.694-2.941-22.692-9.996-31.294C432.954,646.02,425.922,653.138,429.976,658.08L429.976,658.08z"/>
	</g>
</g>
<g>
	<g>
		<path d="M439.999,681.564c-16.533-4.98-32.04-12.742-47.544-20.228c-10.945-5.285-21.566-10.828-31.91-17.23
			c-11.192-6.927-22.053-14.481-32.082-23.018c-7.591-6.461-16.577-14.32-20.136-23.944c-2.216-5.994-11.884-3.403-9.643,2.658
			c3.957,10.703,12.373,19.177,20.729,26.635c10.449,9.326,22.053,17.415,33.86,24.91c11.01,6.989,22.4,12.966,34.134,18.624
			c16.271,7.847,32.585,16.01,49.933,21.235C443.531,693.072,446.157,683.419,439.999,681.564L439.999,681.564z"/>
	</g>
</g>
<g>
	<g>
		<path d="M449.044,689.765c20.104,12.162,35.835,30.321,48.269,50.037c12.113,19.208,21.218,40.592,25.826,62.858
			c1.307,6.313,10.945,3.635,9.643-2.658c-4.886-23.607-14.822-46.2-27.65-66.542c-13.042-20.681-29.994-39.598-51.04-52.33
			C448.559,677.783,443.535,686.433,449.044,689.765L449.044,689.765z"/>
	</g>
</g>
<g>
	<g>
		<path d="M445.357,805.152c-4.519,16.852-8.394,33.86-12.041,50.919c-3.531,16.509-7.695,33.009-10.42,49.663
			c-1.8,10.997-3.429,21.779-6.222,32.552c-0.99,3.817-1.935,7.646-2.838,11.485c-0.516,2.192-1.861,5.638-1.059,7.874
			c1.193,3.329,5.649,5.188,8.356,2.206c1.038-1.143,1.469-2.528,1.919-3.967c1.933-6.171-7.723-8.791-9.643-2.658
			c-0.522,1.667-1.165,1.556,0.653-0.445c2.785,0.735,5.571,1.471,8.356,2.206c0.631,1.758-0.055,2.443,0.442,0.15
			c0.372-1.721,0.785-3.434,1.196-5.146c0.929-3.873,1.905-7.734,2.921-11.585c2.913-11.044,4.247-22.312,6.15-33.572
			c2.718-16.083,6.825-32.063,10.238-48.024c3.511-16.418,7.282-32.782,11.631-49C456.673,801.573,447.025,798.93,445.357,805.152
			L445.357,805.152z"/>
	</g>
</g>
<g>
	<g>
		<path d="M449.523,806.522c7.944,25.827,15.848,51.645,25.064,77.057c5.71,15.745,11.806,31.447,19.254,46.462
			c4.349,8.767,9.968,20.98,19.196,25.675c2.517,1.281,5.147,1.681,7.917,1.086c6.304-1.354,3.63-10.992-2.658-9.643
			c-0.093,0.02,0.349,0.027,0.201-0.003c-1.541-0.312,0.036,0.19-1.07-0.425c-1.075-0.598-2.298-1.751-3.796-3.437
			c-3.463-3.898-6.28-9.034-8.852-13.827c-7.629-14.222-13.479-29.411-19.075-44.521c-9.741-26.305-18.023-53.102-26.186-79.928
			c-0.117-0.385-0.235-0.77-0.354-1.154C457.276,797.72,447.622,800.342,449.523,806.522L449.523,806.522z"/>
	</g>
</g>
<g>
	<g>
		<path d="M136.551,341.004c-29.084,38.846-41.084,87.005-55.867,132.398c-3.774,11.588-8.145,22.948-12.08,34.477
			c-4.818,14.113-8.759,28.51-13.098,42.772c-4.106,13.497-9.129,26.156-15.026,38.951c-1.675,3.635-3.484,7.116-4.141,11.078
			c-0.424,2.556-0.387,5.432-1.202,7.898c0.766-0.996,1.532-1.992,2.298-2.988c-0.019,0.014-0.038,0.027-0.056,0.04
			c2.449,0.996,4.897,1.992,7.345,2.988c0.637,1.783,0.05-0.565,0.045-1.355c-0.037-6.446-10.037-6.45-10,0
			c0.007,1.228-0.108,2.84,0.312,4.014c0.992,2.777,4.542,5.009,7.345,2.988c4.436-3.197,2.55-10.252,4.532-14.822
			c5.601-12.913,11.552-25.254,15.871-38.694c4.359-13.566,8.124-27.316,12.386-40.913c3.977-12.689,8.856-25.057,13.091-37.658
			c15.636-46.531,26.934-96.129,56.88-136.126C149.055,340.884,140.367,335.908,136.551,341.004L136.551,341.004z"/>
	</g>
</g>
<g>
	<g>
		<path d="M155.076,349.348c0.574-1.043,0.321-0.034-0.842,0.023c-0.46,0.022,0.567,0.238,1.32,0.684
			c2.753,1.627,4.978,4.318,7.062,6.689c5.319,6.051,9.796,12.875,14.077,19.682c4.082,6.49,7.57,13.287,11.348,19.954
			c7.603,13.418,15.928,26.417,24.14,39.467c8.162,12.969,16.214,26.01,23.487,39.503c7.384,13.699,14.361,27.607,21.896,41.229
			c7.626,13.789,15.658,27.351,24.195,40.596c7.338,11.386,14.534,22.274,25.068,31.001c3.276,2.714,6.651,5.25,10.506,7.064
			c1.661,0.782,3.359,1.487,5.029,2.251c0.584,0.269,1.16,0.554,1.728,0.855c3.453,1.772-5.529-2.082,1.067-5.29
			c-5.799,2.82-0.727,11.442,5.047,8.635c3.761-1.829,5.019-6.351,2.13-9.595c-2.704-3.039-7.37-4.274-10.938-5.955
			c-10.903-5.131-19.675-16.243-25.931-26.192c-16.765-26.662-32.437-53.632-46.983-81.582
			c-14.201-27.287-31.45-52.656-47.166-79.058c-8.892-14.938-16.524-30.309-27.178-44.14c-5.044-6.549-20.05-24.773-27.697-10.869
			C143.332,349.955,151.968,354.999,155.076,349.348L155.076,349.348z"/>
	</g>
</g>
<g>
</g>
<g>
</g>
<g>
</g>
<g>
</g>
<g>
</g>
<g>
</g>
<g>
</g>
<g>
</g>
<g>
</g>
<g>
</g>
<g>
</g>
<g>
</g>
<g>
</g>
<g>
</g>
<g>
</g>
</svg>
