<?xml version="1.0" encoding="utf-8"?>
<!-- Generator: Adobe Illustrator 16.2.0, SVG Export Plug-In . SVG Version: 6.00 Build 0)  -->
<!DOCTYPE svg PUBLIC "-//W3C//DTD SVG 1.1//EN" "http://www.w3.org/Graphics/SVG/1.1/DTD/svg11.dtd">
<svg version="1.1" id="图层_1" xmlns="http://www.w3.org/2000/svg" xmlns:xlink="http://www.w3.org/1999/xlink" x="0px" y="0px"
	 width="560px" height="421.667px" viewBox="0 0 560 421.667" enable-background="new 0 0 560 421.667" xml:space="preserve">
<g>
	<g>
		<path d="M380.603,281.447c9.974,1.942,19.979-0.445,28.9-5.041c6.268-3.229,10.104-7.515,13.835-13.263
			c3.979-6.136,7.702-12.622,10.476-19.399c1.2-2.936,4.294-9.492,0.914-12.138c-3.751-2.937-7.697-0.065-9.278,3.597
			c-2.229,5.17-1.423,11.563,1.281,16.371c3.729,6.631,12.208,7.881,18.964,6.063c9.338-2.512,16.285-11.788,19.936-20.213
			c0.761-1.756-1.823-3.285-2.591-1.514c-2.916,6.729-7.315,12.691-13.525,16.713c-6.29,4.071-15.78,4.207-20.191-2.564
			c-2.547-3.909-2.829-9.754-1.001-13.992c0.685-1.585,1.896-2.982,3.743-2.521c1.911,0.479,0.911,3.266,0.581,4.554
			c-2.4,9.356-8.41,18.487-13.797,26.392c-7.654,11.227-24.419,16.602-37.448,14.063
			C379.51,278.186,378.703,281.078,380.603,281.447L380.603,281.447z"/>
	</g>
</g>
<g>
	<g>
		<path d="M472.221,196.398c0.604,3.733,1.51,8.598,4.766,11.019c3.272,2.433,6.946,0.505,9.741-1.689
			c1.521-1.193-0.618-3.301-2.121-2.121c-2.152,1.689-4.842,3.045-6.791,0.406c-1.73-2.345-2.249-5.609-2.702-8.411
			C474.805,193.695,471.913,194.507,472.221,196.398L472.221,196.398z"/>
	</g>
</g>
<g>
	<g>
		<path d="M479.501,193.334c-0.047,3.566-0.63,7.097-0.667,10.666c-0.021,1.936,2.979,1.934,3,0c0.037-3.569,0.62-7.1,0.667-10.666
			C482.525,191.398,479.525,191.401,479.501,193.334L479.501,193.334z"/>
	</g>
</g>
<g>
	<g>
		<path d="M485.038,196.757c1.114,1.689,1.769,3.193,1.796,5.243c0.025,1.933,3.025,1.936,3,0c-0.034-2.562-0.807-4.637-2.205-6.757
			C486.568,193.636,483.97,195.137,485.038,196.757L485.038,196.757z"/>
	</g>
</g>
<g>
	<g>
		<path d="M480.371,207.243c-2.224,3.012-4.058,6.23-5.483,9.692c-0.737,1.788,2.166,2.561,2.893,0.797
			c1.321-3.206,3.126-6.189,5.183-8.976C484.113,207.198,481.508,205.705,480.371,207.243L480.371,207.243z"/>
	</g>
</g>
<g>
	<g>
		<path d="M481.091,213.962c0.74-0.395,3.982-2.31,4.774-1.111c0.715,1.082-0.293,3.23-0.747,4.213
			c-1.825,3.949-5.443,7.486-9.851,8.157c-1.908,0.29-1.095,3.181,0.797,2.894c6.024-0.918,11.107-6.543,12.674-12.257
			c0.521-1.897,0.484-4.384-1.301-5.618c-2.384-1.648-5.654-0.04-7.861,1.132C477.867,212.281,479.384,214.869,481.091,213.962
			L481.091,213.962z"/>
	</g>
</g>
<g>
	<g>
		<path d="M478.243,218.628c1.926,0.871,4.013,0.871,6.091,0.871c1.935,0.002,1.935-2.998,0-3c-1.462,0-3.207,0.158-4.576-0.461
			C478.01,215.248,476.483,217.833,478.243,218.628L478.243,218.628z"/>
	</g>
</g>
<g>
	<g>
		<path d="M408.834,152.667c-0.095,0.89-1.306,1.952-1.853,2.573c-1.23,1.396-2.59,2.686-3.93,3.976
			c-2.401,2.312-4.939,4.522-7.112,7.058c-1.252,1.46,0.86,3.593,2.121,2.121c2.65-3.092,5.8-5.751,8.7-8.601
			c1.908-1.876,4.771-4.279,5.072-7.127C412.036,150.744,409.034,150.764,408.834,152.667L408.834,152.667z"/>
	</g>
</g>
<g>
	<g>
		<path d="M393.666,179.5c7.479-0.125,18.666-1.556,23.729-7.772c1.21-1.486-0.899-3.622-2.121-2.121
			c-4.52,5.55-14.934,6.782-21.605,6.894C391.734,176.532,391.731,179.532,393.666,179.5L393.666,179.5z"/>
	</g>
</g>
<g>
	<g>
		<path d="M402.834,165.334c0.045,8.343,0.846,16.421,3.387,24.398c0.733-0.564,1.469-1.129,2.203-1.693
			c-3.389-1.443-6.611-3.225-10-4.667c0,0.863,0,1.727,0,2.59c4.737-2.946,10.104-4.472,12.022-10.229
			c0.614-1.84-2.284-2.623-2.893-0.797c-1.57,4.708-6.813,6.052-10.646,8.437c-0.855,0.532-1.094,2.124,0,2.59
			c3.389,1.442,6.612,3.224,10,4.667c1.106,0.472,2.647-0.3,2.203-1.693c-2.459-7.72-3.234-15.53-3.278-23.602
			C405.823,163.4,402.823,163.399,402.834,165.334L402.834,165.334z"/>
	</g>
</g>
<g>
	<g>
		<path d="M406.221,167.065c1.661,4.056,3.55,7.993,5.561,11.886c1.313,2.541,3.102,8.441,6.039,9.329
			c1.007,0.304,2.283-0.766,1.847-1.846c-0.363-0.893-0.926-1.47-1.604-2.161c-1.357-1.382-3.478,0.74-2.121,2.121
			c0.272,0.285,0.55,0.564,0.833,0.838c0.614-0.615,1.229-1.23,1.845-1.845c-0.375-0.113-1.386-2.611-1.588-2.98
			c-0.902-1.647-1.785-3.307-2.658-4.971c-1.912-3.645-3.696-7.358-5.259-11.168C408.391,164.504,405.487,165.275,406.221,167.065
			L406.221,167.065z"/>
	</g>
</g>
<g>
	<g>
		<path d="M414.888,178.269c-0.936,2.669-2.774,5.473-5.887,5.565c-1.931,0.058-1.937,3.058,0,3
			c4.551-0.135,7.381-3.772,8.778-7.769C418.421,177.234,415.522,176.454,414.888,178.269L414.888,178.269z"/>
	</g>
</g>
<g>
	<g>
		<path d="M410.606,165.061c2.776,3.394,6.268,6.204,10.662,7.053c1.89,0.365,2.695-2.526,0.797-2.893
			c-3.933-0.76-6.859-3.254-9.338-6.281C411.502,161.441,409.392,163.577,410.606,165.061L410.606,165.061z"/>
	</g>
</g>
<g>
	<g>
		<path d="M425.705,161.243c-1.934,3.757-4.47,7.074-7.1,10.363c-1.195,1.494,0.913,3.632,2.121,2.121
			c2.787-3.484,5.52-6.988,7.568-10.971C429.18,161.04,426.591,159.522,425.705,161.243L425.705,161.243z"/>
	</g>
</g>
<g>
	<g>
		<path d="M422.166,172.667c0,3.777,0,7.556,0,11.333c0,1.935,3,1.935,3,0c0-3.777,0-7.556,0-11.333
			C425.166,170.732,422.166,170.732,422.166,172.667L422.166,172.667z"/>
	</g>
</g>
<g>
	<g>
		<path d="M428.424,166.629c1.497-0.966,3.052-1.706,4.845-1.183c1.861,0.543,2.65-2.352,0.797-2.893
			c-2.561-0.747-4.986,0.085-7.155,1.485C425.29,165.084,426.794,167.682,428.424,166.629L428.424,166.629z"/>
	</g>
</g>
<g>
	<g>
		<path d="M430.166,170.667c0.002,3.494,0.084,6.954,0.722,10.398c0.352,1.901,3.243,1.094,2.893-0.797
			c-0.588-3.176-0.611-6.383-0.612-9.602C433.165,168.732,430.165,168.732,430.166,170.667L430.166,170.667z"/>
	</g>
</g>
<g>
	<g>
		<path d="M438.732,168.113c8.905-2.955,6.598,14.156,5.488,18.822c-0.447,1.881,2.444,2.679,2.893,0.797
			c1.627-6.841,3.232-26.63-9.178-22.512C436.108,165.827,436.892,168.725,438.732,168.113L438.732,168.113z"/>
	</g>
</g>
<g>
	<g>
		<path d="M455.705,157.91c-1.536,3.029-3.313,5.935-5.334,8.667c-1.151,1.558,1.454,3.052,2.591,1.514
			c2.02-2.732,3.797-5.637,5.334-8.667C459.169,157.703,456.58,156.185,455.705,157.91L455.705,157.91z"/>
	</g>
</g>
<g>
	<g>
		<path d="M453.555,166.269c-0.305,1.857-2.839,17.374,2.869,13.693c1.62-1.044,0.116-3.642-1.515-2.59
			c-0.436,0.28,0.987,0.767,0.819,0.22c-0.104-0.337-0.113-0.699-0.137-1.048c-0.065-0.97-0.003-1.952,0.056-2.921
			c0.134-2.197,0.442-4.387,0.799-6.558C456.758,165.174,453.866,164.362,453.555,166.269L453.555,166.269z"/>
	</g>
</g>
<g>
	<g>
		<path d="M456.732,168.113c7.153-2.484,5.122,8.949,2.541,12.16c-1.2,1.492,0.909,3.629,2.121,2.121
			c4.304-5.354,5.279-20.903-5.459-17.174C454.119,165.852,454.9,168.75,456.732,168.113L456.732,168.113z"/>
	</g>
</g>
<g>
	<g>
		<path d="M456.424,177.295c1.432-0.691,2.985-1.094,4.577-1.128c1.932-0.042,1.936-3.042,0-3c-2.141,0.047-4.172,0.61-6.092,1.538
			C453.168,175.546,454.69,178.133,456.424,177.295L456.424,177.295z"/>
	</g>
</g>
<g>
	<g>
		<path d="M456.334,184.167c3.02-0.041,5.545-1,7.728-3.106c1.395-1.346-0.729-3.464-2.121-2.121
			c-1.616,1.56-3.377,2.197-5.605,2.228C454.401,181.193,454.398,184.193,456.334,184.167L456.334,184.167z"/>
	</g>
</g>
<g>
	<g>
		<path d="M463.501,158.667c-0.049,3.339-0.747,6.492-1.946,9.602c-0.697,1.808,2.204,2.582,2.893,0.797
			c1.292-3.351,2.002-6.805,2.055-10.398C466.528,156.731,463.528,156.734,463.501,158.667L463.501,158.667z"/>
	</g>
</g>
<g>
	<g>
		<path d="M466.424,165.295c4.979-2.769,5.216,3.873,5.365,7.337c0.165,3.797-0.25,7.576-0.288,11.368c0.5-0.5,1-1,1.5-1.5
			c-1.798-0.2-3.215-2.079-4.577-3.128c-1.533-1.181-3.024,1.428-1.515,2.59c2.188,1.684,3.226,3.219,6.092,3.538
			c0.819,0.091,1.491-0.752,1.5-1.5c0.061-5.892,2.561-28.051-9.592-21.295C463.219,163.645,464.731,166.236,466.424,165.295
			L466.424,165.295z"/>
	</g>
</g>
<g>
	<g>
		<path d="M465.001,177.5c0.677-0.02,1.344-0.133,1.999-0.3c0.271-0.068,0.537-0.151,0.807-0.229
			c0.117-0.034,0.234-0.066,0.354-0.097c0.06-0.016,0.539-0.06,0.175-0.04c0.815-0.044,1.5-0.649,1.5-1.5
			c0-0.784-0.684-1.544-1.5-1.5c-1.146,0.062-2.188,0.634-3.333,0.666C463.07,174.555,463.065,177.555,465.001,177.5L465.001,177.5z
			"/>
	</g>
</g>
<g>
	<g>
		<path d="M488.221,155.602c-0.648,2.101-0.67,4.398-1.85,6.309c-1.02,1.651,1.576,3.156,2.591,1.514
			c1.337-2.166,1.419-4.652,2.15-7.025C491.686,154.545,488.788,153.759,488.221,155.602L488.221,155.602z"/>
	</g>
</g>
<g>
	<g>
		<path d="M483.399,167.446c3.986-0.784,8.197-1.813,12.268-1.946c1.931-0.063,1.937-3.063,0-3
			c-4.337,0.143-8.818,1.218-13.063,2.054C480.704,164.927,481.511,167.818,483.399,167.446L483.399,167.446z"/>
	</g>
</g>
<g>
	<g>
		<path d="M493.555,164.269c-1.257,4.726-1.386,9.535-1.389,14.398c0.5-0.5,1-1,1.5-1.5c-0.889,0-1.776,0-2.665,0
			c-1.936,0-1.936,3,0,3c0.889,0,1.776,0,2.665,0c0.818,0,1.5-0.683,1.5-1.5c0.003-4.6,0.092-9.128,1.28-13.602
			C496.945,163.193,494.051,162.4,493.555,164.269L493.555,164.269z"/>
	</g>
</g>
<g>
	<g>
		<path d="M485.091,175.962c2.271-1.715,5.194-2.649,7.905-3.391c1.437-0.393,2.9-0.659,4.393-0.618
			c1.49,0.041,0.869,0.948,0.316,1.957c-0.93,1.697,1.661,3.211,2.591,1.514c2.149-3.927,0.197-6.719-4.189-6.445
			c-4.117,0.257-9.21,1.885-12.529,4.394C482.054,174.522,483.546,177.13,485.091,175.962L485.091,175.962z"/>
	</g>
</g>
<g>
	<g>
		<path d="M489.399,184.78c4.807-2.003,9.927-3.344,14.358-6.151c1.629-1.032,0.126-3.629-1.515-2.59
			c-4.214,2.67-9.07,3.943-13.642,5.849C486.844,182.62,487.614,185.524,489.399,184.78L489.399,184.78z"/>
	</g>
</g>
<g>
	<g>
		<path d="M508.221,150.936c-1.055,2.822-1.518,5.706-3.614,8.004c-1.104,1.209,0.35,3.352,1.817,2.355
			c0.754-0.511,7.478-4.727,7.579-2.122c0.119,3.103-4.903,5.717-7.094,6.866c-1.714,0.899-0.196,3.488,1.515,2.59
			c3.387-1.778,10.139-6.085,8.314-10.941c-1.881-5.011-9.288-0.707-11.829,1.018c0.605,0.785,1.212,1.57,1.817,2.355
			c2.497-2.735,3.125-5.953,4.386-9.328C511.791,149.917,508.891,149.14,508.221,150.936L508.221,150.936z"/>
	</g>
</g>
<g>
	<g>
		<path d="M504.834,168.667c0,3.535,0,7.07,0,10.605c0,1.935,3,1.935,3,0c0-0.202,0-0.403,0-0.605c0-1.935-3-1.935-3,0
			c0,0.202,0,0.403,0,0.605c0,1.935,3,1.935,3,0c0-3.535,0-7.07,0-10.605C507.834,166.732,504.834,166.732,504.834,168.667
			L504.834,168.667z"/>
	</g>
</g>
<g>
	<g>
		<path d="M510.065,168.78c5.959-2.007,11.784-1.42,11.68,5.98c-0.038,2.633-1.655,10.548-5.41,10.405c-1.937-0.073-1.929,2.927,0,3
			c6.064,0.23,8.354-9.436,8.418-13.928c0.132-9.231-8.16-10.818-15.483-8.353C507.445,166.502,508.228,169.399,510.065,168.78
			L510.065,168.78z"/>
	</g>
</g>
<g>
	<g>
		<path d="M509.399,173.446c1.99-0.477,3.646-0.532,5.207,0.948c1.403,1.33,3.528-0.788,2.121-2.121
			c-2.369-2.245-5.061-2.453-8.125-1.72C506.721,171.004,507.52,173.896,509.399,173.446L509.399,173.446z"/>
	</g>
</g>
<g>
	<g>
		<path d="M509.001,178.834c3.592-0.094,6.896-1.304,10.09-2.872c1.735-0.853,0.216-3.439-1.515-2.59
			c-2.71,1.33-5.527,2.383-8.575,2.462C507.07,175.885,507.065,178.885,509.001,178.834L509.001,178.834z"/>
	</g>
</g>
<g>
	<g>
		<path d="M512.834,167.334c0.636,6.874,0.666,13.769,0.666,20.666c0,1.935,3,1.935,3,0c0-6.897-0.03-13.792-0.666-20.666
			C515.656,165.425,512.656,165.407,512.834,167.334L512.834,167.334z"/>
	</g>
</g>
<g>
	<g>
		<path d="M384.888,269.602c-1.667,4.022-5.54,7.29-7.85,10.976c-0.528,0.844-0.004,1.926,0.896,2.203
			c4.771,1.471,7.86,7.911,13.464,6c1.82-0.619,1.039-3.52-0.797-2.893c-2.556,0.871-4.364-1.141-6.166-2.67
			c-1.729-1.469-3.522-2.658-5.704-3.33c0.299,0.734,0.598,1.469,0.896,2.203c2.48-3.961,6.354-7.354,8.15-11.692
			C388.521,268.611,385.616,267.841,384.888,269.602L384.888,269.602z"/>
	</g>
</g>
<g>
	<g>
		<path d="M440,202.583c-0.397,7.957,0.724,15.824,2.054,23.648c0.323,1.904,3.214,1.095,2.893-0.797
			c-1.286-7.569-2.33-15.159-1.946-22.852C443.097,200.649,440.096,200.658,440,202.583L440,202.583z"/>
	</g>
</g>
<g>
	<g>
		<path d="M458.399,199.887c-5.208-1.333-9.411,3.809-6.469,8.373c1.429,2.217,3.461,3.919,5.347,5.729
			c1.345,1.29,2.577,2.65,3.557,4.242c1.419,2.308-0.214,4.754-2.807,4.4c-6.506-0.89,0.758-10.572,2.017-13.068
			c1.451-2.878,3.522-7.801-0.286-9.775c-1.715-0.889-3.232,1.7-1.514,2.591c2.935,1.521-4.095,11.499-5.12,13.569
			c-1.704,3.44-0.649,8.267,3.447,9.395c3.749,1.032,8.609-1.429,7.795-5.932c-0.498-2.756-2.352-4.854-4.236-6.817
			c-1.13-1.179-2.359-2.265-3.535-3.397c-0.797-0.768-1.421-1.541-2.074-2.45c-1.409-1.962,0.263-4.688,3.082-3.966
			C459.477,203.26,460.272,200.366,458.399,199.887L458.399,199.887z"/>
	</g>
</g>
</svg>
