<?xml version="1.0" encoding="utf-8"?>
<!-- Generator: Adobe Illustrator 16.2.0, SVG Export Plug-In . SVG Version: 6.00 Build 0)  -->
<!DOCTYPE svg PUBLIC "-//W3C//DTD SVG 1.1//EN" "http://www.w3.org/Graphics/SVG/1.1/DTD/svg11.dtd">
<svg version="1.1" id="图层_1" xmlns="http://www.w3.org/2000/svg" xmlns:xlink="http://www.w3.org/1999/xlink" x="0px" y="0px"
	 width="560px" height="960px" viewBox="0 0 560 960" enable-background="new 0 0 560 960" xml:space="preserve">
<g>
	<path fill="#FFFFFF" d="M453.249,440.498c-100-9.092-111.363,156.817-13.636,172.727c115.909,18.182,170.454-159.091,34.091-175
		c-13.637-2.272-25-2.272-36.363,0"/>
	<g>
		<path d="M453.249,435.498c-30.795-2.623-58.518,11.985-73.612,38.947c-14.283,25.511-16.259,57.83-7.244,85.412
			c9.641,29.496,33.145,51.917,63.892,57.84c31.132,5.996,63.152-2.909,86.9-23.758c21.021-18.453,34.338-45.722,35.813-73.642
			c1.487-28.187-11.466-54.506-34.889-70.242c-9.939-6.677-21.432-11.037-33.015-13.85c-17.865-4.338-36.945-6.257-55.082-2.803
			c-6.331,1.206-3.643,10.843,2.658,9.643c13.659-2.601,27.219-1.201,40.828,1.005c8.706,1.411,17.426,3.678,25.561,7.119
			c13.117,5.55,24.871,14.276,32.829,26.19c14.6,21.857,13.865,50.564,3.785,74.095c-11.126,25.973-33.167,46.656-60.432,54.593
			c-29.616,8.621-63.637,1.953-84.252-21.825c-35.466-40.907-24.102-125.259,34.667-137.764c7.078-1.506,14.408-1.572,21.593-0.96
			C459.678,446.045,459.625,436.041,453.249,435.498L453.249,435.498z"/>
	</g>
</g>
<g>
	<g>
		<path d="M454.26,621.306c7.323,8.89,8.943,22.372,10.009,33.394c1.6,16.548,1.032,33.303,0.103,49.871
			c-1.733,30.884-6.939,61.796-7.03,92.745c-0.019,6.449,9.981,6.448,10,0c0.093-31.803,5.455-63.578,7.172-95.322
			c0.929-17.154,1.292-34.49-0.701-51.585c-1.478-12.674-4.165-26.08-12.481-36.173C457.227,609.254,450.193,616.371,454.26,621.306
			L454.26,621.306z"/>
	</g>
</g>
<g>
	<g>
		<path d="M448.249,622.315c-5.016,49.268-35.825,91.365-45.275,139.58c-1.234,6.298,8.403,8.983,9.643,2.658
			c9.643-49.192,40.507-91.888,45.633-142.238C458.902,615.901,448.896,615.965,448.249,622.315L448.249,622.315z"/>
	</g>
</g>
<g>
	<g>
		<path d="M456.532,623.578c17.541,21.354,33.703,43.85,48.082,67.455c14.453,23.729,27.277,48.927,34.724,75.794
			c1.72,6.206,11.368,3.567,9.643-2.658c-7.678-27.701-20.919-53.674-35.731-78.184c-14.729-24.369-31.579-47.485-49.646-69.478
			C459.507,611.521,452.474,618.639,456.532,623.578L456.532,623.578z"/>
	</g>
</g>
<g>
	<g>
		<path d="M403.203,949.566c27.738-45.762,28.473-104.493,62.218-146.988c3.966-4.993-3.062-12.12-7.07-7.07
			c-34.547,43.503-35.504,102.359-63.782,149.012C391.217,950.049,399.866,955.071,403.203,949.566L403.203,949.566z"/>
	</g>
</g>
<g>
	<g>
		<path d="M458.568,806.566c26.554,52.788,64.671,98.653,92,151c2.186,4.188,9.967,2.496,9.317-2.523
			c-0.403-3.117-1.27-5.247-3.465-7.535c-4.471-4.662-11.533,2.419-7.07,7.07c0.535,0.713,0.713,0.867,0.535,0.465
			c3.105-0.841,6.212-1.683,9.317-2.523c-27.329-52.347-65.446-98.213-92-151C464.305,795.758,455.679,800.822,458.568,806.566
			L458.568,806.566z"/>
	</g>
</g>
<g>
	<g>
		<path d="M416.442,720.372c-44.884-20.724-77.407-61.083-92.143-107.871c-7.535-23.929-11.027-50.211-5.677-74.949
			c2.488-11.501,7.015-22.444,11.824-33.138c5.732-12.743,11.329-25.676,18.791-37.52c10.858-17.234,25.594-31.537,39.904-45.858
			c7.457-7.462,14.815-15.034,21.999-22.76c7.645-8.222,14.976-16.875,24.301-23.27c5.282-3.622,0.287-12.292-5.047-8.635
			c-11.456,7.855-20.214,18.468-29.721,28.441c-9.476,9.941-19.183,19.64-28.827,29.418c-9.203,9.331-17.984,19.019-25.76,29.585
			c-8.427,11.45-14.345,24.068-20.304,36.901c-10.233,22.036-19.033,43.756-19.662,68.38c-0.644,25.199,5.418,50.852,15.093,74.002
			c17.356,41.534,49.069,76.926,90.181,95.907C417.208,731.69,422.292,723.073,416.442,720.372L416.442,720.372z"/>
	</g>
</g>
<g>
	<path fill="#FFFF00" d="M426.919,370.689c-14-30-23-106,6-135c44-45,119-2,114,56c-4,52-69,72-112,82"/>
	<g>
		<path d="M431.236,368.166c-7.534-16.393-10.522-35.323-11.899-53.163c-1.535-19.914-0.912-41.696,7.059-60.329
			c7.402-17.302,24.075-29.864,42.774-32.282c18.396-2.378,37.026,4.662,50.795,16.72c25.956,22.73,29.745,61.689,5.985,87.377
			c-23.159,25.039-60.304,34.894-92.36,42.379c-6.278,1.466-3.615,11.107,2.658,9.643c37.257-8.699,80.696-21.184,104.051-53.923
			c11.544-16.183,14.439-37.342,9.458-56.38c-4.84-18.495-17.708-34.156-33.603-44.38c-15.836-10.186-35.347-14.15-53.804-10.335
			c-18.662,3.857-35.392,17.078-43.683,34.146c-8.863,18.246-10.433,39.704-9.759,59.678c0.652,19.323,3.701,39.161,10.209,57.415
			c1.025,2.878,2.208,5.707,3.483,8.482C425.292,379.067,433.909,373.982,431.236,368.166L431.236,368.166z"/>
	</g>
</g>
<g>
</g>
<g>
</g>
<g>
</g>
<g>
</g>
<g>
</g>
<g>
</g>
<g>
</g>
<g>
</g>
<g>
</g>
<g>
</g>
<g>
</g>
<g>
</g>
<g>
</g>
<g>
</g>
<g>
</g>
</svg>
