<?xml version="1.0" encoding="utf-8"?>
<!-- Generator: Adobe Illustrator 16.2.0, SVG Export Plug-In . SVG Version: 6.00 Build 0)  -->
<!DOCTYPE svg PUBLIC "-//W3C//DTD SVG 1.1//EN" "http://www.w3.org/Graphics/SVG/1.1/DTD/svg11.dtd">
<svg version="1.1" id="图层_1" xmlns="http://www.w3.org/2000/svg" xmlns:xlink="http://www.w3.org/1999/xlink" x="0px" y="0px"
	 width="560px" height="960px" viewBox="0 0 560 960" enable-background="new 0 0 560 960" xml:space="preserve">
<g>
	<path fill="#FFFFFF" d="M452.828,440.186c-100-9.092-111.364,156.817-13.636,172.727c115.908,18.182,170.453-159.091,34.09-175
		c-13.637-2.272-25-2.272-36.363,0"/>
	<g>
		<path d="M452.828,435.186c-30.796-2.623-58.518,11.984-73.613,38.947c-14.283,25.511-16.259,57.83-7.244,85.412
			c9.641,29.496,33.145,51.917,63.892,57.84c31.132,5.996,63.151-2.909,86.9-23.758c21.021-18.453,34.338-45.722,35.812-73.642
			c1.487-28.187-11.466-54.506-34.889-70.241c-9.939-6.678-21.432-11.037-33.015-13.85c-17.865-4.339-36.945-6.258-55.082-2.804
			c-6.331,1.205-3.643,10.843,2.658,9.643c13.659-2.601,27.219-1.201,40.828,1.005c8.706,1.411,17.426,3.678,25.561,7.119
			c13.117,5.55,24.871,14.276,32.829,26.19c14.6,21.857,13.865,50.564,3.785,74.095c-11.125,25.973-33.167,46.656-60.431,54.593
			c-29.616,8.621-63.637,1.953-84.252-21.825c-35.466-40.907-24.102-125.259,34.667-137.764c7.078-1.506,14.408-1.573,21.593-0.961
			C459.257,445.733,459.204,435.729,452.828,435.186L452.828,435.186z"/>
	</g>
</g>
<g>
	<g>
		<path d="M453.839,620.993c7.323,8.89,8.943,22.372,10.008,33.394c1.6,16.548,1.032,33.303,0.103,49.871
			c-1.733,30.884-6.939,61.796-7.03,92.745c-0.019,6.449,9.981,6.448,10,0c0.093-31.803,5.455-63.578,7.172-95.322
			c0.929-17.154,1.293-34.49-0.7-51.585c-1.478-12.674-4.166-26.08-12.481-36.173C456.806,608.941,449.772,616.059,453.839,620.993
			L453.839,620.993z"/>
	</g>
</g>
<g>
	<g>
		<path d="M447.828,622.003c-5.017,49.268-35.826,91.364-45.275,139.58c-1.234,6.298,8.403,8.983,9.643,2.658
			c9.642-49.192,40.506-91.888,45.633-142.238C458.481,615.589,448.475,615.652,447.828,622.003L447.828,622.003z"/>
	</g>
</g>
<g>
	<g>
		<path d="M456.11,623.266c17.541,21.354,33.703,43.85,48.082,67.455c14.453,23.729,27.277,48.927,34.724,75.794
			c1.72,6.206,11.368,3.567,9.643-2.658c-7.678-27.701-20.919-53.674-35.731-78.184c-14.729-24.369-31.579-47.485-49.646-69.478
			C459.085,611.208,452.052,618.326,456.11,623.266L456.11,623.266z"/>
	</g>
</g>
<g>
	<g>
		<path d="M402.781,949.254c27.738-45.762,28.473-104.493,62.218-146.988c3.966-4.993-3.062-12.12-7.07-7.07
			c-34.547,43.503-35.504,102.359-63.782,149.012C390.794,949.736,399.444,954.759,402.781,949.254L402.781,949.254z"/>
	</g>
</g>
<g>
	<g>
		<path d="M458.146,806.254c26.554,52.788,64.671,98.653,92,151c2.186,4.188,9.967,2.496,9.317-2.523
			c-0.403-3.117-1.27-5.247-3.465-7.535c-4.471-4.662-11.533,2.419-7.07,7.07c0.535,0.713,0.713,0.867,0.535,0.465
			c3.105-0.842,6.212-1.683,9.317-2.523c-27.329-52.348-65.446-98.213-92-151C463.883,795.445,455.257,800.51,458.146,806.254
			L458.146,806.254z"/>
	</g>
</g>
<g>
	<g>
		<path d="M387.464,735.73c-35.65,0.781-52.275-35.599-60.566-64.914c-10.142-35.86-12.426-74.053-11.267-111.141
			c2.357-75.404,19.923-152.173-7.346-225.274c-2.232-5.985-11.901-3.396-9.643,2.658c21.722,58.231,14.601,119.823,9.613,180.282
			c-3.563,43.186-4.39,86.241,2.966,129.064c6.966,40.558,25.27,100.441,76.243,99.324
			C393.903,745.59,393.917,735.589,387.464,735.73L387.464,735.73z"/>
	</g>
</g>
<g>
	<path fill="#FFFF00" d="M298.464,334.73c-49,14-102-48-99-95c4-62,96-82,107-13c5,29,10,88-13,109"/>
	<g>
		<path d="M297.135,329.909c-42.879,11.705-82.132-33.825-91.042-71.4c-4.003-16.883-1.042-35.071,9.896-48.8
			c9.084-11.402,22.861-19.286,37.373-21.023c11.392-1.363,23.384,1.116,32.385,8.496c11.241,9.217,14.744,22.96,16.836,36.715
			c2.625,17.253,3.732,34.888,2.776,52.32c-0.857,15.631-3.428,34.668-15.43,45.979c-4.702,4.431,2.383,11.488,7.071,7.07
			c14.388-13.559,17.405-35.646,18.432-54.372c1.112-20.28-0.999-40.695-4.345-60.68c-2.732-16.318-11.655-31.544-26.352-39.684
			c-13.048-7.227-28.917-7.643-43.012-3.562c-15.084,4.368-28.178,14.259-36.921,27.225c-10.272,15.234-12.26,34.091-8.619,51.769
			c8.153,39.588,45.324,81.342,87.881,81.78c5.289,0.055,10.64-0.801,15.729-2.19C306.007,337.855,303.366,328.208,297.135,329.909
			L297.135,329.909z"/>
	</g>
</g>
<g>
	<g>
		<path d="M386.131,745.397c9.349-0.247,18.177-3.297,27.33-4.846c6.349-1.074,3.647-10.71-2.658-9.643
			c-8.251,1.396-16.254,4.266-24.671,4.488C379.695,735.567,379.679,745.568,386.131,745.397L386.131,745.397z"/>
	</g>
</g>
<g>
</g>
<g>
</g>
<g>
</g>
<g>
</g>
<g>
</g>
<g>
</g>
<g>
</g>
<g>
</g>
<g>
</g>
<g>
</g>
<g>
</g>
<g>
</g>
<g>
</g>
<g>
</g>
<g>
</g>
</svg>
