<?xml version="1.0" encoding="utf-8"?>
<!-- Generator: Adobe Illustrator 16.2.0, SVG Export Plug-In . SVG Version: 6.00 Build 0)  -->
<!DOCTYPE svg PUBLIC "-//W3C//DTD SVG 1.1//EN" "http://www.w3.org/Graphics/SVG/1.1/DTD/svg11.dtd">
<svg version="1.1" id="图层_1" xmlns="http://www.w3.org/2000/svg" xmlns:xlink="http://www.w3.org/1999/xlink" x="0px" y="0px"
	 width="560px" height="960px" viewBox="0 0 560 960" enable-background="new 0 0 560 960" xml:space="preserve">
<g>
	<path fill="#FFFFFF" d="M452.717,440.363c-99.999-9.092-111.363,156.818-13.636,172.727c115.909,18.182,170.454-159.09,34.091-175
		c-13.637-2.271-25-2.271-36.363,0"/>
	<g>
		<path d="M452.717,435.363c-30.796-2.623-58.518,11.985-73.612,38.947c-14.282,25.512-16.259,57.83-7.244,85.413
			c9.641,29.496,33.144,51.917,63.891,57.839c31.132,5.995,63.152-2.908,86.9-23.757c21.021-18.454,34.339-45.722,35.813-73.642
			c1.487-28.188-11.466-54.506-34.889-70.242c-9.938-6.677-21.431-11.037-33.015-13.85c-17.865-4.339-36.945-6.256-55.082-2.804
			c-6.33,1.205-3.643,10.842,2.658,9.643c13.658-2.6,27.22-1.201,40.828,1.005c8.706,1.411,17.426,3.678,25.561,7.119
			c13.117,5.55,24.871,14.276,32.829,26.191c14.6,21.856,13.865,50.563,3.785,74.094c-11.126,25.973-33.167,46.657-60.432,54.593
			c-29.615,8.621-63.637,1.954-84.252-21.825c-35.466-40.906-24.102-125.259,34.667-137.764c7.078-1.506,14.408-1.573,21.593-0.961
			C459.146,445.911,459.093,435.906,452.717,435.363L452.717,435.363z"/>
	</g>
</g>
<g>
	<g>
		<path d="M453.728,621.172c7.323,8.89,8.943,22.372,10.009,33.394c1.6,16.548,1.032,33.302,0.103,49.871
			c-1.733,30.884-6.939,61.796-7.03,92.745c-0.019,6.449,9.981,6.447,10,0c0.093-31.803,5.454-63.578,7.172-95.322
			c0.929-17.154,1.292-34.49-0.701-51.585c-1.478-12.675-4.165-26.08-12.481-36.173C456.694,609.12,449.661,616.237,453.728,621.172
			L453.728,621.172z"/>
	</g>
</g>
<g>
	<g>
		<path d="M447.717,622.182c-5.016,49.268-35.825,91.364-45.275,139.579c-1.234,6.298,8.403,8.983,9.643,2.658
			c9.643-49.192,40.507-91.887,45.633-142.237C458.37,615.768,448.363,615.831,447.717,622.182L447.717,622.182z"/>
	</g>
</g>
<g>
	<g>
		<path d="M456,623.443c17.541,21.354,33.703,43.85,48.082,67.455c14.453,23.729,27.276,48.927,34.724,75.794
			c1.72,6.206,11.368,3.567,9.643-2.658c-7.678-27.701-20.92-53.674-35.731-78.184c-14.729-24.369-31.579-47.485-49.646-69.478
			C458.974,611.386,451.941,618.504,456,623.443L456,623.443z"/>
	</g>
</g>
<g>
	<g>
		<path d="M402.671,949.432c27.738-45.762,28.473-104.493,62.218-146.988c3.966-4.993-3.062-12.12-7.07-7.07
			c-34.548,43.503-35.504,102.359-63.782,149.012C390.685,949.914,399.334,954.937,402.671,949.432L402.671,949.432z"/>
	</g>
</g>
<g>
	<g>
		<path d="M458.036,806.432c26.554,52.788,64.671,98.653,92,151c2.186,4.188,9.967,2.496,9.317-2.523
			c-0.403-3.117-1.27-5.247-3.465-7.535c-4.471-4.662-11.533,2.419-7.07,7.07c0.535,0.713,0.714,0.867,0.535,0.465
			c3.105-0.841,6.212-1.683,9.317-2.523c-27.329-52.347-65.446-98.213-92-151C463.772,795.623,455.146,800.688,458.036,806.432
			L458.036,806.432z"/>
	</g>
</g>
<g>
	<g>
		<path d="M407.306,736.815c-43.533-15.549-73.702-58.031-95.05-96.905c-10.871-19.794-19.884-40.553-27.076-61.952
			c-8.712-25.921-18.717-51.544-33.378-74.743c-10.966-17.353-24.716-33.697-38.337-49.034
			c-11.136-12.539-26.355-29.098-44.475-29.528c-6.453-0.153-6.438,9.847,0,10c8.862,0.211,16.804,6.635,23.157,12.191
			c8.504,7.436,15.932,16.096,23.112,24.784c15.367,18.596,29.74,37.411,40.504,59.128c11.476,23.151,18.267,48.031,27.893,71.916
			c8.71,21.615,19.262,42.5,31.693,62.214c21.452,34.018,50.396,67.678,89.299,81.572
			C410.735,748.633,413.333,738.968,407.306,736.815L407.306,736.815z"/>
	</g>
</g>
<g>
	<path fill="#FFFF00" d="M167.489,432.652c-31.499,0-65.997,13.499-95.995-4.5c-29.999-19.5-52.498-59.997-40.498-95.996
		c10.5-31.499,49.498-52.497,80.996-38.998c29.999,12,47.998,53.998,53.997,85.496c3,13.5,0,34.498,6,46.498"/>
	<g>
		<path d="M167.489,427.652c-27.323,0.194-55.345,9.888-82.234,1.375c-23.593-7.47-41.926-32.323-49.182-55.035
			c-7.4-23.166-2.252-47.636,15.797-64.244c16.306-15.003,40.702-20.399,61.006-10.757c21.679,10.295,34.217,35.149,41.771,56.691
			c3.81,10.865,6.927,22.359,7.679,33.877c0.834,12.762-0.205,26.237,5.345,38.116c2.728,5.839,11.347,0.758,8.635-5.047
			c-5.04-10.787-3.293-24.397-4.186-35.966c-0.846-10.975-3.915-21.92-7.38-32.324c-7.085-21.268-18.292-43.092-36.219-57.195
			c-37.23-29.289-93.154-4.836-103.958,39.401c-8.116,33.23,10.102,68.361,35.318,89.24c14.409,11.931,31.424,16.698,49.95,16.725
			c19.332,0.028,38.325-4.72,57.658-4.857C173.935,437.606,173.939,427.606,167.489,427.652L167.489,427.652z"/>
	</g>
</g>
<g>
</g>
<g>
</g>
<g>
</g>
<g>
</g>
<g>
</g>
<g>
</g>
<g>
</g>
<g>
</g>
<g>
</g>
<g>
</g>
<g>
</g>
<g>
</g>
<g>
</g>
<g>
</g>
<g>
</g>
</svg>
