<?xml version="1.0" encoding="utf-8"?>
<!-- Generator: Adobe Illustrator 16.2.0, SVG Export Plug-In . SVG Version: 6.00 Build 0)  -->
<!DOCTYPE svg PUBLIC "-//W3C//DTD SVG 1.1//EN" "http://www.w3.org/Graphics/SVG/1.1/DTD/svg11.dtd">
<svg version="1.1" id="图层_1" xmlns="http://www.w3.org/2000/svg" xmlns:xlink="http://www.w3.org/1999/xlink" x="0px" y="0px"
	 width="40px" height="40px" viewBox="0 0 40 40" enable-background="new 0 0 40 40" xml:space="preserve">
<g>
	<g>
		<path d="M6.547,7.909c9.154,7.848,18.639,16.222,24.974,26.612c0.179-0.684,0.358-1.368,0.538-2.052
			c-0.093,0.046-0.186,0.092-0.277,0.139c-1.73,0.865-0.211,3.452,1.514,2.59c0.093-0.046,0.186-0.092,0.277-0.139
			c0.722-0.36,0.943-1.388,0.538-2.052C27.636,22.387,18.021,13.806,8.668,5.788C7.208,4.536,5.076,6.648,6.547,7.909L6.547,7.909z"
			/>
	</g>
</g>
<g>
	<g>
		<path d="M29.585,5.927c-4.808,4.383-9.021,9.554-13.272,14.472c-3.111,3.599-6.498,7.489-8.846,11.639
			c-0.954,1.686,1.638,3.197,2.591,1.514c2.531-4.475,6.254-8.576,9.596-12.442c3.85-4.454,7.699-9.092,12.053-13.062
			C33.139,6.742,31.011,4.626,29.585,5.927L29.585,5.927z"/>
	</g>
</g>
<g>
</g>
<g>
</g>
<g>
</g>
<g>
</g>
<g>
</g>
<g>
</g>
<g>
</g>
<g>
</g>
<g>
</g>
<g>
</g>
<g>
</g>
<g>
</g>
<g>
</g>
<g>
</g>
<g>
</g>
</svg>
