<?xml version="1.0" encoding="utf-8"?>
<!-- Generator: Adobe Illustrator 16.2.0, SVG Export Plug-In . SVG Version: 6.00 Build 0)  -->
<!DOCTYPE svg PUBLIC "-//W3C//DTD SVG 1.1//EN" "http://www.w3.org/Graphics/SVG/1.1/DTD/svg11.dtd">
<svg version="1.1" id="图层_1" xmlns="http://www.w3.org/2000/svg" xmlns:xlink="http://www.w3.org/1999/xlink" x="0px" y="0px"
	 width="100px" height="55.124px" viewBox="0 0 100 55.124" enable-background="new 0 0 100 55.124" xml:space="preserve">
<g>
	<g>
		<path d="M11.824,16.864c1.28,2.635,0.759,6.941,0.948,9.827c0.215,3.295-0.196,6.625,0.221,9.896c0.241,1.892,3.244,1.916,3,0
			c-0.474-3.721-0.068-7.567-0.314-11.323c-0.211-3.232,0.172-6.958-1.264-9.915C13.569,13.61,10.982,15.132,11.824,16.864
			L11.824,16.864z"/>
	</g>
</g>
<g>
	<g>
		<path d="M13.577,16.921c5.536-0.057,11.021,1.624,12.747,7.447c0.966,3.262-0.86,5.437-3.145,7.399
			c-1.59,1.366-4.01,4.469-6.457,3.604c-1.829-0.646-2.608,2.252-0.798,2.893c3.11,1.1,5.792-1.222,8.016-3.148
			c2.947-2.553,5.365-4.691,5.618-8.763c0.543-8.756-8.789-12.505-15.98-12.432C11.643,13.94,11.641,16.94,13.577,16.921
			L13.577,16.921z"/>
	</g>
</g>
<g>
	<g>
		<path d="M35.316,32.253c2.713-0.075,5.259-0.075,7.771-1.219c2.024-0.921,4.298-3.683,3.73-6.058
			c-1.241-5.199-8.351-3.15-10.662,0.013c-2.639,3.613-3.106,9.659,0.831,12.532c3.39,2.474,8.837,0.036,11.901-1.813
			c1.653-0.998,0.146-3.593-1.515-2.591c-3.481,2.102-9.903,4.491-10.253-1.681c-0.18-3.172,2.195-7.162,5.817-6.615
			c2.858,0.432-1.272,3.635-2.323,3.993c-1.651,0.561-3.579,0.39-5.298,0.438C33.385,29.306,33.38,32.307,35.316,32.253
			L35.316,32.253z"/>
	</g>
</g>
<g>
	<g>
		<path d="M51.526,25.674c1.012,2.384,0.935,5.056,0.939,7.596c1,0,2,0,3,0c-0.028-2.368,0.345-4.471,1.511-6.566
			c0.367-0.659,0.984-1.218,1.512-1.743c0.519-0.517,0.406,0.572,0.458,1.048c0.246,2.268-0.188,4.538-0.188,6.804
			c0,1.659,2.606,2.09,2.946,0.399c0.637-3.173,2.173-8.49,5.702-9.479c-0.614-0.349-1.229-0.698-1.845-1.047
			c0.983,3.843,1.392,7.787,2.174,11.67c0.382,1.896,3.273,1.091,2.893-0.798c-0.782-3.883-1.19-7.827-2.174-11.67
			c-0.202-0.789-1.068-1.265-1.845-1.047c-4.697,1.315-6.931,7.255-7.798,11.574c0.982,0.133,1.964,0.266,2.946,0.399
			c0-2.854,1.573-9.051-1.554-10.883c-1.908-1.118-3.745,0.716-4.903,2.05c-2.236,2.576-2.876,5.975-2.836,9.291
			c0.023,1.933,3.003,1.936,3,0c-0.006-3.147-0.106-6.181-1.35-9.109C53.362,22.385,50.779,23.916,51.526,25.674L51.526,25.674z"/>
	</g>
</g>
<g>
	<g>
		<path d="M79.022,20.557c-3.517,0.119-3.868,4.483-3.937,7.173c-0.105,4.123,2.055,7.029,6.228,7.523
			c4.595,0.543,7.979-3.494,7.824-7.814c-0.168-4.688-5.061-7.508-9.199-8.026c-1.916-0.24-1.894,2.763,0,3
			c2.4,0.301,5.137,1.78,5.99,4.162c1.04,2.902-1.129,5.487-3.981,5.691c-2.624,0.188-3.823-1.772-3.863-4.104
			c-0.012-0.656-0.037-4.572,0.938-4.605C80.951,23.492,80.958,20.491,79.022,20.557L79.022,20.557z"/>
	</g>
</g>
<g>
	<g>
		<path d="M0.292,0.89c0,17.506,0,35.011,0,52.517c0,1.935,3,1.935,3,0c0-0.915,0-1.831,0-2.746c0-1.935-3-1.935-3,0
			c0,0.915,0,1.831,0,2.746c0,1.935,3,1.935,3,0c0-17.506,0-35.011,0-52.517C3.292-1.044,0.292-1.044,0.292,0.89L0.292,0.89z"/>
	</g>
</g>
<g>
	<g>
		<path d="M96.631,0.89c0,17.277,0,34.554,0,51.831c0,1.935,3,1.935,3,0c0-17.277,0-34.554,0-51.831
			C99.631-1.044,96.631-1.044,96.631,0.89L96.631,0.89z"/>
	</g>
</g>
<g>
	<g>
		<path d="M1.563,54.907c31.884,0,63.768,0,95.652,0c1.935,0,1.935-3,0-3c-31.884,0-63.768,0-95.652,0
			C-0.372,51.907-0.372,54.907,1.563,54.907L1.563,54.907z"/>
	</g>
</g>
<g>
</g>
<g>
</g>
<g>
</g>
<g>
</g>
<g>
</g>
<g>
</g>
<g>
</g>
<g>
</g>
<g>
</g>
<g>
</g>
<g>
</g>
<g>
</g>
<g>
</g>
<g>
</g>
<g>
</g>
</svg>
