<?xml version="1.0" encoding="utf-8"?>
<!-- Generator: Adobe Illustrator 16.2.0, SVG Export Plug-In . SVG Version: 6.00 Build 0)  -->
<!DOCTYPE svg PUBLIC "-//W3C//DTD SVG 1.1//EN" "http://www.w3.org/Graphics/SVG/1.1/DTD/svg11.dtd">
<svg version="1.1" xmlns="http://www.w3.org/2000/svg" xmlns:xlink="http://www.w3.org/1999/xlink" x="0px" y="0px" width="960px"
	 height="292px" viewBox="0 136.5 960 292" enable-background="new 0 136.5 960 292" xml:space="preserve">
<g id="图层_1">
	<g id="图层_1_1_">
		<g>
			<g>
				<path d="M93.317,209.523c0.835-1.274,1.171-2.733,2-4c-2.878-1.682-5.756-3.364-8.635-5.047
					c-6.558,15.532-21.681,26.364-25.504,43.194c-1.426,6.279,8.214,8.946,9.643,2.658c3.573-15.731,18.319-26.178,24.496-40.807
					c2.453-5.81-5.007-10.583-8.635-5.047c-0.835,1.275-1.171,2.734-2,4C81.137,209.888,89.8,214.893,93.317,209.523L93.317,209.523
					z"/>
			</g>
		</g>
		<g>
			<g>
				<path d="M62.329,297.821c34.227-7.852,67.01-21.724,99.194-35.504c5.913-2.531,0.813-11.144-5.047-8.635
					c-31.393,13.441-63.425,26.839-96.806,34.496C53.386,289.62,56.052,299.262,62.329,297.821L62.329,297.821z"/>
			</g>
		</g>
		<g>
			<g>
				<path d="M88.179,250.329C98.088,283.664,98.149,318.695,102,353c2.508-1.439,5.016-2.879,7.523-4.317
					c-6.94-4.242-11.883-10.95-17.988-16.218c-4.856-4.19-11.962,2.851-7.071,7.069c6.783,5.854,12.284,13.06,20.012,17.782
					c2.981,1.822,7.955-0.477,7.523-4.316c-3.949-35.173-4.018-71.151-14.179-105.329C95.988,241.504,86.336,244.132,88.179,250.329
					L88.179,250.329z"/>
			</g>
		</g>
		<g>
			<g>
				<path d="M63.523,337.317c19.5-14.212,41.496-24.394,62-37c5.481-3.37,0.462-12.021-5.047-8.635
					c-20.504,12.605-42.5,22.788-62,37C53.321,332.44,58.302,341.122,63.523,337.317L63.523,337.317z"/>
			</g>
		</g>
		<g>
			<g>
				<path d="M112.179,227.329c8.016,19.442,16.284,38.781,24.315,58.219c4.165,10.078,8.243,20.19,12.199,30.353
					c2.873,7.377,5.353,14.949,8.818,22.078c3.544,7.29,9.081,18.566,17.281,21.556c13.301,4.85,9.929-18.081,9.029-23.862
					c-0.989-6.356-10.624-3.648-9.643,2.657c0.513,3.298,1.837,10.291,0.754,12.758c-0.286,0.649,1.253-1.049,2.319-1.102
					c1.007-0.049,1.189,0.389,0.135-0.31c-0.627-0.416-2.01-2.035-2.785-2.952c-5.968-7.055-9.595-15.943-12.813-24.477
					c-12.404-32.894-26.572-65.083-39.967-97.576C119.399,218.795,109.72,221.367,112.179,227.329L112.179,227.329z"/>
			</g>
		</g>
		<g>
			<g>
				<path d="M165.683,277.477C154.681,296.916,145.77,324.476,119,324c-6.452-0.114-6.441,9.886,0,10
					c13.969,0.247,25.832-5.676,34.698-16.342c8.739-10.514,13.942-23.336,20.619-35.136
					C177.498,276.904,168.858,271.866,165.683,277.477L165.683,277.477z"/>
			</g>
		</g>
		<g>
			<g>
				<path d="M142.671,218.821c3.683,1.324,7.506,2.189,11.224,3.405c2.283,0.747,5.961,1.925,6.105,4.773
					c0.324,6.417,10.326,6.447,10,0c-0.659-13.034-14.987-14.341-24.671-17.821C139.246,206.992,136.65,216.656,142.671,218.821
					L142.671,218.821z"/>
			</g>
		</g>
		<g>
			<g>
				<path d="M233.477,221.317c7.656,5.321-1.446,20.785-4.537,26.252c-5.046,8.928-11.473,18.327-19.476,24.896
					c-4.988,4.094,2.13,11.126,7.071,7.071c9.968-8.183,17.949-20.477,23.684-31.865c5.49-10.902,10.343-26.621-1.696-34.988
					C233.213,208.992,228.222,217.665,233.477,221.317L233.477,221.317z"/>
			</g>
		</g>
		<g>
			<g>
				<path d="M229.683,261.523c9.686,19.289,3.453,42.905,3.317,63.478c-0.042,6.465,9.786,6.426,10,0c0.123-3.691,0.877-7.309,1-11
					c0.215-6.452-9.785-6.432-10,0c-0.123,3.69-0.877,7.308-1,11c3.333,0,6.667,0,10,0c0.15-22.84,6.072-47.106-4.683-68.523
					C235.423,250.712,226.797,255.778,229.683,261.523L229.683,261.523z"/>
			</g>
		</g>
		<g>
			<g>
				<path d="M260.329,237.821c7.329-2.804,14.631-6.478,22.671-5.82c6.431,0.524,6.381-9.479,0-10
					c-8.998-0.734-17.126,3.04-25.329,6.179C251.711,230.459,254.296,240.13,260.329,237.821L260.329,237.821z"/>
			</g>
		</g>
		<g>
			<g>
				<path d="M271,268c-0.806,7.381-1.339,14.824-1.055,22.251c0.223,5.818,0.92,14.693,7.726,16.569
					c6.228,1.717,8.867-7.932,2.658-9.643c1.158,0.319,1.131,1.365,0.683,0.157c-0.392-1.057-0.573-2.193-0.765-3.297
					c-0.471-2.72-0.386-5.608-0.384-8.356c0.005-5.903,0.497-11.817,1.137-17.683C281.699,261.593,271.692,261.661,271,268L271,268z
					"/>
			</g>
		</g>
		<g>
			<g>
				<path d="M307.329,233.821c7.181-2.081,15.491-3.939,22.239,0.309c5.892,3.708,8.082,12.175,9.727,18.419
					c3.51,13.328,5.26,27.474,6.617,41.177c1.126,11.379,2.74,25.449-1.94,36.292c-1.659,3.842-4.098,6.493-7.848,6.826
					c-6.943,0.616-13.965-3.681-19.599-7.161c-5.502-3.4-10.52,5.253-5.047,8.635c11.532,7.126,28.514,14.153,38.59,1.012
					c8.03-10.473,7.171-26.77,6.376-39.168c-0.949-14.784-3.123-29.787-6.122-44.297c-3.489-16.883-10.682-34.167-30.491-34.282
					c-5.111-0.03-10.283,1.185-15.159,2.598C298.489,225.97,301.121,235.621,307.329,233.821L307.329,233.821z"/>
			</g>
		</g>
		<g>
			<g>
				<path d="M434,227c0.727,36.539-14.002,70.464-24.821,104.671c3.273,0.442,6.547,0.886,9.821,1.329
					c-0.13-0.861-0.024-1.688,0.317-2.478c3.437-5.479-5.218-10.495-8.635-5.047c-1.47,2.344-1.654,4.809-1.683,7.522
					c-0.061,5.783,8.146,6.627,9.821,1.329C429.925,299.224,444.746,264.501,444,227C443.872,220.56,433.872,220.548,434,227
					L434,227z"/>
			</g>
		</g>
		<g>
			<g>
				<path d="M435.683,296.523c4.126,6.247,8.065,12.565,12.722,18.444c3.5,4.42,9.938,11.346,16.12,7.35
					c5.395-3.486,0.387-12.146-5.047-8.635c0.72-0.465,2.551,0.383,1.223-0.384c-0.76-0.438-1.37-1.125-1.991-1.731
					c-2.154-2.104-3.964-4.56-5.72-6.995c-3.064-4.25-5.786-8.727-8.672-13.096C440.781,286.122,432.117,291.125,435.683,296.523
					L435.683,296.523z"/>
			</g>
		</g>
		<g>
			<g>
				<path d="M498.179,224.329c3.144,18.183,1.906,37.687-0.75,55.842c-2.456,16.782-6.305,37.885-18.964,50.294
					c-4.61,4.52,2.464,11.586,7.071,7.069c14.049-13.771,18.687-36.027,21.536-54.705c3.054-20.019,4.215-41.112,0.75-61.158
					C506.725,215.325,497.089,218.024,498.179,224.329L498.179,224.329z"/>
			</g>
		</g>
		<g>
			<g>
				<path d="M505.465,289.535c14.341,16.538,26.15,35.063,40,51.999c4.084,4.996,11.116-2.123,7.07-7.069
					c-13.851-16.938-25.653-35.456-40-52C508.304,277.584,501.262,284.688,505.465,289.535L505.465,289.535z"/>
			</g>
		</g>
		<g>
			<g>
				<path d="M579.179,267.329c1.133,7.377,3.278,17.149,9.286,22.206c4.898,4.124,12.011-2.913,7.07-7.07
					c-4.633-3.899-5.851-12.158-6.714-17.794C587.846,258.313,578.211,261.023,579.179,267.329L579.179,267.329z"/>
			</g>
		</g>
		<g>
			<g>
				<path d="M591.523,261.317c5.903-2.496,14.232-3.306,19.566,1.007c6.267,5.067,0.479,12.86-3.626,17.141
					c-4.463,4.652,2.601,11.732,7.07,7.071c8.16-8.507,13.496-20.741,4.359-30.6c-8.189-8.837-22.44-7.471-32.418-3.254
					C580.555,255.186,585.657,263.797,591.523,261.317L591.523,261.317z"/>
			</g>
		</g>
		<g>
			<g>
				<path d="M598.523,293.317c6.015-2.972,12.151-5.422,18.806-6.496c6.354-1.025,3.647-10.66-2.658-9.643
					c-7.476,1.207-14.442,4.168-21.194,7.504C587.694,287.54,592.764,296.164,598.523,293.317L598.523,293.317z"/>
			</g>
		</g>
		<g>
			<g>
				<path d="M624.523,224.317c6.63-4.332,14.063-8.645,22.251-8.169c5.235,0.305,8.979,4.583,11.45,8.761
					c7.768,13.113,8.22,30.647,9.57,45.399c1.776,19.388,2.907,40.559-1.493,58.916c-1.4,5.85-3.585,11.558-6.62,16.753
					c-1.27,2.173-2.812,4.34-5.007,5.639c-1.563,0.924-3.152-1.076-4.141-2.149c-4.369-4.761-11.422,2.33-7.07,7.069
					c5.175,5.639,12.302,7.022,18.504,2.143c6.068-4.774,9.331-12.787,11.876-19.835c7.578-20.99,5.974-45.028,4.104-66.831
					c-1.534-17.896-2.216-39.114-12.595-54.54c-11.522-17.128-31.232-11.355-45.877-1.789
					C614.102,219.194,619.107,227.856,624.523,224.317L624.523,224.317z"/>
			</g>
		</g>
		<g>
			<g>
				<path d="M639.179,237.329c2.083,13.474,2.514,27.363,1.809,40.963c-0.38,7.341-1.313,14.638-3.234,21.74
					c-1.412,5.216-3.66,11.404-8.275,14.649c-5.23,3.678-0.241,12.354,5.048,8.635c12.737-8.956,15.036-27.041,16.219-41.365
					c1.294-15.672,0.479-31.749-1.921-47.28C647.838,228.313,638.203,231.023,639.179,237.329L639.179,237.329z"/>
			</g>
		</g>
		<g>
			<g>
				<path d="M628.329,269.821c10.628-3.614,21.62-2.864,32.671-2.82c6.45,0.024,6.447-9.976,0-10
					c-11.922-0.047-23.866-0.722-35.329,3.179C619.602,262.243,622.207,271.904,628.329,269.821L628.329,269.821z"/>
			</g>
		</g>
		<g>
			<g>
				<path d="M625,293c12.686-0.148,25.134-2.883,37.329-6.18c6.219-1.681,3.576-11.327-2.658-9.643
					c-11.359,3.069-22.853,5.684-34.671,5.821C618.556,283.075,618.549,293.075,625,293L625,293z"/>
			</g>
		</g>
		<g>
			<g>
				<path d="M685.329,221.821c5.388-1.5,24.098-6.465,25.369,3.11c0.488,3.683-3.683,7.881-5.461,10.78
					c-2.544,4.145-3.857,8.801-2.85,13.62c1.896,9.058,11.605,12.493,17.097,18.828c8.088,9.33-10.193,16.042-16.484,16.84
					c-6.308,0.8-6.386,10.81,0,10c12.296-1.561,27.547-7.746,28.04-22.169c0.196-5.745-3.063-10.783-7.186-14.462
					c-3.744-3.346-8.696-5.711-11.276-10.174c-2.518-4.353,3.151-10.17,5.251-13.606c3.145-5.149,3.731-10.609,0.937-16.023
					c-6.585-12.751-24.978-9.479-36.095-6.386C676.467,213.905,679.104,223.554,685.329,221.821L685.329,221.821z"/>
			</g>
		</g>
		<g>
			<g>
				<path d="M682.179,236.329c3.889,12.02,5.545,24.409,6.104,36.997c0.484,10.896-0.545,21.768-0.178,32.645
					c0.3,8.916,0.959,17.812,1.029,26.735c0.058,7.115,0.606,16.522-3.453,22.771c-3.524,5.425,5.137,10.431,8.636,5.047
					c4.202-6.465,4.516-15.13,4.763-22.588c0.328-9.914-0.442-19.844-0.886-29.743c-0.521-11.612,0.511-23.232,0.089-34.865
					c-0.486-13.402-2.327-26.872-6.462-39.655C689.846,227.562,680.188,230.176,682.179,236.329L682.179,236.329z"/>
			</g>
		</g>
		<g>
			<g>
				<path d="M778,233c22.601-1.227,44.034-8.997,66.329-12.18c-0.886-3.214-1.772-6.428-2.658-9.643c-6.251,1.223-12.012,3.921-18,6
					c-6.053,2.101-3.45,11.763,2.658,9.643c5.988-2.078,11.749-4.776,18-6c6.434-1.258,3.558-10.529-2.658-9.643
					C820.279,214.231,799.668,221.825,778,223C771.587,223.348,771.554,233.35,778,233L778,233z"/>
			</g>
		</g>
		<g>
			<g>
				<path d="M772.477,254.317c6.728,4.921,12.603,11.127,21.194,12.504c6.307,1.012,9.013-8.625,2.658-9.643
					c-7.558-1.211-12.868-7.153-18.806-11.496C772.31,241.869,767.329,250.552,772.477,254.317L772.477,254.317z"/>
			</g>
		</g>
		<g>
			<g>
				<path d="M843,230c-0.301,9.466-6.886,16.328-12.317,23.477c-3.902,5.138,4.788,10.11,8.636,5.047
					C846.047,249.667,852.63,241.637,853,230C853.205,223.548,843.204,223.568,843,230L843,230z"/>
			</g>
		</g>
		<g>
			<g>
				<path d="M768.523,295.317c11.097-5.145,23.219-7.588,35.228-9.515c11.593-1.859,23.698-2.362,35.119-5.112
					c7.042-1.694,14.354-2.521,21.517-3.54c5.479-0.777,11.08-1.865,16.613-2.15c6.415-0.332,6.447-10.333,0-10
					c-5.669,0.293-11.402,1.415-17.018,2.191c-7.735,1.072-15.527,2.091-23.17,3.722c-24.664,5.26-50.02,4.96-73.337,15.77
					C757.631,289.393,762.714,298.011,768.523,295.317L768.523,295.317z"/>
			</g>
		</g>
		<g>
			<g>
				<path d="M808,192c2.901,21.71,4.769,43.534,6.229,65.385c1.188,17.792,2.925,35.819,2.931,53.654
					c0.006,18.645-1.706,37.383-3.16,55.961c-0.504,6.434,9.5,6.385,10,0c1.455-18.593,3.063-37.305,3.16-55.961
					c0.092-17.821-1.763-35.876-2.931-53.654c-1.437-21.85-3.328-43.677-6.229-65.385C817.159,185.706,807.147,185.624,808,192
					L808,192z"/>
			</g>
		</g>
		<g>
			<g>
				<path d="M805.683,287.477c-10.782,16.885-18.03,36.26-34.218,48.988c-5.067,3.982,2.063,11.009,7.07,7.069
					c16.869-13.264,24.55-33.423,35.782-51.012C817.8,287.071,809.142,282.061,805.683,287.477L805.683,287.477z"/>
			</g>
		</g>
		<g>
			<g>
				<path d="M828.671,292.821c12.576,4.248,21.414,14.972,30.432,24.139c9.433,9.588,20.043,18.221,33.568,20.861
					c6.299,1.23,8.983-8.407,2.658-9.643c-27.133-5.3-38.276-36.312-64-45C825.202,281.109,822.596,290.77,828.671,292.821
					L828.671,292.821z"/>
			</g>
		</g>
	</g>
</g>
<g id="图层_2">
</g>
</svg>
