<?xml version="1.0" encoding="utf-8"?>
<!-- Generator: Adobe Illustrator 16.2.0, SVG Export Plug-In . SVG Version: 6.00 Build 0)  -->
<!DOCTYPE svg PUBLIC "-//W3C//DTD SVG 1.1//EN" "http://www.w3.org/Graphics/SVG/1.1/DTD/svg11.dtd">
<svg version="1.1" xmlns="http://www.w3.org/2000/svg" xmlns:xlink="http://www.w3.org/1999/xlink" x="0px" y="0px" width="560px"
	 height="960px" viewBox="0 0 560 960" enable-background="new 0 0 560 960" xml:space="preserve">
<g id="图层_1">
	<g>
		<g>
			<path d="M111.599,96.11c0,132.622,0,265.245,0,397.867c0,127.421,0,254.842,0,382.263c0,20.942,0,41.886,0,62.828
				c0,6.448,10,6.448,10,0c0-115.845,0-231.69,0-347.535c0-132.692,0-265.385,0-398.077c0-32.449,0-64.897,0-97.345
				C121.599,89.661,111.599,89.661,111.599,96.11L111.599,96.11z"/>
		</g>
	</g>
	<g>
		<g>
			<path d="M116.599,122.109c104.468,0,208.936,0,313.403,0c6.449,0,6.449-10,0-10c-0.973,0-1.946,0-2.919,0c-6.448,0-6.448,10,0,10
				c0.973,0,1.946,0,2.919,0c6.449,0,6.449-10,0-10c-104.468,0-208.936,0-313.403,0C110.15,112.109,110.15,122.109,116.599,122.109
				L116.599,122.109z"/>
		</g>
	</g>
	<g>
		<g>
			<path d="M119.599,416.094c108.495,0,216.989,0,325.483,0c6.449,0,6.449-10,0-10c-108.494,0-216.989,0-325.483,0
				C113.15,406.094,113.15,416.094,119.599,416.094L119.599,416.094z"/>
		</g>
	</g>
	<g>
		<g>
			<path d="M207.594,121.608c0,16.499,0,32.999,0,49.498c0,6.449,10,6.449,10,0c0-16.499,0-32.999,0-49.498
				C217.594,115.16,207.594,115.16,207.594,121.608L207.594,121.608z"/>
		</g>
	</g>
	<g>
		<g>
			<path d="M206.594,416.094c1.038,0,2.076,0,3.114,0c2.726,0,5-2.274,5-5s-2.274-5-5-5c-0.481,0-0.962,0-1.443,0
				c-2.726,0-5,2.274-5,5s2.274,5,5,5c0.443,0,0.886,0,1.329,0c2.726,0,5-2.274,5-5s-2.274-5-5-5c-0.443,0-0.886,0-1.329,0
				c-2.726,0-5,2.274-5,5s2.274,5,5,5c0.481,0,0.962,0,1.443,0c2.726,0,5-2.274,5-5s-2.274-5-5-5c-1.038,0-2.076,0-3.114,0
				c-2.726,0-5,2.274-5,5S203.869,416.094,206.594,416.094L206.594,416.094z"/>
		</g>
	</g>
	<g>
		<g>
			<path d="M336.588,123.108c0,15.999,0,31.999,0,47.998c0,6.449,10,6.449,10,0c0-15.999,0-31.999,0-47.998
				C346.588,116.66,336.588,116.66,336.588,123.108L336.588,123.108z"/>
		</g>
	</g>
	<g>
		<g>
			<path d="M200.595,416.094c6.449,0,6.449-10,0-10S194.146,416.094,200.595,416.094L200.595,416.094z"/>
		</g>
	</g>
	<g>
		<g>
			<path d="M200.595,416.094c2.5,0,5,0,7.5,0c2.726,0,5-2.274,5-5s-2.274-5-5-5c-2.5,0-5,0-7.5,0c-2.726,0-5,2.274-5,5
				S197.869,416.094,200.595,416.094L200.595,416.094z"/>
		</g>
	</g>
	<g>
		<g>
			<path d="M197.095,414.094c0,17.499,0,34.999,0,52.498c0,6.449,10,6.449,10,0c0-17.499,0-34.999,0-52.498
				C207.095,407.645,197.095,407.645,197.095,414.094L197.095,414.094z"/>
		</g>
	</g>
	<g>
		<g>
			<path d="M349.087,406.094c-1.316,0-2.634,0-3.95,0c-6.449,0-6.449,10,0,10c1.316,0,2.634,0,3.95,0
				C355.535,416.094,355.535,406.094,349.087,406.094c-1.316,0-2.634,0-3.95,0c-6.449,0-6.449,10,0,10c1.316,0,2.634,0,3.95,0
				C355.535,416.094,355.535,406.094,349.087,406.094L349.087,406.094z"/>
		</g>
	</g>
	<g>
		<g>
			<path d="M333.588,415.594c0,16.37,0,32.739,0,49.108c0,6.449,10,6.449,10,0c0-1.37,0-2.74,0-4.111c0-6.449-10-6.449-10,0
				c0,1.371,0,2.741,0,4.111c0,6.449,10,6.449,10,0c0-16.369,0-32.739,0-49.108C343.588,409.145,333.588,409.145,333.588,415.594
				L333.588,415.594z"/>
		</g>
	</g>
	<rect x="145" y="172" fill="#FFFFFF" stroke="#000000" stroke-width="10" stroke-miterlimit="10" width="270" height="135"/>
	<rect x="145" y="465" fill="#FFFFFF" stroke="#000000" stroke-width="10" stroke-miterlimit="10" width="270" height="140"/>
	<g>
		<g>
			<path d="M189.797,532.56c5.631-1.656,10.377-5.592,16-7.334c3.684-1.141,2.111-6.934-1.595-5.785
				c-5.624,1.742-10.405,5.688-16,7.334C184.499,527.863,186.076,533.654,189.797,532.56L189.797,532.56z"/>
		</g>
	</g>
	<g>
		<g>
			<path d="M195.44,528.869c-1.405,7.075-0.825,14.306-0.774,21.464c0.028,3.868,6.028,3.87,6,0
				c-0.047-6.582-0.732-13.366,0.559-19.868C201.976,526.687,196.193,525.076,195.44,528.869L195.44,528.869z"/>
		</g>
	</g>
	<g>
		<g>
			<path d="M192.514,564.258c7.796-4.233,15.588-8.331,22.607-13.804c3.049-2.377-1.23-6.591-4.243-4.242
				c-6.583,5.133-14.085,8.897-21.393,12.864C186.084,560.923,189.113,566.104,192.514,564.258L192.514,564.258z"/>
		</g>
	</g>
	<g>
		<g>
			<path d="M213.797,511.226c3.48-0.896,6.915-1.964,10.375-2.934c1.832-0.513,3.672-0.989,5.527-1.411
				c0.677-0.154,1.37-0.308,2.06-0.396c0.819-0.105,1.29,0.33,0.395-0.227c3.295,2.051,6.305-3.142,3.028-5.182
				c-2.665-1.658-6.998-0.032-9.723,0.656c-4.45,1.123-8.812,2.564-13.256,3.708C208.457,506.403,210.047,512.19,213.797,511.226
				L213.797,511.226z"/>
		</g>
	</g>
	<g>
		<g>
			<path d="M224.106,510.202c-2.013,6.11-3.706,12.389-7.03,17.95c-1.99,3.33,3.198,6.346,5.181,3.029
				c3.587-6.002,5.463-12.791,7.636-19.384C231.106,508.112,225.312,506.546,224.106,510.202L224.106,510.202z"/>
		</g>
	</g>
	<g>
		<g>
			<path d="M210.667,533c0.087,2.789,0.87,5.513,1.665,8.168c0.432,1.443,0.902,2.875,1.348,4.313
				c0.147,0.474,0.284,0.95,0.417,1.428c0.271,0.979-0.057,0.644,0.201-0.052c0.459-0.598,0.919-1.195,1.379-1.793
				c-0.025,0.015-0.051,0.028-0.076,0.043c0.771-0.102,1.541-0.202,2.312-0.303c-0.038-0.01-0.076-0.02-0.114-0.029
				c-3.749-0.972-5.338,4.815-1.595,5.785c4.228,1.096,4.185-3.541,3.419-6.159c-1.078-3.685-2.833-7.521-2.955-11.4
				C216.546,529.141,210.546,529.129,210.667,533L210.667,533z"/>
		</g>
	</g>
	<g>
		<g>
			<path d="M218.464,530.56c5.706-2.105,12.338-2.406,18.291-1.289c1.83,0.344,4.655,0.891,5.718,2.614
				c1.116,1.809-4.727,5.849-5.653,6.524c-3.091,2.257-0.103,7.466,3.028,5.182c3.441-2.512,7.8-5.719,8.534-10.251
				c0.6-3.703-1.725-6.537-4.874-8.149c-7.557-3.868-18.866-3.285-26.639-0.416C213.271,526.102,214.826,531.902,218.464,530.56
				L218.464,530.56z"/>
		</g>
	</g>
	<g>
		<g>
			<path d="M227.333,532.333c0.448,9.453-1.896,18.139-6.257,26.485c-1.789,3.426,3.389,6.459,5.181,3.029
				c4.828-9.242,7.573-19.034,7.076-29.515C233.15,528.481,227.149,528.464,227.333,532.333L227.333,532.333z"/>
		</g>
	</g>
	<g>
		<g>
			<path d="M234.409,553.848c3.298,6.141,9.497,9.625,15.793,12.045c3.617,1.391,5.167-4.412,1.595-5.785
				c-4.852-1.865-9.673-4.57-12.207-9.289C237.759,547.409,232.579,550.439,234.409,553.848L234.409,553.848z"/>
		</g>
	</g>
	<g>
		<g>
			<path d="M298.773,515.798c4.52,15.791,1.985,32.386,1.893,48.535c-0.022,3.87,5.978,3.868,6,0
				c0.096-16.717,2.573-33.781-2.107-50.131C303.496,510.489,297.706,512.069,298.773,515.798L298.773,515.798z"/>
		</g>
	</g>
	<g>
		<g>
			<path d="M307.798,515.226c6.612-2.304,13-5.785,20.072-6.442c8.676-0.805,10.323,7.009,11.655,13.807
				c1.285,6.558,2.121,13.463,2.598,20.135c0.342,4.769,0.2,9.576,0.218,14.354c0.015,3.852-0.84,8.958,1.785,12.064
				c0.842,0.996,2.568,1.138,3.636,0.469c2.047-1.283,1.707-3.163,1.571-5.278c-0.247-3.841-6.249-3.865-6,0
				c0.055,0.852,0.15,1.69,0.144,2.544c0.496-0.863,0.991-1.727,1.486-2.59c-0.076,0.048-0.153,0.096-0.229,0.144
				c1.212,0.156,2.424,0.313,3.636,0.469c-0.396-0.469,0.007-5.114-0.01-5.979c-0.06-3.04-0.022-6.083-0.034-9.124
				c-0.017-4.544-0.414-8.947-0.943-13.445c-0.883-7.486-1.513-15.104-3.807-22.324c-5.815-18.312-24.769-8.978-37.373-4.586
				C302.573,510.705,304.134,516.502,307.798,515.226L307.798,515.226z"/>
		</g>
	</g>
	<g>
		<g>
			<path d="M315.798,537.226c4.046-0.563,9.155-1.365,13.021,0.365c3.501,1.566,6.555-3.603,3.029-5.182
				c-5.585-2.499-11.755-1.788-17.646-0.969C310.384,531.971,312.016,537.752,315.798,537.226L315.798,537.226z"/>
		</g>
	</g>
	<g>
		<g>
			<path d="M312.464,555.226c3.401-1.128,6.822-2.182,10.292-3.085c2.345-0.611,7.02-2.329,9.396-1.217
				c3.481,1.629,6.53-3.543,3.027-5.182c-7.01-3.278-17.56,1.46-24.312,3.698C307.215,550.651,308.78,556.447,312.464,555.226
				L312.464,555.226z"/>
		</g>
	</g>
	<g>
		<g>
			<path d="M309.535,570.56c11.663,3.433,23.684-1.014,35.465-1.227c3.864-0.069,3.871-6.069,0-6
				c-11.146,0.201-22.879,4.676-33.869,1.441C307.41,563.679,305.832,569.47,309.535,570.56L309.535,570.56z"/>
		</g>
	</g>
</g>
<g id="图层_3">
	<g>
		<g>
			<path d="M213.473,207.726c3,3,6,6,8.999,9c2.738,2.738,6.981-1.504,4.243-4.243c-3-3-6-6-9-8.999
				C214.977,200.745,210.734,204.988,213.473,207.726L213.473,207.726z"/>
		</g>
	</g>
	<g>
		<g>
			<path d="M237.002,202.59c-4.384,7.108-10.157,13.016-16.031,18.892c-2.737,2.739,1.505,6.981,4.243,4.242
				c6.232-6.235,12.318-12.566,16.968-20.106C244.22,202.315,239.029,199.305,237.002,202.59L237.002,202.59z"/>
		</g>
	</g>
	<g>
		<g>
			<path d="M209.608,235.193c11.405-5.64,23.292-10.05,35.984-11.59c3.791-0.46,3.835-6.465,0-6
				c-13.812,1.675-26.59,6.267-39.012,12.409C203.111,231.728,206.153,236.902,209.608,235.193L209.608,235.193z"/>
		</g>
	</g>
	<g>
		<g>
			<path d="M205.892,259.494c14.848-5.026,29.364-11.566,42.715-19.801c3.286-2.026,0.274-7.218-3.028-5.181
				c-12.924,7.972-26.908,14.331-41.281,19.197C200.653,254.942,202.216,260.739,205.892,259.494L205.892,259.494z"/>
		</g>
	</g>
	<g>
		<g>
			<path d="M223.093,231.103c-1.413,12.78-2.472,27.68-12.621,36.876c-2.873,2.604,1.383,6.834,4.242,4.243
				c11.421-10.35,12.786-26.721,14.378-41.12C229.518,227.26,223.514,227.301,223.093,231.103L223.093,231.103z"/>
		</g>
	</g>
	<g>
		<g>
			<path d="M233.579,262.192c9.389,4.862,17.609,11.637,26.999,16.499c3.43,1.776,6.465-3.401,3.028-5.181
				c-9.389-4.862-17.609-11.637-26.999-16.499C233.177,255.235,230.142,260.412,233.579,262.192L233.579,262.192z"/>
		</g>
	</g>
	<g>
		<g>
			<path d="M298.888,214.497c11.13-2.798,22.148-5.742,33.7-5.893c3.866-0.05,3.871-6.05,0-6
				c-12.085,0.157-23.646,3.178-35.296,6.106C293.542,209.654,295.134,215.44,298.888,214.497L298.888,214.497z"/>
		</g>
	</g>
	<g>
		<g>
			<path d="M293.604,247.193c14.622-7.133,30.69-10.286,45.782-16.197c3.561-1.395,2.012-7.199-1.596-5.786
				c-15.585,6.105-32.108,9.433-47.214,16.802C287.099,243.708,290.142,248.882,293.604,247.193L293.604,247.193z"/>
		</g>
	</g>
	<g>
		<g>
			<path d="M311.696,219.901c4.471,19.469,8.812,40.01,4.5,59.902c1.671-0.441,3.343-0.883,5.014-1.324
				c-5.506-5.102-12.565-6.766-18.606-10.969c-3.185-2.216-6.18,2.988-3.027,5.181c5.587,3.888,12.318,5.33,17.392,10.03
				c1.565,1.451,4.515,0.98,5.014-1.324c4.552-20.998,0.225-42.521-4.5-63.092C316.615,214.536,310.831,216.135,311.696,219.901
				L311.696,219.901z"/>
		</g>
	</g>
</g>
<g id="图层_2" display="none">
	<g display="inline">
		<g>
			<path d="M199.266,201.426c1.185,0.415,2.43,1.163,3.25,1.924c0.346,0.321,0.655,0.68,0.963,1.037
				c-0.636-0.738,0.29,0.482,0.329,0.544c0.264,0.415,0.484,0.857,0.704,1.296c-0.411-0.822,0.255,0.689,0.261,0.707
				c0.899,2.57,3.387,4.252,6.15,3.492c2.492-0.686,4.393-3.577,3.492-6.15c-2.147-6.136-6.356-10.345-12.492-12.492
				c-2.574-0.901-5.465,1-6.15,3.492C195.013,198.039,196.696,200.526,199.266,201.426L199.266,201.426z"/>
		</g>
	</g>
	<g display="inline">
		<g>
			<path d="M224.776,192.582c-3,4.5-6,8.999-9,13.499c-3.588,5.383,5.077,10.384,8.635,5.047c3-4.5,6-9,9-13.499
				C237,192.246,228.334,187.245,224.776,192.582L224.776,192.582z"/>
		</g>
	</g>
	<g display="inline">
		<g>
			<path d="M200.118,232.42c8.027-5.346,16.173-11.112,25.804-12.995c6.326-1.236,3.64-10.874-2.658-9.643
				c-10.463,2.045-19.471,8.194-28.193,14.003C189.733,227.341,194.734,236.007,200.118,232.42L200.118,232.42z"/>
		</g>
	</g>
	<g display="inline">
		<g>
			<path d="M194.118,260.919c15.88-8.614,32.255-16.002,49.803-20.495c6.244-1.599,3.593-11.243-2.658-9.643
				c-18.346,4.697-35.59,12.497-52.192,21.503C183.402,255.359,188.449,263.994,194.118,260.919L194.118,260.919z"/>
		</g>
	</g>
	<g display="inline">
		<g>
			<path d="M210.772,229.774c-3.125,13.5-8.738,26.033-15.995,37.804c-3.395,5.505,5.258,10.524,8.635,5.047
				c7.673-12.446,13.699-25.918,17.003-40.192C221.868,226.157,212.226,223.492,210.772,229.774L210.772,229.774z"/>
		</g>
	</g>
	<g display="inline">
		<g>
			<path d="M218.058,254.138c8.825,8.89,17.123,18.328,28.011,24.78c5.561,3.296,10.588-5.351,5.047-8.635
				c-10.125-6.001-17.779-14.948-25.986-23.217C220.582,242.485,213.512,249.558,218.058,254.138L218.058,254.138z"/>
		</g>
	</g>
	<g display="inline">
		<g>
			<path d="M308.418,210.426c8.464-1.457,17.052-4.111,25.67-4.321c6.438-0.157,6.452-10.157,0-10
				c-9.528,0.232-18.978,3.069-28.328,4.679C299.414,201.875,302.112,211.511,308.418,210.426L308.418,210.426z"/>
		</g>
	</g>
	<g display="inline">
		<g>
			<path d="M300.919,243.424c17.796-5.417,35.103-12.695,52.191-20.003c5.913-2.529,0.813-11.141-5.047-8.635
				c-16.294,6.968-32.836,13.831-49.803,18.995C292.109,235.653,294.733,245.307,300.919,243.424L300.919,243.424z"/>
		</g>
	</g>
	<g display="inline">
		<g>
			<path d="M318.767,214.433c7.114,20.484,7.21,41.767,5.821,63.167c2.109-1.607,4.22-3.214,6.329-4.821
				c-4.551-1.652-9.254-4.399-12.793-7.714c-4.7-4.403-11.786,2.654-7.07,7.071c4.854,4.547,10.974,8.023,17.205,10.285
				c3.242,1.177,6.134-1.816,6.329-4.821c1.441-22.224,1.207-44.562-6.179-65.826C326.308,205.723,316.645,208.325,318.767,214.433
				L318.767,214.433z"/>
		</g>
	</g>
	<g display="inline">
		<g>
			<path d="M182.596,525.589c4.329-0.138,8.464-1.317,12.539-2.699c1.935-0.656,3.848-1.378,5.775-2.056
				c0.776-0.272,1.559-0.521,2.347-0.757c0.42-0.123,0.845-0.228,1.273-0.313c-2.251,0.541-3.67-1.127-4.257-5.004
				c-1.481,6.271,8.161,8.934,9.643,2.658c1.481-6.273-4.294-8.329-9.317-6.984c-5.989,1.604-11.695,4.955-18.003,5.155
				C176.164,515.793,176.144,525.794,182.596,525.589L182.596,525.589z"/>
		</g>
	</g>
	<g display="inline">
		<g>
			<path d="M194.095,523.588c-0.165,9.979-2.959,19.861-1.321,29.828c1.043,6.352,10.679,3.648,9.643-2.658
				c-1.455-8.853,1.532-18.273,1.679-27.17C204.201,517.136,194.201,517.146,194.095,523.588L194.095,523.588z"/>
		</g>
	</g>
	<g display="inline">
		<g>
			<path d="M187.631,567.621c8.171-6.422,17.326-11.506,25.986-17.217c5.357-3.533,0.354-12.196-5.047-8.635
				c-9.393,6.193-19.147,11.814-28.011,18.781C175.492,564.533,182.622,571.559,187.631,567.621L187.631,567.621z"/>
		</g>
	</g>
	<g display="inline">
		<g>
			<path d="M215.117,511.406c4.201-2.12,8.343-4.353,12.577-6.406c2.105-1.021,4.238-1.948,6.44-2.74
				c0.926-0.333,1.873-0.587,2.826-0.826c2.153-0.54,0.27,0.607-0.688-2.015c2.195,6.005,11.862,3.412,9.643-2.658
				c-5.058-13.838-28.427,2.268-35.844,6.011C204.312,505.678,209.376,514.304,215.117,511.406L215.117,511.406z"/>
		</g>
	</g>
	<g display="inline">
		<g>
			<path d="M224.272,505.76c-2.682,9.372-5.323,19.052-12.214,26.293c-4.443,4.668,2.618,11.75,7.071,7.07
				c8.141-8.554,11.606-19.596,14.785-30.705C235.692,502.205,226.043,499.571,224.272,505.76L224.272,505.76z"/>
		</g>
	</g>
	<g display="inline">
		<g>
			<path d="M208.276,547.11c2.025,3.841,5.243,6.972,8.282,10.012c4.563,4.565,11.634-2.506,7.071-7.07
				c-2.475-2.477-5.081-4.882-6.718-7.988c-1.27-2.408-4.568-3.125-6.841-1.794C207.645,541.69,207.005,544.699,208.276,547.11
				L208.276,547.11z"/>
		</g>
	</g>
	<g display="inline">
		<g>
			<path d="M219.617,536.905c8.017-3.897,18.268-6.918,27.104-4.187c9.203,2.846-1.662,15.4-4.665,18.833
				c-4.227,4.831,2.817,11.933,7.071,7.07c7.875-9,17.977-24.887,4.302-33.745c-11.103-7.192-28.19-1.795-38.859,3.394
				C208.771,531.09,213.844,539.713,219.617,536.905L219.617,536.905z"/>
		</g>
	</g>
	<g display="inline">
		<g>
			<path d="M231.771,540.259c-3.017,8.698-7.481,16.795-10.5,25.498c-2.119,6.109,7.543,8.712,9.643,2.658
				c3.017-8.698,7.481-16.795,10.5-25.498C243.533,536.808,233.871,534.205,231.771,540.259L231.771,540.259z"/>
		</g>
	</g>
	<g display="inline">
		<g>
			<path d="M234.069,559.404c7.478,4.482,15.101,9.061,23.693,11.003c6.28,1.42,8.947-8.221,2.658-9.643
				c-7.779-1.759-14.537-5.938-21.305-9.995C233.571,547.445,228.546,556.094,234.069,559.404L234.069,559.404z"/>
		</g>
	</g>
	<g display="inline">
		<g>
			<path d="M309.589,507.089c1.03,8.384,1.662,16.822,1.847,25.268c0.101,4.629-0.01,9.266-0.475,13.874
				c-0.175,1.734-0.541,3.445-0.989,5.129c-0.204,0.77-1.33,2.703-0.906,2.41c-5.262,3.645-0.269,12.317,5.047,8.635
				c7.185-4.978,7.114-16.211,7.32-24.01c0.275-10.431-0.571-20.958-1.844-31.306C318.813,500.774,308.803,500.698,309.589,507.089
				L309.589,507.089z"/>
		</g>
	</g>
	<g display="inline">
		<g>
			<path d="M317.418,508.911c11.424-2.004,22.503-5.563,34.146-6.285c4.351-0.27,9.541-0.841,11.256,3.933
				c2.203,6.13,1.415,13.447,1.117,19.818c-0.432,9.236-0.469,18.469,0.074,27.704c0.207,3.51,0.086,8.259,2.6,11.048
				c4.022,4.46,8.568-0.188,9.796-4.213c1.886-6.185-7.768-8.809-9.643-2.658c-0.527,1.729,0.127-0.909,2.32-1.28
				c1.284,0.168,2.568,0.336,3.853,0.504c1.961,0.886,2.057,3.46,1.577,1.464c-0.162-0.678-0.186-1.058-0.252-1.682
				c-0.241-2.248-0.335-4.513-0.431-6.771c-0.177-4.203-0.224-8.412-0.242-12.619c-0.049-10.946,1.86-22.158-0.815-32.935
				c-2.988-12.038-14.186-13.034-24.708-12.038c-11.32,1.072-22.156,4.411-33.307,6.367
				C308.416,500.382,311.113,510.018,317.418,508.911L317.418,508.911z"/>
		</g>
	</g>
	<g display="inline">
		<g>
			<path d="M316.089,531.588c4.16-0.14,8.287-1.212,12.368-1.949c2.891-0.521,8.833-2.066,11.096,0.484
				c4.287,4.834,11.333-2.265,7.07-7.07c-7.603-8.572-21.185-1.778-30.534-1.465C309.658,521.804,309.637,531.805,316.089,531.588
				L316.089,531.588z"/>
		</g>
	</g>
	<g display="inline">
		<g>
			<path d="M320.418,546.409c6.851-1.561,14.18-1.319,21.17-1.321c6.448-0.002,6.449-10.002,0-10
				c-7.905,0.002-16.081-0.087-23.828,1.679C311.473,538.199,314.14,547.84,320.418,546.409L320.418,546.409z"/>
		</g>
	</g>
	<g display="inline">
		<g>
			<path d="M311.76,567.407c18.183,3.53,38.629,5.133,56.655,0c6.191-1.763,3.557-11.412-2.658-9.643
				c-16.253,4.628-34.934,3.185-51.339,0C308.119,556.542,305.433,566.179,311.76,567.407L311.76,567.407z"/>
		</g>
	</g>
</g>
</svg>
