<?xml version="1.0" encoding="utf-8"?>
<!-- Generator: Adobe Illustrator 16.2.0, SVG Export Plug-In . SVG Version: 6.00 Build 0)  -->
<!DOCTYPE svg PUBLIC "-//W3C//DTD SVG 1.1//EN" "http://www.w3.org/Graphics/SVG/1.1/DTD/svg11.dtd">
<svg version="1.1" id="图层_1" xmlns="http://www.w3.org/2000/svg" xmlns:xlink="http://www.w3.org/1999/xlink" x="0px" y="0px"
	 width="560px" height="960px" viewBox="0 0 560 960" enable-background="new 0 0 560 960" xml:space="preserve">
<g>
	<g>
		<path d="M463.512,356.04c0.313-6.449-9.688-6.418-10,0c-4.935,101.646-13.049,203.2-13.103,305.023c-0.004,6.448,9.996,6.447,10,0
			C450.465,559.239,458.577,457.686,463.512,356.04L463.512,356.04z"/>
	</g>
</g>
<g>
	<g>
		<path d="M464.971,365.229c-2.174-6.016-11.84-3.421-9.646,2.658c14.937,41.296,20.478,85.391,29.892,128.115
			c9.733,44.185,24.018,87.202,33.979,131.329c3.215-0.886,6.43-1.771,9.646-2.657c-1.843-5.886-3.802-11.47-7.838-16.229
			c-4.177-4.927-11.216,2.185-7.07,7.069c2.828,3.336,3.986,7.729,5.266,11.816c1.931,6.161,11.063,3.633,9.644-2.657
			c-9.961-44.126-24.375-87.117-33.979-131.33C485.581,450.615,479.895,406.495,464.971,365.229L464.971,365.229z"/>
	</g>
</g>
<g>
	<g>
		<path d="M456.122,369.122c5.834-2.74,0.755-11.359-5.049-8.634c-6.688,3.141-12.397,8.922-17.543,14.088
			c-8.129,8.165-15.674,16.909-23.014,25.782c-19.607,23.701-37.949,48.467-55.793,73.512
			c-18.584,26.079-36.729,52.523-53.783,79.632c-5.336,8.482-10.696,17.009-15.373,25.879c-2.276,4.324-7.264,12.118-1.537,15.881
			c5.406,3.554,10.41-5.11,5.048-8.636c1.395,0.916,2.334,2.834,2.26,3.607c-0.201,2.034-0.166,1.018-0.021,0.504
			c0.146-0.512,1.019-2.668,0.322-1.062c1.002-2.316,2.176-4.56,3.385-6.773c3.926-7.203,8.213-14.213,12.559-21.169
			c13.515-21.646,27.787-42.824,42.361-63.766c19.615-28.184,39.76-56.081,61.332-82.81c8.496-10.527,17.174-20.97,26.578-30.706
			c3.414-3.535,6.91-7.018,10.672-10.185C450.777,372.372,452.811,370.677,456.122,369.122L456.122,369.122z"/>
	</g>
</g>
<g>
	<g>
		<path d="M453.508,666.744c-1.699-6.213-11.349-3.572-9.646,2.659c12.394,45.313,14.32,92.542,24.535,138.283
			c10.197,45.662,24.182,90.72,29.33,137.363c3.334,0,6.668,0,10,0c-0.289-2.406-1.354-4.654-1.637-7.013
			c-0.765-6.318-10.771-6.394-10,0c0.289,2.407,1.354,4.655,1.637,7.013c0.76,6.299,10.709,6.43,10,0
			c-5.187-46.979-19.016-92.229-29.283-138.213C468.098,760.498,466.059,712.638,453.508,666.744L453.508,666.744z"/>
	</g>
</g>
<g>
	<g>
		<path d="M447.309,662.845c4.938-4.161-2.174-11.197-7.072-7.069c-13.953,11.759-16.617,32.059-22.42,48.316
			c-9.938,27.851-25.793,53.352-39.172,79.599c-13.992,27.453-24.072,56.606-36.27,84.871c-8.517,19.729-17.509,39.24-26.539,58.735
			c-3.271,7.054-6.773,14.133-9.354,21.479c-0.686,1.952-1.584,4.396-0.846,6.458c1.194,3.338,4.903,4.857,8.008,2.898
			c5.438-3.433,0.424-12.089-5.047-8.636c-2.562,1.615,6.447,6.854,6.799,3.875c-0.193,1.637-0.008,0.356,0.094,0.009
			c0.25-0.852,0.531-1.69,0.847-2.521c0.891-2.37,1.879-4.7,2.901-7.015c7.39-16.704,15.263-33.202,22.775-49.85
			c6.344-14.052,12.434-28.219,18.303-42.477c5.957-14.471,11.146-29.349,17.646-43.579c12.438-27.232,28.19-52.798,40.629-80.026
			c5.334-11.678,9.649-23.411,13.438-35.657C435.264,681.795,438.629,670.16,447.309,662.845L447.309,662.845z"/>
	</g>
</g>
<g>
	<g>
		<path d="M148.898,359.122c1.008-6.306-8.627-9.013-9.641-2.66c-16.646,104.266-9.973,210.377-21.467,315.118
			c3.104-0.84,6.211-1.682,9.315-2.522c-0.799-1.227-0.594-4.302-1.135-5.817c-2.154-6.027-11.816-3.432-9.643,2.658
			c0.998,2.798,0.446,5.604,2.143,8.207c2.873,4.41,8.783,2.334,9.316-2.523C139.184,567.747,132.4,462.472,148.898,359.122
			L148.898,359.122z"/>
	</g>
</g>
<g>
	<g>
		<path d="M158.725,368.734c-1.58-6.249-11.225-3.597-9.639,2.659c5.668,22.4,17.172,43.196,28.899,62.921
			c12.507,21.03,25.961,41.479,38.609,62.418c7.135,11.813,14.021,23.774,20.654,35.876c2.807,5.119,5.19,10.813,8.78,15.426
			c1.783,2.298,3.632,4.547,5.482,6.79c4.867,5.892,9.801,11.729,14.582,17.688c1.813,2.259,3.645,4.517,5.301,6.894
			c0.5,0.717,1.019,1.435,1.441,2.198c0.313,0.568,0.258,1.163,0.022-0.065c1.488-4.991,3.619-6.802,6.394-5.432
			c-5.765-2.838-10.832,5.785-5.047,8.636c6.627,3.264,10.305-3.604,6.785-8.968c-3.88-5.911-8.597-11.339-13.091-16.78
			c-4.817-5.833-9.776-11.566-14.422-17.541c-3.662-4.71-6.401-11.761-9.436-17.226c-3.355-6.046-6.748-12.069-10.226-18.047
			c-13.729-23.604-28.75-46.415-42.903-69.76C178.039,415.179,164.871,393.021,158.725,368.734L158.725,368.734z"/>
	</g>
</g>
<g>
	<g>
		<path d="M144.338,370.092c4.674-4.458-2.408-11.519-7.07-7.07c-13.787,13.148-22.844,30.623-30.326,47.913
			c-7.762,17.935-14.047,36.437-21.43,54.521c-7.342,17.986-15.748,35.595-21.979,54.017c-6.111,18.066-11.074,38.069-6.158,57.021
			c1.619,6.238,11.264,3.59,9.643-2.658c-4.817-18.577,1.363-38.731,7.736-56.182c6.287-17.212,14.1-33.796,20.912-50.796
			c6.957-17.366,12.93-35.143,20.516-52.253C123.287,398.575,131.5,382.336,144.338,370.092L144.338,370.092z"/>
	</g>
</g>
<g>
	<g>
		<path d="M132.521,677.264c-1.024-6.354-10.66-3.647-9.643,2.658c15.385,95.228,72.961,176.683,94.985,269.963
			c1.48,6.274,11.123,3.612,9.644-2.658C205.482,853.943,147.908,772.486,132.521,677.264L132.521,677.264z"/>
	</g>
</g>
<g>
	<g>
		<path d="M126.324,673.363c4.356-4.736-2.695-11.826-7.068-7.071c-12.063,13.112-20.316,28.95-27.223,45.243
			c-9.75,23.006-16.468,47.253-26.89,69.975c-6.258,13.649-13.608,26.74-19.604,40.541c-6.113,14.074-11.73,28.356-16.877,42.813
			c-6.222,17.472-12.375,34.984-17.252,52.888c-1.668,6.116-3.535,12.314-4.347,18.617c-0.897,6.974,7.535,8.237,10.314,2.439
			c2.772-5.783-5.849-10.859-8.635-5.047c-1.437,2.992-0.188-1.42,3.319-0.971c1.181,0.488,2.357,0.978,3.535,1.466
			c2.428,3.135,1.23,4.352,1.392,2.747c0.108-1.1-0.23,1.285,0.021-0.11c0.16-0.89,0.338-1.774,0.533-2.657
			c1.604-7.21,3.592-14.345,5.645-21.438c1.101-3.801,2.222-7.597,3.433-11.364c0.438-1.362,0.879-2.729,1.354-4.08
			c0.158-0.449,1.195-3.094,0.73-2.063c2.975-6.596,4.746-13.935,7.131-20.772c2.449-7.013,4.957-14.006,7.6-20.947
			c5.615-14.743,11.678-29.323,18.556-43.527c5.889-12.165,12.313-23.921,17.309-36.503c4.635-11.674,8.729-23.547,13.039-35.342
			C100.662,715.42,109.65,691.491,126.324,673.363L126.324,673.363z"/>
	</g>
</g>
<g>
	<g id="XMLID_4_">
		<g>
			<path fill="#FFFFFF" d="M31.78,331.43c-0.07-0.29-0.15-0.57-0.22-0.86c-3.07-12.16-4.17-24.87-4.8-37.36
				c-0.8-16.13-0.62-32.43,1.35-48.48c1.6-13.07,4.11-27.53,11.36-38.79c5.35-8.3,12.31-11.42,21.31-9.04
				c-3.41,6.92-6.21,14.09-7.99,21.4c-4.5,18.55-3.47,37.45,2,55.06c-1.73,0.6-3.05,2.11-2.88,4.54
				c1.27,17.91-1.08,45.17-20.03,53.48C31.84,331.4,31.81,331.41,31.78,331.43z"/>
			<path d="M146.6,132.6c1.21,0.59,1.94,1.43,2.3,2.36c-4.26,0.45-8.51,1.25-12.7,2.39c-1.25,0.34-2.14,1-2.71,1.82
				c-12.28-0.55-24.43,9.72-32.53,17.77c-13.75,13.68-24.62,30.67-32.76,48.22c-16.07,34.64-7.41,74.07,16.93,102.56
				c23.17,27.12,61.43,45.33,96.85,33.14c34.15-11.75,49.51-47.46,51.13-81.05c2.53-52.15-29.38-130.37-94.26-112.82
				c-4.98,1.35-7.67-4.54-5.36-7.82c2.69,0.12,5.39,0.76,8.06,2.06c4.58,2.23,8.71-2.71,7.35-6.27c11.78-1.26,23.66,0.21,34.78,4.99
				c14.32,6.15,25.76,17.01,34.74,29.55c19.64,27.44,27.27,64.19,24.19,97.44c-3.26,35.33-20.94,68.37-54.94,82.42
				c-34.95,14.45-74.68-1.08-100.89-25.47c-10.15-9.45-18.54-20.57-24.73-32.71c0.23-4.64,0.16-9.14-0.14-13.28
				c-0.29-3.98-4.26-5.5-7.12-4.54c-5.47-17.61-6.5-36.51-2-55.06c1.78-7.31,4.58-14.48,7.99-21.4c0.75,0.2,1.52,0.44,2.3,0.72
				c6.09,2.17,8.69-7.5,2.65-9.64c-0.05-0.02-0.1-0.03-0.15-0.05c3.35-5.83,7.01-11.43,10.72-16.74c10.46-15,23.68-30.58,40.7-38.27
				C126.65,128.57,136.96,127.89,146.6,132.6z"/>
			<path d="M141.55,141.23c-2.67-1.3-5.37-1.94-8.06-2.06c0.57-0.82,1.46-1.48,2.71-1.82c4.19-1.14,8.44-1.94,12.7-2.39
				C150.26,138.52,146.13,143.46,141.55,141.23z"/>
			<path fill="#FFFFFF" d="M504.85,162.52c32.271,23.06,49.79,67.41,39.25,106.04c-11.25,41.29-49.43,69.91-91.46,72.5
				c-25.3-7.65-48.659-25.38-65.18-44.68c-10.92-12.74-20.15-27.7-24.02-44.18c-3.15-13.42-3.471-28.22-0.771-41.75
				c5.98-29.95,27.26-53.48,56.63-62.14C448.16,139.8,480.321,145,504.85,162.52z"/>
			<path d="M475.67,347.33c1.75,3.09,0.41,7.82-4.06,7.44c-6.62-0.56-13.13-1.83-19.471-3.66
				C460.09,350.69,467.99,349.41,475.67,347.33z"/>
			<path d="M471.611,344.77c1.939,0.16,3.3,1.21,4.06,2.56c-7.68,2.08-15.58,3.36-23.53,3.78c-3.29-0.96-6.529-2.06-9.72-3.3
				c-0.8-2.88,0.74-6.53,4.63-6.55c1.87-0.01,3.73-0.08,5.59-0.2C458.87,342.95,465.22,344.23,471.611,344.77z"/>
			<path d="M447.05,341.26c-3.89,0.02-5.43,3.67-4.63,6.55c-10.67-4.14-20.8-9.76-30.21-16.15c-19.37-13.15-36.34-30.47-47.95-50.87
				c-18.229-32.01-18.38-75.5,2.521-106.41c17.1-25.28,46.55-38.81,76.52-40.05c31.55-1.31,62.98,11.8,84.23,35.11
				c28.43,31.18,37.55,77.48,21.04,116.45c-13.04,30.8-41.13,52.89-72.9,61.44c-0.76-1.35-2.12-2.4-4.06-2.56
				c-6.391-0.54-12.74-1.82-18.971-3.71c42.03-2.59,80.21-31.21,91.46-72.5c10.54-38.63-6.979-82.98-39.25-106.04
				C480.321,145,448.16,139.8,419.3,148.31c-29.37,8.66-50.649,32.19-56.63,62.14c-2.7,13.53-2.38,28.33,0.771,41.75
				c3.869,16.48,13.1,31.44,24.02,44.18c16.521,19.3,39.88,37.03,65.18,44.68C450.781,341.18,448.92,341.25,447.05,341.26z"/>
			<path d="M452.14,351.11c-1.689,0.09-3.39,0.14-5.09,0.15c-2.56,0.02-4.1-1.55-4.63-3.45
				C445.611,349.05,448.85,350.15,452.14,351.11z"/>
			<path fill="#FFFFFF" d="M138.85,146.99c64.88-17.55,96.79,60.67,94.26,112.82c-1.62,33.59-16.98,69.3-51.13,81.05
				c-35.42,12.19-73.68-6.02-96.85-33.14c-24.34-28.49-33-67.92-16.93-102.56c8.14-17.55,19.01-34.54,32.76-48.22
				c8.1-8.05,20.25-18.32,32.53-17.77C131.18,142.45,133.87,148.34,138.85,146.99z"/>
			<path d="M65.73,187.98c6.04,2.14,3.44,11.81-2.65,9.64c-0.78-0.28-1.55-0.52-2.3-0.72c1.49-3.04,3.1-6.04,4.8-8.97
				C65.63,187.95,65.68,187.96,65.73,187.98z"/>
			<path d="M61.91,277.9c0.3,4.14,0.37,8.64,0.14,13.28c-2.93-5.74-5.37-11.7-7.26-17.82C57.65,272.4,61.62,273.92,61.91,277.9z"/>
			<path d="M54.79,273.36c1.89,6.12,4.33,12.08,7.26,17.82c-0.95,19.28-7.19,40.97-25.12,48.83c-1.49,0.65-2.92,0.58-4.14,0.06
				c0.79-1.03,1.07-2.44,0.44-4.1c-0.56-1.48-1.04-3-1.45-4.54c0.03-0.02,0.06-0.03,0.1-0.05c18.95-8.31,21.3-35.57,20.03-53.48
				C51.74,275.47,53.06,273.96,54.79,273.36z"/>
			<path d="M46.83,187.23c5.99-2.2,12.85-1.37,18.75,0.7c-1.7,2.93-3.31,5.93-4.8,8.97c-9-2.38-15.96,0.74-21.31,9.04
				c-7.25,11.26-9.76,25.72-11.36,38.79c-1.97,16.05-2.15,32.35-1.35,48.48c0.63,12.49,1.73,25.2,4.8,37.36
				c0.07,0.29,0.15,0.57,0.22,0.86c-4.26,1.96-2.55,7.17,1.01,8.64c-2.04,2.72-7.57,2.89-9.21-1.44c-3.89-10.33-4.9-22-5.92-32.89
				c-1.49-15.76-1.73-31.68-0.77-47.47c0.91-15.13,2.86-30.65,8.05-44.96C28.92,202.34,35.36,191.45,46.83,187.23z"/>
			<path d="M32.79,340.07c-3.56-1.47-5.27-6.68-1.01-8.64c0.41,1.54,0.89,3.06,1.45,4.54C33.86,337.63,33.58,339.04,32.79,340.07z"
				/>
		</g>
		<g>
		</g>
	</g>
</g>
<g>
	<g>
		<path d="M32.79,340.07c-3.56-1.47-5.27-6.68-1.01-8.64c0.41,1.54,0.89,3.06,1.45,4.54C33.86,337.63,33.58,339.04,32.79,340.07z"/>
	</g>
</g>
</svg>
