<?xml version="1.0" encoding="utf-8"?>
<!-- Generator: Adobe Illustrator 16.2.0, SVG Export Plug-In . SVG Version: 6.00 Build 0)  -->
<!DOCTYPE svg PUBLIC "-//W3C//DTD SVG 1.1//EN" "http://www.w3.org/Graphics/SVG/1.1/DTD/svg11.dtd">
<svg version="1.1" id="图层_1" xmlns="http://www.w3.org/2000/svg" xmlns:xlink="http://www.w3.org/1999/xlink" x="0px" y="0px"
	 width="560px" height="960px" viewBox="0 0 560 960" enable-background="new 0 0 560 960" xml:space="preserve">
<g>
	<g>
		<path d="M99.974,358.265c4.934,101.646,13.048,203.2,13.103,305.023c0.003,6.448,10.003,6.449,10,0
			c-0.054-101.823-8.168-203.377-13.103-305.023C109.662,351.847,99.661,351.816,99.974,358.265L99.974,358.265z"/>
	</g>
</g>
<g>
	<g>
		<path d="M98.515,367.454c-14.924,41.266-20.61,85.387-29.89,128.115c-9.604,44.213-24.019,87.204-33.979,131.33
			c-1.42,6.29,7.714,8.818,9.644,2.657c1.279-4.089,2.437-8.48,5.266-11.816c4.144-4.886-2.895-11.996-7.071-7.07
			c-4.037,4.76-5.995,10.344-7.837,16.229c3.214,0.886,6.429,1.771,9.644,2.657c9.962-44.127,24.244-87.146,33.979-131.329
			c9.414-42.726,14.956-86.819,29.891-128.115C110.356,364.033,100.69,361.438,98.515,367.454L98.515,367.454z"/>
	</g>
</g>
<g>
	<g>
		<path d="M107.364,371.347c3.313,1.556,5.345,3.25,7.597,5.146c3.763,3.167,7.259,6.65,10.673,10.185
			c9.403,9.736,18.082,20.179,26.578,30.706c21.571,26.729,41.716,54.626,61.331,82.81c14.575,20.94,28.848,42.12,42.362,63.765
			c4.345,6.956,8.633,13.966,12.559,21.169c1.208,2.215,2.382,4.457,3.385,6.774c-0.695-1.607,0.178,0.55,0.322,1.061
			c0.145,0.514,0.179,1.531-0.021-0.504c-0.075-0.773,0.865-2.691,2.26-3.607c-5.364,3.524-0.36,12.188,5.047,8.636
			c5.726-3.763,0.74-11.557-1.538-15.881c-4.675-8.87-10.036-17.396-15.372-25.879c-17.055-27.107-35.2-53.553-53.783-79.632
			c-17.845-25.045-36.187-49.811-55.793-73.512c-7.34-8.873-14.886-17.617-23.015-25.782c-5.145-5.166-10.854-10.947-17.542-14.088
			C106.61,359.988,101.53,368.607,107.364,371.347L107.364,371.347z"/>
	</g>
</g>
<g>
	<g>
		<path d="M109.979,668.97c-12.552,45.894-14.591,93.754-24.938,140.094c-10.269,45.982-24.099,91.234-29.284,138.213
			c-0.709,6.429,9.241,6.299,10,0c0.284-2.357,1.348-4.605,1.638-7.013c0.771-6.394-9.237-6.318-10,0
			c-0.284,2.357-1.348,4.605-1.638,7.013c3.333,0,6.667,0,10,0c5.148-46.645,19.134-91.701,29.331-137.363
			c10.214-45.742,12.142-92.972,24.535-138.284C121.326,665.397,111.678,662.757,109.979,668.97L109.979,668.97z"/>
	</g>
</g>
<g>
	<g>
		<path d="M116.177,665.07c8.68,7.315,12.045,18.95,15.28,29.411c3.787,12.246,8.103,23.979,13.437,35.657
			c12.438,27.229,28.191,52.794,40.63,80.026c6.5,14.231,11.689,29.109,17.646,43.58c5.869,14.257,11.958,28.424,18.302,42.476
			c7.514,16.647,15.387,33.146,22.775,49.85c1.023,2.313,2.012,4.644,2.903,7.014c0.313,0.83,0.596,1.67,0.845,2.521
			c0.102,0.348,0.288,1.628,0.094-0.009c0.353,2.979,9.359-2.26,6.8-3.875c-5.471-3.453-10.484,5.203-5.047,8.636
			c3.103,1.959,6.813,0.438,8.008-2.899c0.738-2.063-0.16-4.506-0.846-6.458c-2.581-7.345-6.084-14.424-9.354-21.478
			c-9.032-19.495-18.023-39.008-26.539-58.735c-12.197-28.265-22.277-57.418-36.271-84.872
			c-13.378-26.247-29.231-51.748-39.171-79.598c-5.803-16.259-8.467-36.559-22.42-48.317
			C118.352,653.872,111.24,660.909,116.177,665.07L116.177,665.07z"/>
	</g>
</g>
<g>
	<g>
		<path d="M414.587,361.347c16.499,103.35,9.715,208.625,21.109,312.458c0.533,4.857,6.443,6.935,9.317,2.523
			c1.695-2.602,1.144-5.409,2.143-8.207c2.174-6.089-7.489-8.686-9.643-2.658c-0.541,1.517-0.336,4.592-1.135,5.818
			c3.104,0.841,6.212,1.683,9.316,2.522c-11.495-104.74-4.822-210.852-21.468-315.118
			C423.215,352.334,413.579,355.041,414.587,361.347L414.587,361.347z"/>
	</g>
</g>
<g>
	<g>
		<path d="M404.761,370.96c-6.146,24.286-19.313,46.445-32.19,67.688c-14.154,23.345-29.177,46.156-42.905,69.76
			c-3.477,5.977-6.869,12.001-10.225,18.047c-3.032,5.465-5.772,12.515-9.435,17.225c-4.645,5.975-9.604,11.708-14.422,17.541
			c-4.495,5.442-9.211,10.869-13.09,16.78c-3.52,5.363,0.157,12.231,6.784,8.968c5.785-2.85,0.717-11.473-5.047-8.635
			c2.773-1.371,4.904,0.439,6.393,5.431c-0.233,1.229-0.29,0.635,0.023,0.066c0.425-0.765,0.941-1.482,1.441-2.199
			c1.657-2.377,3.488-4.634,5.301-6.893c4.782-5.96,9.716-11.797,14.582-17.688c1.853-2.243,3.699-4.492,5.483-6.79
			c3.589-4.613,5.974-10.306,8.78-15.426c6.635-12.101,13.52-24.063,20.654-35.876c12.649-20.939,26.104-41.387,38.61-62.418
			c11.729-19.725,23.232-40.521,28.9-62.921C415.986,367.363,406.342,364.711,404.761,370.96L404.761,370.96z"/>
	</g>
</g>
<g>
	<g>
		<path d="M419.148,372.318c12.838,12.244,21.051,28.483,28.158,44.513c7.587,17.111,13.56,34.887,20.517,52.253
			c6.812,17,14.625,33.584,20.912,50.796c6.373,17.45,12.555,37.604,7.736,56.182c-1.621,6.248,8.023,8.896,9.643,2.658
			c4.916-18.951-0.047-38.954-6.159-57.021c-6.231-18.422-14.639-36.03-21.979-54.017c-7.383-18.085-13.669-36.587-21.431-54.521
			c-7.482-17.29-16.539-34.765-30.325-47.913C421.556,360.799,414.474,367.86,419.148,372.318L419.148,372.318z"/>
	</g>
</g>
<g>
	<g>
		<path d="M430.964,679.489c-15.387,95.223-72.96,176.68-94.985,269.963c-1.48,6.271,8.161,8.933,9.643,2.658
			c22.025-93.281,79.601-174.736,94.985-269.963C441.625,675.841,431.99,673.136,430.964,679.489L430.964,679.489z"/>
	</g>
</g>
<g>
	<g>
		<path d="M437.161,675.589c16.675,18.128,25.662,42.057,33.984,64.833c4.31,11.795,8.405,23.668,13.039,35.342
			c4.995,12.582,11.421,24.338,17.31,36.503c6.876,14.204,12.938,28.784,18.554,43.527c2.644,6.942,5.151,13.936,7.6,20.948
			c2.386,6.838,4.156,14.177,7.132,20.772c-0.465-1.03,0.572,1.613,0.729,2.063c0.476,1.352,0.916,2.717,1.354,4.08
			c1.211,3.768,2.332,7.563,3.433,11.364c2.053,7.095,4.039,14.229,5.644,21.438c0.196,0.883,0.374,1.769,0.534,2.658
			c0.252,1.396-0.088-0.989,0.021,0.11c0.16,1.604-1.038,0.388,1.391-2.747c1.178-0.488,2.355-0.978,3.535-1.466
			c3.507-0.449,4.756,3.963,3.319,0.971c-2.787-5.813-11.408-0.737-8.635,5.047c2.78,5.798,11.213,4.533,10.315-2.44
			c-0.811-6.303-2.679-12.501-4.346-18.617c-4.878-17.902-11.031-35.416-17.252-52.888c-5.146-14.456-10.765-28.738-16.877-42.813
			c-5.994-13.801-13.346-26.892-19.604-40.541c-10.421-22.722-17.138-46.969-26.889-69.975
			c-6.905-16.293-15.16-32.131-27.222-45.243C439.858,663.763,432.805,670.853,437.161,675.589L437.161,675.589z"/>
	</g>
</g>
<g>
	<g id="XMLID_1_">
		<g>
			<path fill="#FFFFFF" d="M535.38,246.96c1.97,16.05,2.15,32.34,1.34,48.48c-0.62,12.49-1.72,25.2-4.79,37.36
				c-0.069,0.28-0.149,0.57-0.229,0.85c-0.03-0.02-0.061-0.03-0.101-0.05c-18.939-8.31-21.3-35.57-20.02-53.48
				c0.17-2.43-1.15-3.94-2.88-4.53c5.46-17.61,6.49-36.52,1.99-55.06c-1.771-7.3-4.57-14.47-7.98-21.39
				c8.99-2.4,15.95,0.72,21.3,9.02C531.27,219.43,533.781,233.89,535.38,246.96z"/>
			<path fill="#FFFFFF" d="M200.81,213.68c2.7,13.53,2.38,28.33-0.77,41.74c-3.87,16.49-13.09,31.45-24.01,44.19
				c-16.53,19.3-39.9,37.03-65.21,44.68c-42.02-2.61-80.18-31.22-91.44-72.5c-10.53-38.63,6.99-82.98,39.26-106.04
				c24.53-17.52,56.69-22.73,85.54-14.22C173.55,160.19,194.83,183.73,200.81,213.68z"/>
			<path fill="#FFFFFF" d="M495.29,207.38c16.06,34.64,7.41,74.07-16.93,102.56c-23.181,27.13-61.44,45.34-96.86,33.15
				c-34.14-11.75-49.5-47.47-51.13-81.06c-2.521-52.15,29.38-130.37,94.26-112.81c4.98,1.35,7.67-4.55,5.37-7.82
				c12.28-0.55,24.43,9.71,32.53,17.77C476.281,172.85,487.151,189.84,495.29,207.38z"/>
			<path d="M546.6,260.49c0.95,15.8,0.71,31.72-0.77,47.47c-1.03,10.9-2.04,22.57-5.93,32.89c-1.631,4.33-7.15,4.17-9.2,1.45
				c3.55-1.49,5.26-6.69,1-8.65c0.08-0.28,0.16-0.57,0.229-0.85c3.07-12.16,4.17-24.87,4.79-37.36
				c0.811-16.14,0.63-32.43-1.34-48.48c-1.6-13.07-4.11-27.53-11.37-38.8c-5.35-8.3-12.31-11.42-21.3-9.02
				c-1.49-3.05-3.11-6.05-4.81-8.99c5.899-2.07,12.77-2.89,18.76-0.69c11.47,4.21,17.899,15.1,21.88,26.07
				C543.731,229.85,545.68,245.37,546.6,260.49z"/>
			<path d="M531.7,333.65c4.26,1.96,2.55,7.16-1,8.65c-0.79-1.03-1.07-2.44-0.44-4.11C530.821,336.7,531.29,335.18,531.7,333.65z"/>
			<path d="M531.6,333.6c0.04,0.02,0.07,0.03,0.101,0.05c-0.41,1.53-0.88,3.05-1.44,4.54c-0.63,1.67-0.35,3.08,0.44,4.11
				c-1.22,0.52-2.66,0.59-4.15-0.06c-17.91-7.87-24.16-29.55-25.109-48.83c2.93-5.74,5.359-11.7,7.26-17.82
				c1.729,0.59,3.05,2.1,2.88,4.53C510.3,298.03,512.66,325.29,531.6,333.6z"/>
			<path d="M501.58,280.12c0.28-3.98,4.26-5.5,7.12-4.53c-1.9,6.12-4.33,12.08-7.26,17.82
				C501.21,288.77,501.281,284.26,501.58,280.12z"/>
			<path d="M502.71,199.14c3.41,6.92,6.21,14.09,7.98,21.39c4.5,18.54,3.47,37.45-1.99,55.06c-2.86-0.97-6.84,0.55-7.12,4.53
				c-0.3,4.14-0.37,8.65-0.14,13.29c-6.19,12.13-14.58,23.25-24.73,32.7c-26.21,24.39-65.94,39.92-100.89,25.48
				c-34.011-14.06-51.681-47.09-54.95-82.43c-3.07-33.25,4.55-70,24.2-97.44c8.979-12.54,20.42-23.4,34.729-29.55
				c11.13-4.77,23-6.24,34.78-4.98c-1.34,3.56,2.78,8.49,7.35,6.27c2.67-1.3,5.37-1.94,8.07-2.06c2.3,3.27-0.39,9.17-5.37,7.82
				c-64.88-17.56-96.78,60.66-94.26,112.81c1.63,33.59,16.99,69.31,51.13,81.06c35.42,12.19,73.68-6.02,96.86-33.15
				c24.34-28.49,32.989-67.92,16.93-102.56c-8.14-17.54-19.01-34.53-32.76-48.21c-8.101-8.06-20.25-18.32-32.53-17.77
				c-0.57-0.82-1.47-1.48-2.71-1.82c-4.2-1.13-8.45-1.94-12.71-2.39c0.35-0.94,1.09-1.78,2.3-2.37c9.64-4.7,19.96-4.03,29.601,0.33
				c17.02,7.68,30.239,23.26,40.71,38.27c3.699,5.3,7.359,10.9,10.71,16.73c-0.051,0.01-0.101,0.03-0.15,0.05
				c-6.03,2.15-3.43,11.81,2.66,9.65C501.191,199.57,501.96,199.33,502.71,199.14z"/>
			<path d="M497.901,190.15c1.699,2.94,3.319,5.94,4.81,8.99c-0.75,0.19-1.52,0.43-2.3,0.71c-6.09,2.16-8.69-7.5-2.66-9.65
				C497.8,190.18,497.85,190.16,497.901,190.15z"/>
			<path d="M427.29,139.58c1.24,0.34,2.14,1,2.71,1.82c-2.7,0.12-5.4,0.76-8.07,2.06c-4.569,2.22-8.689-2.71-7.35-6.27
				C418.84,137.64,423.09,138.45,427.29,139.58z"/>
			<path d="M116.44,344.49c3.88,0.02,5.43,3.66,4.62,6.54c-3.2,1.25-6.45,2.35-9.74,3.3c-7.95-0.42-15.84-1.7-23.51-3.77
				c0.76-1.36,2.12-2.41,4.06-2.57c6.38-0.54,12.73-1.81,18.95-3.7C112.68,344.41,114.56,344.48,116.44,344.49z"/>
			<path d="M121.06,351.03c-0.51,1.91-2.06,3.48-4.62,3.46c-1.71-0.01-3.42-0.06-5.12-0.16
				C114.61,353.38,117.86,352.28,121.06,351.03z"/>
			<path d="M121.06,351.03c0.81-2.88-0.74-6.52-4.62-6.54c-1.88-0.01-3.76-0.08-5.62-0.2c25.31-7.65,48.68-25.38,65.21-44.68
				c10.92-12.74,20.14-27.7,24.01-44.19c3.15-13.41,3.47-28.21,0.77-41.74c-5.98-29.95-27.26-53.49-56.63-62.15
				c-28.85-8.51-61.01-3.3-85.54,14.22c-32.27,23.06-49.79,67.41-39.26,106.04c11.26,41.28,49.42,69.89,91.44,72.5
				c-6.22,1.89-12.57,3.16-18.95,3.7c-1.94,0.16-3.3,1.21-4.06,2.57c-31.76-8.57-59.85-30.66-72.9-61.45
				c-16.5-38.97-7.39-85.27,21.04-116.44c21.25-23.32,52.68-36.42,84.23-35.11c29.98,1.24,59.42,14.77,76.52,40.05
				c20.91,30.91,20.75,74.39,2.53,106.41c-11.61,20.39-28.59,37.71-47.95,50.86C141.87,341.27,131.73,346.9,121.06,351.03z"/>
			<path d="M111.32,354.33c-6.34,1.84-12.84,3.1-19.45,3.66c-4.47,0.38-5.8-4.34-4.06-7.43
				C95.48,352.63,103.37,353.91,111.32,354.33z"/>
		</g>
		<g>
		</g>
	</g>
</g>
</svg>
