<?xml version="1.0" encoding="utf-8"?>
<!-- Generator: Adobe Illustrator 16.2.0, SVG Export Plug-In . SVG Version: 6.00 Build 0)  -->
<!DOCTYPE svg PUBLIC "-//W3C//DTD SVG 1.1//EN" "http://www.w3.org/Graphics/SVG/1.1/DTD/svg11.dtd">
<svg version="1.1" id="图层_1" xmlns="http://www.w3.org/2000/svg" xmlns:xlink="http://www.w3.org/1999/xlink" x="0px" y="0px"
	 width="560px" height="960px" viewBox="0 0 560 960" enable-background="new 0 0 560 960" xml:space="preserve">
<g>
	<g>
		<path d="M99.974,357.04c4.935,101.646,13.048,203.2,13.104,305.023c0.003,6.447,10.003,6.448,10,0
			c-0.055-101.823-8.168-203.378-13.104-305.023C109.662,350.622,99.661,350.59,99.974,357.04L99.974,357.04z"/>
	</g>
</g>
<g>
	<g>
		<path d="M109.979,667.744c-12.552,45.894-14.591,93.754-24.938,140.094c-10.27,45.982-24.1,91.234-29.284,138.213
			c-0.709,6.43,9.241,6.299,10,0c0.284-2.356,1.348-4.604,1.638-7.013c0.771-6.395-9.236-6.318-10,0
			c-0.284,2.357-1.348,4.604-1.638,7.013c3.333,0,6.667,0,10,0c5.147-46.645,19.134-91.701,29.331-137.362
			c10.214-45.742,12.142-92.973,24.535-138.284C121.326,664.172,111.678,661.531,109.979,667.744L109.979,667.744z"/>
	</g>
</g>
<g>
	<g>
		<path d="M116.177,663.845c8.68,7.315,12.045,18.95,15.28,29.411c3.787,12.246,8.103,23.979,13.437,35.657
			c12.438,27.229,28.191,52.794,40.63,80.025c6.5,14.231,11.689,29.109,17.646,43.58c5.869,14.258,11.958,28.425,18.302,42.477
			c7.514,16.646,15.387,33.146,22.775,49.85c1.022,2.313,2.012,4.645,2.902,7.015c0.313,0.829,0.597,1.67,0.846,2.521
			c0.102,0.348,0.288,1.628,0.094-0.009c0.353,2.979,9.358-2.26,6.8-3.875c-5.471-3.453-10.484,5.203-5.047,8.636
			c3.103,1.959,6.813,0.438,8.008-2.898c0.738-2.063-0.16-4.507-0.846-6.458c-2.581-7.346-6.084-14.425-9.354-21.479
			c-9.031-19.495-18.022-39.008-26.539-58.735c-12.196-28.265-22.276-57.418-36.271-84.871
			c-13.378-26.247-29.231-51.748-39.171-79.599c-5.803-16.259-8.467-36.559-22.42-48.317
			C118.352,652.646,111.24,659.684,116.177,663.845L116.177,663.845z"/>
	</g>
</g>
<g>
	<g>
		<path d="M414.587,360.122c16.499,103.35,9.715,208.625,21.108,312.458c0.533,4.856,6.443,6.935,9.317,2.522
			c1.694-2.602,1.144-5.408,2.143-8.206c2.174-6.09-7.489-8.687-9.643-2.658c-0.541,1.517-0.336,4.592-1.135,5.817
			c3.104,0.842,6.212,1.684,9.315,2.522c-11.495-104.74-4.822-210.853-21.468-315.118
			C423.215,351.108,413.578,353.815,414.587,360.122L414.587,360.122z"/>
	</g>
</g>
<g>
	<g>
		<path d="M430.964,678.264c-15.388,95.224-72.96,176.681-94.985,269.963c-1.48,6.271,8.161,8.934,9.643,2.658
			c22.025-93.28,79.602-174.735,94.985-269.963C441.625,674.615,431.989,671.91,430.964,678.264L430.964,678.264z"/>
	</g>
</g>
<g>
	<g>
		<path d="M437.16,674.363c16.676,18.128,25.662,42.057,33.984,64.833c4.31,11.795,8.405,23.668,13.039,35.342
			c4.995,12.582,11.421,24.338,17.31,36.503c6.876,14.204,12.938,28.784,18.555,43.527c2.644,6.941,5.15,13.936,7.6,20.947
			c2.386,6.838,4.156,14.178,7.132,20.772c-0.465-1.03,0.572,1.613,0.729,2.063c0.476,1.353,0.916,2.717,1.354,4.08
			c1.211,3.769,2.332,7.563,3.434,11.364c2.053,7.095,4.039,14.229,5.644,21.438c0.196,0.883,0.374,1.769,0.534,2.657
			c0.252,1.396-0.088-0.988,0.021,0.11c0.16,1.604-1.038,0.388,1.392-2.747c1.178-0.488,2.354-0.978,3.535-1.466
			c3.507-0.449,4.756,3.963,3.318,0.971c-2.787-5.813-11.408-0.737-8.635,5.047c2.78,5.798,11.213,4.533,10.315-2.439
			c-0.812-6.304-2.68-12.501-4.347-18.617c-4.878-17.902-11.031-35.416-17.252-52.888c-5.146-14.456-10.765-28.738-16.877-42.813
			c-5.994-13.801-13.346-26.892-19.604-40.541c-10.422-22.722-17.139-46.969-26.89-69.975c-6.904-16.293-15.16-32.131-27.222-45.243
			C439.857,662.537,432.805,669.627,437.16,674.363L437.16,674.363z"/>
	</g>
</g>
<g>
	<g id="XMLID_1_">
		<g>
			<path fill="#FFFFFF" d="M200.81,211.45c2.7,13.53,2.38,28.33-0.77,41.74c-3.87,16.49-13.1,31.45-24.01,44.19
				c-16.53,19.3-39.89,37.02-65.19,44.68c-42.02-2.59-80.2-31.22-91.46-72.5c-10.53-38.63,6.99-82.98,39.26-106.04
				c24.53-17.52,56.69-22.72,85.54-14.21C173.55,157.97,194.83,181.5,200.81,211.45z"/>
			<path fill="#FFFFFF" d="M535.38,245.73c1.97,16.05,2.15,32.35,1.34,48.48c-0.62,12.49-1.72,25.2-4.79,37.36
				c-0.069,0.29-0.149,0.57-0.229,0.86c-0.03-0.02-0.061-0.03-0.101-0.05c-18.939-8.31-21.3-35.57-20.02-53.48
				c0.17-2.43-1.15-3.94-2.88-4.54c5.46-17.61,6.49-36.51,1.99-55.06c-1.771-7.3-4.57-14.47-7.98-21.39
				c8.99-2.39,15.95,0.73,21.3,9.03C531.27,218.2,533.781,232.66,535.38,245.73z"/>
			<path fill="#FFFFFF" d="M495.29,206.15c16.06,34.65,7.41,74.08-16.93,102.56c-23.181,27.13-61.44,45.34-96.86,33.15
				c-34.14-11.75-49.5-47.47-51.13-81.05c-2.521-52.15,29.38-130.37,94.26-112.82c4.99,1.35,7.68-4.56,5.37-7.83
				c12.28-0.54,24.43,9.73,32.53,17.78C476.281,171.62,487.151,188.61,495.29,206.15z"/>
			<path d="M546.6,259.27c0.96,15.79,0.71,31.71-0.77,47.47c-1.03,10.89-2.04,22.56-5.93,32.89c-1.631,4.33-7.16,4.16-9.2,1.44
				c3.55-1.48,5.26-6.68,1-8.64c0.08-0.29,0.16-0.57,0.229-0.86c3.07-12.16,4.17-24.87,4.79-37.36
				c0.811-16.13,0.63-32.43-1.34-48.48c-1.6-13.07-4.11-27.53-11.37-38.79c-5.35-8.3-12.31-11.42-21.3-9.03
				c-1.49-3.05-3.11-6.04-4.81-8.98c5.899-2.07,12.76-2.9,18.76-0.7c11.47,4.22,17.899,15.11,21.88,26.08
				C543.731,228.62,545.68,244.14,546.6,259.27z"/>
			<path d="M531.7,332.43c4.26,1.96,2.55,7.16-1,8.64c-0.79-1.03-1.07-2.44-0.44-4.1C530.821,335.49,531.29,333.97,531.7,332.43z"/>
			<path d="M531.6,332.38c0.04,0.02,0.07,0.03,0.101,0.05c-0.41,1.54-0.88,3.06-1.44,4.54c-0.63,1.66-0.35,3.07,0.44,4.1
				c-1.22,0.52-2.66,0.59-4.15-0.06c-17.92-7.86-24.16-29.55-25.109-48.83c2.93-5.74,5.359-11.7,7.26-17.82
				c1.729,0.6,3.05,2.11,2.88,4.54C510.3,296.81,512.66,324.07,531.6,332.38z"/>
			<path d="M501.58,278.9c0.28-3.98,4.26-5.5,7.12-4.54c-1.9,6.12-4.33,12.08-7.26,17.82C501.21,287.54,501.281,283.04,501.58,278.9
				z"/>
			<path d="M500.41,198.62c0.78-0.28,1.55-0.52,2.3-0.71c3.41,6.92,6.21,14.09,7.98,21.39c4.5,18.55,3.47,37.45-1.99,55.06
				c-2.86-0.96-6.84,0.56-7.12,4.54c-0.3,4.14-0.37,8.64-0.14,13.28c-6.19,12.14-14.58,23.26-24.73,32.71
				c-26.21,24.38-65.94,39.92-100.89,25.47c-34.011-14.05-51.681-47.09-54.95-82.42c-3.07-33.25,4.55-70,24.2-97.44
				c8.979-12.54,20.42-23.4,34.729-29.55c11.13-4.78,23-6.25,34.79-4.99c-1.359,3.55,2.771,8.5,7.34,6.27
				c2.67-1.3,5.37-1.95,8.07-2.07c2.31,3.27-0.38,9.18-5.37,7.83c-64.88-17.55-96.78,60.67-94.26,112.82
				c1.63,33.58,16.99,69.3,51.13,81.05c35.42,12.19,73.68-6.02,96.86-33.15c24.34-28.48,32.989-67.91,16.93-102.56
				c-8.14-17.54-19.01-34.53-32.76-48.21c-8.101-8.05-20.25-18.32-32.53-17.78c-0.58-0.82-1.47-1.47-2.71-1.81
				c-4.2-1.13-8.45-1.94-12.7-2.39c0.351-0.94,1.08-1.77,2.29-2.36c9.64-4.71,19.96-4.04,29.601,0.32
				c17.02,7.68,30.239,23.27,40.71,38.27c3.699,5.31,7.359,10.91,10.71,16.74c-0.051,0.02-0.101,0.03-0.15,0.05
				C491.72,191.12,494.321,200.79,500.41,198.62z"/>
			<path d="M497.901,188.93c1.699,2.94,3.319,5.93,4.81,8.98c-0.75,0.19-1.52,0.43-2.3,0.71c-6.09,2.17-8.69-7.5-2.66-9.64
				C497.8,188.96,497.85,188.95,497.901,188.93z"/>
			<path d="M427.29,138.35c1.24,0.34,2.13,0.99,2.71,1.81c-2.7,0.12-5.4,0.77-8.07,2.07c-4.569,2.23-8.699-2.72-7.34-6.27
				C418.84,136.41,423.09,137.22,427.29,138.35z"/>
			<path d="M116.44,342.26c3.88,0.02,5.43,3.67,4.62,6.55c-3.19,1.24-6.43,2.34-9.71,3.29c-7.95-0.41-15.85-1.69-23.53-3.77
				c0.76-1.35,2.11-2.4,4.05-2.56c6.39-0.54,12.74-1.82,18.97-3.71C112.7,342.18,114.57,342.25,116.44,342.26z"/>
			<path d="M121.06,348.81c-0.52,1.9-2.06,3.47-4.62,3.45c-1.7-0.01-3.4-0.06-5.09-0.16C114.63,351.15,117.87,350.05,121.06,348.81z
				"/>
			<path d="M110.84,342.06c25.3-7.66,48.66-25.38,65.19-44.68c10.91-12.74,20.14-27.7,24.01-44.19c3.15-13.41,3.47-28.21,0.77-41.74
				c-5.98-29.95-27.26-53.48-56.63-62.14c-28.85-8.51-61.01-3.31-85.54,14.21c-32.27,23.06-49.79,67.41-39.26,106.04
				C30.64,310.84,68.82,339.47,110.84,342.06c-6.23,1.89-12.58,3.17-18.97,3.71c-1.94,0.16-3.29,1.21-4.05,2.56
				c-31.77-8.55-59.86-30.65-72.91-61.45c-16.51-38.96-7.39-85.26,21.04-116.44c21.25-23.31,52.68-36.42,84.23-35.11
				c29.98,1.24,59.42,14.77,76.52,40.05c20.9,30.91,20.75,74.39,2.53,106.41c-11.61,20.4-28.59,37.72-47.95,50.87
				c-9.41,6.39-19.55,12.02-30.22,16.15c0.81-2.88-0.74-6.53-4.62-6.55C114.57,342.25,112.7,342.18,110.84,342.06z"/>
			<path d="M111.35,352.1c-6.35,1.84-12.85,3.11-19.48,3.67c-4.47,0.38-5.81-4.35-4.05-7.44C95.5,350.41,103.4,351.69,111.35,352.1z
				"/>
		</g>
		<g>
		</g>
	</g>
</g>
<g>
	<g>
		<path d="M109.23,373.624c5.527-1.699,12.358,3.836,16.671,6.647c6.559,4.272,12.929,7.772,20.008,11.142
			c9.188,4.374,18.189,9.131,27.25,13.762c9.719,4.969,19.692,9.406,29.335,14.511c18.429,9.756,37.074,19.193,55.213,29.478
			c4.248,2.409,8.528,4.756,12.849,7.033c2.613,1.377,5.853,2.851,7.27,3.597c3.366,1.774,8.104,5.887,12.048,3.654
			c2.354-1.333,3.175-4.525,1.793-6.842c-0.587-0.984-1.342-1.621-2.207-2.329c-4.945-4.049-12.064,2.982-7.07,7.07
			c0.395,0.322,1.508,1.756,0.645,0.307c0.598-2.28,1.194-4.562,1.793-6.842c-0.022,0.014-0.046,0.025-0.067,0.039
			c1.284-0.168,2.568-0.336,3.853-0.504c1.646,0.446-0.455-0.261-0.885-0.493c-0.936-0.505-1.858-1.034-2.786-1.555
			c-1.686-0.947-3.356-1.857-5.164-2.559c-8.702-3.374-16.71-9.295-24.947-13.656c-19.144-10.134-38.067-21.333-57.772-30.316
			c-18.524-8.446-36.179-18.667-54.762-26.998c-11.03-4.946-22.283-18.919-35.721-14.79
			C100.427,365.869,103.049,375.523,109.23,373.624L109.23,373.624z"/>
	</g>
</g>
<g>
	<g>
		<path d="M107.575,377.515c13.583,6.137,18.347,23.322,26.777,34.47c5.661,7.485,10.965,14.89,17.577,21.613
			c6.361,6.469,13.393,12.253,20.395,18.005c33.393,27.435,67.075,54.473,100.173,82.273c4.902,4.118,12.015-2.918,7.07-7.07
			c-33.098-27.803-66.751-54.874-100.173-82.273c-14.631-11.995-27.474-24.486-38.231-40.129
			c-8.394-12.204-14.099-28.997-28.541-35.522C106.795,366.248,101.706,374.863,107.575,377.515L107.575,377.515z"/>
	</g>
</g>
<g>
	<g>
		<path d="M407.661,366.365c-31.941,38.888-70.298,74.987-113.272,101.416c-3.877,2.384-2.705,9.985,2.523,9.316
			c3.088-0.395,5.295-1.392,8.018-2.88c5.659-3.093,0.613-11.729-5.047-8.635c-0.961,0.562-1.951,1.067-2.971,1.515
			c0.841,3.106,1.683,6.211,2.522,9.317c43.686-26.865,82.824-63.445,115.297-102.979
			C418.789,368.497,411.758,361.378,407.661,366.365L407.661,366.365z"/>
	</g>
</g>
<g>
	<g>
		<path d="M405.277,378.462c-6.354,30.186-24.354,57.35-43.77,80.761c-19.943,24.052-43.538,46.276-70.416,62.405
			c-3.929,2.357-2.671,9.982,2.522,9.317c3.089-0.396,5.295-1.394,8.019-2.881c5.659-3.095,0.612-11.729-5.047-8.636
			c-0.961,0.563-1.951,1.067-2.972,1.517c0.842,3.104,1.684,6.212,2.523,9.316c27.647-16.591,51.813-39.339,72.439-63.969
			c20.565-24.558,39.647-53.38,46.342-85.174C416.243,374.83,406.605,372.153,405.277,378.462L405.277,378.462z"/>
	</g>
</g>
</svg>
