<?xml version="1.0" encoding="utf-8"?>
<!-- Generator: Adobe Illustrator 16.2.0, SVG Export Plug-In . SVG Version: 6.00 Build 0)  -->
<!DOCTYPE svg PUBLIC "-//W3C//DTD SVG 1.1//EN" "http://www.w3.org/Graphics/SVG/1.1/DTD/svg11.dtd">
<svg version="1.1" id="图层_1" xmlns="http://www.w3.org/2000/svg" xmlns:xlink="http://www.w3.org/1999/xlink" x="0px" y="0px"
	 width="560px" height="960px" viewBox="0 0 560 960" enable-background="new 0 0 560 960" xml:space="preserve">
<g>
	<path fill="#FFFFFF" d="M272.553,126.373c-26.374-12.088-60.44,17.583-75.824,36.264c-18.682,25.275-31.869,56.044-31.869,87.912
		c1.1,67.033,45.055,123.077,116.484,110.989c68.132-12.088,101.099-57.143,100-125.275c-1.1-51.648-83.517-126.374-137.363-109.89"
		/>
	<g>
		<path d="M275.076,122.055c-21.725-9.415-43.937,2.898-60.882,16.359c-19.644,15.605-33.833,36.534-43.338,59.637
			c-17.788,43.233-13.783,96.185,15.734,133.568c12.431,15.745,29.164,27.299,48.46,32.9c21.761,6.317,44.946,3.737,66.374-2.575
			c19.272-5.676,37.351-15.471,51.649-29.686c13.665-13.584,22.783-31.052,27.917-49.502c5.224-18.774,7.945-41.081,3.49-60.25
			c-4.353-18.729-15.683-35.626-28-50.043c-13.733-16.074-30.634-29.881-49.226-39.954c-16.385-8.877-35.511-15.174-54.338-13.025
			c-3.485,0.398-6.903,1.074-10.267,2.067c-6.171,1.821-3.542,11.472,2.658,9.643c17.685-5.218,36.425-0.106,52.535,7.709
			c19.056,9.245,35.842,22.988,49.9,38.726c12.538,14.036,23.497,30.887,27.533,49.489c2.073,9.555,1.183,19.887,0.312,29.537
			c-0.931,10.305-3.083,20.494-6.331,30.314c-5.966,18.036-16.918,33.823-31.667,45.765c-16.382,13.264-37.096,20.267-57.577,23.982
			c-21.133,3.833-43.403,0.599-61.973-10.313c-17.346-10.193-29.782-26.752-37.786-44.945c-6.823-15.509-9.871-32.688-10.368-49.543
			c-0.656-22.227,6.436-44.363,16.67-63.848c8.99-17.116,20.693-31.449,35.817-43.463c12.462-9.899,31.412-20.953,47.654-13.914
			C275.882,133.226,280.979,124.613,275.076,122.055L275.076,122.055z"/>
	</g>
</g>
<g>
	<g>
		<path d="M265.354,373.526c-10.056,89.439-2.291,179.639,1.099,269.23c0.189,4.996,6.639,6.791,9.317,2.523
			c1.57-2.502,1.751-5.118,1.782-8.018c0.068-6.451-9.932-6.444-10,0c0.139,1.032,0,2.022-0.417,2.971
			c3.106,0.841,6.211,1.683,9.317,2.523c-3.389-89.592-11.155-179.792-1.099-269.23
			C276.074,367.124,266.066,367.193,265.354,373.526L265.354,373.526z"/>
	</g>
</g>
<g>
	<g>
		<path d="M263.335,642.626c-8.775,26.146-19.883,51.422-32.184,76.087c-12.556,25.177-27.157,49.202-38.935,74.776
			c-23.521,51.071-39.76,105.042-58.551,157.928c-1.904,5.358,6.566,8.865,9.139,3.853c2.234-4.354,4.636-8.554,5.998-13.282
			c1.79-6.21-7.86-8.843-9.643-2.658c-1.123,3.896-3.149,7.306-4.99,10.894c3.046,1.284,6.093,2.568,9.139,3.853
			c18.919-53.246,35.262-107.562,59.103-158.911c11.586-24.955,25.929-48.45,38.202-73.061
			c12.399-24.864,23.521-50.468,32.365-76.819C275.035,639.153,265.375,636.546,263.335,642.626L263.335,642.626z"/>
	</g>
</g>
<g>
	<g>
		<path d="M265.72,651.886c7.245,6.902,11.27,17.09,14.961,26.184c4.243,10.453,7.797,21.179,12.244,31.551
			c5.716,13.328,12.555,26.119,18.091,39.555c6.026,14.628,11.556,29.456,17.48,44.126c9.753,24.146,18.886,48.537,28.452,72.763
			c8.831,22.364,17.791,44.692,27.385,66.742c3.321,7.635,6.69,15.277,10.54,22.664c2.068,3.968,4.508,9.511,9.546,9.969
			c2.719,0.247,5-2.462,5-5c0-1.099,0-2.198,0-3.297c0-6.448-10-6.448-10,0c0,1.099,0,2.198,0,3.297c1.667-1.667,3.333-3.333,5-5
			c1.152,0.104,2.688,0.965,2.556,0.831c-1.019-1.037,0.514,0.785-0.26-0.318c-0.943-1.347-1.739-2.803-2.524-4.245
			c-2.428-4.463-4.559-9.092-6.669-13.71c-6.289-13.765-12.06-27.769-17.776-41.778c-11.367-27.854-22.325-55.883-33.006-84.009
			c-10.515-27.69-21.255-55.515-33.289-82.58c-3.743-8.419-8.286-16.482-11.853-24.971c-2.948-7.019-5.488-14.21-8.186-21.327
			c-5.002-13.199-10.141-28.531-20.622-38.516C268.125,640.37,261.043,647.431,265.72,651.886L265.72,651.886z"/>
	</g>
</g>
<g>
	<g>
		<path d="M262.196,408.651c-7.147,10.688-16.465,19.656-25.117,29.096c-8.863,9.671-17.219,19.792-25.672,29.818
			c-7.708,9.141-16.074,17.677-23.721,26.869c-6.835,8.216-13.41,16.642-20.553,24.598c-14.857,16.547-32.822,29.842-55.917,30.063
			c-24.257,0.23-45.94-14.841-63.167-30.455c-1.622,2.785-3.243,5.571-4.865,8.356c0.269,0.165,0.537,0.331,0.806,0.496
			c5.591,3.237,10.624-5.406,5.047-8.635c-1.047-0.606-2.068-1.07-3.194-1.504c-4.717-1.814-8.442,5.114-4.865,8.356
			c18.134,16.437,39.115,30.35,63.967,33.068c24.613,2.693,46.385-9.585,63.292-26.373c8.265-8.206,15.493-17.408,22.841-26.422
			c8.018-9.835,16.773-18.955,25.039-28.57c9.345-10.871,18.407-21.966,28.033-32.595c9.19-10.146,19.036-19.688,26.681-31.12
			C274.427,408.321,265.761,403.32,262.196,408.651L262.196,408.651z"/>
	</g>
</g>
<g>
	<g>
		<path d="M262.514,408.675c-7.992-0.358-14.928,4.089-20.943,8.885c-6.795,5.417-13.446,11.034-20.2,16.507
			c-15.25,12.358-30.881,23.104-48.531,31.76c-16.009,7.851-33.751,14.275-51.787,14.12c-9.687-0.083-17.74-3.541-25.638-8.961
			c-3.802-2.609-7.416-5.603-11.073-8.414c-1.503-1.156-3.082-2.675-4.821-3.443c-0.941-0.416-2.167-0.69-2.998-1.318
			c-0.398,3.046-0.796,6.093-1.194,9.139c-0.104,0.075-0.209,0.15-0.313,0.226c6.388,0.8,6.311-9.209,0-10
			c-0.829-0.104-1.507-0.068-2.345,0.132c-4.639,1.108-4.382,6.728-1.194,9.139c1.932,1.461,4.39,2.17,6.417,3.689
			c4.178,3.134,8.236,6.435,12.475,9.486c7.934,5.71,16.561,9.042,26.24,10.077c18.008,1.924,36.448-4.356,52.748-11.315
			c17.656-7.538,33.999-17.49,49.124-29.265c7.549-5.877,15.098-11.848,22.424-18c6.013-5.05,13.105-12.823,21.612-12.442
			C268.963,418.963,268.936,408.962,262.514,408.675L262.514,408.675z"/>
	</g>
</g>
<g>
	<path fill="#FFFFFF" d="M39.514,448.837c-11,8-18,21.163-27.5,29.163h-1c14,18,38.5,31.338,56.5,44.838l3,0.918
		c1.5,0.5,8-10.54,10.5-13.54c5.5-6,12-11.021,17-16.521l-0.5,0.489c-3.5-3.5-8-5.505-12-8.505l2.5,0.998
		c-16-11-32.5-23.92-46-35.92"/>
	<g>
		<path d="M36.99,444.357c-11.156,8.426-17.792,20.991-28.512,29.782c1.179-0.488,2.357-0.976,3.536-1.464c-0.333,0-0.667,0-1,0
			c-4.735,0-6.118,5.285-3.536,8.535c14.753,18.566,36.203,30.312,55.129,44.021c2.49,1.805,6.185,4.168,9.498,3.257
			c3.448-0.948,5.709-5.025,7.602-7.727c2.339-3.34,4.392-6.643,7.254-9.565c4.718-4.816,9.983-9.051,14.589-13.985
			c4.39-4.703-2.495-11.647-7.071-7.07c-0.167,0.166-0.333,0.333-0.5,0.5c2.357,0,4.714,0,7.071,0
			c-3.951-3.665-8.657-6.164-13.012-9.282c-1.284,3.046-2.568,6.093-3.853,9.139c0.833,0.333,1.667,0.667,2.5,1
			c5.579,2.231,8.213-6.127,3.853-9.139c-15.684-10.833-30.714-22.585-44.988-35.218c-4.81-4.257-11.909,2.789-7.071,7.071
			c14.904,13.191,30.636,25.471,47.012,36.782c1.284-3.046,2.568-6.093,3.853-9.139c-0.833-0.333-1.667-0.667-2.5-1
			c-5.633-2.253-8.114,6.088-3.853,9.139c3.646,2.61,7.687,4.656,10.988,7.718c1.997,1.853,5.091,1.98,7.071,0
			c0.167-0.166,0.333-0.333,0.5-0.5c-2.357-2.356-4.714-4.714-7.071-7.07c-6.653,7.128-14.715,12.854-20.266,20.957
			c-1.872,2.732-3.593,5.644-5.806,8.118c-1.375,1.205-0.333,1.05,3.125-0.466c-0.792-0.264-1.584-0.527-2.376-0.792
			c-1.446-0.481-3.822-3.034-5.196-4.008c-17.22-12.205-36.093-23.051-49.41-39.81c-1.179,2.845-2.357,5.69-3.536,8.536
			c5.971,0,10.923-7.503,14.393-11.683c5.197-6.263,10.077-13.05,16.631-18C47.114,449.158,42.14,440.468,36.99,444.357
			L36.99,444.357z"/>
	</g>
</g>
<g>
</g>
<g>
</g>
<g>
</g>
<g>
</g>
<g>
</g>
<g>
</g>
<g>
</g>
<g>
</g>
<g>
</g>
<g>
</g>
<g>
</g>
<g>
</g>
<g>
</g>
<g>
</g>
<g>
</g>
</svg>
