<?xml version="1.0" encoding="utf-8"?>
<!-- Generator: Adobe Illustrator 16.2.0, SVG Export Plug-In . SVG Version: 6.00 Build 0)  -->
<!DOCTYPE svg PUBLIC "-//W3C//DTD SVG 1.1//EN" "http://www.w3.org/Graphics/SVG/1.1/DTD/svg11.dtd">
<svg version="1.1" id="图层_1" xmlns="http://www.w3.org/2000/svg" xmlns:xlink="http://www.w3.org/1999/xlink" x="0px" y="0px"
	 width="560px" height="960px" viewBox="0 0 560 960" enable-background="new 0 0 560 960" xml:space="preserve">
<g>
	<path fill="#FFFFFF" d="M272.553,124.373c-26.374-12.088-60.44,17.583-75.824,36.264c-18.682,25.275-31.869,56.044-31.869,87.912
		c1.1,67.033,45.055,123.077,116.484,110.989c68.132-12.088,101.099-57.143,100-125.275c-1.1-51.648-83.517-126.374-137.363-109.89"
		/>
	<g>
		<path d="M275.076,120.055c-21.725-9.415-43.937,2.898-60.882,16.359c-19.644,15.605-33.833,36.534-43.338,59.637
			c-17.788,43.233-13.783,96.185,15.734,133.568c12.431,15.745,29.164,27.299,48.46,32.9c21.761,6.317,44.946,3.737,66.374-2.575
			c19.272-5.676,37.351-15.471,51.649-29.686c13.665-13.584,22.783-31.052,27.917-49.502c5.224-18.774,7.945-41.081,3.49-60.25
			c-4.353-18.729-15.683-35.626-28-50.043c-13.733-16.074-30.634-29.881-49.226-39.954c-16.385-8.877-35.511-15.174-54.338-13.025
			c-3.485,0.398-6.903,1.074-10.267,2.067c-6.171,1.821-3.542,11.472,2.658,9.643c17.685-5.218,36.425-0.106,52.535,7.709
			c19.056,9.245,35.842,22.988,49.9,38.726c12.538,14.036,23.497,30.887,27.533,49.489c2.073,9.555,1.183,19.887,0.312,29.537
			c-0.931,10.305-3.083,20.494-6.331,30.314c-5.966,18.036-16.918,33.823-31.667,45.765c-16.382,13.264-37.096,20.267-57.577,23.982
			c-21.133,3.833-43.403,0.599-61.973-10.313c-17.346-10.193-29.782-26.752-37.786-44.945c-6.823-15.509-9.871-32.688-10.368-49.543
			c-0.656-22.227,6.436-44.363,16.67-63.848c8.99-17.116,20.693-31.449,35.817-43.463c12.462-9.899,31.412-20.953,47.654-13.914
			C275.882,131.226,280.979,122.613,275.076,120.055L275.076,120.055z"/>
	</g>
</g>
<g>
	<g>
		<path d="M265.354,371.526c-10.056,89.439-2.291,179.639,1.099,269.23c0.189,4.996,6.639,6.791,9.317,2.523
			c1.57-2.502,1.751-5.118,1.782-8.018c0.068-6.451-9.932-6.444-10,0c0.139,1.032,0,2.022-0.417,2.971
			c3.106,0.841,6.211,1.683,9.317,2.523c-3.389-89.592-11.155-179.792-1.099-269.23
			C276.074,365.124,266.066,365.193,265.354,371.526L265.354,371.526z"/>
	</g>
</g>
<g>
	<g>
		<path d="M263.335,640.626c-8.775,26.146-19.883,51.422-32.184,76.087c-12.556,25.177-27.157,49.202-38.935,74.776
			c-23.521,51.071-39.76,105.042-58.551,157.928c-1.904,5.358,6.566,8.865,9.139,3.853c2.234-4.354,4.636-8.554,5.998-13.282
			c1.79-6.21-7.86-8.843-9.643-2.658c-1.123,3.896-3.149,7.306-4.99,10.894c3.046,1.284,6.093,2.568,9.139,3.853
			c18.919-53.246,35.262-107.562,59.103-158.911c11.586-24.955,25.929-48.45,38.202-73.061
			c12.399-24.864,23.521-50.468,32.365-76.819C275.035,637.153,265.375,634.546,263.335,640.626L263.335,640.626z"/>
	</g>
</g>
<g>
	<g>
		<path d="M265.72,649.886c7.245,6.902,11.27,17.09,14.961,26.184c4.243,10.453,7.797,21.179,12.244,31.551
			c5.716,13.328,12.555,26.119,18.091,39.555c6.026,14.628,11.556,29.456,17.48,44.126c9.753,24.146,18.886,48.537,28.452,72.763
			c8.831,22.364,17.791,44.692,27.385,66.742c3.321,7.635,6.69,15.277,10.54,22.664c2.068,3.968,4.508,9.511,9.546,9.969
			c2.719,0.247,5-2.462,5-5c0-1.099,0-2.198,0-3.297c0-6.448-10-6.448-10,0c0,1.099,0,2.198,0,3.297c1.667-1.667,3.333-3.333,5-5
			c1.152,0.104,2.688,0.965,2.556,0.831c-1.019-1.037,0.514,0.785-0.26-0.318c-0.943-1.347-1.739-2.803-2.524-4.245
			c-2.428-4.463-4.559-9.092-6.669-13.71c-6.289-13.765-12.06-27.769-17.776-41.778c-11.367-27.854-22.325-55.883-33.006-84.009
			c-10.515-27.69-21.255-55.515-33.289-82.58c-3.743-8.419-8.286-16.482-11.853-24.971c-2.948-7.019-5.488-14.21-8.186-21.327
			c-5.002-13.199-10.141-28.531-20.622-38.516C268.125,638.37,261.043,645.431,265.72,649.886L265.72,649.886z"/>
	</g>
</g>
<g>
	<g>
		<path d="M267.696,411.698c7.312,10.935,16.615,20.229,25.514,29.847c9.713,10.498,18.772,21.575,28.017,32.48
			c8.276,9.764,17.185,18.927,25.304,28.833c7.387,9.012,14.624,18.148,22.746,26.521c16.784,17.301,38.057,29.074,62.748,27.531
			c25.259-1.578,47.349-16.728,65.524-33.202c3.578-3.242-0.147-10.171-4.864-8.356c-1.127,0.434-2.147,0.897-3.194,1.504
			c-5.577,3.229-0.545,11.872,5.047,8.635c0.269-0.165,0.537-0.331,0.806-0.496c-1.621-2.785-3.243-5.571-4.864-8.356
			c-17.146,15.539-37.722,29.508-61.59,30.432c-23.114,0.895-41.577-12.787-56.518-28.966c-7.251-7.852-13.822-16.31-20.609-24.557
			c-7.521-9.139-15.785-17.593-23.464-26.594c-8.538-10.009-16.933-20.119-25.696-29.934c-8.919-9.988-18.792-19.185-26.271-30.37
			C272.767,401.32,264.1,406.321,267.696,411.698L267.696,411.698z"/>
	</g>
</g>
<g>
	<g>
		<path d="M276.014,416.675c8.051-0.36,14.903,6.695,20.576,11.56c7.604,6.521,15.584,12.691,23.46,18.882
			c15.102,11.872,31.521,21.578,49.124,29.265c16.465,7.189,34.585,12.785,52.748,11.315c9.153-0.74,17.182-4.121,24.827-9.107
			c4.345-2.834,8.376-6.224,12.485-9.383c1.259-0.968,2.871-2.637,4.343-3.226c1.136-0.455,2.497-0.795,3.476-1.535
			c3.188-2.411,3.444-8.03-1.194-9.139c-0.838-0.2-1.516-0.236-2.345-0.132c-6.311,0.791-6.388,10.8,0,10
			c-0.104-0.075-0.209-0.15-0.313-0.226c-0.398-3.046-0.796-6.092-1.194-9.139c-1.919,1.451-4.398,2.176-6.417,3.69
			c-4.177,3.133-8.238,6.436-12.475,9.485c-7.833,5.637-16.011,8.654-25.639,8.961c-17.922,0.571-35.917-6.471-51.787-14.12
			c-17.686-8.524-33.312-19.431-48.531-31.76c-6.755-5.472-13.405-11.09-20.2-16.507c-6.016-4.796-12.951-9.243-20.943-8.885
			C269.592,406.962,269.564,416.963,276.014,416.675L276.014,416.675z"/>
	</g>
</g>
<g>
	<path fill="#FFFFFF" d="M499.014,446.837c11,8,18,21.163,27.5,29.163h1c-14,18-38.5,31.338-56.5,44.838l-3,0.918
		c-1.5,0.5-8-10.54-10.5-13.54c-5.5-6-12-11.021-17-16.521l0.5,0.489c3.5-3.5,8-5.505,12-8.505l-2.5,0.998
		c16-11,32.5-23.92,46-35.92"/>
	<g>
		<path d="M496.49,450.992c6.139,4.637,10.869,10.918,15.682,16.841c3.605,4.437,9.035,12.841,15.342,12.841
			c-1.179-2.845-2.357-5.69-3.535-8.536c-13.294,16.73-32.161,27.694-49.41,39.81c-1.385,0.973-3.743,3.523-5.196,4.008
			c-0.544,0.182-1.088,0.363-1.632,0.544c-2.77,0.924,4.203,2.506,2.381,0.714c-2.321-2.282-3.989-5.44-5.806-8.118
			c-5.512-8.123-13.619-13.836-20.267-20.957c-2.356,2.356-4.714,4.714-7.07,7.07c0.166,0.167,0.333,0.334,0.5,0.5
			c1.98,1.98,5.074,1.853,7.07,0c3.302-3.062,7.343-5.107,10.988-7.718c4.262-3.051,1.78-11.392-3.853-9.139
			c-0.833,0.333-1.667,0.667-2.5,1c1.284,3.046,2.568,6.093,3.853,9.139c16.376-11.311,32.107-23.591,47.012-36.782
			c4.839-4.282-2.261-11.328-7.07-7.071c-14.274,12.633-29.305,24.385-44.988,35.218c-4.36,3.012-1.727,11.37,3.853,9.139
			c0.833-0.333,1.667-0.667,2.5-1c-1.284-3.046-2.568-6.093-3.853-9.139c-4.355,3.118-9.062,5.617-13.012,9.282
			c2.356,0,4.714,0,7.07,0c-0.166-0.167-0.333-0.334-0.5-0.5c-4.576-4.577-11.461,2.367-7.07,7.07
			c7.184,7.697,15.239,13.865,21.203,22.621c1.736,2.551,3.827,6.524,6.718,7.985c3.212,1.625,7.071,0.342,9.821-1.705
			c19.185-14.279,41.216-25.881,56.328-44.901c2.583-3.25,1.2-8.536-3.535-8.536c-0.333,0-0.667,0-1,0
			c1.179,0.488,2.357,0.977,3.535,1.464c-10.72-8.791-17.355-21.355-28.512-29.782C496.387,438.468,491.413,447.158,496.49,450.992
			L496.49,450.992z"/>
	</g>
</g>
<g>
</g>
<g>
</g>
<g>
</g>
<g>
</g>
<g>
</g>
<g>
</g>
<g>
</g>
<g>
</g>
<g>
</g>
<g>
</g>
<g>
</g>
<g>
</g>
<g>
</g>
<g>
</g>
<g>
</g>
</svg>
