<?xml version="1.0" encoding="utf-8"?>
<!-- Generator: Adobe Illustrator 16.2.0, SVG Export Plug-In . SVG Version: 6.00 Build 0)  -->
<!DOCTYPE svg PUBLIC "-//W3C//DTD SVG 1.1//EN" "http://www.w3.org/Graphics/SVG/1.1/DTD/svg11.dtd">
<svg version="1.1" id="图层_1" xmlns="http://www.w3.org/2000/svg" xmlns:xlink="http://www.w3.org/1999/xlink" x="0px" y="0px"
	 width="560px" height="960px" viewBox="0 0 560 960" enable-background="new 0 0 560 960" xml:space="preserve">
<g>
	<path fill="#FFFFFF" d="M272.6,124.373c-26.374-12.088-60.44,17.583-75.824,36.264c-18.682,25.275-31.869,56.044-31.869,87.912
		c1.1,67.033,45.055,123.077,116.484,110.989c68.132-12.088,101.099-57.143,100-125.275c-1.1-51.648-83.517-126.374-137.363-109.89"
		/>
	<g>
		<path d="M275.123,120.055c-21.725-9.415-43.937,2.898-60.882,16.359c-19.644,15.605-33.833,36.534-43.338,59.637
			c-17.788,43.233-13.783,96.185,15.734,133.568c12.431,15.745,29.164,27.299,48.46,32.9c21.761,6.317,44.946,3.737,66.374-2.575
			c19.272-5.676,37.351-15.471,51.649-29.686c13.665-13.584,22.783-31.052,27.917-49.502c5.224-18.774,7.945-41.081,3.49-60.25
			c-4.353-18.729-15.683-35.626-28-50.043c-13.733-16.074-30.634-29.881-49.226-39.954c-16.385-8.877-35.511-15.174-54.338-13.025
			c-3.485,0.398-6.903,1.074-10.267,2.067c-6.171,1.821-3.542,11.472,2.658,9.643c17.685-5.218,36.425-0.106,52.535,7.709
			c19.056,9.245,35.842,22.988,49.9,38.726c12.538,14.036,23.497,30.887,27.533,49.489c2.073,9.555,1.183,19.887,0.312,29.537
			c-0.931,10.305-3.083,20.494-6.331,30.314c-5.966,18.036-16.918,33.823-31.667,45.765c-16.382,13.264-37.096,20.267-57.577,23.982
			c-21.133,3.833-43.403,0.599-61.973-10.313c-17.346-10.193-29.782-26.752-37.786-44.945c-6.823-15.509-9.871-32.688-10.368-49.543
			c-0.656-22.227,6.436-44.363,16.67-63.848c8.99-17.116,20.693-31.449,35.817-43.463c12.462-9.899,31.412-20.953,47.654-13.914
			C275.929,131.226,281.026,122.613,275.123,120.055L275.123,120.055z"/>
	</g>
</g>
<g>
	<g>
		<path d="M263.605,574.081c1.005,21.891,2.066,43.778,2.895,65.676c0.183,4.825,6.803,7.015,9.317,2.523
			c1.456-2.6,1.859-5.053,1.782-8.018c-0.167-6.437-10.168-6.452-10,0c0.173,1.031,0.034,2.021-0.417,2.971
			c3.106,0.841,6.211,1.683,9.317,2.523c-0.829-21.897-1.89-43.785-2.895-65.676C273.311,567.66,263.31,567.632,263.605,574.081
			L263.605,574.081z"/>
	</g>
</g>
<g>
	<g>
		<path d="M265.401,370.526c-3.995,35.55-5.083,71.321-4.836,107.074c0.044,6.446,10.044,6.451,10,0
			c-0.247-35.753,0.841-71.523,4.836-107.074C276.121,364.124,266.113,364.193,265.401,370.526L265.401,370.526z"/>
	</g>
</g>
<g>
	<g>
		<path d="M263.382,640.626c-8.775,26.146-19.883,51.422-32.184,76.087c-12.556,25.177-27.157,49.202-38.935,74.776
			c-23.521,51.071-39.76,105.042-58.551,157.928c-1.904,5.358,6.566,8.865,9.139,3.853c2.234-4.354,4.636-8.554,5.998-13.282
			c1.79-6.21-7.86-8.843-9.643-2.658c-1.123,3.896-3.149,7.306-4.99,10.894c3.046,1.284,6.093,2.568,9.139,3.853
			c18.919-53.246,35.262-107.562,59.103-158.911c11.586-24.955,25.929-48.45,38.202-73.061
			c12.399-24.864,23.521-50.468,32.365-76.819C275.082,637.153,265.422,634.546,263.382,640.626L263.382,640.626z"/>
	</g>
</g>
<g>
	<g>
		<path d="M265.767,649.886c7.245,6.902,11.27,17.09,14.961,26.184c4.243,10.453,7.797,21.179,12.244,31.551
			c5.716,13.328,12.555,26.119,18.091,39.555c6.026,14.628,11.556,29.456,17.48,44.126c9.753,24.146,18.886,48.537,28.452,72.763
			c8.831,22.364,17.791,44.692,27.385,66.742c3.321,7.635,6.69,15.277,10.54,22.664c2.068,3.968,4.508,9.511,9.546,9.969
			c2.719,0.247,5-2.462,5-5c0-1.099,0-2.198,0-3.297c0-6.448-10-6.448-10,0c0,1.099,0,2.198,0,3.297c1.667-1.667,3.333-3.333,5-5
			c1.152,0.104,2.688,0.965,2.556,0.831c-1.019-1.037,0.514,0.785-0.26-0.318c-0.943-1.347-1.739-2.803-2.524-4.245
			c-2.428-4.463-4.559-9.092-6.669-13.71c-6.289-13.765-12.06-27.769-17.776-41.778c-11.367-27.854-22.325-55.883-33.006-84.009
			c-10.515-27.69-21.255-55.515-33.289-82.58c-3.743-8.419-8.286-16.482-11.853-24.971c-2.948-7.019-5.488-14.21-8.186-21.327
			c-5.002-13.199-10.141-28.531-20.622-38.516C268.172,638.37,261.09,645.431,265.767,649.886L265.767,649.886z"/>
	</g>
</g>
<g>
	<g>
		<path d="M255.69,371.395c-13.583,36.734-39.623,66.889-57.804,101.227c-20.156,38.068-40.012,76.527-56.482,116.356
			c-2.145,5.187,4.982,7.571,8.357,4.864c27.615-22.149,60.406-36.716,87.667-59.398c4.962-4.129-2.152-11.163-7.071-7.07
			c-27.228,22.654-60.045,37.243-87.667,59.398c2.786,1.621,5.571,3.243,8.357,4.864c16.55-40.021,36.575-78.86,57.083-116.982
			c18.329-34.068,43.662-63.981,57.203-100.601C267.575,367.992,257.907,365.401,255.69,371.395L255.69,371.395z"/>
	</g>
</g>
<g>
	<g>
		<path d="M267.183,374.149c9.253,15.507,20.182,29.875,30.849,44.415c11.317,15.426,21.752,31.446,32.409,47.328
			c20.572,30.659,44.183,59.333,62.017,91.773c1.439-2.508,2.878-5.016,4.317-7.523c-30.265-2.218-58.648-13.79-87.486-22.296
			c-6.2-1.829-8.829,7.822-2.658,9.643c29.78,8.784,58.889,20.362,90.145,22.653c3.937,0.288,6.025-4.417,4.317-7.523
			c-17.524-31.878-40.637-60.111-60.942-90.178c-10.716-15.866-21.107-31.937-32.382-47.418
			c-10.984-15.083-22.375-29.874-31.95-45.92C272.517,363.572,263.87,368.598,267.183,374.149L267.183,374.149z"/>
	</g>
</g>
<g>
	<path fill="#FFFFFF" d="M242.061,566.175c0,0.334-0.333-0.333-0.666-0.666c-3-12.667-1.667-28.667-2.334-41.667
		c-0.666-12,1.334-24-1.333-35.667l2.333-3c3,1.667,9.334-0.666,13-1c8.334-1,16.667-1.333,25-1.666c4.334,0,17.667-2.334,21.334,0
		c3,2.333,3.666,18,3.666,22.333c0.334,10,1,20.333,1.667,30.333c0.333,6,3,18,1,22.667"/>
	<g>
		<path d="M243.39,561.354c2.305,2.022,3.034,1.931,2.186-0.274c-0.329-1.712-0.504-3.446-0.68-5.179
			c-0.344-3.398-0.442-6.822-0.526-10.235c-0.153-6.215-0.032-12.434-0.184-18.648c-0.326-13.329,1.093-27.035-1.637-40.171
			c-0.429,1.621-0.857,3.243-1.286,4.864c0.777-1,1.555-2,2.333-3c-1.622,0.429-3.243,0.857-4.865,1.286
			c4.692,1.885,9.61-0.216,14.329-0.821c7.646-0.98,15.381-1.272,23.077-1.589c4.501-0.185,8.964-0.69,13.458-0.992
			c2.068-0.139,4.3-0.313,6.36,0.002c1.887,0.288,0.02-0.379-0.069-0.594c0.484,1.172,0.715,2.465,0.97,3.7
			c2.144,10.377,1.41,21.694,2.024,32.212c0.369,6.34,0.653,12.7,1.467,19.001c0.621,4.813,2.207,10.878,0.559,15.598
			c-2.133,6.104,7.53,8.705,9.643,2.658c1.717-4.915,0.776-10.561,0.147-15.588c-0.902-7.211-1.379-14.413-1.815-21.669
			c-0.729-12.117,0.027-24.979-2.826-36.87c-2.654-11.057-14.886-8.671-23.62-7.837c-7.2,0.687-14.465,0.68-21.681,1.215
			c-3.755,0.279-7.541,0.614-11.25,1.276c-2.603,0.464-5.542,1.689-8.114,0.656c-1.457-0.585-3.894,0.037-4.865,1.286
			c-1.006,1.294-2.285,2.595-3.115,4.012c-1.089,1.858-0.528,3.738-0.121,5.697c0.544,2.617,0.668,5.307,0.799,7.968
			c0.453,9.212-0.215,18.472,0.097,27.7c0.287,8.505-0.019,17.013,0.453,25.516c0.314,5.675-0.173,15.969,6.093,18.464
			C246.728,573.385,249.306,563.709,243.39,561.354L243.39,561.354z"/>
	</g>
</g>
<g>
	<g>
		<path d="M241.728,573.842c10.853,0.526,21.592-1.665,32.441-1.667c9.776-0.003,19.622-0.123,29.221-2.179
			c6.305-1.351,3.63-10.989-2.658-9.643c-9.283,1.988-18.89,1.819-28.337,1.821c-10.264,0.002-20.385,2.166-30.667,1.667
			C235.279,563.529,235.309,573.53,241.728,573.842L241.728,573.842z"/>
	</g>
</g>
<g>
	<g>
		<path d="M302.395,558.175c0.052,0.622,0.053,1.228,0.014,1.851c0.066-1.05-0.184,0.708-0.246,0.941
			c-0.08,0.278-0.172,0.553-0.274,0.824c0.245-0.562,0.249-0.601,0.011-0.117c-0.304,0.479-0.23,0.416,0.221-0.19
			c-0.386,0.384-0.247,0.287,0.418-0.292c-2.322,1.418-3.191,4.455-1.794,6.841c1.356,2.315,4.514,3.216,6.841,1.794
			c3.708-2.265,5.15-7.547,4.811-11.651c-0.225-2.715-2.104-5-5-5C304.84,553.175,302.169,555.455,302.395,558.175L302.395,558.175z
			"/>
	</g>
</g>
<g>
</g>
<g>
</g>
<g>
</g>
<g>
</g>
<g>
</g>
<g>
</g>
<g>
</g>
<g>
</g>
<g>
</g>
<g>
</g>
<g>
</g>
<g>
</g>
<g>
</g>
<g>
</g>
<g>
</g>
</svg>
