<?xml version="1.0" encoding="utf-8"?>
<!-- Generator: Adobe Illustrator 16.2.0, SVG Export Plug-In . SVG Version: 6.00 Build 0)  -->
<!DOCTYPE svg PUBLIC "-//W3C//DTD SVG 1.1//EN" "http://www.w3.org/Graphics/SVG/1.1/DTD/svg11.dtd">
<svg version="1.1" xmlns="http://www.w3.org/2000/svg" xmlns:xlink="http://www.w3.org/1999/xlink" x="0px" y="0px" width="960px"
	 height="560px" viewBox="0 0 960 560" enable-background="new 0 0 960 560" xml:space="preserve">
<g id="图层_1">
	<rect x="6" y="5" fill="#FFFFFF" stroke="#000000" stroke-width="10" stroke-miterlimit="10" width="951" height="550"/>
</g>
<g id="图层_2">
	<g>
		<g>
			<path d="M139.545,313.888c17.998,0.749,34.3-7.25,51.855-9.524c-0.841-3.105-1.683-6.212-2.523-9.317
				c-2.28,1.151-4.323,2.345-6.304,3.957c-5.004,4.071,2.116,11.103,7.071,7.07c1.247-1.014,2.858-1.675,4.279-2.393
				c4.241-2.142,2.46-9.963-2.523-9.317c-17.443,2.26-34.072,10.265-51.855,9.524C133.094,303.619,133.121,313.62,139.545,313.888
				L139.545,313.888z"/>
		</g>
	</g>
	<g>
		<g>
			<path d="M144.049,346.515c15.449-4.285,29.464-12.588,45.506-14.815c-1.882-2.448-3.764-4.896-5.646-7.345
				c-1.38,2.114-3.741,3.63-5.568,5.338c-4.719,4.412,2.367,11.469,7.071,7.07c2.545-2.379,5.207-4.412,7.131-7.361
				c2.686-4.113-1.72-7.89-5.646-7.345c-16.042,2.228-30.057,10.529-45.506,14.815C135.185,338.594,137.824,348.242,144.049,346.515
				L144.049,346.515z"/>
		</g>
	</g>
	<g>
		<g>
			<path d="M117.592,384.612c17.668-3.296,34.781-8.771,51.855-14.286c8.875-2.867,17.756-5.716,26.721-8.292
				c4.153-1.193,8.335-2.285,12.532-3.313c3.876-0.949,8.325-2.503,12.332-2.503c-0.443-3.273-0.886-6.548-1.329-9.821
				c-4.949,1.011-9.867,2.165-14.816,3.175c-6.316,1.289-3.636,10.928,2.658,9.643c4.949-1.01,9.867-2.164,14.816-3.175
				c5.633-1.15,4.204-9.821-1.329-9.821c-7.831,0-16.437,3.138-23.947,5.174c-8.993,2.438-17.872,5.288-26.738,8.143
				c-18.265,5.882-36.514,11.909-55.413,15.436C108.6,376.151,111.291,385.788,117.592,384.612L117.592,384.612z"/>
		</g>
	</g>
	<g>
		<g>
			<path d="M163.119,286.664c-3.157,24.225-1.112,48.689-1.059,73.021c0.014,6.448,10.014,6.449,10,0
				c-0.054-24.331-2.098-48.796,1.059-73.021C173.95,280.283,163.94,280.363,163.119,286.664L163.119,286.664z"/>
		</g>
	</g>
	<g>
		<g>
			<path d="M137.898,404.402c4.332,17.694,7.634,37.548,6.171,55.817c-0.515,6.433,9.489,6.383,10,0
				c0.707-8.823-0.238-17.82-1.19-26.589c-1.162-10.702-2.776-21.424-5.338-31.887C146.008,395.482,136.365,398.139,137.898,404.402
				L137.898,404.402z"/>
		</g>
	</g>
	<g>
		<g>
			<path d="M161.118,394.691c9.406-5.382,22.478-10.7,32.683-4.456c7.533,4.609,8.604,16.998,9.617,24.802
				c1.454,11.201,1.716,22.598,1.174,33.871c-0.396,8.248-0.75,18.291-4.81,25.721c2.28-0.598,4.561-1.196,6.841-1.794
				c-5.521-2.912-10.047-6.95-14.862-10.858c-4.959-4.026-12.08,3.004-7.071,7.07c5.457,4.431,10.629,9.122,16.886,12.423
				c2.354,1.242,5.493,0.672,6.841-1.794c4.977-9.107,5.621-20.633,6.175-30.768c0.742-13.568,0.032-27.303-2.158-40.714
				c-1.814-11.115-5.068-22.169-15.72-27.811c-12.853-6.807-29.019-0.979-40.644,5.673
				C150.476,389.258,155.512,397.899,161.118,394.691L161.118,394.691z"/>
		</g>
	</g>
	<g>
		<g>
			<path d="M158.865,416.361c4.161-0.632,8.271-1.567,12.451-2.081c2.119-0.26,4.246-0.368,6.379-0.324
				c0.8,0.016,1.433,0.122,2.205,0.3c1.514,0.348,0.229,0.454,0.15-0.6c0.476,6.39,10.479,6.437,10,0
				c-1.157-15.552-24.503-8.355-33.844-6.938C149.848,407.684,152.559,417.318,158.865,416.361L158.865,416.361z"/>
		</g>
	</g>
	<g>
		<g>
			<path d="M162.827,436.646c10.627,0.775,20.133-4.212,29.902-7.586c6.057-2.092,3.454-11.754-2.658-9.643
				c-8.847,3.056-17.633,7.93-27.244,7.229C156.39,426.177,156.436,436.18,162.827,436.646L162.827,436.646z"/>
		</g>
	</g>
	<g>
		<g>
			<path d="M294.053,307.538c15.338-1.28,30.092-7.162,45.506-7.408c6.442-0.103,6.452-10.104,0-10
				c-15.486,0.248-30.152,6.127-45.506,7.408C287.675,298.07,287.623,308.074,294.053,307.538L294.053,307.538z"/>
		</g>
	</g>
	<g>
		<g>
			<path d="M299.615,332.758c7.25-2.64,14.503-5.26,21.888-7.504c5.512-1.675,14.123-5.193,19.902-3.079
				c6.07,2.221,8.663-7.446,2.658-9.643c-6.565-2.402-14.98,0.253-21.388,1.978c-8.73,2.349-17.23,5.515-25.718,8.605
				C290.947,325.303,293.541,334.97,299.615,332.758L299.615,332.758z"/>
		</g>
	</g>
	<g>
		<g>
			<path d="M283.741,363.447c29.229-10.013,60.711-14.985,87.973-30.136c5.637-3.133,0.594-11.77-5.047-8.635
				c-26.453,14.7-57.209,19.407-85.584,29.128C275.019,355.882,277.623,365.543,283.741,363.447L283.741,363.447z"/>
		</g>
	</g>
	<g>
		<g>
			<path d="M319.743,284.547c0.493,19.568-3.251,39.128-9.415,57.645c-6.198,18.618-15.82,37.527-31.452,49.939
				c-5.049,4.009,2.078,11.035,7.071,7.07c16.28-12.926,26.186-32.464,33.092-51.66c7.175-19.942,11.239-41.766,10.704-62.994
				C329.581,278.11,319.58,278.094,319.743,284.547L319.743,284.547z"/>
		</g>
	</g>
	<g>
		<g>
			<path d="M323.324,364.277c20.243,18.321,51.06,16.715,76.285,21.394c6.302,1.169,8.993-8.468,2.658-9.643
				c-12.459-2.312-25.126-3.271-37.612-5.434c-11.915-2.063-25.044-5.047-34.26-13.388
				C325.627,352.892,318.533,359.941,323.324,364.277L323.324,364.277z"/>
		</g>
	</g>
	<g>
		<g>
			<path d="M304.047,407.577c3.48,14.231,5.262,31.267,17.16,41.362c2.27,1.927,6.356,2.099,7.853-1.012
				c0.265-0.55,1.482-4.057,1.058-3.175c2.783-5.781-5.838-10.856-8.635-5.047c-0.265,0.55-1.482,4.057-1.058,3.175
				c2.618-0.338,5.235-0.675,7.853-1.012c-10.395-8.821-11.549-24.521-14.588-36.95
				C312.159,398.657,302.516,401.313,304.047,407.577L304.047,407.577z"/>
		</g>
	</g>
	<g>
		<g>
			<path d="M316.547,398.37c15.359-5.301,38.681-9.162,51.452,3.698c10.57,10.645,6.354,37.616-11.509,36.22
				c-6.434-0.503-6.385,9.501,0,10c24.966,1.951,33.19-30.878,22.176-48.711c-12.906-20.896-44.985-17.682-64.777-10.85
				C307.832,390.818,310.435,400.48,316.547,398.37L316.547,398.37z"/>
		</g>
	</g>
	<g>
		<g>
			<path d="M325.014,423.769c10.92-3.155,25.645-5.484,36.361-0.504c5.808,2.699,10.891-5.919,5.047-8.635
				c-13.374-6.216-30.263-4.492-44.066-0.504C316.172,415.912,318.805,425.563,325.014,423.769L325.014,423.769z"/>
		</g>
	</g>
	<g>
		<g>
			<path d="M336.384,445.113c11.001-1.228,21.534-4.116,32.019-7.587c6.092-2.016,3.481-11.675-2.658-9.643
				c-9.575,3.169-19.303,6.107-29.36,7.229C330.049,435.82,329.98,445.828,336.384,445.113L336.384,445.113z"/>
		</g>
	</g>
	<g>
		<g>
			<path d="M441.152,331.878c18.683-1.476,35.077-11.146,53.185-14.994c6.307-1.34,3.631-10.979-2.658-9.643
				c-17.132,3.642-32.897,13.245-50.526,14.637C434.768,322.382,434.719,332.386,441.152,331.878L441.152,331.878z"/>
		</g>
	</g>
	<g>
		<g>
			<path d="M453.085,293.014c-0.042,30.013-2.391,60.558,3.354,90.224c1.225,6.327,10.862,3.642,9.643-2.658
				c-5.56-28.712-3.036-58.516-2.996-87.565C463.094,286.564,453.094,286.565,453.085,293.014L453.085,293.014z"/>
		</g>
	</g>
	<g>
		<g>
			<path d="M476.367,282.431c-0.024,17.653-0.653,35.296-0.942,52.944c-0.139,8.508-0.208,16.885,0.794,25.345
				c0.945,7.984,2.25,16.158,0.327,24.092c-1.52,6.266,8.123,8.924,9.643,2.658c1.878-7.743,1.365-15.47,0.448-23.309
				c-0.978-8.354-1.358-16.451-1.267-24.864c0.208-18.958,0.971-37.905,0.997-56.866
				C486.376,275.981,476.376,275.982,476.367,282.431L476.367,282.431z"/>
		</g>
	</g>
	<g>
		<g>
			<path d="M459.143,353.043c4.759-0.563,7.357,1.345,8.936,5.854c2.116,6.045,11.779,3.444,9.643-2.658
				c-2.897-8.276-9.321-14.291-18.579-13.195c-2.706,0.32-5,2.032-5,5C454.143,350.525,456.43,353.364,459.143,353.043
				L459.143,353.043z"/>
		</g>
	</g>
	<g>
		<g>
			<path d="M461.667,377.759c5.696-2.78,11.614-4.73,17.854-5.846c6.341-1.133,3.646-10.769-2.658-9.643
				c-7.095,1.268-13.777,3.697-20.243,6.854C450.825,371.952,455.896,380.575,461.667,377.759L461.667,377.759z"/>
		</g>
	</g>
	<g>
		<g>
			<path d="M440.365,412.128c18.462-7.523,37.669-12.794,57.147-16.933c6.307-1.34,3.631-10.979-2.658-9.643
				c-19.479,4.139-38.685,9.409-57.147,16.933C431.817,404.885,434.391,414.563,440.365,412.128L440.365,412.128z"/>
		</g>
	</g>
	<g>
		<g>
			<path d="M455.38,407.036c-0.848,5.383-12.25,38.132,2.976,33.665c6.174-1.812,3.544-11.462-2.658-9.643
				c4.985-1.463,4.543,4.44,4.444,2.457c-0.042-0.852,0.052-1.737,0.174-2.578c0.349-2.389,0.91-4.75,1.455-7.1
				c1.091-4.704,2.5-9.368,3.252-14.144C466.016,403.388,456.38,400.681,455.38,407.036L455.38,407.036z"/>
		</g>
	</g>
	<g>
		<g>
			<path d="M475.714,415.075c7.232,7.335,13.583,15.289,23.373,19.276c5.975,2.434,8.548-7.244,2.658-9.643
				c-7.801-3.178-13.223-10.887-18.96-16.704C478.252,403.407,471.185,410.481,475.714,415.075L475.714,415.075z"/>
		</g>
	</g>
	<g>
		<g>
			<path d="M516.581,336.402c-0.077,26.267-2.905,52.593,2.295,78.583c1.265,6.32,10.902,3.639,9.643-2.658
				c-5.007-25.023-2.013-50.631-1.938-75.925C526.6,329.953,516.6,329.955,516.581,336.402L516.581,336.402z"/>
		</g>
	</g>
	<g>
		<g>
			<path d="M535.699,314.539c2.32-2.729,4.01-5.305,6.631-2.281c2.546,2.938,3.594,7.691,4.538,11.34
				c3.444,13.314,4.188,27.52,4.59,41.198c0.476,16.19-0.487,32.409,0.451,48.583c0.705,12.161,2.861,27.098-3.956,37.968
				c-3.438,5.48,5.218,10.495,8.635,5.047c8.115-12.939,6.082-29.896,5.241-44.39c-1.168-20.121,0.363-40.297-1-60.434
				c-0.901-13.326-2.3-27.677-7.571-40.104c-1.967-4.637-5.16-8.729-10.005-10.454c-5.666-2.02-11.242,2.478-14.624,6.456
				C524.479,312.351,531.517,319.46,535.699,314.539L535.699,314.539z"/>
		</g>
	</g>
	<g>
		<g>
			<path d="M519.735,361.331c7.608-1.785,15.233-1.936,23.011-1.938c-1.439-0.825-2.878-1.651-4.317-2.477
				c0.055-0.266,0.109-0.53,0.164-0.796c0.488-1.179,0.977-2.357,1.465-3.535c-0.294,0.226-0.592,0.447-0.893,0.665
				c-5.119,3.793-0.142,12.479,5.047,8.635c1.957-1.45,4.56-2.877,4.381-5.765c-0.194-3.144-2.271-6.729-5.847-6.728
				c-8.669,0.004-17.195,0.308-25.669,2.296C510.8,353.161,513.463,362.803,519.735,361.331L519.735,361.331z"/>
		</g>
	</g>
	<g>
		<g>
			<path d="M524.104,388.342c6.468-3.525,13.527-4.752,20.759-5.667c6.309-0.798,6.386-10.808,0-10
				c-9.055,1.146-17.697,2.612-25.806,7.032C513.395,382.794,518.441,391.429,524.104,388.342L524.104,388.342z"/>
		</g>
	</g>
	<g>
		<g>
			<path d="M428.735,93.797c0.943,2.598-2.875,7.114-4.186,9.152c-2.489,3.872-5.236,7.615-7.153,11.818
				c-1.593,3.493,3.577,6.545,5.181,3.028c2.243-4.917,5.568-9.271,8.433-13.831c2.019-3.213,4.949-7.799,3.51-11.762
				C433.211,88.595,427.412,90.152,428.735,93.797L428.735,93.797z"/>
		</g>
	</g>
	<g>
		<g>
			<path d="M413.035,154.854c18.799-10.313,39.15-16.833,59.604-22.979c3.226-0.97,2.637-5.893-0.797-5.893
				c-2.822,0-5.644,0-8.466,0c-3.869,0-3.869,6,0,6c2.822,0,5.644,0,8.466,0c-0.266-1.964-0.532-3.929-0.797-5.893
				c-20.943,6.293-41.792,13.026-61.038,23.584C406.614,151.534,409.642,156.715,413.035,154.854L413.035,154.854z"/>
		</g>
	</g>
	<g>
		<g>
			<path d="M436.036,125.807c0.034,19.421,1.042,38.818,2.117,58.205c1.505-0.863,3.009-1.727,4.514-2.59
				c-8.04-4.729-15.272-10.563-23.999-14.06c0.441,1.671,0.883,3.343,1.324,5.014c7.678-7.262,18.341-10.158,26.457-16.933
				c2.974-2.482-1.294-6.703-4.242-4.242c-8.127,6.784-18.704,9.599-26.457,16.933c-1.792,1.695-0.656,4.221,1.324,5.014
				c8.184,3.279,15.021,9.017,22.565,13.455c1.88,1.106,4.642-0.286,4.514-2.59c-1.075-19.386-2.083-38.783-2.117-58.205
				C442.029,121.938,436.029,121.937,436.036,125.807L436.036,125.807z"/>
		</g>
	</g>
	<g>
		<g>
			<path d="M439.031,113.112c24.375,19.355,27.998,53.554,46.564,77.254c2.385,3.044,6.6-1.234,4.242-4.242
				c-18.651-23.808-21.943-57.704-46.564-77.254C440.277,106.49,436.001,110.707,439.031,113.112L439.031,113.112z"/>
		</g>
	</g>
	<g>
		<g>
			<path d="M472.124,151.466c-2.584,8.29-15.744,36.983-26.734,24.075c-2.512-2.951-6.735,1.314-4.242,4.242
				c15.548,18.265,32.887-14.292,36.762-26.722C479.064,149.356,473.272,147.785,472.124,151.466L472.124,151.466z"/>
		</g>
	</g>
	<g>
		<g>
			<path d="M467.348,118.117c3.547-0.739,7.256,1.064,9.781,3.461c2.804,2.662,7.054-1.574,4.242-4.242
				c-4.166-3.955-9.888-6.198-15.618-5.005C461.966,113.12,463.573,118.903,467.348,118.117L467.348,118.117z"/>
		</g>
	</g>
	<g>
		<g>
			<path d="M510.115,104.641c0.542,10.587-9.069,17.527-12.592,26.718c-1.388,3.619,4.415,5.169,5.785,1.595
				c1.751-4.568,5.413-8.534,7.988-12.655c2.95-4.721,5.107-10.016,4.818-15.658C515.918,100.792,509.917,100.772,510.115,104.641
				L510.115,104.641z"/>
		</g>
	</g>
	<g>
		<g>
			<path d="M507.998,134.272c1.056,12.745,2.069,25.648,0.107,38.359c1.964,0.266,3.929,0.532,5.893,0.797c0-3.528,0-7.055,0-10.583
				c0-3.869-6-3.869-6,0c0,3.528,0,7.055,0,10.583c0,3.292,5.365,4.215,5.893,0.797c2.054-13.299,1.213-26.608,0.107-39.954
				C513.681,130.445,507.679,130.414,507.998,134.272L507.998,134.272z"/>
		</g>
	</g>
	<g>
		<g>
			<path d="M522.379,119.175c5.243-2.027,10.514-3.005,16.135-3.068c3.866-0.043,3.871-6.043,0-6
				c-6.118,0.069-12.015,1.073-17.73,3.282C517.215,114.769,518.764,120.572,522.379,119.175L522.379,119.175z"/>
		</g>
	</g>
	<g>
		<g>
			<path d="M530.329,139.825c-1.001,6.616-7.358,26.026,3.951,27.08c3.854,0.359,3.818-5.645,0-6
				c-1.923-0.179,1.51-17.338,1.834-19.485C536.688,137.636,530.906,136.009,530.329,139.825L530.329,139.825z"/>
		</g>
	</g>
	<g>
		<g>
			<path d="M554.392,119.461c1.756-1.813,4.11-4.531,6.828-3.029c1.769,0.977,2.891,3.734,3.615,5.484
				c1.61,3.888,2.59,8.23,3.457,12.338c1.773,8.404,1.945,17.142,1.063,25.664c-1.692,16.372-9.564,33.909-26.349,39.19
				c-3.677,1.157-2.105,6.951,1.596,5.786c21.469-6.756,29.925-29.17,31.15-49.866c0.654-11.047-1.195-21.813-4.313-32.364
				c-1.355-4.586-3.678-9.473-8.019-11.871c-4.912-2.713-9.969,1.014-13.271,4.425C547.458,117.998,551.696,122.245,554.392,119.461
				L554.392,119.461z"/>
		</g>
	</g>
	<g>
		<g>
			<path d="M643.564,111.251c-5.832,16.443-20.561,28.569-33.094,39.949c-2.871,2.606,1.386,6.836,4.242,4.242
				c13.419-12.183,28.402-25.018,34.637-42.596C650.646,109.19,644.848,107.631,643.564,111.251L643.564,111.251z"/>
		</g>
	</g>
	<g>
		<g>
			<path d="M603.523,163.32c19.221-8.83,41.006-11.129,59.264-22.224c3.3-2.005,0.287-7.196-3.029-5.181
				c-18.192,11.056-40.068,13.405-59.262,22.224C596.983,159.753,600.034,164.923,603.523,163.32L603.523,163.32z"/>
		</g>
	</g>
	<g>
		<g>
			<path d="M616.049,109.671c5.274,32.175-4.431,66.407,9.827,97.02c0.858,1.841,3.393,1.8,4.712,0.607
				c8.089-7.315,12.177-17.67,15.587-27.781c1.24-3.676-4.556-5.241-5.785-1.595c-3.092,9.164-6.711,18.501-14.044,25.133
				c1.57,0.202,3.141,0.405,4.712,0.607c-13.829-29.69-4.086-64.249-9.224-95.586C621.209,104.266,615.428,105.888,616.049,109.671
				L616.049,109.671z"/>
		</g>
	</g>
	<g>
		<g>
			<path d="M642.506,162.585c2.604,11.031,9.278,19.477,19.761,23.936c10.263,4.366,21.882,4.701,32.871,4.724
				c3.869,0.008,3.869-5.992,0-6c-19.247-0.04-41.615-2.089-46.847-24.254C647.402,157.225,641.617,158.822,642.506,162.585
				L642.506,162.585z"/>
		</g>
	</g>
	<g>
		<g>
			<path d="M700.168,145.632c15.606-3.291,31.54-5.379,46.223-11.944c3.526-1.577,0.472-6.746-3.029-5.181
				c-14.135,6.32-29.767,8.171-44.789,11.338C694.787,140.644,696.394,146.427,700.168,145.632L700.168,145.632z"/>
		</g>
	</g>
	<g>
		<g>
			<path d="M719.652,114.166c0.515,10.963-0.896,21.942-3.067,32.67c-1.866,9.219-4.253,19.098-9.223,27.195
				c-2.029,3.307,3.161,6.319,5.182,3.028c5.261-8.572,7.769-18.895,9.827-28.628c2.363-11.181,3.818-22.826,3.281-34.265
				C725.472,110.313,719.471,110.296,719.652,114.166L719.652,114.166z"/>
		</g>
	</g>
	<g>
		<g>
			<path d="M734.289,160.734c12.239,10.09,23.661,21.319,37.646,29.042c3.389,1.872,6.415-3.31,3.027-5.181
				c-13.543-7.48-24.578-18.333-36.432-28.104C735.571,154.051,731.301,158.271,734.289,160.734L734.289,160.734z"/>
		</g>
	</g>
	<g>
		<g>
			<path d="M807.314,107.641c4.072-0.465,7.608-0.29,8.519,4.228c0.883,4.378-0.823,9.563-1.933,13.747
				c-2.377,8.969-4.995,16.368-3.626,25.728c1.562,10.674,6.841,20.246,9.431,30.63c3.283,13.165-7.433,18.825-18.48,22.427
				c-3.661,1.194-2.094,6.989,1.596,5.786c11.231-3.663,23.695-9.735,23.606-23.232c-0.078-11.991-7.55-23.381-9.971-34.987
				c-2.363-11.329,2.946-21.091,4.888-32.074c0.795-4.494,1.085-9.277-1.09-13.435c-2.447-4.677-8.273-5.35-12.939-4.816
				C803.517,102.075,803.474,108.08,807.314,107.641L807.314,107.641z"/>
		</g>
	</g>
	<g>
		<g>
			<path d="M885.908,116.021c1.931,9.974,2.538,20.32,3.111,30.443c0.319,5.636,0.486,11.286,0.336,16.93
				c-0.057,2.135-0.162,4.292-0.466,6.409c-0.113,0.787-0.284,1.563-0.48,2.333c-0.199,0.779-0.92,1.447-0.063,0.819
				c-3.086,2.262-0.098,7.472,3.027,5.181c3-2.199,3.307-6.239,3.674-9.664c0.661-6.157,0.397-12.448,0.14-18.621
				c-0.491-11.764-1.25-23.842-3.493-35.424C890.959,110.63,885.176,112.242,885.908,116.021L885.908,116.021z"/>
		</g>
	</g>
	<g>
		<g>
			<path d="M883.515,205.181c0.705-0.706,1.411-1.411,2.116-2.116c1.156-1.155,1.156-3.087,0-4.242
				c-1.156-1.156-3.086-1.156-4.242,0c-0.706,0.705-1.411,1.411-2.116,2.116c-1.155,1.156-1.156,3.086,0,4.242
				C880.428,206.337,882.359,206.337,883.515,205.181L883.515,205.181z"/>
		</g>
	</g>
	<g>
		<g>
			<path d="M622.329,321.821C642.025,317.103,662.44,308.096,683,309c6.45,0.284,6.423-9.718,0-10
				c-21.51-0.946-42.738,8.245-63.329,13.179C613.401,313.681,616.061,323.323,622.329,321.821L622.329,321.821z"/>
		</g>
	</g>
	<g>
		<g>
			<path d="M618.179,338.671c-2.993,9.021,5.837,17.347,13.492,20.15c6.069,2.224,8.661-7.443,2.658-9.643
				c-2.739-1.004-7.55-4.71-6.508-7.85C629.858,335.191,620.199,332.581,618.179,338.671L618.179,338.671z"/>
		</g>
	</g>
	<g>
		<g>
			<path d="M682.179,327.671c-3.35,8.324-7.129,16.706-14.702,22.012c-5.238,3.67-0.249,12.345,5.047,8.635
				c9.949-6.97,14.877-17,19.298-27.988C694.23,324.343,684.554,321.767,682.179,327.671L682.179,327.671z"/>
		</g>
	</g>
	<g>
		<g>
			<path d="M614.535,384.535c4.104-4.453,12.795-4.235,18.363-5.38c9.183-1.888,18.302-4.157,27.442-6.236
				c18.556-4.22,37.163-8.264,55.988-11.098c2.889-0.435,3.896-3.727,3.492-6.15c-0.211-1.265-0.537-2.285-1.458-3.237
				c-0.287-0.297-1.921-2.186-1.046-0.957c-3.706-5.205-12.385-0.219-8.635,5.047c0.479,0.701,0.984,1.382,1.517,2.043
				c1.36,1.117,1.354,1.037-0.021-0.237c1.164-2.05,2.328-4.101,3.492-6.15c-19.459,2.929-38.679,7.161-57.858,11.523
				c-9.485,2.157-18.955,4.607-28.52,6.387c-6.932,1.29-14.752,1.867-19.828,7.376C603.104,382.197,610.157,389.287,614.535,384.535
				L614.535,384.535z"/>
		</g>
	</g>
	<g>
		<g>
			<path d="M650.179,294.329c8.229,23.654,2.175,49.751,4.648,74.193c3.106,30.688,0.208,61.733,3.173,92.478
				c0.607,6.299,10,6.561,10,0c0-1.667,0-3.333,0-5c0-6.448-10-6.448-10,0c0,1.667,0,3.333,0,5c3.333,0,6.667,0,10,0
				c-1.49-15.451-1.756-30.962-1.883-46.474c-0.125-15.234,0.48-30.85-1.29-46.004c-2.971-25.435,3.596-52.129-5.006-76.852
				C657.717,285.62,648.054,288.222,650.179,294.329L650.179,294.329z"/>
		</g>
	</g>
	<g>
		<g>
			<path d="M643.683,375.477c-4.126,6.389-6.912,13.528-10,20.448c-2.892,6.482-6.117,14.602-12.206,18.758
				c-5.291,3.611-0.295,12.281,5.047,8.635c14.223-9.708,16.928-29.066,25.794-42.794
				C655.827,375.089,647.168,370.081,643.683,375.477L643.683,375.477z"/>
		</g>
	</g>
	<g>
		<g>
			<path d="M660.671,388.821c19.647,7.188,33.44,24.475,53,32c6.028,2.319,8.612-7.353,2.658-9.643
				c-19.482-7.496-33.22-24.764-53-32C657.259,376.958,654.666,386.625,660.671,388.821L660.671,388.821z"/>
		</g>
	</g>
	<g>
		<g>
			<path d="M769,308c14.742-0.159,29.224-3.787,44-3c-1.667-1.667-3.333-3.333-5-5c1.249,12.536-0.716,24.722-2.215,37.133
				c-1.545,12.782-0.931,25.499,3.94,37.55c4.548,11.249,6.867,24.489,4.762,36.527c-0.872,4.988-7.287,24.198-14.17,15.267
				c-3.877-5.031-12.571-0.062-8.635,5.047c3.521,4.568,7.943,8.373,14.099,7.385c5.307-0.853,9.046-4.95,12.017-9.113
				c8.007-11.219,8.179-26.258,6.408-39.318c-1.017-7.496-3.421-14.474-6.02-21.529c-2.691-7.31-3.43-14.967-3.173-22.7
				c0.519-15.576,4.55-30.553,2.986-46.247c-0.282-2.828-2.067-4.844-5-5c-14.776-0.787-29.258,2.841-44,3
				C762.556,298.069,762.549,308.069,769,308L769,308z"/>
		</g>
	</g>
	<g>
		<g>
			<path d="M74,90c0.734,13.103-4.039,26.313-10.59,37.486c-1.961,3.345,3.226,6.363,5.181,3.028
				C75.648,118.478,80.791,104.112,80,90C79.785,86.153,73.783,86.132,74,90L74,90z"/>
		</g>
	</g>
	<g>
		<g>
			<path d="M79.514,110.59c2.024-0.979,4.238-1.542,6.486-1.59c3.863-0.084,3.872-6.084,0-6c-3.348,0.073-6.512,0.958-9.514,2.41
				c-1.472,0.711-1.853,2.778-1.076,4.104C76.284,111.006,78.042,111.302,79.514,110.59L79.514,110.59z"/>
		</g>
	</g>
	<g>
		<g>
			<path d="M79,121c2.086,0.059,4.63,0.955,7,1c3.872,0.074,3.864-5.926,0-6c-2.379-0.046-4.622-0.933-7-1
				C75.128,114.891,75.139,120.891,79,121L79,121z"/>
		</g>
	</g>
	<g>
		<g>
			<path d="M92.107,97.797c1.009,7.168,1.597,14.274,0,21.405c-0.844,3.769,4.94,5.37,5.786,1.595
				c1.844-8.236,1.165-16.317,0-24.595C97.355,92.384,91.575,94.015,92.107,97.797L92.107,97.797z"/>
		</g>
	</g>
	<g>
		<g>
			<path d="M98,111c6.036-0.316,13.048-1.861,18.514-4.41c3.504-1.634,0.455-6.805-3.028-5.181
				c-4.399,2.051-10.938,3.353-15.486,3.59C94.151,105.201,94.131,111.202,98,111L98,111z"/>
		</g>
	</g>
	<g>
		<g>
			<path d="M100.41,118.514c1.411,2.637,4.17,4.763,6.469,6.607c1.274,1.022,2.992,1.25,4.242,0c1.062-1.061,1.278-3.218,0-4.242
				c-0.864-0.693-1.702-1.419-2.524-2.159c-0.683-0.615-1.345-1.251-1.98-1.915c-0.289-0.302-0.562-0.616-0.827-0.938
				c0.491,0.598-0.105-0.205-0.199-0.38C103.764,112.074,98.584,115.104,100.41,118.514L100.41,118.514z"/>
		</g>
	</g>
	<g>
		<g>
			<path d="M74.797,141.893C87.466,138.918,99.88,135.168,113,135c-0.964-1.266-1.929-2.532-2.893-3.797
				c-2.219,6.088-6.34,11.457-11.621,15.207c-3.126,2.22-0.134,7.426,3.028,5.181c6.64-4.715,11.587-11.136,14.379-18.793
				c0.671-1.842-1.058-3.821-2.893-3.797c-13.66,0.175-26.604,4.009-39.797,7.107C69.437,136.991,71.034,142.776,74.797,141.893
				L74.797,141.893z"/>
		</g>
	</g>
	<g>
		<g>
			<path d="M76.797,157.893c8.18-2.048,16.278-4.229,23.717-8.303c3.394-1.859,0.367-7.04-3.028-5.181
				c-6.979,3.823-14.614,5.777-22.283,7.697C71.451,153.047,73.043,158.833,76.797,157.893L76.797,157.893z"/>
		</g>
	</g>
	<g>
		<g>
			<path d="M69,160c-0.09,5.684-0.91,11.316-1,17c-0.039,2.45,2.535,3.502,4.514,2.59c6.64-3.059,13.092-6.491,19.879-9.231
				c6.719-2.713,16.065-6.322,23.215-3.233c1.835,0.793,6.339,2.963,5.741,5.551c-0.531,2.295-3.928,3.98-5.742,5.028
				c-5.569,3.217-12.113,5.198-18.405,6.402c-3.798,0.728-2.185,6.51,1.595,5.786c8.781-1.682,40.211-12.086,24.516-25.017
				c-15.641-12.886-38.912,2.661-53.828,9.533c1.505,0.863,3.009,1.727,4.514,2.59c0.09-5.684,0.91-11.316,1-17
				C75.061,156.129,69.061,156.135,69,160L69,160z"/>
		</g>
	</g>
	<g>
		<g>
			<path d="M84.41,144.514c4.809,9.419,6.614,20.02,7.619,30.453c0.975,10.131,2.005,21.402,0.917,31.549
				c1.504-0.864,3.009-1.727,4.514-2.59c1.007,1.553,1.283,1.722,0.828,0.507c-0.13-0.471-0.226-0.948-0.287-1.433
				c-0.361-3.817-6.364-3.853-6,0c0.174,1.837,0.424,5.247,2.431,6.106c2.2,0.943,4.255-0.175,4.514-2.59
				c1.147-10.692-0.043-22.473-1.07-33.141c-1.058-10.988-3.232-21.994-8.285-31.889C87.831,138.039,82.654,141.076,84.41,144.514
				L84.41,144.514z"/>
		</g>
	</g>
	<g>
		<g>
			<path d="M86.879,173.879c-7.855,8.135-12.652,19.321-22.393,25.531c-3.251,2.072-0.245,7.267,3.028,5.181
				c10.334-6.587,15.311-17.876,23.607-26.469C93.809,175.338,89.57,171.091,86.879,173.879L86.879,173.879z"/>
		</g>
	</g>
	<g>
		<g>
			<path d="M167.797,136.893c6.723-1.438,13.225-3.705,19.892-5.364c3.722-0.926,7.478-1.439,11.311-1.529
				c1.224-0.028,2.49-0.436,3.673-0.71c0.38-0.099,0.761-0.198,1.141-0.296c1.911-0.223,1.443-1.059-1.404-2.508
				c-1.639,3.479,3.533,6.527,5.181,3.028c0.902-1.915,1.899-4.183,0.126-5.956c-2.025-2.025-5.712-0.269-7.977,0.256
				c-2.684,0.622-5.721,0.488-8.475,0.882c-2.903,0.416-5.759,1.173-8.587,1.925c-5.506,1.464-10.896,3.291-16.475,4.484
				C162.419,131.917,164.024,137.7,167.797,136.893L167.797,136.893z"/>
		</g>
	</g>
	<g>
		<g>
			<path d="M165,180c22.76,1.711,43.706-8.733,65.797-12.107c3.34-0.51,2.557-6.182-0.797-5.893c-2.363,0.204-4.628,0.854-7,1
				c-3.843,0.237-3.866,6.238,0,6c2.378-0.146,4.641-0.797,7-1c-0.266-1.964-0.532-3.929-0.797-5.893
				C207.65,165.398,187.191,175.668,165,174C161.139,173.71,161.167,179.712,165,180L165,180z"/>
		</g>
	</g>
	<g>
		<g>
			<path d="M261.879,90.121c1.971,2.085,2.772,4.659,1.531,7.365c-1.601,3.49,3.569,6.542,5.181,3.028
				c2.403-5.239,1.491-10.447-2.469-14.635C263.458,83.062,259.223,87.313,261.879,90.121L261.879,90.121z"/>
		</g>
	</g>
	<g>
		<g>
			<path d="M247,113c14.437-1.286,27.561-7.861,41.797-10.107c-0.771-1.828-1.541-3.656-2.312-5.483
				c-2.013,1.017-3.859,2.047-5.607,3.469c-3.003,2.443,1.269,6.661,4.242,4.242c1.313-1.068,2.895-1.774,4.393-2.531
				c3.274-1.654,0.804-5.975-2.312-5.483C273.52,99.266,260.851,105.766,247,107C243.178,107.34,243.145,113.343,247,113L247,113z"
				/>
		</g>
	</g>
	<g>
		<g>
			<path d="M257.203,122.893c3.306,1.101,6.621,2.142,10,3c3.752,0.953,5.343-4.834,1.595-5.786c-3.378-0.857-6.694-1.898-10-3
				C255.116,115.88,253.551,121.676,257.203,122.893L257.203,122.893z"/>
		</g>
	</g>
	<g>
		<g>
			<path d="M282.41,112.486c-4.617,7.701-11.795,13.609-18.531,19.393c-2.94,2.524,1.324,6.749,4.242,4.242
				c7.149-6.137,14.571-12.436,19.469-20.607C289.585,112.187,284.396,109.172,282.41,112.486L282.41,112.486z"/>
		</g>
	</g>
	<g>
		<g>
			<path d="M241.797,146.893C263.596,141.831,284.576,133.132,307,131c0-2,0-4,0-6c-2.781,0.319-4.999,1.178-7.514,2.41
				c-3.475,1.701-0.433,6.875,3.028,5.181c1.395-0.792,2.89-1.321,4.486-1.59c3.777-0.433,3.877-6.369,0-6
				c-23.008,2.188-44.438,10.915-66.797,16.107C236.434,141.982,238.033,147.767,241.797,146.893L241.797,146.893z"/>
		</g>
	</g>
	<g>
		<g>
			<path d="M255.107,153.797c1.064,5.127,2.592,10.305,4.61,15.137c0.699,1.674,1.443,3.559,3.076,4.536
				c2.265,1.356,4.554-0.457,5.1-2.673c0.926-3.757-4.86-5.351-5.785-1.595c-0.451,1.828,4.538,0.148,3.917-0.876
				c-0.288-0.475-0.526-0.997-0.74-1.508c-0.685-1.642-1.238-3.34-1.784-5.032c-1.014-3.145-1.937-6.348-2.608-9.584
				C260.107,148.415,254.324,150.022,255.107,153.797L255.107,153.797z"/>
		</g>
	</g>
	<g>
		<g>
			<path d="M266.514,155.59c7.398-3.366,16.677-3.717,24.342-1.048c1.113,0.387,4.456,1.773,3.757,3.271
				c-1.853,3.973-8.763,5.972-12.41,7.293c-3.608,1.307-2.052,7.107,1.595,5.786c5.618-2.035,12.824-4.533,15.996-10.051
				c2.202-3.83,0.125-7.577-3.023-9.96c-3.949-2.989-9.751-3.695-14.522-3.975c-6.419-0.377-12.922,0.846-18.762,3.503
				C259.968,152.01,263.021,157.18,266.514,155.59L266.514,155.59z"/>
		</g>
	</g>
	<g>
		<g>
			<path d="M265.797,166.893c6.849-2.806,13.83-3.83,21.203-3.893c3.867-0.033,3.871-6.033,0-6
				c-7.866,0.067-15.482,1.111-22.797,4.107C260.673,162.553,262.216,168.36,265.797,166.893L265.797,166.893z"/>
		</g>
	</g>
	<g>
		<g>
			<path d="M271.514,177.59c6.702-3.711,13.893-5.833,21.283-7.697c3.75-0.946,2.159-6.733-1.595-5.786
				c-7.891,1.991-15.567,4.343-22.717,8.303C265.101,174.284,268.127,179.466,271.514,177.59L271.514,177.59z"/>
		</g>
	</g>
	<g>
		<g>
			<path d="M250.797,198.893c20.009-5.846,40.992-7.155,61-13c3.706-1.083,2.131-6.863-1.595-5.786
				c-2.091,0.604-4.037,0.879-6.203,0.893c-3.868,0.025-3.87,6.025,0,6c2.708-0.018,5.193-0.354,7.797-1.107
				c-0.532-1.929-1.063-3.857-1.595-5.786c-20.009,5.846-40.992,7.155-61,13C245.497,194.19,247.075,199.98,250.797,198.893
				L250.797,198.893z"/>
		</g>
	</g>
	<g>
		<g>
			<path d="M278.107,178.797c2.624,6.777,4.164,13.994,5.519,21.115c0.998,5.242,3.232,13,1.481,18.291
				c-1.22,3.684,4.575,5.25,5.785,1.595c1.894-5.719-0.073-13.248-1.03-18.969c-1.332-7.955-3.05-16.086-5.97-23.626
				C282.511,173.634,276.708,175.184,278.107,178.797L278.107,178.797z"/>
		</g>
	</g>
	<g>
		<g>
			<path d="M346,152c4.954-0.001,9.942,0.002,14.797-1.107c-0.973-1.671-1.946-3.343-2.918-5.014c-1,1-2,2-3,3
				c-2.738,2.738,1.504,6.98,4.242,4.242c1-1,2-2,3-3c2.191-2.19-0.047-5.67-2.918-5.014c-4.32,0.988-8.796,0.892-13.203,0.893
				C342.131,146.001,342.131,152.001,346,152L346,152z"/>
		</g>
	</g>
	<g>
		<g>
			<path d="M346.486,176.59c4.354,2.025,8.768,2.406,13.514,2.41c3.869,0.003,3.869-5.997,0-6c-3.593-0.003-7.163-0.045-10.486-1.59
				C346.03,169.789,342.98,174.96,346.486,176.59L346.486,176.59z"/>
		</g>
	</g>
	<g>
	</g>
	<g>
	</g>
	<g>
	</g>
	<g>
	</g>
	<g>
	</g>
	<g>
	</g>
	<g>
	</g>
	<g>
	</g>
	<g>
	</g>
	<g>
	</g>
	<g>
	</g>
	<g>
	</g>
	<g>
	</g>
	<g>
	</g>
	<g>
	</g>
</g>
</svg>
