<?xml version="1.0" encoding="utf-8"?>
<!-- Generator: Adobe Illustrator 16.2.0, SVG Export Plug-In . SVG Version: 6.00 Build 0)  -->
<!DOCTYPE svg PUBLIC "-//W3C//DTD SVG 1.0//EN" "http://www.w3.org/TR/2001/REC-SVG-20010904/DTD/svg10.dtd">
<svg version="1.0" xmlns="http://www.w3.org/2000/svg" xmlns:xlink="http://www.w3.org/1999/xlink" x="0px" y="0px" width="960px"
	 height="560px" viewBox="0 0 960 560" enable-background="new 0 0 960 560" xml:space="preserve">
<g id="图层_1">
	<g>
		<rect x="4" y="5" fill="#FFFFFF" width="951" height="550"/>
		<g>
			<path d="M955,550c-16.936,0-33.87,0-50.806,0c-43.824,0-87.647,0-131.472,0c-60.24,0-120.479,0-180.72,0
				c-66.183,0-132.366,0-198.549,0c-61.654,0-123.308,0-184.961,0c-46.652,0-93.303,0-139.955,0c-21.177,0-42.354,0-63.53,0
				c-0.336,0-0.672,0-1.008,0c1.667,1.667,3.333,3.333,5,5c0-27.1,0-54.198,0-81.298C9,413.3,9,352.898,9,292.496
				c0-62.361,0-124.722,0-187.083C9,72.437,9,39.461,9,6.484C9,5.99,9,5.495,9,5c-1.667,1.667-3.333,3.333-5,5
				c16.935,0,33.871,0,50.806,0c43.824,0,87.648,0,131.472,0c60.24,0,120.479,0,180.719,0c66.183,0,132.367,0,198.549,0
				c61.653,0,123.308,0,184.961,0c46.651,0,93.303,0,139.955,0c21.177,0,42.353,0,63.529,0c0.337,0,0.673,0,1.009,0
				c-1.667-1.667-3.333-3.333-5-5c0,27.099,0,54.199,0,81.298c0,60.402,0,120.804,0,181.206c0,62.361,0,124.722,0,187.083
				c0,32.976,0,65.952,0,98.929c0,0.495,0,0.989,0,1.484c0,6.448,10,6.448,10,0c0-27.1,0-54.198,0-81.298
				c0-60.402,0-120.804,0-181.206c0-62.361,0-124.722,0-187.083c0-32.976,0-65.952,0-98.929c0-0.495,0-0.99,0-1.484
				c0-2.726-2.274-5-5-5c-16.936,0-33.87,0-50.806,0c-43.824,0-87.647,0-131.472,0c-60.24,0-120.479,0-180.72,0
				C525.82,0,459.637,0,393.454,0C331.8,0,270.146,0,208.493,0C161.841,0,115.19,0,68.539,0C47.362,0,26.185,0,5.008,0
				C4.672,0,4.336,0,4,0C1.274,0-1,2.274-1,5c0,27.099,0,54.199,0,81.298c0,60.402,0,120.804,0,181.206
				c0,62.361,0,124.722,0,187.083c0,32.976,0,65.952,0,98.929c0,0.495,0,0.989,0,1.484c0,2.726,2.274,5,5,5
				c16.935,0,33.871,0,50.806,0c43.824,0,87.648,0,131.472,0c60.24,0,120.479,0,180.719,0c66.183,0,132.367,0,198.549,0
				c61.653,0,123.308,0,184.961,0c46.651,0,93.303,0,139.955,0c21.177,0,42.353,0,63.529,0c0.337,0,0.673,0,1.009,0
				C961.448,560,961.448,550,955,550z"/>
		</g>
	</g>
	<g>
		<g>
			<path d="M273.605,293.651c-21.885,6.63-43.2,15.284-65.934,18.682c-6.36,0.95-3.647,10.585,2.658,9.643
				c22.734-3.396,44.049-12.052,65.934-18.682C282.417,301.43,279.793,291.776,273.605,293.651L273.605,293.651z"/>
		</g>
	</g>
	<g>
		<g>
			<path d="M208.761,338.271c6.216,5.88,13.739,7.786,21.987,8.979c2.695,0.39,5.361-0.621,6.15-3.492
				c0.654-2.376-0.79-5.76-3.492-6.15c-6.354-0.919-12.734-1.828-17.574-6.406C211.152,326.773,204.068,333.833,208.761,338.271
				L208.761,338.271z"/>
		</g>
	</g>
	<g>
		<g>
			<path d="M237.341,332.964c3.366,1.146,6.51,2.297,10.12,2.377c2.726,0.061,5-2.32,5-5c0-2.771-2.276-4.939-5-5
				c-2.286-0.051-4.922-1.155-7.462-2.02c-2.581-0.879-5.46,0.982-6.15,3.492C233.094,329.56,234.764,332.087,237.341,332.964
				L237.341,332.964z"/>
		</g>
	</g>
	<g>
		<g>
			<path d="M269.201,322.41c-4.583,5.655-9.729,10.801-15.385,15.385c-2.12,1.719-1.776,5.295,0,7.07
				c2.076,2.076,4.956,1.715,7.071,0c5.655-4.584,10.801-9.729,15.385-15.385c1.714-2.115,2.076-4.994,0-7.07
				C274.496,320.634,270.919,320.289,269.201,322.41L269.201,322.41z"/>
		</g>
	</g>
	<g>
		<g>
			<path d="M183.3,376.265c-1.34,5.902-0.858,12.381,2.372,17.619c3.398,5.51,9.945,7.412,15.866,5.015
				c2.524-1.021,4.279-3.291,3.492-6.15c-0.66-2.398-3.62-4.517-6.15-3.492c-2.765,1.119-3.832,1.036-5.26-1.609
				c-1.364-2.526-1.293-6.012-0.677-8.724C194.368,372.644,184.727,369.977,183.3,376.265L183.3,376.265z"/>
		</g>
	</g>
	<g>
		<g>
			<path d="M203.736,373.623c24.26-9.751,50.769-13.428,76.64-15.901c5.345-0.512,10.975-1.146,16.299-0.135
				c0.646,0.123,2.573,1.107,2.026,0.354c-0.682-0.941,0.411-2.182-0.658-0.498c-3.728,5.87-13.878,9.026-20.043,10.934
				c-6.141,1.899-3.52,11.554,2.658,9.643c9.402-2.908,20.046-7.297,26.02-15.529c2.051-2.826,2.492-7.065,0.385-9.972
				c-2.827-3.9-7.62-4.701-12.109-5.203c-7.35-0.822-14.977,0.406-22.282,1.187c-8.072,0.862-16.123,1.941-24.14,3.216
				c-16.131,2.563-32.267,6.158-47.456,12.264C195.172,366.354,197.748,376.03,203.736,373.623L203.736,373.623z"/>
		</g>
	</g>
	<g>
		<g>
			<path d="M214.82,398.395c12.664-7.238,26.421-11.572,40.563-14.881c6.278-1.469,3.615-11.11-2.658-9.643
				c-14.959,3.5-29.563,8.236-42.952,15.889C204.177,392.958,209.213,401.6,214.82,398.395L214.82,398.395z"/>
		</g>
	</g>
	<g>
		<g>
			<path d="M241.542,361.979c-8.715,26.209-16.9,52.598-32.463,75.729c-3.611,5.367,5.056,10.366,8.635,5.047
				c16.022-23.813,24.499-51.133,33.471-78.117C253.225,358.5,243.566,355.891,241.542,361.979L241.542,361.979z"/>
		</g>
	</g>
	<g>
		<g>
			<path d="M237.802,417.579c16.501-4.388,33.117-8.398,50.319-7.513c-1.179-2.845-2.357-5.69-3.536-8.535
				c-8.384,10.43-15.377,21.89-24.261,31.933c-8.45,9.553-19.886,19.091-33.512,16.231c-6.291-1.32-8.968,8.318-2.658,9.643
				c32.709,6.865,50.621-29.734,67.502-50.736c2.722-3.386,1.092-8.297-3.536-8.535c-18.042-0.93-35.668,3.268-52.978,7.87
				C228.917,409.592,231.562,419.238,237.802,417.579L237.802,417.579z"/>
		</g>
	</g>
	<g>
		<g>
			<path d="M235.135,428.381c9.708,11.214,25.034,15.148,39.077,17.554c14.738,2.525,29.989,2.812,44.448,6.81
				c6.227,1.722,8.866-7.927,2.658-9.643c-13.589-3.758-27.921-4.281-41.811-6.386c-13.139-1.989-28.179-4.869-37.301-15.405
				C237.978,416.427,230.936,423.531,235.135,428.381L235.135,428.381z"/>
		</g>
	</g>
	<g>
		<g>
			<path d="M442.461,316.055c0.091,1.217,0.345-1.05,0.017,0.379c-0.157,0.683-0.369,1.006-0.654,1.561
				c-1.016,1.974-2.356,3.79-3.672,5.569c-3.301,4.465-7.117,8.586-10.834,12.702c-7.257,8.035-15.224,15.688-21.537,24.519
				c-3.759,5.258,4.919,10.243,8.635,5.047c6.491-9.079,14.983-16.895,22.405-25.201c3.881-4.344,7.66-8.795,11.065-13.525
				c2.205-3.063,4.872-7.083,4.576-11.05C451.985,309.665,441.981,309.618,442.461,316.055L442.461,316.055z"/>
		</g>
	</g>
	<g>
		<g>
			<path d="M396.043,398.898c18.553-7.549,38.094-12.9,58.011-15.206c6.328-0.732,6.399-10.741,0-10
				c-20.861,2.415-41.217,7.647-60.669,15.563C387.494,391.652,390.068,401.33,396.043,398.898L396.043,398.898z"/>
		</g>
	</g>
	<g>
		<g>
			<path d="M427.256,353.647c7.415,32.39,7.512,65.618,7.513,98.671c3.274-0.443,6.547-0.886,9.821-1.329
				c-0.902-3.012-1.47-5.982-2.702-8.887c-2.51-5.92-11.121-0.817-8.635,5.047c0.853,2.011,1.066,4.403,1.694,6.498
				c1.612,5.38,9.821,4.393,9.821-1.329c-0.001-33.954-0.254-68.061-7.871-101.329C435.459,344.704,425.818,347.37,427.256,353.647
				L427.256,353.647z"/>
		</g>
	</g>
	<g>
		<g>
			<path d="M423.364,392.652c-7.582,9.931-14.496,21.269-20.072,32.452c-2.868,5.751,5.75,10.817,8.634,5.047
				c0.464-0.927,0.927-1.854,1.391-2.782c2.875-5.75-5.751-10.816-8.635-5.047c-0.463,0.928-0.927,1.854-1.391,2.782
				c2.878,1.683,5.756,3.364,8.634,5.047c5.577-11.184,12.491-22.521,20.072-32.452C435.914,392.571,427.221,387.6,423.364,392.652
				L423.364,392.652z"/>
		</g>
	</g>
	<g>
		<g>
			<path d="M442.827,404.205c8.388,8.485,16.144,17.963,27.386,22.761c5.861,2.501,10.962-6.11,5.047-8.635
				c-10.489-4.477-17.537-13.281-25.361-21.196C445.36,392.543,438.292,399.617,442.827,404.205L442.827,404.205z"/>
		</g>
	</g>
	<g>
		<g>
			<path d="M475.607,366.835c4.775,13.844,3.791,29.613,16.583,39.252c5.155,3.884,10.129-4.806,5.047-8.635
				c-9.423-7.1-8.459-23.048-11.987-33.275C483.16,358.119,473.499,360.722,475.607,366.835L475.607,366.835z"/>
		</g>
	</g>
	<g>
		<g>
			<path d="M493.846,371.426c10.742-3.826,23.285,0.841,32.402,6.705c3.193,2.055,7.113,5.107,8.094,8.773
				c0.06,0.225,0.208,0.617-0.971,1.717c-1.973,1.841-5.622,2.329-8.118,2.832c-6.319,1.271-3.638,10.91,2.658,9.643
				c6.514-1.311,14.506-4.178,16.168-11.485c1.444-6.346-3.01-12.151-7.462-16.1c-11.325-10.043-30.594-17.013-45.43-11.728
				C485.158,363.931,487.756,373.596,493.846,371.426L493.846,371.426z"/>
		</g>
	</g>
	<g>
		<g>
			<path d="M504.835,407.689c6.024-1.267,11.862-3.237,17.582-5.494c5.926-2.338,3.347-12.013-2.658-9.643
				c-5.72,2.257-11.558,4.227-17.582,5.494C495.867,399.374,498.544,409.013,504.835,407.689L504.835,407.689z"/>
		</g>
	</g>
	<g>
		<g>
			<path d="M622.265,319.678c10.014,20.547,8.702,46.084,7.48,68.271c-1.2,21.816-4.777,43.606-4.866,65.47
				c-0.026,6.45,9.974,6.447,10,0c0.093-22.809,3.839-45.555,5.02-68.323c1.208-23.296,1.455-49.013-8.999-70.464
				C628.074,308.834,619.452,313.906,622.265,319.678L622.265,319.678z"/>
		</g>
	</g>
	<g>
		<g>
			<path d="M609.673,377.363c-3.941,11.936-7.919,25.185-5.494,37.823c1.214,6.329,10.852,3.642,9.643-2.658
				c-2.039-10.627,2.198-22.526,5.494-32.507C621.344,373.881,611.685,371.27,609.673,377.363L609.673,377.363z"/>
		</g>
	</g>
	<g>
		<g>
			<path d="M646.124,375.634c8.002,7.027,14.519,15.51,21.979,23.077c4.532,4.599,11.6-2.477,7.07-7.07
				c-7.46-7.568-13.976-16.05-21.979-23.077C648.37,364.326,641.27,371.371,646.124,375.634L646.124,375.634z"/>
		</g>
	</g>
	<g>
		<g>
			<path d="M667.915,329.472c4.888,15.889-1.251,31.852-6.594,46.793c-2.177,6.088,7.488,8.685,9.643,2.658
				c5.979-16.721,12.045-34.392,6.594-52.109C675.667,320.669,666.014,323.291,667.915,329.472L667.915,329.472z"/>
		</g>
	</g>
	<g>
		<g>
			<path d="M679.655,357.735c12.316-7.53,27.323-9.191,41.433-10.307c6.384-0.505,6.434-10.509,0-10
				c-15.872,1.255-32.625,3.201-46.479,11.672C669.117,352.458,674.138,361.109,679.655,357.735L679.655,357.735z"/>
		</g>
	</g>
	<g>
		<g>
			<path d="M677.457,401.691c11.551-6.211,23.757-10.728,36.169-14.881c6.083-2.035,3.475-11.695-2.658-9.643
				c-13.216,4.422-26.261,9.277-38.558,15.889C666.729,396.111,671.778,404.744,677.457,401.691L677.457,401.691z"/>
		</g>
	</g>
	<g>
		<g>
			<path d="M696.308,321.55c0.808,18.744-1.94,37.34-3.612,55.962c-0.756,8.419-0.628,16.639-0.458,25.071
				c0.173,8.537-0.067,17.48-4.038,25.234c-2.934,5.728,5.694,10.788,8.635,5.047c8-15.62,4.27-33.035,5.416-49.798
				c1.404-20.521,4.946-40.884,4.058-61.517C706.031,315.127,696.029,315.1,696.308,321.55L696.308,321.55z"/>
		</g>
	</g>
	<g>
		<g>
			<path d="M665.369,448.943c27.076-12.631,59.502-11.362,88.686-12.504c6.427-0.252,6.451-10.252,0-10
				c-31.164,1.22-64.854,0.397-93.732,13.869C654.482,443.033,659.563,451.651,665.369,448.943L665.369,448.943z"/>
		</g>
	</g>
	<g>
		<g>
			<path d="M62.044,61.11c-0.768,9.104-1.848,18.174-3.611,27.143c-1.594,8.108-3.521,18.643-9.796,24.582
				c-2.815,2.664,1.435,6.899,4.242,4.242c6.835-6.469,9.188-17.139,11.081-25.969c2.114-9.863,3.237-19.957,4.084-29.999
				C68.369,57.252,62.367,57.284,62.044,61.11L62.044,61.11z"/>
		</g>
	</g>
	<g>
		<g>
			<path d="M70.237,89.277c5.083-1.96,10.228-3.111,15.686-3.189c3.866-0.055,3.871-6.055,0-6
				c-5.968,0.085-11.716,1.258-17.281,3.404C65.071,84.869,66.621,90.672,70.237,89.277L70.237,89.277z"/>
		</g>
	</g>
	<g>
		<g>
			<path d="M66.849,96.69c3.18,4.455,8.14,6.838,13.58,6.98c3.872,0.101,3.862-5.899,0-6c-3.168-0.083-6.501-1.35-8.399-4.009
				C69.803,90.542,64.596,93.533,66.849,96.69L66.849,96.69z"/>
		</g>
	</g>
	<g>
		<g>
			<path d="M90.722,66.303c2.009,11.323-0.925,23.921-6.291,33.952c-1.824,3.41,3.355,6.441,5.181,3.028
				c6.182-11.556,9.202-25.577,6.896-38.575C95.833,60.903,90.051,62.52,90.722,66.303L90.722,66.303z"/>
		</g>
	</g>
	<g>
		<g>
			<path d="M93.917,85.98c6.083,1.137,12.211,1.205,18.38,1.207c3.869,0.001,3.869-5.999,0-6
				c-5.613-0.001-11.248,0.043-16.785-0.992C91.731,79.488,90.117,85.271,93.917,85.98L93.917,85.98z"/>
		</g>
	</g>
	<g>
		<g>
			<path d="M92.517,102.571c4.762,0,9.524,0,14.286,0c3.869,0,3.869-6,0-6c-4.762,0-9.524,0-14.286,0
				C88.647,96.571,88.647,102.571,92.517,102.571L92.517,102.571z"/>
		</g>
	</g>
	<g>
		<g>
			<path d="M72.435,120.047c7.046-1.946,16.73-3.894,23.629-0.336c6.8,3.507-8.313,12.215-10.556,13.534
				c-3.332,1.959-0.314,7.146,3.028,5.181c6.276-3.69,21.482-13.519,12.853-22.228c-2.968-2.995-7.741-3.734-11.727-4.117
				c-6.271-0.603-12.794,0.516-18.822,2.18C67.115,115.29,68.699,121.079,72.435,120.047L72.435,120.047z"/>
		</g>
	</g>
	<g>
		<g>
			<path d="M71.336,143.124c7.198-2.37,14.479-4.349,21.978-5.495c3.815-0.583,2.189-6.364-1.595-5.785
				c-7.499,1.146-14.781,3.125-21.978,5.494C66.083,138.542,67.65,144.337,71.336,143.124L71.336,143.124z"/>
		</g>
	</g>
	<g>
		<g>
			<path d="M64.242,146.824c-0.113,5.514-0.986,10.969-1.099,16.483c-0.082,3.979,5.521,3.711,6,0
				c1.132-8.763,17.157-11.815,23.865-13.2c7.116-1.469,19.61-3.9,25.546,1.853c4.687,4.542-7.157,13.303-9.969,15.227
				c-6.467,4.426-16.099,9.132-24.062,6.414c-3.672-1.253-5.235,4.543-1.595,5.786c10.149,3.464,22.109-2.313,30.237-8.103
				c6.184-4.405,16.551-14.207,10.497-22.506c-6.689-9.169-22.912-6.261-32.249-4.457c-10.378,2.006-26.657,6.499-28.27,18.985
				c2,0,4,0,6,0c0.113-5.514,0.986-10.969,1.099-16.483C70.321,142.953,64.321,142.96,64.242,146.824L64.242,146.824z"/>
		</g>
	</g>
	<g>
		<g>
			<path d="M74.542,130.756c11.051,23.978,7.347,52.028,7.283,77.607c2,0,4,0,6,0c-0.188-3.409-1.191-6.383-2.305-9.589
				c-1.261-3.631-7.059-2.07-5.786,1.595c0.923,2.658,1.934,5.152,2.091,7.994c0.212,3.837,5.99,3.894,6,0
				c0.067-26.853,3.49-55.483-8.102-80.635C78.104,124.217,72.934,127.268,74.542,130.756L74.542,130.756z"/>
		</g>
	</g>
	<g>
		<g>
			<path d="M78.308,157.89c-7.266,7.425-13.076,16.173-20.879,23.077c-2.904,2.568,1.356,6.796,4.242,4.242
				c7.804-6.903,13.614-15.652,20.879-23.077C85.257,159.366,81.017,155.12,78.308,157.89L78.308,157.89z"/>
		</g>
	</g>
	<g>
		<g>
			<path d="M159.549,122.352c12.579-0.176,24.761-3.311,37.061-5.602c-0.973-1.671-1.946-3.343-2.918-5.014
				c-1.538,1.526-2.981,2.869-4.887,3.927c-3.383,1.877-0.357,7.06,3.028,5.181c2.35-1.304,4.2-2.977,6.101-4.865
				c2.266-2.249-0.093-5.541-2.918-5.014c-11.776,2.194-23.423,5.219-35.466,5.388C155.684,116.406,155.678,122.406,159.549,122.352
				L159.549,122.352z"/>
		</g>
	</g>
	<g>
		<g>
			<path d="M165.459,151.612c8.897-4.355,18.297-7.281,28.156-8.381c-0.505-1.863-1.009-3.727-1.514-5.59
				c-2.945,1.954-5.856,3.912-9.173,5.191c-3.571,1.377-2.021,7.181,1.595,5.786c3.827-1.476,7.196-3.533,10.607-5.797
				c2.248-1.491,1.687-5.948-1.514-5.59c-10.973,1.225-21.278,4.352-31.185,9.201C158.956,148.133,161.998,153.307,165.459,151.612
				L165.459,151.612z"/>
		</g>
	</g>
	<g>
		<g>
			<path d="M163.644,176.091c20.379-7.701,42.402-8.029,63.736-10.989c3.819-0.529,2.188-6.31-1.595-5.785
				c-21.34,2.96-43.346,3.283-63.736,10.988C158.465,171.659,160.018,177.461,163.644,176.091L163.644,176.091z"/>
		</g>
	</g>
	<g>
		<g>
			<path d="M272.041,71.797c0.788,4.833-1.333,9.253-4.093,13.073c-2.271,3.143,2.938,6.133,5.181,3.028
				c3.808-5.27,5.756-11.207,4.698-17.696C277.206,66.391,271.424,68.014,272.041,71.797L272.041,71.797z"/>
		</g>
	</g>
	<g>
		<g>
			<path d="M250.075,96.667c14.389-6.404,30.379-7.609,45.437-11.786c3.166-0.878,2.643-6.298-0.797-5.893
				c-1.848,0.217-3.402,0.841-5.193,1.207c-3.79,0.773-2.182,6.557,1.595,5.785c1.238-0.252,2.32-0.841,3.598-0.992
				c-0.266-1.964-0.532-3.929-0.797-5.893c-15.621,4.333-31.937,5.744-46.871,12.391C243.518,93.058,246.572,98.227,250.075,96.667
				L250.075,96.667z"/>
		</g>
	</g>
	<g>
		<g>
			<path d="M259.134,102.162c3.718,2.361,8.105,3.622,12.503,3.707c3.872,0.075,3.864-5.926,0-6
				c-3.378-0.065-6.627-1.079-9.475-2.887C258.886,94.9,255.879,100.094,259.134,102.162L259.134,102.162z"/>
		</g>
	</g>
	<g>
		<g>
			<path d="M287.706,92.585c-13.064,7.879-22.475,20.242-35.165,28.571c-3.22,2.113-0.217,7.311,3.028,5.181
				c12.697-8.334,22.125-20.706,35.165-28.571C294.042,95.771,291.028,90.582,287.706,92.585L287.706,92.585z"/>
		</g>
	</g>
	<g>
		<g>
			<path d="M240.185,132.931c11.395-6.397,23.534-10.851,36.135-14.211c6.327-1.688,12.744-3.03,19.168-4.287
				c5.705-1.116,12.088-3.07,17.907-3.07c-0.266-1.964-0.532-3.929-0.797-5.893c-2.955,1.036-5.836,2.261-8.791,3.297
				c-3.626,1.271-2.066,7.069,1.595,5.785c2.955-1.036,5.836-2.26,8.791-3.296c3.116-1.092,2.719-5.893-0.797-5.893
				c-5.255,0-10.829,1.663-15.989,2.617c-7.028,1.3-14.02,2.775-20.954,4.508c-13.688,3.421-26.98,8.348-39.297,15.263
				C233.783,129.644,236.807,134.828,240.185,132.931L240.185,132.931z"/>
		</g>
	</g>
	<g>
		<g>
			<path d="M256.656,144.325c0.904,5.777,3.459,14.899,10.585,15.39c3.864,0.266,3.838-5.736,0-6
				c-1.067-0.074-2.001-2.083-2.417-2.827c-1.378-2.465-1.95-5.399-2.382-8.158C261.845,138.916,256.064,140.541,256.656,144.325
				L256.656,144.325z"/>
		</g>
	</g>
	<g>
		<g>
			<path d="M271.336,138.728c5.764-2.106,11.733-3.848,17.923-3.719c2.323,0.048,6.302,0.559,7.174,3.192
				c0.888,2.678-2.054,5.623-3.745,7.238c-4.433,4.232-10.613,6.603-16.354,8.383c-3.684,1.143-2.111,6.935,1.595,5.786
				c9.349-2.899,26.429-9.952,24.397-22.563c-0.706-4.378-5.327-6.789-9.219-7.602c-7.737-1.617-16.163,0.867-23.366,3.5
				C266.138,134.259,267.693,140.059,271.336,138.728L271.336,138.728z"/>
		</g>
	</g>
	<g>
		<g>
			<path d="M274.632,148.618c4.469-0.673,9.881-0.539,11.997,4.116c1.6,3.518,6.77,0.466,5.181-3.028
				c-3.317-7.296-11.802-7.923-18.772-6.874C269.222,143.407,270.849,149.188,274.632,148.618L274.632,148.618z"/>
		</g>
	</g>
	<g>
		<g>
			<path d="M274.632,161.805c5.186-0.959,10.43-0.99,15.687-0.992c3.869-0.001,3.869-6.001,0-6
				c-5.808,0.002-11.556,0.147-17.281,1.207C269.236,156.723,270.851,162.505,274.632,161.805L274.632,161.805z"/>
		</g>
	</g>
	<g>
		<g>
			<path d="M256.253,179.495c19.373-1.326,37.832-7.633,56.841-11.096c3.803-0.693,2.187-6.475-1.595-5.786
				c-18.466,3.364-36.433,9.594-55.247,10.882C252.415,173.757,252.389,179.759,256.253,179.495L256.253,179.495z"/>
		</g>
	</g>
	<g>
		<g>
			<path d="M281.824,154.517c0.109,14.937,3.493,31.021-2.091,45.356c-1.406,3.61,4.397,5.159,5.786,1.595
				c5.794-14.876,2.418-31.464,2.305-46.951C287.796,150.649,281.796,150.646,281.824,154.517L281.824,154.517z"/>
		</g>
	</g>
	<g>
		<g>
			<path d="M361.446,117.849c1.43-0.429,3.491-0.624,4.305,0.819c1.899,3.37,7.083,0.347,5.181-3.028
				c-2.188-3.882-7.082-4.778-11.08-3.576C356.155,113.174,357.731,118.965,361.446,117.849L361.446,117.849z"/>
		</g>
	</g>
	<g>
		<g>
			<path d="M361.747,152.022c1.624,0.045,3.192,1.174,4.473,2.418c2.774,2.697,7.021-1.542,4.242-4.242
				c-2.417-2.35-5.272-4.08-8.715-4.176C357.875,145.915,357.886,151.915,361.747,152.022L361.747,152.022z"/>
		</g>
	</g>
	<g>
		<g>
			<path d="M447.854,88.998c0.768-1.061,1.536-2.112,2.177-3.256c-0.863,0.495-1.727,0.991-2.59,1.486c0,0,0.001,0,0.001,0
				c-0.863-1.505-1.727-3.01-2.59-4.514c-3.118,7.09-5.627,13.721-10.052,20.223c-5.302,7.79-11.833,14.928-19.129,20.888
				c-2.999,2.449,1.273,6.667,4.242,4.242c6.927-5.657,12.848-12.339,18.196-19.483c2.815-3.76,5.307-7.751,7.518-11.893
				c1.89-3.54,2.813-7.327,4.406-10.949c0.885-2.012-0.119-4.514-2.59-4.514c0,0-0.001,0-0.001,0c-1.042,0-2.077,0.568-2.59,1.486
				c-0.641,1.144-1.409,2.195-2.177,3.256C440.401,89.11,445.609,92.101,447.854,88.998L447.854,88.998z"/>
		</g>
	</g>
	<g>
		<g>
			<path d="M411.613,153.81c14.125-8.381,31.181-9.792,45.055-18.681c2.728-1.747,0.951-6.851-2.312-5.483
				c-2.271,0.952-4.459,0.984-6.895,0.992c-3.869,0.013-3.87,6.013,0,6c2.935-0.01,5.75-0.057,8.49-1.206
				c-0.771-1.828-1.541-3.656-2.312-5.483c-13.84,8.867-30.921,10.294-45.055,18.681C405.261,150.602,408.277,155.79,411.613,153.81
				L411.613,153.81z"/>
		</g>
	</g>
	<g>
		<g>
			<path d="M432.374,111.659c2.114,16.711,0.683,33.358-8.381,47.937c-2.049,3.296,3.143,6.306,5.181,3.028
				c9.583-15.414,11.442-33.247,9.201-50.965C437.895,107.875,431.889,107.828,432.374,111.659L432.374,111.659z"/>
		</g>
	</g>
	<g>
		<g>
			<path d="M423.689,172.896c0.644,4.306,1.714,8.869,4.579,12.271c3.045,3.616,7.652,1.997,10.325-1.057
				c2.538-2.897-1.689-7.159-4.242-4.242c-0.416,0.474-0.825,0.963-1.351,1.314c-0.6,0.4-0.383,0.076-0.083,0.139
				c-0.191-0.04-0.838-1.025-1.154-1.599c-1.379-2.51-1.872-5.626-2.289-8.421c-0.242-1.62-2.259-2.489-3.69-2.095
				C424.068,169.678,423.448,171.28,423.689,172.896L423.689,172.896z"/>
		</g>
	</g>
	<g>
		<g>
			<path d="M430.676,162.903c6.3-2.44,15.205-5.098,21.703-1.794c7.108,3.613-6.06,13.167-8.63,14.993
				c-3.125,2.221-0.133,7.427,3.028,5.181c6.604-4.693,18.549-14.245,11.384-23.21c-2.502-3.131-7.25-3.951-10.969-4.263
				c-6.108-0.514-12.469,1.124-18.111,3.309C425.514,158.5,427.063,164.303,430.676,162.903L430.676,162.903z"/>
		</g>
	</g>
	<g>
		<g>
			<path d="M440.566,183.783c4.967-1.245,9.704-2.776,13.904-5.797c3.11-2.237,0.119-7.445-3.028-5.181
				c-3.814,2.744-7.962,4.062-12.47,5.192C435.22,178.938,436.812,184.724,440.566,183.783L440.566,183.783z"/>
		</g>
	</g>
	<g>
		<g>
			<path d="M469.138,122.244c14.271-2.407,27.401-9.505,42.059-9.783c-0.266-1.964-0.531-3.929-0.798-5.893
				c-2.169,0.859-4.424,1.339-6.593,2.198c-3.554,1.406-2.006,7.211,1.596,5.785c2.169-0.858,4.424-1.339,6.593-2.197
				c2.976-1.179,2.819-5.961-0.798-5.893c-15.256,0.289-28.823,7.496-43.654,9.998C463.734,117.101,465.355,122.883,469.138,122.244
				L469.138,122.244z"/>
		</g>
	</g>
	<g>
		<g>
			<path d="M473.033,102.868c3.132,24.061-5.473,48.344,0.107,72.226c0.473,2.022,3.619,3.124,5.014,1.324
				c1.245-1.604,1.835-3.142,2.667-5.003c1.565-3.5-3.604-6.555-5.181-3.028c-0.446,0.997-1.07,2.939-1.729,3.789
				c1.671,0.441,3.343,0.882,5.014,1.324c-5.434-23.259,3.164-47.146,0.107-70.631C478.541,99.087,472.534,99.04,473.033,102.868
				L473.033,102.868z"/>
		</g>
	</g>
	<g>
		<g>
			<path d="M501.604,83.088c1.123,29.687,3.272,59.324,4.396,89.011c1-1,2-2,3-3c-1.734-0.107-2.56-0.966-3.98-1.788
				c-3.354-1.941-6.375,3.244-3.027,5.181c2.467,1.428,4.07,2.426,7.008,2.607c1.589,0.098,3.059-1.439,3-3
				c-1.123-29.687-3.272-59.324-4.396-89.011C507.459,79.231,501.458,79.217,501.604,83.088L501.604,83.088z"/>
		</g>
	</g>
	<g>
		<g>
			<path d="M481.227,147.52c3.53-0.504,7.061-0.995,10.604-1.404c1.558-0.18,3.119-0.314,4.682-0.443
				c1.001-0.077,2.002-0.136,3.005-0.18c1.56,0.333,1.871,0.107,0.933-0.679c0.102-0.771,0.202-1.541,0.303-2.312
				c0.445-0.846-0.716,0.446-0.959,0.633c-3.021,2.323-0.04,7.539,3.029,5.181c1.351-1.038,2.92-1.707,3.413-3.502
				c0.542-1.97-1.087-4.743-3.031-5.277c-3.307-0.91-8.02,0.223-11.374,0.579c-4.078,0.433-8.14,1.039-12.199,1.618
				C475.813,142.278,477.443,148.059,481.227,147.52L481.227,147.52z"/>
		</g>
	</g>
	<g>
		<g>
			<path d="M480.73,173.893c10.462,2.053,20.184-0.021,30.167-3.297c3.658-1.201,2.092-6.995-1.596-5.785
				c-8.86,2.908-17.639,5.128-26.976,3.297C478.546,167.366,476.935,173.148,480.73,173.893L480.73,173.893z"/>
		</g>
	</g>
	<g>
		<g>
			<path d="M558.865,91.173c4.341-2.386,8.991-4.032,13.733-5.419c3.811-1.115,8.509-2.573,12.526-1.97
				c3.784,0.567,5.411-5.213,1.596-5.786c-10.042-1.506-22.233,3.24-30.883,7.995C552.446,87.856,555.474,93.038,558.865,91.173
				L558.865,91.173z"/>
		</g>
	</g>
	<g>
		<g>
			<path d="M576.438,85.587c-4.34,10.658-9.753,20.853-13.188,31.868c-0.747,2.394,1.573,4.019,3.69,3.69
				c9.254-1.436,17.403-6.349,26.374-8.791c3.729-1.016,2.144-6.804-1.596-5.786c-8.971,2.443-17.119,7.356-26.374,8.792
				c1.23,1.23,2.461,2.46,3.69,3.69c3.433-11.005,8.851-21.215,13.188-31.868C583.683,83.597,577.876,82.053,576.438,85.587
				L576.438,85.587z"/>
		</g>
	</g>
	<g>
		<g>
			<path d="M592.813,103.967c0.05,8.848,1.093,18.196-3.986,25.958c-2.125,3.249,3.072,6.251,5.182,3.028
				c5.703-8.718,4.861-19.023,4.805-28.987C598.792,100.099,592.792,100.097,592.813,103.967L592.813,103.967z"/>
		</g>
	</g>
	<g>
		<g>
			<path d="M570.237,147.52c7.73-2.298,14.859-5.773,21.595-10.193c3.221-2.113,0.218-7.311-3.027-5.181
				c-6.314,4.143-12.91,7.432-20.163,9.587C564.942,142.833,566.519,148.625,570.237,147.52L570.237,147.52z"/>
		</g>
	</g>
	<g>
		<g>
			<path d="M578.527,122.648c0.085,12.446,2.343,25.705-2.09,37.664c-1.348,3.636,4.453,5.19,5.785,1.595
				c4.63-12.491,2.394-26.269,2.305-39.259C584.501,118.781,578.501,118.778,578.527,122.648L578.527,122.648z"/>
		</g>
	</g>
	<g>
		<g>
			<path d="M572.053,171.393c11.419-7.736,25.173-11.201,35.771-20.25c2.947-2.516-1.317-6.739-4.242-4.242
				c-10.142,8.658-23.605,11.891-34.559,19.311C565.841,168.369,568.839,173.569,572.053,171.393L572.053,171.393z"/>
		</g>
	</g>
	<g>
		<g>
			<path d="M611.494,110.561c-0.062,11.32-0.843,22.557,1.207,33.764c0.695,3.803,6.477,2.187,5.785-1.595
				c-1.945-10.64-1.051-21.424-0.992-32.169C617.515,106.69,611.515,106.692,611.494,110.561L611.494,110.561z"/>
		</g>
	</g>
	<g>
		<g>
			<path d="M630.585,83.503c6.254,14.797,7.464,31.554,8.177,47.416c0.699,15.551,0.224,31.117,0.205,46.675
				c1.266-0.964,2.531-1.929,3.798-2.893c-8.177-1.344-13.517-7.284-19.556-12.415c-2.93-2.489-7.195,1.734-4.242,4.242
				c6.81,5.786,12.986,12.443,22.202,13.958c1.896,0.312,3.795-0.788,3.798-2.893c0.02-16.591,0.472-33.172-0.351-49.753
				c-0.794-16.002-2.563-32.489-8.85-47.366C634.265,76.921,629.098,79.983,630.585,83.503L630.585,83.503z"/>
		</g>
	</g>
	<g>
		<g>
			<path d="M687.438,124.14c8.686-5.79,23.33-5.255,26.652-17.177c1.041-3.734-4.748-5.317-5.785-1.595
				c-2.434,8.732-17.241,9.155-23.896,13.591C681.207,121.093,684.207,126.293,687.438,124.14L687.438,124.14z"/>
		</g>
	</g>
	<g>
		<g>
			<path d="M700.613,92.676c9.288,27.514,6.822,59.218,2.197,87.417c1.827-0.239,3.655-0.478,5.483-0.717
				c-3.364-6.957-5.719-14.326-9.89-20.879c-2.071-3.253-7.266-0.247-5.182,3.028c4.168,6.548,6.528,13.927,9.89,20.879
				c1.083,2.239,5.068,1.813,5.483-0.717c4.8-29.261,7.449-62.034-2.197-90.606C705.168,87.436,699.372,89,700.613,92.676
				L700.613,92.676z"/>
		</g>
	</g>
	<g>
		<g>
			<path d="M686.338,152.711c10.78-6.299,22.914-10.035,32.967-17.583c3.055-2.293,0.069-7.506-3.027-5.181
				c-10.054,7.547-22.188,11.284-32.967,17.583C679.973,149.481,682.99,154.667,686.338,152.711L686.338,152.711z"/>
		</g>
	</g>
	<g>
		<g>
			<path d="M734.679,82.786c1.988,9.529,2.088,19.179,2.091,28.873c0.001,3.869,6.001,3.869,6,0
				c-0.003-10.239-0.206-20.409-2.306-30.468C739.674,77.405,733.891,79.011,734.679,82.786L734.679,82.786z"/>
		</g>
	</g>
	<g>
		<g>
			<path d="M742.383,103.261c7.66-3.252,15.469-6.153,23.459-8.489c-0.974-1.671-1.946-3.342-2.919-5.014
				c-1.413,1.169-2.979,2.125-4.396,3.297c-2.984,2.469,1.286,6.689,4.242,4.242c1.414-1.169,2.98-2.125,4.396-3.297
				c2.376-1.966-0.171-5.817-2.919-5.014c-8.494,2.484-16.75,5.637-24.893,9.094C735.803,99.587,738.864,104.754,742.383,103.261
				L742.383,103.261z"/>
		</g>
	</g>
	<g>
		<g>
			<path d="M731.382,119.05c1.247,5.445,4.691,10.575,7.994,15.002c2.285,3.063,7.498,0.077,5.182-3.028
				c-2.992-4.011-6.261-8.636-7.391-13.569C736.304,113.685,730.519,115.284,731.382,119.05L731.382,119.05z"/>
		</g>
	</g>
	<g>
		<g>
			<path d="M743.864,116.75c6.585-2.51,17.09-4.337,19.11,4.773c1.75,7.885-6.512,13.333-13.015,14.716
				c-3.783,0.804-2.179,6.588,1.596,5.785c10.477-2.228,19.04-10.864,17.205-22.097c-2.078-12.721-17.257-12.483-26.492-8.964
				C738.69,112.328,740.242,118.13,743.864,116.75L743.864,116.75z"/>
		</g>
	</g>
	<g>
		<g>
			<path d="M746.062,131.035c1.444-0.56,8.686-3.524,9.496-0.996c1.176,3.669,6.97,2.1,5.785-1.595
				c-2.362-7.37-11.411-5.314-16.877-3.194C740.899,126.633,742.448,132.436,746.062,131.035L746.062,131.035z"/>
		</g>
	</g>
	<g>
		<g>
			<path d="M741.666,145.321c5.2-1.038,10.367-2.011,15.686-2.09c3.865-0.058,3.871-6.058,0-6
				c-5.844,0.087-11.566,1.164-17.281,2.305C736.278,140.293,737.888,146.076,741.666,145.321L741.666,145.321z"/>
		</g>
	</g>
	<g>
		<g>
			<path d="M728.479,170.596c14.429-5.699,30.474-10.908,46.195-11.188c-0.266-1.964-0.532-3.929-0.798-5.893
				c-0.587,0.208-1.33,0.218-1.938,0.306c-3.817,0.552-2.188,6.333,1.596,5.786c0.607-0.088,1.351-0.098,1.938-0.307
				c3.079-1.093,2.743-5.956-0.798-5.893c-16.26,0.289-32.863,5.506-47.791,11.402C723.329,166.214,724.877,172.019,728.479,170.596
				L728.479,170.596z"/>
		</g>
	</g>
	<g>
		<g>
			<path d="M749.956,147.923c1.479,14.011,3.619,27.493,2.755,41.592c-0.154,2.524-1.164,7.892,1.038,9.886
				c3.138,2.841,5.441-0.767,6.495-3.428c1.426-3.601-4.379-5.148-5.785-1.595c-1.041,2.627,4.197,3.198,4.088,0.776
				c-0.058-1.284,0.016-2.579,0.069-3.862c0.118-2.803,0.356-5.601,0.544-8.399c0.775-11.627-1.988-23.452-3.204-34.97
				C755.555,144.116,749.55,144.077,749.956,147.923L749.956,147.923z"/>
		</g>
	</g>
	<g>
		<g>
			<path d="M824.799,91.173c10.844-5.212,22.871-6.773,34.449-9.588c3.758-0.913,2.164-6.699-1.596-5.785
				c-12.134,2.949-24.517,4.729-35.881,10.192C818.285,87.668,821.33,92.841,824.799,91.173L824.799,91.173z"/>
		</g>
	</g>
	<g>
		<g>
			<path d="M821.385,110.561c-0.13,9.633-2.047,19.051-3.297,28.571c-0.172,1.309,1.045,2.561,2.202,2.893
				c9.063,2.598,20.826-3.049,29.05-6.233c9.943-3.85,19.577-8.404,29.307-12.75c3.526-1.576,0.472-6.745-3.029-5.181
				c-8.887,3.97-17.69,8.097-26.737,11.699c-5.021,1.999-10.117,3.83-15.317,5.308c-3.532,1.004-8.009,2.423-11.677,1.372
				c0.733,0.964,1.468,1.928,2.202,2.893c1.251-9.528,3.167-18.928,3.297-28.571C827.437,106.689,821.437,106.694,821.385,110.561
				L821.385,110.561z"/>
		</g>
	</g>
	<g>
		<g>
			<path d="M848.965,94.875c5.744,15.801,3.228,33.296,4.288,49.752c1.272,19.75,3.194,39.534,2.197,59.34
				c1.863-0.505,3.727-1.009,5.591-1.514c-3.987-6.494-4.594-14.266-7.391-21.261c-1.418-3.547-7.223-2.001-5.785,1.595
				c3,7.504,3.708,15.712,7.994,22.695c1.603,2.61,5.442,1.443,5.591-1.514c1.021-20.273-0.985-40.539-2.288-60.754
				c-1.068-16.575,1.383-33.994-4.412-49.933C853.439,89.673,847.64,91.229,848.965,94.875L848.965,94.875z"/>
		</g>
	</g>
	<g>
		<g>
			<path d="M847.538,133.714c-13.103,16.601-23.749,42.675-47.028,46.481c-3.811,0.623-2.188,6.404,1.596,5.785
				c24.756-4.048,35.775-30.413,49.675-48.024C854.149,134.955,849.934,130.678,847.538,133.714L847.538,133.714z"/>
		</g>
	</g>
</g>
<g id="图层_2">
	<g>
	</g>
	<g>
	</g>
	<g>
	</g>
	<g>
	</g>
	<g>
	</g>
	<g>
	</g>
	<g>
	</g>
	<g>
	</g>
	<g>
	</g>
	<g>
	</g>
	<g>
	</g>
	<g>
	</g>
	<g>
	</g>
	<g>
	</g>
	<g>
	</g>
</g>
</svg>
