<?xml version="1.0" encoding="utf-8"?>
<!-- Generator: Adobe Illustrator 16.2.0, SVG Export Plug-In . SVG Version: 6.00 Build 0)  -->
<!DOCTYPE svg PUBLIC "-//W3C//DTD SVG 1.1//EN" "http://www.w3.org/Graphics/SVG/1.1/DTD/svg11.dtd">
<svg version="1.1" xmlns="http://www.w3.org/2000/svg" xmlns:xlink="http://www.w3.org/1999/xlink" x="0px" y="0px" width="960px"
	 height="421.044px" viewBox="0 540.106 960 421.044" enable-background="new 0 540.106 960 421.044" xml:space="preserve">
<g id="图层_2">
	
		<rect x="3" y="543.106" fill="#FFFFFF" stroke="#000000" stroke-width="10" stroke-miterlimit="10" width="952.5" height="412.969"/>
</g>
<g id="图层_1">
	<g id="图层_4">
		<g>
			<g>
				<path d="M88.574,656.948c3.834,25.709,2.807,51.898-2,77.403c1.964,0.268,3.928,0.532,5.893,0.799c0-1.333,0-2.667,0-4
					c0-3.869-6-3.869-6,0c0,1.333,0,2.667,0,4c0,3.309,5.253,4.191,5.893,0.798c5.021-26.645,6.004-53.749,2-80.597
					C93.791,651.537,88.01,653.164,88.574,656.948L88.574,656.948z"/>
			</g>
		</g>
		<g>
			<g>
				<path d="M95.467,659.15c31.701-4.117,64.249-10.041,96.203-5.107c-0.734-0.964-1.468-1.929-2.203-2.893c0,28.333,0,56.667,0,85
					c0,3.868,6,3.868,6,0c0-28.333,0-56.667,0-85c0-1.218-0.904-2.692-2.203-2.894c-32.6-5.034-65.442,0.69-97.797,4.894
					C91.686,653.642,91.638,659.647,95.467,659.15L95.467,659.15z"/>
			</g>
		</g>
		<g>
			<g>
				<path d="M92.669,733.043c16.874,4.512,34.077,1.346,51.211,0.831c18.858-0.566,37.729,0.085,56.586-0.724
					c3.477-0.149,3.965-4.757,0.797-5.894c-0.396-0.143-1.063-0.348-1.207-0.621c-1.804-3.425-6.983-0.392-5.181,3.027
					c0.981,1.865,2.883,2.693,4.793,3.379c0.266-1.964,0.532-3.929,0.797-5.893c-17.619,0.756-35.25,0.314-52.877,0.636
					c-17.696,0.321-35.921,4.125-53.326-0.528C90.521,726.257,88.935,732.045,92.669,733.043L92.669,733.043z"/>
			</g>
		</g>
		<g>
			<g>
				<path d="M218.467,648.15c1.616,12.817,3.41,25.603,4.446,38.485c0.567,7.062,0.915,14.16,0.646,21.242
					c-0.144,3.799-0.014,10.397-3.215,13.15c-2.938,2.525,1.325,6.751,4.242,4.242c3.32-2.855,3.988-7.831,4.534-11.902
					c0.971-7.24,0.563-14.709,0.128-21.973c-0.87-14.49-2.97-28.855-4.783-43.246C223.989,644.365,217.983,644.318,218.467,648.15
					L218.467,648.15z"/>
			</g>
		</g>
		<g>
			<g>
				<path d="M226.467,657.15c30.333,0,60.667,0,91,0c-1-1-2-2-3-3c0.021,25.988,1.122,52.021,0,78c-0.167,3.87,5.833,3.854,6,0
					c1.122-25.979,0.021-52.012,0-78c-0.001-1.637-1.364-3-3-3c-30.333,0-60.667,0-91,0
					C222.598,651.15,222.598,657.15,226.467,657.15L226.467,657.15z"/>
			</g>
		</g>
		<g>
			<g>
				<path d="M219.669,731.043c12.176,2.114,24.42,1.354,36.687,0.632c13.648-0.803,27.429-0.83,41.068,0.161
					c8.392,0.61,16.039,3.083,24.259,4.471c1.837,0.312,5.206,1.041,6.63-0.701c1.586-1.941,1.073-4.003-0.725-5.575
					c-2.898-2.537-7.159,1.688-4.242,4.242c1.432,1.254,3.254-3.443,0.605-3.66c-1.096-0.091-2.192-0.356-3.269-0.571
					c-2.785-0.557-5.541-1.269-8.291-1.976c-8.571-2.201-17.577-2.537-26.389-2.786c-10.497-0.296-20.972-0.113-31.452,0.503
					c-11.084,0.651-22.283,1.387-33.287-0.523C217.481,724.601,215.862,730.383,219.669,731.043L219.669,731.043z"/>
			</g>
		</g>
		<g>
			<g>
				<path d="M125.467,690.15c8.347-0.001,16.683-0.043,25.002-0.794c3.838-0.348,7.655-0.934,11.443-1.629
					c2.874-0.526,7.788-0.62,9.379-3.485c1.031-1.856-0.234-4.695-2.59-4.515c-1.089,0.084-2.147,0.316-3.234,0.423
					c-3.815,0.368-3.852,6.373,0,6c1.067-0.104,2.168-0.341,3.234-0.423c-0.863-1.505-1.728-3.01-2.591-4.514
					c0.127-0.229-6.687,0.893-7.592,1.06c-3.817,0.699-7.685,1.077-11.552,1.377c-7.146,0.554-14.337,0.499-21.5,0.5
					C121.598,684.151,121.598,690.151,125.467,690.15L125.467,690.15z"/>
			</g>
		</g>
		<g>
			<g>
				<path d="M128.574,670.353c-1.673,7.065-6.948,12.721-9.087,19.655c-2.136,6.927,2.792,11.088,9.183,12.035
					c3.783,0.563,5.411-5.219,1.595-5.785c-1.977-0.294-5.198-0.469-5.279-3.033c-0.078-2.494,1.698-5.235,2.815-7.348
					c2.389-4.516,5.369-8.896,6.559-13.929C135.25,668.186,129.464,666.588,128.574,670.353L128.574,670.353z"/>
			</g>
		</g>
		<g>
			<g>
				<path d="M248.669,695.043c10.139,2.06,20.535,1.179,30.797,1.107c3.868-0.027,3.87-6.027,0-6
					c-9.688,0.066-19.633,1.05-29.203-0.894C246.487,688.49,244.879,694.273,248.669,695.043L248.669,695.043z"/>
			</g>
		</g>
		<g>
			<g>
				<path d="M278.669,684.043c11.374,2.031,14.049,16.79,2,20.215c-3.715,1.057-2.135,6.847,1.595,5.785
					c7.592-2.157,13.017-8.011,12.503-16.2c-0.498-7.93-6.883-14.225-14.503-15.585
					C276.482,677.582,274.865,683.363,278.669,684.043L278.669,684.043z"/>
			</g>
		</g>
		<g>
			<g>
				<path d="M379.264,686.043c7.616-1.239,14.667-4.284,21.717-7.302c3.547-1.52,0.487-6.688-3.028-5.183
					c-6.583,2.818-13.179,5.542-20.282,6.698C373.858,680.878,375.48,686.659,379.264,686.043L379.264,686.043z"/>
			</g>
		</g>
		<g>
			<g>
				<path d="M389.467,666.15c1.995,19.955,3.936,39.927,4,60c1.862-0.505,3.727-1.011,5.59-1.515c-2.255-3.983-5.749-7.022-8-11
					c-1.905-3.367-7.089-0.344-5.181,3.027c2.255,3.984,5.749,7.023,8,11c1.477,2.61,5.6,1.451,5.59-1.514
					c-0.064-20.073-2.005-40.045-4-60C395.086,662.338,389.081,662.301,389.467,666.15L389.467,666.15z"/>
			</g>
		</g>
		<g>
			<g>
				<path d="M380.588,711.271c5.917-4.732,13.257-7.9,20.879-8.12c3.859-0.111,3.872-6.111,0-6
					c-9.316,0.269-17.916,4.113-25.121,9.879C373.323,709.446,377.599,713.663,380.588,711.271L380.588,711.271z"/>
			</g>
		</g>
		<g>
			<g>
				<path d="M419.346,661.271c0.677,0.72,1.765,1.841,1.604,2.956c-0.224,1.552-1.791,2.57-2.997,3.332
					c-3.26,2.063-0.253,7.255,3.028,5.183c2.64-1.669,4.955-3.796,5.753-6.918c0.854-3.331-0.941-6.458-3.146-8.794
					C420.928,654.21,416.693,658.46,419.346,661.271L419.346,661.271z"/>
			</g>
		</g>
		<g>
			<g>
				<path d="M407.264,678.043c9.811-3.496,18.469-9.562,28.622-12.297c1.604-0.433,4.036-1.123,5.628-0.315
					c2.832,1.437-0.638,5.288-1.739,6.404c-3.785,3.839-9.056,6.339-13.823,8.725c-3.46,1.732-0.421,6.908,3.028,5.183
					c6.083-3.046,12.738-6.416,17-11.89c3.746-4.809,3.118-12.12-3.197-14.35c-5.58-1.969-13.312,1.843-18.274,3.979
					c-6.322,2.72-12.361,6.469-18.839,8.776C402.052,673.547,403.61,679.346,407.264,678.043L407.264,678.043z"/>
			</g>
		</g>
		<g>
			<g>
				<path d="M415.876,680.637c-3.305,4.621-5.147,10.201-6.303,15.716c-0.791,3.775,4.992,5.383,5.785,1.597
					c1.063-5.067,2.661-10.036,5.698-14.284C423.313,680.51,418.105,677.519,415.876,680.637L415.876,680.637z"/>
			</g>
		</g>
		<g>
			<g>
				<path d="M430.467,685.15c4.022,0.072,7.977,0.927,12,1c-1-1-2-2-3-3c-0.065,0.896-0.528,1.276-1.121,1.879
					c-2.719,2.756,1.521,7,4.242,4.242c1.771-1.797,2.693-3.59,2.879-6.121c0.121-1.654-1.457-2.973-3-3
					c-4.023-0.073-7.978-0.928-12-1C426.596,679.08,426.603,685.08,430.467,685.15L430.467,685.15z"/>
			</g>
		</g>
		<g>
			<g>
				<path d="M423.264,702.043c5.273-1.121,10.333-3.131,14.717-6.302c3.104-2.245,0.113-7.453-3.028-5.183
					c-4.013,2.903-8.455,4.673-13.282,5.698C417.885,697.062,419.49,702.846,423.264,702.043L423.264,702.043z"/>
			</g>
		</g>
		<g>
			<g>
				<path d="M430.467,695.15c-0.063,6.594-1.025,12.82-4.59,18.485c-2.068,3.284,3.125,6.293,5.181,3.027
					c4.11-6.528,5.339-13.904,5.41-21.514C436.503,691.279,430.503,691.283,430.467,695.15L430.467,695.15z"/>
			</g>
		</g>
		<g>
			<g>
				<path d="M425.264,719.043c9.228-3.074,18.465-6.021,28-8c3.788-0.785,2.181-6.568-1.595-5.785c-9.536,1.979-18.772,4.927-28,8
					C420.018,714.475,421.582,720.271,425.264,719.043L425.264,719.043z"/>
			</g>
		</g>
		<g>
			<g>
				<path d="M463.346,670.029c-2.38,2.786-3.609,5.877-4.771,9.322c-0.752,2.229,1.584,4.237,3.69,3.69
					c7.782-2.02,17.523-11.215,25.688-7.302c3.472,1.663,6.518-3.511,3.028-5.183c-11.098-5.317-20.002,4.021-30.312,6.698
					c1.229,1.229,2.46,2.46,3.689,3.69c0.805-2.387,1.561-4.724,3.229-6.678C470.086,671.348,465.862,667.082,463.346,670.029
					L463.346,670.029z"/>
			</g>
		</g>
		<g>
			<g>
				<path d="M470.264,693.043c8.03-2.068,15.833-4.711,24.203-4.893c3.862-0.084,3.872-6.084,0-6
					c-8.917,0.192-17.238,2.901-25.797,5.106C464.925,688.222,466.515,694.009,470.264,693.043L470.264,693.043z"/>
			</g>
		</g>
		<g>
			<g>
				<path d="M477.573,667.948c3.243,16.062,7.768,33.046,4,49.403c1.23-0.697,2.46-1.396,3.69-2.095
					c-1.296-0.188-2.214-1.037-3.283-1.698c-3.301-2.041-6.312,3.151-3.028,5.183c1.66,1.025,2.748,2.017,4.718,2.302
					c1.56,0.228,3.291-0.358,3.689-2.095c4.026-17.484-0.531-35.419-4-52.596C482.594,662.562,476.811,664.171,477.573,667.948
					L477.573,667.948z"/>
			</g>
		</g>
		<g>
			<g>
				<path d="M466.467,705.15c0.038,4.292,0.412,11.509,6,12c3.855,0.339,3.822-5.664,0-6c0.628,0.056,1.184,0.698,0.865,0.159
					c-0.181-0.309-0.301-0.85-0.405-1.25c-0.42-1.593-0.446-3.272-0.46-4.909C472.433,701.283,466.433,701.279,466.467,705.15
					L466.467,705.15z"/>
			</g>
		</g>
		<g>
			<g>
				<path d="M479.264,705.043c7.55-1.352,14.942-3.753,22.698-3.485c4.49,0.155,6.05,3.036,2.576,6.2
					c-3.35,3.054-8.482,4.757-12.869,5.5c-3.81,0.646-2.188,6.427,1.595,5.785c9.052-1.532,25.59-9.647,16.902-20.542
					c-3.138-3.935-10.516-3.107-14.781-2.629c-5.999,0.673-11.791,2.325-17.715,3.386
					C473.865,699.938,475.482,705.721,479.264,705.043L479.264,705.043z"/>
			</g>
		</g>
		<g>
			<g>
				<path d="M511.573,679.948c1.921,6.162,2.141,12.64,3,19c0.517,3.818,6.297,2.187,5.785-1.597c-0.861-6.372-1.073-12.82-3-19
					C516.212,674.672,510.419,676.244,511.573,679.948L511.573,679.948z"/>
			</g>
		</g>
		<g>
			<g>
				<path d="M525.952,667.741c7.217,5.23,6.777,19.458,7.19,27.265c0.505,9.543-0.058,19.633,2.431,28.942
					c1.828-0.771,3.655-1.542,5.483-2.313c-2.236-3.052-5.465-5.628-6.698-9.283c-1.229-3.646-7.024-2.081-5.785,1.596
					c1.477,4.378,4.646,7.091,7.303,10.716c1.931,2.635,6.413,1.167,5.482-2.312c-2.863-10.712-1.758-22.543-2.615-33.522
					c-0.707-9.048-1.799-20.496-9.763-26.271C525.842,660.284,522.853,665.493,525.952,667.741L525.952,667.741z"/>
			</g>
		</g>
		<g>
			<g>
				<path d="M580.467,663.15c-1.095,11.37-4.539,22.301-7.412,33.308c-0.565,2.168-1.376,4.252-2.089,6.386
					c-0.377,1.129-0.755,2.258-1.143,3.384c-0.86,2.505-1.354,1.57,0.748,0.965c1.23,0.697,2.46,1.396,3.69,2.096
					c0.262,0.784,0.199-1.09,0.205-1.137c0.49-3.83-5.516-3.783-6,0c-0.116,0.9-0.288,1.842,0.01,2.73
					c0.512,1.535,2.056,2.566,3.689,2.096c3.903-1.126,4.488-9.185,5.892-12.313c2.407-5.369,3.342-12.063,4.813-17.77
					c1.676-6.498,2.954-13.063,3.597-19.744C586.837,659.299,580.834,659.335,580.467,663.15L580.467,663.15z"/>
			</g>
		</g>
		<g>
			<g>
				<path d="M583.346,699.271c6.986,8.904,14.631,15.721,25.324,19.771c3.17,1.201,5.417-4.124,2.312-5.483
					c-0.888-0.388-1.777-1.799-2.393-2.529c-2.495-2.964-6.718,1.304-4.242,4.241c1.125,1.337,1.965,2.752,3.606,3.471
					c0.771-1.828,1.541-3.656,2.313-5.483c-9.661-3.661-16.402-10.232-22.676-18.229C585.2,691.987,580.986,696.265,583.346,699.271
					L583.346,699.271z"/>
			</g>
		</g>
		<g>
			<g>
				<path d="M623.346,663.271c4.315,4.604,3.563,9.528-1.394,13.288c-3.04,2.308-0.056,7.521,3.028,5.183
					c8.054-6.11,9.781-15.062,2.607-22.712C624.937,656.201,620.702,660.452,623.346,663.271L623.346,663.271z"/>
			</g>
		</g>
		<g>
			<g>
				<path d="M630.981,676.741c4.823-2.329,12.732-5.684,17.972-3c3.438,1.759,6.475-3.418,3.028-5.183
					c-7.506-3.842-16.989-0.397-24.028,3C624.469,673.242,627.513,678.415,630.981,676.741L630.981,676.741z"/>
			</g>
		</g>
		<g>
			<g>
				<path d="M628.264,692.043c9.307-3.082,18.692-5.918,28-9c3.655-1.21,2.089-7.005-1.595-5.785c-9.308,3.082-18.693,5.918-28,9
					C623.015,687.468,624.58,693.263,628.264,692.043L628.264,692.043z"/>
			</g>
		</g>
		<g>
			<g>
				<path d="M635.467,661.15c1.903,14.27,1.096,28.729,3,43c0.494,3.705,6,3.991,6,0c0-1.333,0-2.667,0-4c0-3.869-6-3.869-6,0
					c0,1.333,0,2.667,0,4c2,0,4,0,6,0c-1.904-14.271-1.097-28.73-3-43C640.963,657.373,634.956,657.324,635.467,661.15
					L635.467,661.15z"/>
			</g>
		</g>
		<g>
			<g>
				<path d="M655.467,656.15c0.715,8.717-1.809,16.722-5.59,24.485c-1.688,3.463,3.485,6.506,5.181,3.027
					c4.223-8.669,7.209-17.761,6.41-27.514C661.153,652.322,655.15,652.292,655.467,656.15L655.467,656.15z"/>
			</g>
		</g>
		<g>
			<g>
				<path d="M659.264,666.043c5.445-0.924,13.001-2.323,17.618,1.675c4.314,3.737,4.734,11.487,4.526,16.724
					c-0.21,5.271-0.884,10.555-2.124,15.684c-0.545,2.252-1.256,4.462-2.53,6.41c-1.012,1.543-2.918-1.743-3.697-2.897
					c-2.153-3.187-7.354-0.188-5.182,3.027c3.604,5.333,9.27,9.204,14.059,2.898c4.349-5.727,4.731-15.297,5.292-22.157
					c0.648-7.962-0.064-17.113-5.542-23.372c-5.792-6.619-16.415-5.064-24.016-3.775
					C653.86,660.903,655.481,666.685,659.264,666.043L659.264,666.043z"/>
			</g>
		</g>
		<g>
			<g>
				<path d="M666.573,673.353c-1.313,3.311-2.548,6.649-3.75,10c-0.898,2.509-2.064,5.129-2.356,7.799c-0.421,3.844,5.583,3.803,6,0
					c-0.096,0.869,0.516-1.476,0.646-1.872c0.472-1.453,0.986-2.893,1.497-4.33c1.193-3.354,2.438-6.692,3.75-10
					C673.788,671.349,667.984,669.802,666.573,673.353L666.573,673.353z"/>
			</g>
		</g>
		<g>
			<g>
				<path d="M671.573,680.353c-2,5-4,10-6,15c-1.438,3.597,4.367,5.143,5.785,1.597c2-5,4-10,6-15
					C678.798,678.353,672.992,676.807,671.573,680.353L671.573,680.353z"/>
			</g>
		</g>
		<g>
			<g>
				<path d="M726.346,649.029c-5.823,6.85-11.214,14.046-18,20c-2.914,2.557,1.347,6.782,4.242,4.241
					c6.787-5.953,12.178-13.149,18-20C733.077,650.343,728.855,646.077,726.346,649.029L726.346,649.029z"/>
			</g>
		</g>
		<g>
			<g>
				<path d="M706.467,687.15c8.67-0.972,17.33-2.029,26-3c3.801-0.427,3.842-6.431,0-6c-8.67,0.971-17.33,2.028-26,3
					C702.666,681.576,702.625,687.58,706.467,687.15L706.467,687.15z"/>
			</g>
		</g>
		<g>
			<g>
				<path d="M719.467,667.15c0.069,18.021,1.93,35.979,2,54c0.015,3.868,6,3.868,6,0c0-1.667,0-3.333,0-5c0-3.869-6-3.869-6,0
					c0,1.667,0,3.333,0,5c2,0,4,0,6,0c-0.07-18.021-1.931-35.979-2-54C725.451,663.282,719.451,663.28,719.467,667.15
					L719.467,667.15z"/>
			</g>
		</g>
		<g>
			<g>
				<path d="M719.875,682.637c-3.793,5.936-5.642,13.193-10.529,18.394c-2.648,2.814,1.587,7.065,4.242,4.242
					c5.311-5.646,7.362-13.185,11.47-19.607C727.147,682.394,721.952,679.388,719.875,682.637L719.875,682.637z"/>
			</g>
		</g>
		<g>
			<g>
				<path d="M726.346,696.271c4.297,5.189,9.983,8.869,16.919,7.771c3.813-0.604,2.188-6.385-1.596-5.785
					c-4.6,0.729-8.408-3.002-11.081-6.229C728.117,689.046,723.897,693.315,726.346,696.271L726.346,696.271z"/>
			</g>
		</g>
		<g>
			<g>
				<path d="M741.573,656.353c-1.108,5.888-3.668,11.162-6.698,16.284c-1.975,3.338,3.214,6.354,5.183,3.027
					c3.271-5.528,6.104-11.361,7.302-17.716C748.072,654.167,742.289,652.554,741.573,656.353L741.573,656.353z"/>
			</g>
		</g>
		<g>
			<g>
				<path d="M750.265,668.043c3.034-0.712,6.138-0.013,9.202,0.107c-1-1-2-2-3-3c0.539,12.318-10.074,22.79-18.121,30.879
					c-2.73,2.744,1.511,6.987,4.242,4.242c9.199-9.247,20.492-21.089,19.879-35.121c-0.073-1.685-1.312-2.935-3-3
					c-3.68-0.145-7.16-0.747-10.798,0.106C744.903,663.142,746.5,668.927,750.265,668.043L750.265,668.043z"/>
			</g>
		</g>
		<g>
			<g>
				<path d="M739.265,686.043c5.182-1.108,10.092-3.038,15-5c3.547-1.417,2.001-7.223-1.596-5.785c-4.907,1.961-9.817,3.892-15,5
					C733.887,681.066,735.49,686.851,739.265,686.043L739.265,686.043z"/>
			</g>
		</g>
		<g>
			<g>
				<path d="M759.875,677.637c-2.878,4.666-6.675,8.535-10.529,12.394c-2.738,2.737,1.505,6.98,4.242,4.242
					c4.215-4.217,8.324-8.509,11.47-13.607C767.094,677.361,761.902,674.351,759.875,677.637L759.875,677.637z"/>
			</g>
		</g>
		<g>
			<g>
				<path d="M764.669,686.043c2.913,0.542,4.859,1.193,3.953,4.38c-0.945,3.325-3.636,6.323-5.861,8.853
					c-4.421,5.021-9.829,10.158-15.809,13.284c-3.43,1.795-0.396,6.973,3.027,5.183c8.691-4.546,39.863-33.1,16.284-37.483
					C762.483,679.555,760.867,685.336,764.669,686.043L764.669,686.043z"/>
			</g>
		</g>
		<g>
			<g>
				<path d="M753.467,699.15c3,0,6,0,9,0c3.869,0,3.869-6,0-6c-3,0-6,0-9,0C749.598,693.15,749.598,699.15,753.467,699.15
					L753.467,699.15z"/>
			</g>
		</g>
		<g>
			<g>
				<path d="M788.265,671.043c6.342-0.972,12.804-0.891,19.202-0.893c3.869-0.001,3.869-6.001,0-6
					c-6.964,0.002-13.899,0.05-20.798,1.106C782.854,665.842,784.48,671.623,788.265,671.043L788.265,671.043z"/>
			</g>
		</g>
		<g>
			<g>
				<path d="M790.467,687.15c4.354-0.069,8.641-0.943,13-1c3.865-0.051,3.871-6.051,0-6c-4.359,0.057-8.646,0.931-13,1
					C786.602,681.212,786.596,687.212,790.467,687.15L790.467,687.15z"/>
			</g>
		</g>
		<g>
			<g>
				<path d="M788.573,685.353c-2.033,7.109-4.142,14.172-7,21c-0.889,2.123,1.69,4.345,3.69,3.69c6.311-2.061,12.799-3.611,19-6
					c3.57-1.375,2.021-7.179-1.596-5.785c-6.2,2.389-12.688,3.939-19,6c1.229,1.229,2.461,2.46,3.689,3.69
					c2.859-6.829,4.967-13.893,7-21C795.426,683.22,789.636,681.64,788.573,685.353L788.573,685.353z"/>
			</g>
		</g>
		<g>
			<g>
				<path d="M801.467,695.15c0.132,5.053,2.352,9.64,6.485,12.591c3.156,2.253,6.147-2.954,3.027-5.183
					c-2.338-1.669-3.441-4.629-3.514-7.408C807.365,691.289,801.365,691.279,801.467,695.15L801.467,695.15z"/>
			</g>
		</g>
		<g>
			<g>
				<path d="M779.875,686.664c2.858,4.655,9.51,1.908,13.39,0.379c1.52-0.599,2.563-1.986,2.095-3.69
					c-0.398-1.448-2.166-2.694-3.689-2.095c-1.695,0.668-3.4,1.288-5.169,1.739c-0.571,0.146-1.109,0.225-1.695,0.243
					c-0.855,0.028-0.049-0.097,0.253,0.396C783.036,680.346,777.846,683.357,779.875,686.664L779.875,686.664z"/>
			</g>
		</g>
		<g>
			<g>
				<path d="M814.98,683.741c7.843-3.549,28.192-10.61,29.545,4.04c0.39,4.226-4.886,27.663-11.545,23.777
					c-3.349-1.952-6.367,3.233-3.027,5.183c13.563,7.911,20.518-19.665,20.599-28.271c0.07-7.654-5.767-13.77-12.977-15.206
					c-8.624-1.72-17.9,1.802-25.622,5.294C808.432,680.153,811.485,685.322,814.98,683.741L814.98,683.741z"/>
			</g>
		</g>
		<g>
			<g>
				<path d="M828.573,657.353c-4.357,17.979-11.835,35.164-13.106,53.799c-0.265,3.863,5.737,3.839,6,0
					c1.231-18.04,8.672-34.791,12.893-52.202C835.271,655.188,829.485,653.594,828.573,657.353L828.573,657.353z"/>
			</g>
		</g>
		<g>
			<g>
				<path d="M90.467,797.15c1.186,12.21,0.224,24.591-0.013,36.825c-0.198,10.211-1.017,22.179,3.423,31.688
					c1.635,3.504,6.806,0.455,5.181-3.027c-4.084-8.752-2.758-20.713-2.576-30.063c0.229-11.775,1.127-23.671-0.014-35.422
					C96.096,793.336,90.093,793.299,90.467,797.15L90.467,797.15z"/>
			</g>
		</g>
		<g>
			<g>
				<path d="M95.467,806.15c41.091,0.981,82.044-2.616,123.104-3.12c34.094-0.418,69.161,4.147,102.692-3.987
					c3.759-0.912,2.165-6.697-1.595-5.785c-33.417,8.108-68.65,3.374-102.644,3.792c-40.549,0.497-80.979,4.071-121.56,3.102
					C91.595,800.058,91.604,806.058,95.467,806.15L95.467,806.15z"/>
			</g>
		</g>
		<g>
			<g>
				<path d="M314.467,800.15c2.849,26.577-2.732,53.26,1.106,79.798c0.553,3.816,6.333,2.188,5.785-1.597
					c-3.757-25.964,1.897-52.175-0.893-78.201C320.059,796.345,314.055,796.305,314.467,800.15L314.467,800.15z"/>
			</g>
		</g>
		<g>
			<g>
				<path d="M108.467,878.15c66.33-1.005,132.661-1.99,199-2c3.869-0.001,3.869-6.001,0-6c-66.339,0.01-132.67,0.995-199,2
					C104.602,872.209,104.596,878.209,108.467,878.15L108.467,878.15z"/>
			</g>
		</g>
		<g>
			<g>
				<path d="M174.467,833.15c0.2,2.554,1.539,6.081,0.41,8.485c-0.736,1.567-0.277,4.084,1.793,4.406
					c19.491,3.04,39.323,0.37,58.595-3c3.807-0.665,2.188-6.447-1.595-5.785c-18.118,3.168-37.065,5.86-55.405,3
					c0.598,1.469,1.195,2.938,1.793,4.406c1.911-4.07,0.745-7.232,0.41-11.514C180.167,829.319,174.165,829.29,174.467,833.15
					L174.467,833.15z"/>
			</g>
		</g>
		<g>
			<g>
				<path d="M232.467,826.15c0.063,5.618,0.798,11.333,2.107,16.798c0.9,3.762,6.686,2.166,5.784-1.597
					c-1.188-4.968-1.835-10.095-1.893-15.201C238.423,822.284,232.423,822.279,232.467,826.15L232.467,826.15z"/>
			</g>
		</g>
		<g>
			<g>
				<path d="M389.264,828.043c5.811-1.417,11.688-2.533,17.47-4.075c4.165-1.109,9.818-2.425,12.323-6.304
					c2.105-3.261-3.09-6.266-5.181-3.027c-1.714,2.651-8.425,3.479-11.2,4.188c-4.974,1.271-10.022,2.216-15.007,3.433
					C383.911,823.174,385.506,828.96,389.264,828.043L389.264,828.043z"/>
			</g>
		</g>
		<g>
			<g>
				<path d="M400.876,809.664c4.953,7.604,5.06,17.31,4.954,26.086c-0.113,9.481-1.298,18.918-1.363,28.4
					c1.964-0.267,3.929-0.531,5.893-0.798c-1.377-4.098-4.615-6.844-6.302-10.717c-1.542-3.54-6.709-0.481-5.181,3.027
					c1.472,3.379,4.508,5.747,5.697,9.284c1.063,3.159,5.868,2.687,5.894-0.798c0.126-18.107,6.192-41.238-4.41-57.515
					C403.954,803.408,398.757,806.412,400.876,809.664L400.876,809.664z"/>
			</g>
		</g>
		<g>
			<g>
				<path d="M394.588,851.271c6.008-6.506,15.239-7.716,22.393-12.529c3.191-2.148,0.192-7.35-3.028-5.183
					c-7.643,5.146-17.151,6.479-23.606,13.471C387.726,849.866,391.957,854.12,394.588,851.271L394.588,851.271z"/>
			</g>
		</g>
		<g>
			<g>
				<path d="M425.573,804.948c0.564,1.915,0.145,3.625-1.229,5.081c-2.652,2.813,1.583,7.063,4.242,4.241
					c2.808-2.978,3.94-6.949,2.771-10.919C430.269,799.65,424.478,801.228,425.573,804.948L425.573,804.948z"/>
			</g>
		</g>
		<g>
			<g>
				<path d="M424.264,815.043c9.132-3.003,18.736-5.661,28.405-4c-0.441-1.671-0.884-3.343-1.324-5.014
					c-2.65,3.226-5.668,5.108-9.676,6.229c-3.723,1.038-2.14,6.827,1.595,5.785c4.942-1.379,9.047-3.782,12.324-7.771
					c1.276-1.555,1.118-4.595-1.324-5.015c-10.831-1.86-21.316,0.62-31.595,4C419.011,810.46,420.577,816.256,424.264,815.043
					L424.264,815.043z"/>
			</g>
		</g>
		<g>
			<g>
				<path d="M428.876,817.637c-3.984,5.895-8.53,11.336-13.531,16.394c-2.724,2.752,1.519,6.996,4.242,4.242
					c5.354-5.414,10.204-11.298,14.469-17.607C436.23,817.449,431.03,814.45,428.876,817.637L428.876,817.637z"/>
			</g>
		</g>
		<g>
			<g>
				<path d="M431.467,828.15c1.751,0.021,6.566,0.128,7.41,1.514c2.006,3.301,7.195,0.288,5.181-3.027
					c-2.403-3.955-8.452-4.438-12.59-4.485C427.596,822.104,427.601,828.104,431.467,828.15L431.467,828.15z"/>
			</g>
		</g>
		<g>
			<g>
				<path d="M428.981,840.741c2.75-1.699,5.249-2.473,8.486-2.591c-0.964-1.267-1.93-2.531-2.894-3.798
					c-1.35,7.808-7.44,13.301-10.698,20.283c-0.918,1.969,0.146,4.566,2.591,4.515c9.33-0.203,18.113-2.883,26.797-6.107
					c3.594-1.335,2.04-7.136-1.595-5.785c-8.17,3.034-16.414,5.701-25.203,5.894c0.862,1.505,1.727,3.01,2.59,4.514
					c3.489-7.481,9.852-13.323,11.302-21.716c0.317-1.836-0.792-3.876-2.893-3.798c-4.247,0.156-7.893,1.172-11.515,3.408
					C422.668,837.589,425.679,842.78,428.981,840.741L428.981,840.741z"/>
			</g>
		</g>
		<g>
			<g>
				<path d="M462.346,812.271c2.364,2.493,4.073,5.974,2.531,9.365c-1.59,3.493,3.58,6.546,5.181,3.027
					c2.723-5.986,0.938-11.987-3.469-16.635C463.921,805.217,459.685,809.467,462.346,812.271L462.346,812.271z"/>
			</g>
		</g>
		<g>
			<g>
				<path d="M470.981,827.741c5.569-2.782,11.122-5.528,17.283-6.698c3.799-0.721,2.186-6.504-1.595-5.785
					c-6.646,1.263-12.713,4.304-18.718,7.302C464.49,824.289,467.53,829.464,470.981,827.741L470.981,827.741z"/>
			</g>
		</g>
		<g>
			<g>
				<path d="M471.981,837.741c7.341-3.115,14.818-5.897,22.283-8.698c3.588-1.346,2.035-7.146-1.595-5.785
					c-7.953,2.982-15.896,5.983-23.718,9.302C465.401,834.067,468.462,839.234,471.981,837.741L471.981,837.741z"/>
			</g>
		</g>
		<g>
			<g>
				<path d="M478.573,811.948c1.861,9.156,4.037,18.226,5.449,27.471c0.751,4.921,1.278,9.932,1.089,14.915
					c-0.058,1.517-0.195,3.227-0.837,4.626c-0.48,1.048-0.521,0.875-2.01,0.298c-3.613-1.399-5.163,4.403-1.595,5.785
					c11.449,4.438,10.701-13.132,10.12-19.458c-1.095-11.923-4.052-23.532-6.431-35.232
					C483.589,806.563,477.806,808.171,478.573,811.948L478.573,811.948z"/>
			</g>
		</g>
		<g>
			<g>
				<path d="M467.573,850.353c-0.604,3.128-1.4,4.113,0.771,6.92c0.861,1.113,2.522,0.989,3.635,0.47
					c7.13-3.34,13.624-9.202,21.672-10.141c2.878-0.335,9.73,0.58,10.918,3.91c0.883,2.477-8.269,2.683-9.104,2.64
					c-3.869-0.2-3.85,5.801,0,6c4.711,0.243,10.796-0.471,13.753-4.696c2.433-3.477,1.158-7.609-2.127-10.015
					c-13.355-9.777-26.093,1.479-38.141,7.119c1.212,0.157,2.424,0.313,3.636,0.471c-0.307,1.545-0.214,1.754,0.276,0.627
					c0.283-0.533,0.448-1.104,0.494-1.708C474.091,848.168,468.309,846.557,467.573,850.353L467.573,850.353z"/>
			</g>
		</g>
		<g>
			<g>
				<path d="M507.573,825.948c1.057,6.396,2.024,12.808,4,19c1.171,3.671,6.965,2.102,5.785-1.597c-1.976-6.19-2.942-12.604-4-19
					C512.73,820.542,506.948,822.164,507.573,825.948L507.573,825.948z"/>
			</g>
		</g>
		<g>
			<g>
				<path d="M528.875,803.664c5.056,11.195,5.997,24.967,6.433,37.054c0.244,6.768,0.034,13.626-1.143,20.305
					c-0.801,4.55-2.139,10.719-6.214,13.537c-3.158,2.187-0.163,7.39,3.028,5.183c10.669-7.381,10.512-25.208,10.384-36.661
					c-0.155-13.909-1.513-29.608-7.308-42.443C532.467,797.114,527.297,800.168,528.875,803.664L528.875,803.664z"/>
			</g>
		</g>
		<g>
			<g>
				<path d="M574.573,808.948c2.496,13.632-5.707,28.225-13.698,38.688c-2.35,3.076,2.866,6.06,5.182,3.027
					c9.111-11.932,17.119-27.928,14.302-43.313C579.663,803.551,573.881,805.166,574.573,808.948L574.573,808.948z"/>
			</g>
		</g>
		<g>
			<g>
				<path d="M585.952,834.741c9.955,6.966,19.953,13.855,31,19c3.51,1.634,6.214-2.95,3.028-5.183c-2.347-1.644-4.513-3.566-7-5
					c-3.359-1.935-6.379,3.251-3.028,5.183c2.484,1.431,4.653,3.355,7,5c1.01-1.729,2.02-3.454,3.028-5.183
					c-11.047-5.143-21.045-12.033-31-19C585.802,827.336,582.808,832.54,585.952,834.741L585.952,834.741z"/>
			</g>
		</g>
		<g>
			<g>
				<path d="M631.467,804.15c-0.245,7.127-4.292,12.938-9.121,17.879c-2.706,2.768,1.534,7.013,4.242,4.242
					c5.977-6.114,10.578-13.364,10.879-22.121C637.6,800.279,631.599,800.292,631.467,804.15L631.467,804.15z"/>
			</g>
		</g>
		<g>
			<g>
				<path d="M639.264,817.043c4.374-0.811,9.046-0.991,13.405,0c3.767,0.857,5.366-4.928,1.595-5.785
					c-5.46-1.242-11.118-1.016-16.595,0C633.867,811.962,635.483,817.744,639.264,817.043L639.264,817.043z"/>
			</g>
		</g>
		<g>
			<g>
				<path d="M634.264,832.043c7.881-2.056,15.396-5.125,23-8c3.583-1.354,2.031-7.156-1.595-5.785c-7.605,2.874-15.12,5.943-23,8
					C628.928,827.233,630.517,833.021,634.264,832.043L634.264,832.043z"/>
			</g>
		</g>
		<g>
			<g>
				<path d="M638.467,804.15c-1.173,13.584-4.911,29.425-0.894,42.798c1.11,3.694,6.902,2.12,5.785-1.597
					c-1.827-6.078-1.265-12.825-0.893-19.076c0.439-7.395,1.362-14.748,2-22.125C644.8,800.294,638.797,800.326,638.467,804.15
					L638.467,804.15z"/>
			</g>
		</g>
		<g>
			<g>
				<path d="M655.467,800.15c-1.003,8.559-2.706,17.227-7.59,24.485c-2.168,3.221,3.033,6.22,5.181,3.027
					c5.49-8.158,7.285-17.914,8.41-27.514C661.916,796.312,655.911,796.354,655.467,800.15L655.467,800.15z"/>
			</g>
		</g>
		<g>
			<g>
				<path d="M663.981,808.741c5.38-2.313,12.675-4.229,16.077,1.927c3.19,5.776,1.977,14.055,0.836,20.2
					c-1.387,7.469-3.838,14.914-7.538,21.563c-1.239,2.227-2.662,4.369-4.601,6.047c-0.436,0.377-1.282,0.627-1.037,0.604
					c-0.185,0.017-0.174,0.225-0.662-0.445c-2.251-3.097-7.461-0.106-5.181,3.027c11.399,15.676,23.369-22.203,24.661-28.481
					c1.722-8.362,2.831-18.736-1.8-26.408c-5.254-8.703-15.958-6.579-23.786-3.215C657.406,805.084,660.467,810.252,663.981,808.741
					L663.981,808.741z"/>
			</g>
		</g>
		<g>
			<g>
				<path d="M666.573,817.353c-1.967,5.713-4.625,11.093-7.698,16.284c-1.976,3.337,3.213,6.354,5.182,3.027
					c3.335-5.633,6.17-11.522,8.302-17.716C673.622,815.279,667.825,813.717,666.573,817.353L666.573,817.353z"/>
			</g>
		</g>
		<g>
			<g>
				<path d="M670.875,825.637c-3.378,5.524-7.387,10.631-11,16c-2.166,3.221,3.033,6.22,5.182,3.027c3.613-5.368,7.623-10.475,11-16
					C678.08,825.354,672.891,822.342,670.875,825.637L670.875,825.637z"/>
			</g>
		</g>
		<g>
			<g>
				<path d="M710.265,814.043c6.212-1.715,12.648-2.741,18.99-3.845c3.366-0.587,6.74-1.129,10.124-1.617
					c1.205-0.174,2.414-0.32,3.625-0.445c2.887-0.299,1.496,0.745-0.128-1.472c2.262,3.087,7.472,0.099,5.182-3.027
					c-2.786-3.803-12.435-0.538-16.097,0.054c-7.771,1.254-15.693,2.471-23.292,4.567
					C704.944,809.286,706.528,815.074,710.265,814.043L710.265,814.043z"/>
			</g>
		</g>
		<g>
			<g>
				<path d="M726.875,806.637c-7.103,10.246-13.8,21.35-16.302,33.716c-0.303,1.495,0.409,3.375,2.095,3.69
					c10.762,2.019,22.054,2.275,32.597-1c3.683-1.144,2.109-6.937-1.597-5.785c-9.497,2.95-19.694,2.82-29.403,1
					c0.698,1.229,1.396,2.46,2.095,3.69c2.406-11.893,8.869-22.434,15.698-32.284C734.268,806.476,729.064,803.479,726.875,806.637
					L726.875,806.637z"/>
			</g>
		</g>
		<g>
			<g>
				<path d="M722.467,827.15c3.903-0.066,26.414-1.574,21.305,7.247c-4.868,8.405-15.183,14.599-22.818,20.161
					c-3.094,2.256-0.104,7.465,3.027,5.183c5.752-4.191,11.482-8.443,16.813-13.168c3.89-3.448,8.025-7.487,9.697-12.543
					c4.565-13.81-21.286-12.995-28.022-12.88C718.602,821.217,718.596,827.217,722.467,827.15L722.467,827.15z"/>
			</g>
		</g>
		<g>
			<g>
				<path d="M706.467,862.15c18.675-0.18,37.611-5.908,56.202-2.107c3.775,0.772,5.385-5.011,1.596-5.785
					c-19.248-3.936-38.484,1.707-57.798,1.894C702.6,856.188,702.596,862.188,706.467,862.15L706.467,862.15z"/>
			</g>
		</g>
		<g>
			<g>
				<path d="M786.467,805.15c5,0,10,0,15,0c3.869,0,3.869-6,0-6c-5,0-10,0-15,0C782.598,799.15,782.598,805.15,786.467,805.15
					L786.467,805.15z"/>
			</g>
		</g>
		<g>
			<g>
				<path d="M772.467,826.15c11.674-1.025,23.259-2.899,35-3c3.867-0.033,3.87-6.033,0-6c-11.741,0.101-23.326,1.975-35,3
					C768.644,820.486,768.611,826.489,772.467,826.15L772.467,826.15z"/>
			</g>
		</g>
		<g>
			<g>
				<path d="M789.875,823.637c-4.345,6.524-8.246,13.087-10.302,20.716c-0.499,1.853,0.929,3.842,2.894,3.799
					c8.775-0.193,16.337-3.413,23.121-8.879c3.014-2.429-1.261-6.646-4.242-4.242c-5.5,4.431-11.792,6.965-18.879,7.121
					c0.964,1.266,1.929,2.53,2.893,3.798c1.923-7.136,5.64-13.19,9.698-19.284C797.209,823.434,792.01,820.434,789.875,823.637
					L789.875,823.637z"/>
			</g>
		</g>
		<g>
			<g>
				<path d="M801.573,836.948c0.543,2.16,1.092,4.449,2.578,6.174c0.962,1.116,2.468,1.386,3.84,1.111
					c1.354-0.271,2.334-1.512,3.065-2.569c0.931-1.347,0.253-3.325-1.077-4.104c-1.491-0.873-3.176-0.266-4.104,1.077
					c-0.204,0.291-0.187,0.272,0.057-0.055c-0.081,0.096-0.168,0.188-0.26,0.271c0.404-0.286,0.484-0.353,0.239-0.197
					c0.327-0.192,0.683-0.288,1.063-0.287c0.392-0.002,0.759,0.092,1.101,0.283c0.436,0.364,0.541,0.439,0.32,0.228
					c0.629,0.63,0.188,0.245,0.026-0.046c-0.06-0.11-0.114-0.224-0.166-0.338c0.166,0.406,0.187,0.451,0.063,0.136
					c-0.114-0.294-0.21-0.595-0.306-0.895c-0.251-0.785-0.452-1.586-0.653-2.385c-0.398-1.586-2.141-2.521-3.689-2.096
					C802.067,833.698,801.176,835.363,801.573,836.948L801.573,836.948z"/>
			</g>
		</g>
		<g>
			<g>
				<path d="M810.98,823.741c11.521-6.009,32.308-9.03,32.049,9.463c-0.103,7.363-5.418,30.564-16.44,20.825
					c-2.889-2.552-7.147,1.676-4.242,4.242c16.313,14.413,25.825-11.212,26.647-24.183c0.56-8.785-3.3-16.418-11.59-19.868
					c-9.275-3.858-21.089-0.022-29.451,4.339C804.521,820.35,807.555,825.527,810.98,823.741L810.98,823.741z"/>
			</g>
		</g>
		<g>
			<g>
				<path d="M828.573,801.353c-5.164,20.113-14.272,38.812-22,58c-1.445,3.593,4.359,5.139,5.785,1.597
					c7.728-19.189,16.836-37.888,22-58C835.322,799.197,829.534,797.607,828.573,801.353L828.573,801.353z"/>
			</g>
		</g>
	</g>
	<g id="图层_5">
	</g>
	<g id="图层_3">
	</g>
</g>
</svg>
