<?xml version="1.0" encoding="utf-8"?>
<!-- Generator: Adobe Illustrator 16.2.0, SVG Export Plug-In . SVG Version: 6.00 Build 0)  -->
<!DOCTYPE svg PUBLIC "-//W3C//DTD SVG 1.0//EN" "http://www.w3.org/TR/2001/REC-SVG-20010904/DTD/svg10.dtd">
<svg version="1.0" xmlns="http://www.w3.org/2000/svg" xmlns:xlink="http://www.w3.org/1999/xlink" x="0px" y="0px" width="960px"
	 height="560px" viewBox="0 0 960 560" enable-background="new 0 0 960 560" xml:space="preserve">
<g id="图层_1">
	<g>
		<rect x="7" y="6" fill="#FFFFFF" width="951" height="550"/>
		<g>
			<path d="M958,551c-16.936,0-33.87,0-50.806,0c-43.824,0-87.647,0-131.472,0c-60.24,0-120.479,0-180.72,0
				c-66.183,0-132.366,0-198.549,0c-61.654,0-123.308,0-184.961,0c-46.652,0-93.303,0-139.955,0c-21.177,0-42.354,0-63.53,0
				c-0.336,0-0.672,0-1.008,0c1.667,1.667,3.333,3.333,5,5c0-27.1,0-54.198,0-81.298c0-60.402,0-120.804,0-181.206
				c0-62.361,0-124.722,0-187.083c0-32.976,0-65.952,0-98.929C12,6.99,12,6.495,12,6c-1.667,1.667-3.333,3.333-5,5
				c16.935,0,33.871,0,50.806,0c43.824,0,87.648,0,131.472,0c60.24,0,120.479,0,180.719,0c66.183,0,132.367,0,198.549,0
				c61.653,0,123.308,0,184.961,0c46.651,0,93.303,0,139.955,0c21.177,0,42.353,0,63.529,0c0.337,0,0.673,0,1.009,0
				c-1.667-1.667-3.333-3.333-5-5c0,27.099,0,54.199,0,81.298c0,60.402,0,120.804,0,181.206c0,62.361,0,124.722,0,187.083
				c0,32.976,0,65.952,0,98.929c0,0.495,0,0.989,0,1.484c0,6.448,10,6.448,10,0c0-27.1,0-54.198,0-81.298
				c0-60.402,0-120.804,0-181.206c0-62.361,0-124.722,0-187.083c0-32.976,0-65.952,0-98.929c0-0.495,0-0.99,0-1.484
				c0-2.726-2.274-5-5-5c-16.936,0-33.87,0-50.806,0c-43.824,0-87.647,0-131.472,0c-60.24,0-120.479,0-180.72,0
				C528.82,1,462.637,1,396.454,1C334.8,1,273.146,1,211.493,1C164.841,1,118.19,1,71.539,1C50.362,1,29.185,1,8.008,1
				C7.672,1,7.336,1,7,1C4.274,1,2,3.274,2,6c0,27.099,0,54.199,0,81.298C2,147.7,2,208.102,2,268.504c0,62.361,0,124.722,0,187.083
				c0,32.976,0,65.952,0,98.929c0,0.495,0,0.989,0,1.484c0,2.726,2.274,5,5,5c16.935,0,33.871,0,50.806,0
				c43.824,0,87.648,0,131.472,0c60.24,0,120.479,0,180.719,0c66.183,0,132.367,0,198.549,0c61.653,0,123.308,0,184.961,0
				c46.651,0,93.303,0,139.955,0c21.177,0,42.353,0,63.529,0c0.337,0,0.673,0,1.009,0C964.448,561,964.448,551,958,551z"/>
		</g>
	</g>
	<g>
		<g>
			<path d="M79.733,76.796c-2.112,15.311-1.186,37.467-15.105,47.658c-3.087,2.26-0.099,7.47,3.028,5.181
				c15.869-11.618,15.435-33.641,17.863-51.244C86.041,74.609,80.26,72.977,79.733,76.796L79.733,76.796z"/>
		</g>
	</g>
	<g>
		<g>
			<path d="M85.239,98.865c4.598-2.188,9.709-3.1,14.668-4.094c3.792-0.76,2.183-6.542-1.595-5.785
				c-5.522,1.106-10.987,2.264-16.102,4.698C78.719,95.347,81.765,100.519,85.239,98.865L85.239,98.865z"/>
		</g>
	</g>
	<g>
		<g>
			<path d="M82.703,107.187c3.066,2.809,6.938,3.074,10.912,3.077c3.869,0.003,3.869-5.997,0-6c-2.167-0.001-4.948,0.258-6.67-1.319
				C84.099,100.337,79.844,104.569,82.703,107.187L82.703,107.187z"/>
		</g>
	</g>
	<g>
		<g>
			<path d="M102.703,80.89c-0.229,10.432-4.209,19.857-8.381,29.255c-1.555,3.503,3.614,6.559,5.181,3.028
				c4.61-10.384,8.948-20.755,9.201-32.283C108.788,77.019,102.788,77.027,102.703,80.89L102.703,80.89z"/>
		</g>
	</g>
	<g>
		<g>
			<path d="M106.5,98.068c5.931-0.93,11.895-0.989,17.884-0.991c3.869-0.001,3.869-6.001,0-6c-6.546,0.002-13.001,0.19-19.479,1.206
				C101.092,92.881,102.717,98.662,106.5,98.068L106.5,98.068z"/>
		</g>
	</g>
	<g>
		<g>
			<path d="M109,105.868c3.297,0,6.593,0,9.89,0c3.869,0,3.869-6,0-6c-3.297,0-6.593,0-9.89,0
				C105.131,99.868,105.131,105.868,109,105.868L109,105.868z"/>
		</g>
	</g>
	<g>
		<g>
			<path d="M86.338,126.337c10.409-6.02,21.713-8.212,33.65-7.283c-0.964-1.266-1.929-2.532-2.893-3.797
				c-1.497,9.389-12.003,13.592-19.882,16.586c-3.58,1.36-2.028,7.162,1.595,5.785c9.787-3.719,22.219-9.146,24.074-20.777
				c0.321-2.017-0.802-3.635-2.893-3.797c-12.939-1.007-25.418,1.59-36.679,8.102C79.963,123.092,82.982,128.278,86.338,126.337
				L86.338,126.337z"/>
		</g>
	</g>
	<g>
		<g>
			<path d="M86.72,140.926c8.368-3.096,16.907-5.695,25.275-8.791c3.596-1.331,2.042-7.131-1.595-5.786
				c-8.368,3.097-16.907,5.696-25.275,8.792C81.529,136.471,83.083,142.271,86.72,140.926L86.72,140.926z"/>
		</g>
	</g>
	<g>
		<g>
			<path d="M85.531,138.717c-3.394,5.987-4.707,12.254-4.806,19.096c-0.05,3.437,4.951,4.02,5.893,0.797
				c2.69-9.199,14.772-11.882,22.974-13.32c4.284-0.751,8.651-0.993,12.994-0.944c3.229,0.036,9.516,0.015,11.634,3.138
				c2.892,4.265-7.743,12.134-10.26,13.994c-6.428,4.75-14.536,9.208-22.651,9.818c-3.833,0.288-3.861,6.291,0,6
				c10.579-0.795,20.554-6.492,28.706-12.958c5.311-4.212,14.07-12.975,9.075-20.341c-5.666-8.356-21.596-5.881-29.944-4.676
				c-10.884,1.571-24.86,5.889-28.313,17.694c1.964,0.266,3.929,0.532,5.893,0.797c0.084-5.8,1.105-10.985,3.986-16.068
				C92.623,138.375,87.438,135.352,85.531,138.717L85.531,138.717z"/>
		</g>
	</g>
	<g>
		<g>
			<path d="M98.088,123.67c14.732,18.612,8.304,45.039,12.415,66.808c1.828-0.771,3.656-1.541,5.483-2.312
				c-2.31-3.597-4.283-7.392-6.593-10.989c-2.083-3.244-7.278-0.238-5.181,3.028c2.31,3.597,4.283,7.392,6.593,10.989
				c1.896,2.952,6.109,1.001,5.483-2.312c-4.427-23.445,1.979-49.322-13.958-69.456C99.93,116.395,95.714,120.672,98.088,123.67
				L98.088,123.67z"/>
		</g>
	</g>
	<g>
		<g>
			<path d="M101.384,148c-8.214,8.454-14.172,21.909-26.149,25.602c-3.686,1.137-2.113,6.929,1.595,5.786
				c13.453-4.147,19.606-17.685,28.796-27.146C108.323,149.467,104.084,145.221,101.384,148L101.384,148z"/>
		</g>
	</g>
	<g>
		<g>
			<path d="M157.755,117.951c3.136,16.083,4.363,32.425,6.486,48.653c0.486,3.711,6,3.987,6,0c0-2.564,0-5.128,0-7.692
				c0-3.869-6-3.869-6,0c0,2.564,0,5.128,0,7.692c2,0,4,0,6,0c-2.193-16.759-3.462-33.639-6.7-50.248
				C162.801,112.561,157.019,114.172,157.755,117.951L157.755,117.951z"/>
		</g>
	</g>
	<g>
		<g>
			<path d="M166.143,115.758c9.442,0.409,18.769-2.433,27.975-4.12c8.87-1.625,20.027-2.658,24.834,6.748
				c3.091,6.049,2.301,15.446,2.158,21.982c-0.092,4.187-0.426,8.383-1.191,12.502c-0.33,1.778-0.799,5.705-2.542,6.749
				c-3.314,1.985-0.299,7.174,3.028,5.181c5.931-3.553,6.07-14.098,6.503-20.064c0.644-8.874,0.814-19.087-2.053-27.634
				c-7.972-23.769-42.311-6.634-58.712-7.343C162.272,109.591,162.289,115.592,166.143,115.758L166.143,115.758z"/>
		</g>
	</g>
	<g>
		<g>
			<path d="M185.121,121.549c-0.093,9.639-3.09,21.13,0.107,30.468c1.246,3.639,7.042,2.076,5.786-1.595
				c-1.375-4.017-0.904-8.633-0.717-12.801c0.239-5.36,0.772-10.704,0.824-16.072C191.159,117.679,185.159,117.682,185.121,121.549
				L185.121,121.549z"/>
		</g>
	</g>
	<g>
		<g>
			<path d="M197.316,122.95c-2.033,6.413-0.705,12.674,2.638,18.383c1.661,2.837,4.8,7.479,8.249,8.384
				c3.747,0.983,5.334-4.804,1.595-5.785c0.621,0.163-0.773-0.788-1.131-1.135c-1.379-1.335-2.501-2.881-3.532-4.492
				c-2.699-4.221-3.553-8.965-2.032-13.76C204.274,120.846,198.481,119.275,197.316,122.95L197.316,122.95z"/>
		</g>
	</g>
	<g>
		<g>
			<path d="M182.626,168.505c15,0.879,29.322-4.149,43.654-7.799c3.748-0.955,2.157-6.741-1.595-5.786
				c-13.824,3.521-27.591,8.434-42.06,7.585C178.76,162.279,178.781,168.28,182.626,168.505L182.626,168.505z"/>
		</g>
	</g>
	<g>
		<g>
			<path d="M264.349,78.391c1.053,3.458,0.814,7.008,0,10.493c-0.878,3.764,4.906,5.362,5.786,1.595
				c1.051-4.501,1.361-9.211,0-13.683C269.011,73.105,263.219,74.68,264.349,78.391L264.349,78.391z"/>
		</g>
	</g>
	<g>
		<g>
			<path d="M254.47,102.162c13.917-7.256,29.561-9.193,44.338-13.983c3.665-1.188,2.096-6.982-1.595-5.786
				c-15.299,4.959-31.357,7.073-45.771,14.588C248.01,98.77,251.044,103.948,254.47,102.162L254.47,102.162z"/>
		</g>
	</g>
	<g>
		<g>
			<path d="M261.332,106.557c4.726,3.326,9.977,3.791,15.498,2.5c3.767-0.88,2.169-6.665-1.595-5.785
				c-4.05,0.946-7.432,0.527-10.875-1.896C261.188,99.144,258.195,104.349,261.332,106.557L261.332,106.557z"/>
		</g>
	</g>
	<g>
		<g>
			<path d="M290.396,95.252c-9.777,7.741-18.212,16.954-27.473,25.275c-2.884,2.591,1.374,6.82,4.242,4.242
				c9.261-8.321,17.696-17.534,27.473-25.275C297.67,97.094,293.394,92.878,290.396,95.252L290.396,95.252z"/>
		</g>
	</g>
	<g>
		<g>
			<path d="M248.259,134.332c23.542-8.999,47.322-19.427,72.829-20.771c-0.266-1.964-0.532-3.929-0.797-5.893
				c-3.297,1.099-6.594,2.197-9.89,3.296c-3.652,1.217-2.086,7.013,1.595,5.786c3.297-1.099,6.594-2.198,9.89-3.297
				c3.088-1.029,2.728-6.078-0.797-5.893c-26.118,1.376-50.313,11.77-74.424,20.986
				C243.088,129.914,244.639,135.716,248.259,134.332L248.259,134.332z"/>
		</g>
	</g>
	<g>
		<g>
			<path d="M263.552,139.547c1.968,3.154,2.946,7.051,4.147,10.539c0.893,2.596,1.591,7.39,5,7.638
				c1.441,0.105,2.397-1.021,2.893-2.203c0.131-0.313,0.122-0.668,0.145-1.004c0.262-3.864-5.74-3.839-6,0
				c0.023-0.197,0.046-0.394,0.07-0.59c0.964-0.734,1.928-1.469,2.893-2.203c-0.015-0.001-0.03-0.002-0.045-0.003
				c0.707,0.293,1.414,0.586,2.121,0.879c0.432,0.481,0.329,0.44,0.169,0.03c-0.233-0.601-0.442-1.21-0.657-1.818
				c-0.576-1.636-1.13-3.279-1.7-4.917c-1.088-3.125-2.091-6.55-3.854-9.375C266.69,133.245,261.498,136.254,263.552,139.547
				L263.552,139.547z"/>
		</g>
	</g>
	<g>
		<g>
			<path d="M274.632,140.926c4.169-1.368,8.414-2.457,12.723-3.279c4.355-0.832,11.843-2.28,15.67,0.826
				c7.151,5.804-14.292,10.405-17.9,10.954c-3.815,0.581-2.189,6.362,1.595,5.786c7.708-1.173,29.597-6.221,22.826-18.275
				c-6.467-11.512-27.069-4.895-36.508-1.796C269.378,136.341,270.946,142.136,274.632,140.926L274.632,140.926z"/>
		</g>
	</g>
	<g>
		<g>
			<path d="M279.745,150.513c1.722-0.82,8.841-3.896,9.879-0.694c1.188,3.665,6.982,2.097,5.786-1.595
				c-2.665-8.225-12.866-5.668-18.693-2.892C273.225,146.996,276.271,152.168,279.745,150.513L279.745,150.513z"/>
		</g>
	</g>
	<g>
		<g>
			<path d="M271.637,161.912c8.752-1.169,17.347-3.185,26.072-4.503c3.816-0.576,2.188-6.357-1.595-5.785
				c-8.193,1.237-16.261,3.191-24.478,4.288C267.86,156.417,267.811,162.423,271.637,161.912L271.637,161.912z"/>
		</g>
	</g>
	<g>
		<g>
			<path d="M265.459,179.085c17.553-7.496,36.653-9.797,55.327-12.885c3.413-0.564,2.498-5.893-0.797-5.893
				c-1.832,0-3.663,0-5.494,0c-3.869,0-3.869,6,0,6c1.832,0,3.663,0,5.494,0c-0.266-1.964-0.532-3.929-0.797-5.893
				c-19.283,3.188-38.647,5.754-56.761,13.489C258.882,175.419,261.942,180.587,265.459,179.085L265.459,179.085z"/>
		</g>
	</g>
	<g>
		<g>
			<path d="M286.327,157.512c0.717,4.872,2.479,9.576,3.992,14.242c0.807,2.49,1.585,4.987,2.259,7.517
				c0.308,1.157,0.591,2.344,0.735,3.534c0.29,2.4-0.742,0.83,1.402,0.581c-3.796,0.441-3.839,6.446,0,6
				c6.081-0.706,4.704-7.453,3.649-11.709c-1.81-7.306-5.15-14.283-6.25-21.758C291.551,152.1,285.77,153.729,286.327,157.512
				L286.327,157.512z"/>
		</g>
	</g>
	<g>
		<g>
			<path d="M349.659,121.253c2.931,0,5.861,0,8.792,0c3.869,0,3.869-6,0-6c-2.931,0-5.861,0-8.792,0
				C345.79,115.253,345.79,121.253,349.659,121.253L349.659,121.253z"/>
		</g>
	</g>
	<g>
		<g>
			<path d="M352.159,143.124c3.819,1.194,7.822,1.204,11.786,1.206c3.869,0.001,3.869-5.999,0-6
				c-3.452-0.001-6.866,0.048-10.191-0.992C350.05,136.18,348.479,141.973,352.159,143.124L352.159,143.124z"/>
		</g>
	</g>
	<g>
		<g>
			<path d="M448.168,85.969c-5.32,7.445-10.688,14.827-17.113,21.371c-2.712,2.761,1.528,7.006,4.242,4.242
				c6.779-6.903,12.44-14.731,18.052-22.585C455.604,85.842,450.396,82.851,448.168,85.969L448.168,85.969z"/>
		</g>
	</g>
	<g>
		<g>
			<path d="M422.984,144.223c23.325-7.709,47.283-13.164,71.429-17.583c3.399-0.622,2.507-5.893-0.798-5.893
				c-3.663,0-7.326,0-10.989,0c-3.869,0-3.869,6,0,6c3.663,0,7.326,0,10.989,0c-0.266-1.964-0.531-3.929-0.798-5.893
				c-24.146,4.418-48.103,9.873-71.428,17.582C417.733,139.645,419.3,145.44,422.984,144.223L422.984,144.223z"/>
		</g>
	</g>
	<g>
		<g>
			<path d="M443.772,114.272c4.473,9.859,6.435,21.002,7.365,31.717c0.91,10.474,1.094,22.787-4.069,32.287
				c1.57-0.203,3.141-0.405,4.711-0.607c-3.56-4.491-8.005-8.097-12.088-12.088c-2.767-2.706-7.013,1.534-4.242,4.242
				c4.083,3.991,8.528,7.597,12.088,12.088c1.198,1.512,3.861,0.958,4.711-0.607c5.521-10.161,5.708-22.667,4.993-33.922
				c-0.779-12.274-3.188-24.896-8.29-36.139C447.356,107.725,442.187,110.777,443.772,114.272L443.772,114.272z"/>
		</g>
	</g>
	<g>
		<g>
			<path d="M431.393,165.898c10.736-6.338,22.231-11.244,32.967-17.583c3.328-1.965,0.312-7.152-3.028-5.181
				c-10.736,6.338-22.231,11.245-32.967,17.583C425.036,162.682,428.053,167.87,431.393,165.898L431.393,165.898z"/>
		</g>
	</g>
	<g>
		<g>
			<path d="M461.354,102.185c14.873,24.608,13.942,57.575,36.733,77.53c1.328,1.163,3.853,1.259,4.712-0.607
				c1.31-2.846-0.29-3.946-0.798-6.707c-0.699-3.802-6.48-2.187-5.785,1.595c0.14,0.759,0.518,4.005,1.401,2.084
				c1.571-0.202,3.142-0.405,4.712-0.607c-22.132-19.378-21.271-52.285-35.795-76.316
				C464.537,95.851,459.348,98.864,461.354,102.185L461.354,102.185z"/>
		</g>
	</g>
	<g>
		<g>
			<path d="M493.223,132.123c-4.73,7.363-11.735,35.521-24.467,29.693c-3.491-1.598-6.543,3.572-3.028,5.181
				c19.19,8.783,25.425-20.56,32.677-31.846C500.502,131.886,495.307,128.88,493.223,132.123L493.223,132.123z"/>
		</g>
	</g>
	<g>
		<g>
			<path d="M470.84,103.563c6.6,2.276,12.83,5.374,19.064,8.488c3.45,1.724,6.489-3.451,3.027-5.181
				c-6.695-3.345-13.41-6.649-20.497-9.094C468.767,96.512,467.205,102.31,470.84,103.563L470.84,103.563z"/>
		</g>
	</g>
	<g>
		<g>
			<path d="M524.682,94.077c-0.396,10.184-9.78,16.897-14.976,24.859c-2.121,3.251,3.076,6.254,5.182,3.028
				c6.017-9.222,15.332-16.03,15.794-27.888C530.832,90.207,524.832,90.221,524.682,94.077L524.682,94.077z"/>
		</g>
	</g>
	<g>
		<g>
			<path d="M524.682,119.352c0,15.385,0,30.769,0,46.154c1.964-0.266,3.929-0.532,5.893-0.797c-0.992-2.502-1.206-5.19-2.198-7.692
				c-1.408-3.553-7.213-2.006-5.785,1.595c0.992,2.503,1.205,5.19,2.198,7.692c1.191,3.002,5.893,2.804,5.893-0.797
				c0-15.385,0-30.769,0-46.154C530.682,115.482,524.682,115.482,524.682,119.352L524.682,119.352z"/>
		</g>
	</g>
	<g>
		<g>
			<path d="M533.974,112.354c5.082-1.96,10.228-3.111,15.686-3.189c3.866-0.055,3.871-6.055,0-6
				c-5.968,0.085-11.717,1.257-17.281,3.403C528.808,107.946,530.357,113.749,533.974,112.354L533.974,112.354z"/>
		</g>
	</g>
	<g>
		<g>
			<path d="M542.264,125.945c0.985,8.406,1.097,16.821,1.099,25.275c0.001,3.869,6.001,3.869,6,0
				c-0.002-8.454-0.113-16.869-1.099-25.275C547.818,122.15,541.813,122.106,542.264,125.945L542.264,125.945z"/>
		</g>
	</g>
	<g>
		<g>
			<path d="M566.559,107.656c4.633-3.305,9.279-4.711,14.969-3.986c-0.863-0.495-1.727-0.991-2.591-1.486
				c6.986,13.53,8.405,31.133,8.187,46.075c-0.187,12.723-2.731,34.885-19.881,34.026c-3.869-0.194-3.851,5.807,0,6
				c22.785,1.141,26.086-27.306,25.886-44.148c-0.134-11.31-1.73-22.792-4.745-33.695c-1.069-3.87-2.42-7.713-4.265-11.286
				c-1.414-2.738-7.255-1.896-9.615-1.46c-4.063,0.749-7.62,2.388-10.974,4.78C560.409,104.701,563.4,109.908,566.559,107.656
				L566.559,107.656z"/>
		</g>
	</g>
	<g>
		<g>
			<path d="M627.978,98.473c0.014,11.018,0.081,22.027-0.358,33.041c-0.26,6.52-0.619,13.086-1.639,19.538
				c-0.337,2.139-0.787,4.269-1.481,6.322c-0.123,0.366-0.462,1.148-0.587,1.309c-0.326,0.417,1.361,0.158,0.887-0.162
				c-3.215-2.173-6.214,3.027-3.027,5.181c10.143,6.855,11.131-20.155,11.416-24.18c0.967-13.662,0.807-27.363,0.79-41.048
				C633.973,94.604,627.973,94.603,627.978,98.473L627.978,98.473z"/>
		</g>
	</g>
	<g>
		<g>
			<path d="M634.98,145.042c3.83,7.4,9.96,13.074,17.561,16.461c3.501,1.561,6.557-3.608,3.027-5.181
				c-6.761-3.014-11.995-7.716-15.406-14.309C638.383,138.576,633.205,141.611,634.98,145.042L634.98,145.042z"/>
		</g>
	</g>
	<g>
		<g>
			<path d="M661.354,101.085c1.801,4.204,1.832,9.46,2.065,13.939c0.353,6.776,0.173,13.586-0.27,20.353
				c-0.414,6.343-1.143,12.694-2.598,18.888c-0.493,2.099-1.088,4.223-2.053,6.157c-0.29,0.583-0.619,1.104-1.075,1.563
				c0.264-0.266,1.071,0.267,0.343-0.169c-3.329-1.992-6.345,3.197-3.029,5.181c10.911,6.527,13.193-19.332,13.778-24.469
				c0.968-8.485,1.249-17.076,0.981-25.609c-0.195-6.243-0.471-13.045-2.962-18.862C665.017,94.51,659.85,97.57,661.354,101.085
				L661.354,101.085z"/>
		</g>
	</g>
	<g>
		<g>
			<path d="M672.813,148.945c7.126,8.053,16.218,13.877,24.783,20.25c0.504-1.863,1.009-3.727,1.514-5.59c-1.099,0-2.197,0-3.296,0
				c-3.869,0-3.869,6,0,6c1.099,0,2.197,0,3.296,0c3.221,0,3.779-3.905,1.514-5.59c-8.169-6.078-16.771-11.63-23.568-19.311
				C674.486,141.8,670.259,146.06,672.813,148.945L672.813,148.945z"/>
		</g>
	</g>
	<g>
		<g>
			<path d="M702.811,120.149c2.317,5.855,4.299,12.033,7.994,17.2c2.23,3.117,7.438,0.126,5.182-3.028
				c-3.409-4.767-5.252-10.366-7.391-15.767C707.189,115,701.385,116.548,702.811,120.149L702.811,120.149z"/>
		</g>
	</g>
	<g>
		<g>
			<path d="M714.193,117.849c9.73-1.321,9.332,9.924,3.182,14.297c1.212,1.57,2.424,3.141,3.636,4.711
				c3.006-2.829,6.724-4.331,10.382-6.125c3.475-1.703,0.433-6.877-3.027-5.181c-4.164,2.041-8.182,3.848-11.597,7.063
				c-2.447,2.303,0.827,6.708,3.636,4.711c5.513-3.921,8.691-10.117,7.205-16.911c-1.543-7.055-8.693-9.211-15.012-8.353
				C708.778,112.582,710.411,118.362,714.193,117.849L714.193,117.849z"/>
		</g>
	</g>
	<g>
		<g>
			<path d="M736.887,91.173c6.935-3.55,16.052-6.162,21.532,1.123c5.355,7.12,6.045,17.435,6.35,25.988
				c0.389,10.939-0.659,21.962-2.355,32.76c-0.74,4.718-1.654,9.41-2.733,14.063c-0.442,1.906-0.933,3.8-1.459,5.685
				c-0.249,0.89-0.519,1.774-0.796,2.656c-0.102,0.318-0.205,0.635-0.312,0.951c-0.61,1.841-0.218-0.329,1.134-0.253
				c0.964,0.734,1.929,1.469,2.893,2.203c-0.49-1.208-0.536-2.389-1.197-3.565c-1.896-3.373-7.079-0.349-5.182,3.028
				c0.367,0.652,0.314,1.445,0.594,2.132c0.534,1.315,1.425,2.12,2.893,2.202c4.629,0.261,5.531-6.814,6.406-10.152
				c1.353-5.157,2.38-10.4,3.269-15.655c2.154-12.739,3.394-25.773,2.732-38.695c-0.505-9.863-2.072-21.221-9.026-28.792
				c-7.524-8.191-19.099-5.298-27.769-0.859C730.414,87.756,733.45,92.933,736.887,91.173L736.887,91.173z"/>
		</g>
	</g>
	<g>
		<g>
			<path d="M746.659,98.473c-0.001,9.186-0.191,18.364-1.309,27.492c-0.996,8.145-2.795,20.076-10.392,24.863
				c-3.265,2.056-0.256,7.25,3.027,5.181c8.494-5.352,11.164-16.316,12.728-25.575c1.779-10.542,1.944-21.295,1.945-31.96
				C752.659,94.604,746.659,94.604,746.659,98.473L746.659,98.473z"/>
		</g>
	</g>
	<g>
		<g>
			<path d="M732.077,121.253c7.107-0.767,15.929,0.186,19.085,7.687c1.477,3.51,7.285,1.97,5.785-1.595
				c-4.262-10.13-14.578-13.204-24.87-12.092C728.272,115.664,728.232,121.668,732.077,121.253L732.077,121.253z"/>
		</g>
	</g>
	<g>
		<g>
			<path d="M740.567,144.223c6.975-2.327,13.88-4.764,20.497-7.995c3.476-1.698,0.434-6.872-3.029-5.181
				c-6.15,3.004-12.58,5.227-19.063,7.39C735.321,139.655,736.886,145.451,740.567,144.223L740.567,144.223z"/>
		</g>
	</g>
	<g>
		<g>
			<path d="M774.633,96.97c2.258-0.466,5.737-1.51,7.991-0.366c0.848,0.43,0.129,3.372,0.015,4.05
				c-0.683,4.073-1.824,8.341-0.511,12.412c1.315,4.079,4.076,7.711,6.105,11.447c1.02,1.877,2.064,3.944,2.113,6.119
				c0.054,2.403-5.229,2.172-6.621,2.203c-3.863,0.085-3.871,6.085,0,6c6.038-0.134,13.398-2.054,12.524-9.578
				c-0.734-6.322-5.421-11.617-8.098-17.192c-2.41-5.021,1.705-10.904,0.574-16.157c-1.561-7.249-10.315-5.834-15.689-4.724
				C769.249,91.967,770.856,97.75,774.633,96.97L774.633,96.97z"/>
		</g>
	</g>
	<g>
		<g>
			<path d="M773.033,109.461c-0.933,25.806,5.333,51.161,5.494,76.923c0.017,2.61,3.262,3.981,5.121,2.121
				c1.1-1.099,2.198-2.198,3.297-3.297c2.738-2.738-1.504-6.981-4.242-4.242c-1.1,1.099-2.198,2.198-3.297,3.297
				c1.707,0.707,3.414,1.414,5.121,2.121c-0.161-25.763-6.427-51.118-5.494-76.923C779.173,105.59,773.173,105.604,773.033,109.461
				L773.033,109.461z"/>
		</g>
	</g>
	<g>
		<g>
			<path d="M832.875,98.068c6.808-2.149,14.05-3.113,21.18-3.189c3.867-0.041,3.871-6.041,0-6
				c-7.62,0.081-15.499,1.107-22.775,3.404C827.604,93.443,829.175,99.237,832.875,98.068L832.875,98.068z"/>
		</g>
	</g>
	<g>
		<g>
			<path d="M815.178,110.953c8.047,4.177,15.979,3.035,24.29,0.303c3.658-1.203,2.091-6.998-1.596-5.786
				c-6.637,2.182-13.136,3.692-19.665,0.303C814.777,103.993,811.743,109.17,815.178,110.953L815.178,110.953z"/>
		</g>
	</g>
	<g>
		<g>
			<path d="M856.936,100.278c-16.756,12.752-30.175,30.527-50.932,37.06c0.771,1.828,1.541,3.656,2.313,5.483
				c11.217-5.712,24.645-6.613,36.909-8.414c11.29-1.659,23.769-3.348,32.929-10.737c3.013-2.43-1.261-6.647-4.242-4.242
				c-8.793,7.092-22.271,8.034-33.01,9.591c-12.025,1.744-24.636,3.03-35.615,8.621c-3.042,1.549-0.917,6.5,2.313,5.483
				c21.533-6.778,35.016-24.462,52.365-37.666C863,103.148,860.017,97.933,856.936,100.278L856.936,100.278z"/>
		</g>
	</g>
	<g>
		<g>
			<path d="M832.48,81.688c8.701,38.005,3.235,77.274,0.992,115.686c2,0,4,0,6,0c0-2.564,0-5.128,0-7.692c0-3.869-6-3.869-6,0
				c0,2.564,0,5.128,0,7.692c0,3.896,5.776,3.833,6,0c2.278-39.005,7.629-78.69-1.207-117.281
				C837.402,76.322,831.618,77.921,832.48,81.688L832.48,81.688z"/>
		</g>
	</g>
	<g>
		<g>
			<path d="M832.76,132.146c-9.521,5.7-17.056,14.626-24.782,22.447c-2.721,2.753,1.521,6.998,4.242,4.242
				c7.354-7.442,14.513-16.087,23.569-21.509C839.104,135.342,836.089,130.153,832.76,132.146L832.76,132.146z"/>
		</g>
	</g>
	<g>
		<g>
			<path d="M840.07,147.52c9.045,2.234,17.4,6.843,25.652,11.037c6.37,3.237,13.327,7.616,20.501,8.743
				c3.784,0.594,5.409-5.187,1.596-5.786c-7.555-1.187-14.828-5.987-21.54-9.393c-7.887-4.001-15.979-8.254-24.613-10.387
				C837.909,140.806,836.315,146.592,840.07,147.52L840.07,147.52z"/>
		</g>
	</g>
	<g>
		<g>
			<path d="M101.981,296.045c-9.017,27.291-14.292,56.826-30.266,81.223c-3.544,5.413,5.119,10.418,8.635,5.047
				c16.451-25.126,21.988-55.508,31.273-83.611C113.652,292.563,103.994,289.952,101.981,296.045L101.981,296.045z"/>
		</g>
	</g>
	<g>
		<g>
			<path d="M109.23,331.865c8.296-2.824,16.316-6.383,24.653-9.103c6.912-2.255,17.646-6.123,24.242-1.291
				c5.211,3.817,10.191-4.866,5.047-8.635c-7.625-5.587-18.443-3.429-26.869-1.224c-10.209,2.672-19.769,7.218-29.731,10.609
				C100.503,324.289,103.108,333.949,109.23,331.865L109.23,331.865z"/>
		</g>
	</g>
	<g>
		<g>
			<path d="M105.934,376.92c18.767-3.427,36.704-9.975,54.945-15.385c6.167-1.829,3.54-11.48-2.658-9.643
				c-18.242,5.41-36.178,11.957-54.945,15.385C96.938,368.435,99.63,378.071,105.934,376.92L105.934,376.92z"/>
		</g>
	</g>
	<g>
		<g>
			<path d="M125.058,304.197c5.436,34.832,0.989,70.583-3.475,105.265c-0.822,6.383,9.188,6.304,10,0
				c4.599-35.73,8.714-72.062,3.118-107.923C133.708,295.183,124.073,297.891,125.058,304.197L125.058,304.197z"/>
		</g>
	</g>
	<g>
		<g>
			<path d="M91.417,430.945c40.692-0.156,80.464-9.807,120.879-13.188c6.378-0.533,6.43-10.538,0-10
				c-40.414,3.381-80.192,13.031-120.879,13.188C84.97,420.97,84.968,430.97,91.417,430.945L91.417,430.945z"/>
		</g>
	</g>
	<g>
		<g>
			<path d="M279.408,282.763c-7.789,17.215-22.023,29.956-32.967,45.055c-3.792,5.231,4.89,10.214,8.635,5.047
				c10.96-15.12,25.156-27.793,32.967-45.055C290.679,281.983,282.063,276.895,279.408,282.763L279.408,282.763z"/>
		</g>
	</g>
	<g>
		<g>
			<path d="M282.396,297.799c14.336,2.154,30.068,2.762,42.762,10.485c0-2.878,0-5.757,0-8.635
				c-0.565,0.398-1.189,0.538-1.872,0.417c-6.441,0.111-6.452,10.111,0,10c2.523-0.044,4.768-0.409,6.919-1.782
				c3.172-2.025,3.288-6.635,0-8.635c-13.57-8.257-29.826-9.19-45.15-11.493C278.749,287.209,276.036,296.843,282.396,297.799
				L282.396,297.799z"/>
		</g>
	</g>
	<g>
		<g>
			<path d="M268.571,331.865c10.95-4.412,22.817-10.566,34.935-9.711c6.438,0.454,6.395-9.549,0-10
				c-13.12-0.926-25.742,5.294-37.593,10.068C260.01,324.601,262.585,334.277,268.571,331.865L268.571,331.865z"/>
		</g>
	</g>
	<g>
		<g>
			<path d="M249.055,361.109c-0.937,8.402,4.704,25.994,16.219,22.404c6.135-1.913,3.515-11.567-2.658-9.643
				c-0.886,0.222-0.752,0.269,0.402,0.143c0.045,0.009,0.867,0.847-0.456-0.38c-0.942-0.874-1.64-2.202-2.13-3.37
				c-1.229-2.93-1.729-6.002-1.377-9.154c0.303-2.715-2.503-5-5-5C251.101,356.109,249.356,358.401,249.055,361.109L249.055,361.109
				z"/>
		</g>
	</g>
	<g>
		<g>
			<path d="M255.479,368.724c6.116-3.874,13.671-4.956,20.609-2.836c8.427,2.575,1.616,9.122-2.493,12.566
				c2.357,2.356,4.714,4.714,7.071,7.07c2.93-2.931,5.861-5.861,8.791-8.792c4.563-4.563-2.508-11.635-7.071-7.07
				c-2.93,2.931-5.86,5.861-8.791,8.792c-4.632,4.632,2.205,11.15,7.071,7.07c8.691-7.286,14.42-19.09,3.177-26.946
				c-9.36-6.541-24.358-4.224-33.412,1.511C245.002,363.528,250.014,372.186,255.479,368.724L255.479,368.724z"/>
		</g>
	</g>
	<g>
		<g>
			<path d="M308.227,355.537c4.872-2.68,18.79-8.194,19.889,0.849c1.26,10.37-11.244,15.218-19.346,16.387
				c-6.362,0.918-3.646,10.553,2.658,9.643c13.563-1.957,29.159-12.327,26.432-27.992c-1.035-5.946-5.224-10.183-10.764-12.198
				c-7.875-2.867-17.083,0.919-23.917,4.678C297.529,350.011,302.573,358.646,308.227,355.537L308.227,355.537z"/>
		</g>
	</g>
	<g>
		<g>
			<path d="M303.08,355.846c4.186,29.051,3.27,58.531,6.415,87.682c0.249,2.304,1.358,4.106,3.671,4.821
				c4.612,1.426,5.89-1.134,7.844-4.495c3.249-5.586-5.395-10.617-8.635-5.047c-0.646,1.111-0.965,2.186-1.295,3.409
				c0.766-0.996,1.532-1.992,2.298-2.988c-0.146,0.094-0.293,0.188-0.439,0.281c1.284-0.168,2.568-0.336,3.853-0.504
				c-0.323-0.1-0.645-0.199-0.967-0.299c1.224,1.607,2.447,3.214,3.671,4.821c-3.242-30.053-2.456-60.383-6.772-90.34
				C311.806,346.825,302.171,349.541,303.08,355.846L303.08,355.846z"/>
		</g>
	</g>
	<g>
		<g>
			<path d="M426.661,308.037c-6.656,15.514-13.607,31.704-26.691,42.944c-4.899,4.208,2.208,11.249,7.071,7.07
				c13.735-11.799,21.264-28.673,28.254-44.968C437.809,307.226,429.197,302.126,426.661,308.037L426.661,308.037z"/>
		</g>
	</g>
	<g>
		<g>
			<path d="M416.088,344.626c-0.107,18.387-3.265,37.061,1.277,55.176c1.221,4.869,8.326,4.687,9.643,0
				c1.039-3.696,1.266-7.396,1.278-11.22c0.02-6.449-9.98-6.447-10,0c-0.009,2.956-0.116,5.697-0.92,8.562c3.214,0,6.428,0,9.643,0
				c-4.295-17.131-1.021-35.116-0.92-52.518C426.125,338.176,416.125,338.18,416.088,344.626L416.088,344.626z"/>
		</g>
	</g>
	<g>
		<g>
			<path d="M434.601,345.647c5.547-2.759,14.81-8.484,19.79-1.989c2.564,3.343,1.887,9.714,1.732,14.192
				c-0.382,11.031-1.335,23.206-4.691,33.798c-1.954,6.165,7.702,8.782,9.643,2.658c1.849-5.834,2.538-12.152,3.347-18.192
				c1.083-8.089,1.934-16.267,1.756-24.438c-0.17-7.782-2.13-13.757-8.634-18.56c-8.368-6.179-20.161,0.003-27.989,3.896
				C423.779,339.885,428.846,348.509,434.601,345.647L434.601,345.647z"/>
		</g>
	</g>
	<g>
		<g>
			<path d="M429.879,378.197c8.769-1.094,17.527-2.12,26.374-2.197c6.445-0.057,6.451-10.057,0-10
				c-8.847,0.077-17.605,1.104-26.374,2.197C423.567,368.984,423.491,378.994,429.879,378.197L429.879,378.197z"/>
		</g>
	</g>
	<g>
		<g>
			<path d="M433.406,403.294c9.405-1.46,17.618-6.479,26.374-9.891c5.94-2.314,3.359-11.987-2.658-9.643
				c-8.743,3.406-16.996,8.435-26.374,9.891C424.391,394.639,427.1,404.273,433.406,403.294L433.406,403.294z"/>
		</g>
	</g>
	<g>
		<g>
			<path d="M476.527,303.967c-1.174,15.825-5.531,31.027-10.81,45.924c-2.16,6.094,7.504,8.692,9.643,2.658
				c5.592-15.779,9.925-31.832,11.167-48.582C487.005,297.53,477.001,297.576,476.527,303.967L476.527,303.967z"/>
		</g>
	</g>
	<g>
		<g>
			<path d="M483.955,325.271c6.772-2.572,15.645-6.571,23.052-4.564c5.884,1.594,6.79,10.816,7.353,15.687
				c1.303,11.29,1.047,23.07,0.829,34.412c-0.257,13.39-0.876,27.464-5.412,40.194c-0.781,2.191-1.869,4.256-3.187,6.17
				c-0.87,1.263-2.598,2.51-3.34,2.773c-1.752,0.622-2.527,0.448-4.749-0.244c-2.938-0.916-5.623-3.028-7.944-4.981
				c-4.898-4.125-12.01,2.912-7.07,7.07c8.951,7.536,21.969,13.046,30.621,1.899c7.975-10.272,9.301-25.044,10.34-37.543
				c1.013-12.169,0.897-24.399,0.609-36.596c-0.283-12.017,0.21-31.561-12.931-37.527c-9.732-4.42-21.557,0.086-30.829,3.607
				C475.33,317.896,477.916,327.565,483.955,325.271L483.955,325.271z"/>
		</g>
	</g>
	<g>
		<g>
			<path d="M482.626,372.703c7.697-0.835,15.212-0.166,22.847,0.92c6.305,0.897,9.021-8.737,2.658-9.643
				c-8.517-1.212-16.903-2.211-25.505-1.277C476.286,363.391,476.219,373.398,482.626,372.703L482.626,372.703z"/>
		</g>
	</g>
	<g>
		<g>
			<path d="M585.685,310.799c2.325,2.45,3.18,5.651,4.208,8.783c0.85,2.587,3.426,4.241,6.15,3.492
				c2.53-0.696,4.343-3.561,3.492-6.15c-1.586-4.832-3.205-9.431-6.78-13.195C588.308,299.043,581.247,306.126,585.685,310.799
				L585.685,310.799z"/>
		</g>
	</g>
	<g>
		<g>
			<path d="M582.952,350.043c2.43-1.389,5.154-2.893,7.828-2.919c0.515-0.005,0.824,0.197,0.558-0.011
				c0.823,0.64,0.659,0.555,1.272,1.769c2.009,3.977,1.304,11.403,1.066,16.26c-0.575,11.758-4.448,27.004,1.115,38.052
				c1.441,2.862,5.721,3.242,7.853,1.012c7.004-7.324,11.249-16.455,16.167-25.188c3.168-5.626-5.471-10.665-8.635-5.047
				c-4.474,7.943-8.233,16.503-14.603,23.164c2.617,0.337,5.235,0.674,7.853,1.012c-2.071-4.112-1.166-12.366-0.818-17.759
				c0.508-7.864,1.409-15.729,1.211-23.621c-0.144-5.705-0.888-13.211-5.78-17.011c-6.267-4.866-13.977-1.867-20.134,1.652
				C572.309,344.606,577.345,353.248,582.952,350.043L582.952,350.043z"/>
		</g>
	</g>
	<g>
		<g>
			<path d="M632.938,316.293c4.375,4.251,6.171,10.597,7.505,16.371c1.931,8.353,2.217,17.071,1.722,25.601
				c-0.688,11.874-3.841,33.202-18.01,36.485c-6.281,1.455-3.617,11.097,2.658,9.643c18.252-4.229,23.498-27.043,25.098-42.916
				c1.643-16.299,0.746-39.967-11.902-52.254C635.383,304.729,628.306,311.793,632.938,316.293L632.938,316.293z"/>
		</g>
	</g>
	<g>
		<g>
			<path d="M618.564,385.207c36.168,16.57,68.053,48.646,110.216,47.936c6.441-0.108,6.452-10.108,0-10
				c-39.893,0.673-70.888-30.864-105.169-46.57C617.793,373.906,612.708,382.523,618.564,385.207L618.564,385.207z"/>
		</g>
	</g>
	<g>
		<g>
			<path d="M710.872,285.364c-17.069,8.965-25.773,27.532-40.572,39.243c-5.056,4,2.072,11.026,7.07,7.07
				c14.06-11.125,22.406-29.2,38.549-37.679C721.63,291,716.575,282.369,710.872,285.364L710.872,285.364z"/>
		</g>
	</g>
	<g>
		<g>
			<path d="M684.398,321.779c4.146,17.418,4.217,35.893,4.217,53.74c0,6.448,10,6.448,10,0c0-1.141,0-2.28,0-3.421
				c0-6.448-10-6.448-10,0c0,1.141,0,2.28,0,3.421c0,6.448,10,6.448,10,0c0-18.744-0.22-38.101-4.574-56.398
				C692.549,312.849,682.906,315.51,684.398,321.779L684.398,321.779z"/>
		</g>
	</g>
	<g>
		<g>
			<path d="M697.143,358.239c6.594-2.198,13.187-4.396,19.78-6.594c6.086-2.028,3.478-11.688-2.658-9.643
				c-6.594,2.197-13.188,4.396-19.78,6.594C688.398,350.626,691.008,360.285,697.143,358.239L697.143,358.239z"/>
		</g>
	</g>
	<g>
		<g>
			<path d="M668.835,350.121c0.087,10.317,2.296,21.978-2.614,31.542c-2.939,5.726,5.688,10.785,8.635,5.047
				c5.907-11.506,4.084-24.146,3.979-36.589C678.781,343.676,668.781,343.67,668.835,350.121L668.835,350.121z"/>
		</g>
	</g>
	<g>
		<g>
			<path d="M672.736,390.286c20.9-0.034,41.771-1.101,62.637-2.198c6.414-0.338,6.447-10.339,0-10
				c-20.866,1.098-41.736,2.164-62.637,2.198C666.288,380.297,666.287,390.297,672.736,390.286L672.736,390.286z"/>
		</g>
	</g>
	<g>
		<g>
			<path d="M786.418,302.868c1.016,17.657-2.885,36.951-13.604,51.322c-3.86,5.176,4.827,10.151,8.635,5.047
				c11.647-15.616,16.072-37.179,14.969-56.369C796.05,296.459,786.047,296.423,786.418,302.868L786.418,302.868z"/>
		</g>
	</g>
	<g>
		<g>
			<path d="M800.438,327.47c10.518-1.964,20.873-4.789,31.364-6.897c5.891-1.185,11.82-2.248,17.809-2.778
				c2.451-0.217,4.916-0.292,7.373-0.132c0.642,0.042,0.986,0.133,1.702,0.313c0.726,0.182,0.443,0.402-0.158-0.495
				c3.571,5.325,12.237,0.326,8.635-5.047c-5.907-8.811-22.957-4.2-31.279-2.77c-12.815,2.205-25.333,5.779-38.104,8.164
				C791.446,319.01,794.137,328.646,800.438,327.47L800.438,327.47z"/>
		</g>
	</g>
	<g>
		<g>
			<path d="M795.813,370.506c21.552-0.119,44.358-3.797,64.062-12.771c5.862-2.67,0.775-11.286-5.047-8.635
				c-18.033,8.213-39.335,11.296-59.015,11.405C789.367,360.542,789.363,370.542,795.813,370.506L795.813,370.506z"/>
		</g>
	</g>
	<g>
		<g>
			<path d="M817.553,310.799c10.92,10.746,9.866,29.762,9.15,43.794c-0.82,16.114-3.923,32.13-4.021,48.275
				c-0.039,6.45,9.961,6.446,10,0c0.107-17.473,3.533-34.805,4.2-52.267c0.604-15.838-0.218-35.024-12.259-46.873
				C820.025,299.203,812.95,306.271,817.553,310.799L817.553,310.799z"/>
		</g>
	</g>
	<g>
		<g>
			<path d="M793.846,414.283c34.67-6.343,70.379-4.252,105.034,1.099c0.443-3.273,0.886-6.548,1.329-9.821c-1.832,0-3.663,0-5.495,0
				c-6.448,0-6.448,10,0,10c1.832,0,3.663,0,5.495,0c5.486,0,7.025-8.941,1.329-9.821c-36.556-5.645-73.778-7.789-110.351-1.099
				C784.85,405.8,787.543,415.437,793.846,414.283L793.846,414.283z"/>
		</g>
	</g>
</g>
<g id="图层_2">
	<g>
	</g>
	<g>
	</g>
	<g>
	</g>
	<g>
	</g>
	<g>
	</g>
	<g>
	</g>
	<g>
	</g>
	<g>
	</g>
	<g>
	</g>
	<g>
	</g>
	<g>
	</g>
	<g>
	</g>
	<g>
	</g>
	<g>
	</g>
	<g>
	</g>
</g>
</svg>
