<?xml version="1.0" encoding="utf-8"?>
<!-- Generator: Adobe Illustrator 16.2.0, SVG Export Plug-In . SVG Version: 6.00 Build 0)  -->
<!DOCTYPE svg PUBLIC "-//W3C//DTD SVG 1.1//EN" "http://www.w3.org/Graphics/SVG/1.1/DTD/svg11.dtd">
<svg version="1.1" xmlns="http://www.w3.org/2000/svg" xmlns:xlink="http://www.w3.org/1999/xlink" x="0px" y="0px" width="960px"
	 height="560px" viewBox="0 0 960 560" enable-background="new 0 0 960 560" xml:space="preserve">
<g id="图层_1">
	<rect x="4" y="6" fill="#FFFFFF" stroke="#000000" stroke-width="10" stroke-miterlimit="10" width="951" height="550"/>
	<g>
		<g>
			<path d="M344.203,147.893c2.042,0.659,4.188,0.813,5.676,2.228c2.802,2.665,7.051-1.572,4.242-4.242
				c-2.39-2.272-5.299-2.795-8.324-3.772C342.105,140.915,340.536,146.709,344.203,147.893L344.203,147.893z"/>
		</g>
	</g>
	<g>
		<g>
			<path d="M341.486,190.59c3.077,2.016,6.745,4.224,10.514,4.41c3.869,0.19,3.851-5.811,0-6c-2.425-0.119-5.416-2.234-7.486-3.59
				C341.267,183.282,338.264,188.48,341.486,190.59L341.486,190.59z"/>
		</g>
	</g>
</g>
<g id="图层_2">
	<g>
		<g>
			<path d="M65.107,103.203c-2.059,9.774-5.73,18.981-12.228,26.676c-2.479,2.936,1.743,7.203,4.242,4.242
				c7.177-8.499,11.489-18.487,13.772-29.324C71.688,101.023,65.904,99.417,65.107,103.203L65.107,103.203z"/>
		</g>
	</g>
	<g>
		<g>
			<path d="M71.797,112.893c4.758-1.025,9.242-2.975,14-4c3.782-0.815,2.178-6.599-1.595-5.786c-4.758,1.025-9.242,2.975-14,4
				C66.421,107.922,68.025,113.706,71.797,112.893L71.797,112.893z"/>
		</g>
	</g>
	<g>
		<g>
			<path d="M72.203,126.893c2.3,0.812,3.874,2.651,5.207,4.621c0.915,1.352,2.624,1.944,4.104,1.076
				c1.34-0.785,1.994-2.748,1.076-4.104c-2.269-3.354-4.912-6.009-8.793-7.379c-1.543-0.544-3.28,0.603-3.69,2.096
				C69.65,124.863,70.662,126.349,72.203,126.893L72.203,126.893z"/>
		</g>
	</g>
	<g>
		<g>
			<path d="M87,99c-0.006,7.639-0.226,14.92-4.59,21.486c-2.149,3.232,3.05,6.233,5.181,3.028C92.526,116.089,92.993,107.662,93,99
				C93.003,95.131,87.003,95.131,87,99L87,99z"/>
		</g>
	</g>
	<g>
		<g>
			<path d="M92.797,109.893c2.129-0.318,4.267-0.341,6.408-0.167c0.714,0.058,1.414,0.238,2.105,0.414
				c0.321,0.076,0.63,0.186,0.925,0.33c0.499,0.329,0.557,0.343,0.173,0.044c2.092,3.236,7.289,0.231,5.181-3.028
				c-3.187-4.928-11.474-4.113-16.388-3.379C87.386,104.677,89.014,110.458,92.797,109.893L92.797,109.893z"/>
		</g>
	</g>
	<g>
		<g>
			<path d="M92,122c4,0,8,0,12,0c3.869,0,3.869-6,0-6c-4,0-8,0-12,0C88.131,116,88.131,122,92,122L92,122z"/>
		</g>
	</g>
	<g>
		<g>
			<path d="M68.797,145.893c5.939-1.356,11.549-4.062,17.441-5.648c3.199-0.861,6.297-1.719,9.001,0.609
				c3.138,2.701-7.2,7.851-8.753,8.556c-3.52,1.596-0.467,6.766,3.028,5.181c4.262-1.933,10.652-5.361,11.888-10.405
				c1.215-4.96-2.09-9.089-6.803-10.548c-4.124-1.277-9.419,0.601-13.328,1.791c-4.71,1.434-9.264,3.582-14.069,4.679
				C63.431,140.969,65.031,146.753,68.797,145.893L68.797,145.893z"/>
		</g>
	</g>
	<g>
		<g>
			<path d="M70.797,163.893c10.291-3.148,20.263-7.146,29.717-12.303c3.397-1.853,0.369-7.034-3.028-5.181
				c-9.01,4.915-18.476,8.697-28.283,11.697C65.514,159.236,67.087,165.028,70.797,163.893L70.797,163.893z"/>
		</g>
	</g>
	<g>
		<g>
			<path d="M70.41,165.486C67.123,171.24,65.198,177.355,65,184c-0.097,3.231,3.957,3.759,5.59,1.514
				c5.641-7.753,13.46-12.263,22.803-14.057c5.263-1.011,14.469-1.671,17.813,3.695c2.302,3.693-0.629,8.729-3.032,11.53
				C104.382,191.102,98.75,193.619,93,194c-3.84,0.254-3.865,6.256,0,6c12.327-0.817,30.905-13.447,23.387-27.876
				c-3.972-7.623-15.134-7.713-22.345-6.79c-11.819,1.513-21.66,7.567-28.633,17.152c1.863,0.505,3.727,1.009,5.59,1.514
				c0.167-5.612,1.816-10.629,4.59-15.486C77.513,165.149,72.328,162.127,70.41,165.486L70.41,165.486z"/>
		</g>
	</g>
	<g>
		<g>
			<path d="M81.879,153.121c9.412,9.26,10.114,24.312,9.842,36.704c-0.284,12.929-2.513,25.846-5.614,38.378
				c1.929,0,3.857,0,5.786,0c-0.82-3.643-1.181-7.357-2-11c-0.849-3.774-6.634-2.174-5.786,1.595c0.82,3.643,1.181,7.357,2,11
				c0.655,2.909,5.085,2.832,5.786,0c3.444-13.92,5.71-28.262,5.872-42.62c0.149-13.239-1.741-28.557-11.644-38.299
				C83.362,146.164,79.117,150.405,81.879,153.121L81.879,153.121z"/>
		</g>
	</g>
	<g>
		<g>
			<path d="M80.41,181.486c-4.918,8.017-8.636,17.017-14.531,24.393c-2.39,2.99,1.827,7.265,4.242,4.242
				c6.249-7.817,10.26-17.115,15.469-25.607C87.62,181.207,82.429,178.195,80.41,181.486L80.41,181.486z"/>
		</g>
	</g>
	<g>
		<g>
			<path d="M158.514,161.59c12.783-6.647,27.242-8.514,41.486-8.59c3.868-0.021,3.87-6.021,0-6
				c-15.326,0.082-30.778,2.268-44.514,9.41C152.052,158.195,155.086,163.373,158.514,161.59L158.514,161.59z"/>
		</g>
	</g>
	<g>
		<g>
			<path d="M249,94c-0.001,4.083,0.027,8.204-0.893,12.203c-0.866,3.766,4.918,5.365,5.786,1.595
				c1.042-4.528,1.105-9.173,1.107-13.797C255.001,90.131,249.001,90.131,249,94L249,94z"/>
		</g>
	</g>
	<g>
		<g>
			<path d="M232.797,119.893c14.911-3.106,29.089-8.894,44-12c-0.532-1.929-1.063-3.857-1.595-5.786
				c-1.96,0.509-4.058,1.109-5.717,2.303c-3.11,2.237-0.12,7.445,3.028,5.181c1.266-0.91,2.789-1.31,4.283-1.697
				c3.77-0.979,2.165-6.569-1.595-5.786c-14.911,3.106-29.089,8.894-44,12C227.416,114.896,229.022,120.679,232.797,119.893
				L232.797,119.893z"/>
		</g>
	</g>
	<g>
		<g>
			<path d="M236.879,125.121c3.456,3.332,7.697,5.551,12.324,6.772c3.745,0.988,5.333-4.799,1.595-5.786
				c-3.642-0.961-6.949-2.599-9.676-5.228C238.336,118.194,234.089,122.432,236.879,125.121L236.879,125.121z"/>
		</g>
	</g>
	<g>
		<g>
			<path d="M266.879,114.879c-7.423,8.439-14.005,17.539-24.393,22.531c-3.486,1.675-0.441,6.848,3.028,5.181
				c10.863-5.22,17.839-14.638,25.607-23.469C273.666,116.229,269.439,111.968,266.879,114.879L266.879,114.879z"/>
		</g>
	</g>
	<g>
		<g>
			<path d="M222.797,154.893C245.557,147.479,267.325,133.35,292,134c-0.266-1.964-0.532-3.929-0.797-5.893
				c-2.655,0.944-5.194,2.05-7.717,3.303c-3.466,1.721-0.425,6.896,3.028,5.181c2.055-1.021,4.119-1.928,6.283-2.697
				c3.147-1.119,2.697-5.801-0.797-5.893c-25.342-0.667-47.439,13.498-70.797,21.107C217.54,150.3,219.108,156.095,222.797,154.893
				L222.797,154.893z"/>
		</g>
	</g>
	<g>
		<g>
			<path d="M232.41,163.514c1.743,2.36,3.297,4.86,4.769,7.397c0.798,1.375,1.537,2.785,2.211,4.225
				c0.2,0.427,0.355,0.868,0.508,1.313c0.846,2.449-1.436-2.071,2.9-1.342c-3.783-0.636-5.404,5.146-1.595,5.786
				c5.088,0.855,5.374-4.013,3.912-7.523c-1.899-4.561-4.593-8.916-7.524-12.884C235.319,157.41,230.107,160.397,232.41,163.514
				L232.41,163.514z"/>
		</g>
	</g>
	<g>
		<g>
			<path d="M241.797,165.893c9.308-3.178,18.519-7.343,28.376-8.509c3.999-0.473,10.912,0.824,6.274,6.001
				c-3.49,3.896-9.347,6.25-14.245,7.722c-3.696,1.111-2.12,6.903,1.595,5.786c6.412-1.928,13.843-5.143,18.016-10.603
				c3.667-4.799,2.48-11.914-3.55-14.199c-6.076-2.302-13.676,0.004-19.619,1.675c-6.272,1.764-12.286,4.24-18.442,6.341
				C236.563,161.35,238.125,167.146,241.797,165.893L241.797,165.893z"/>
		</g>
	</g>
	<g>
		<g>
			<path d="M242.514,175.59c2.951-1.905,6.06-3.458,9.361-4.66c2.195-0.799,6.884-2.574,9.003-0.809
				c2.95,2.458,7.218-1.763,4.242-4.242c-7.134-5.944-19.124,0.326-25.635,4.531C236.249,172.5,239.253,177.696,242.514,175.59
				L242.514,175.59z"/>
		</g>
	</g>
	<g>
		<g>
			<path d="M240.797,185.893c9.303-3.158,18.359-6.95,28-9c3.784-0.805,2.179-6.588-1.595-5.786c-9.642,2.05-18.698,5.843-28,9
				C235.56,181.344,237.123,187.14,240.797,185.893L240.797,185.893z"/>
		</g>
	</g>
	<g>
		<g>
			<path d="M220.514,211.59c22.537-12.053,48.226-15.787,72.283-23.697c-0.771-1.828-1.541-3.656-2.312-5.483
				c-2.631,1.616-5.364,2.715-8.283,3.697c-3.647,1.227-2.083,7.023,1.595,5.786c3.411-1.148,6.641-2.414,9.717-4.303
				c2.83-1.738,1.006-6.574-2.312-5.483c-24.578,8.082-50.686,11.986-73.717,24.303C214.073,208.235,217.104,213.415,220.514,211.59
				L220.514,211.59z"/>
		</g>
	</g>
	<g>
		<g>
			<path d="M257.41,183.514c2.975,6.378,3.098,14.724,3.528,21.608c0.242,3.872,0.307,7.756,0.167,11.633
				c-0.058,1.616-0.175,3.238-0.439,4.834c-0.146,0.886-1.18,2.492-0.18,1.821c-3.194,2.144-0.194,7.344,3.028,5.181
				c5.458-3.664,3.754-15.802,3.539-21.219c-0.345-8.688-0.724-18.869-4.463-26.885C260.956,176.982,255.785,180.031,257.41,183.514
				L257.41,183.514z"/>
		</g>
	</g>
	<g>
		<g>
			<path d="M411.107,109.797c1.168,6.295,4.331,11.764,8.771,16.324c2.703,2.776,6.942-1.47,4.242-4.242
				c-3.772-3.875-6.238-8.342-7.229-13.676C416.187,104.401,410.405,106.016,411.107,109.797L411.107,109.797z"/>
		</g>
	</g>
	<g>
		<g>
			<path d="M428.41,106.514c2.292,3.436,4.645,6.693,8.076,9.076c1.345,0.935,3.327,0.251,4.104-1.076
				c0.875-1.494,0.264-3.174-1.076-4.104c-2.531-1.758-4.241-4.402-5.924-6.924C431.455,100.285,426.255,103.285,428.41,106.514
				L428.41,106.514z"/>
		</g>
	</g>
	<g>
		<g>
			<path d="M446.107,104.797c2.968,9.219-3.423,15.03-10.622,19.612c-3.253,2.071-0.246,7.265,3.028,5.181
				c9.486-6.039,17.216-14.469,13.378-26.388C450.712,99.535,444.918,101.104,446.107,104.797L446.107,104.797z"/>
		</g>
	</g>
	<g>
		<g>
			<path d="M398,147c1.037,7.946,4.1,24.631,15.797,20.893c3.671-1.173,2.101-6.967-1.595-5.786
				c-6.14,1.962-7.7-11.256-8.203-15.107C403.507,143.22,397.5,143.171,398,147L398,147z"/>
		</g>
	</g>
	<g>
		<g>
			<path d="M408.797,146.893c14.447-4.814,29.274-9.716,44.45-11.528c3.23-0.386,6.493-0.524,9.736-0.237
				c1.859,0.164,7.528,1.766,7.153,4.354c-0.464,3.208-6.254,5.633-8.705,6.925c-3.549,1.871-7.278,3.386-10.946,5.003
				c-3.534,1.558-0.478,6.726,3.028,5.181c7.166-3.158,18.257-6.444,21.894-14.119c3.693-7.794-6.294-12.596-12.424-13.344
				c-9.613-1.173-20.134,1.704-29.367,4.028c-8.919,2.246-17.691,5.044-26.414,7.951
				C403.551,142.324,405.116,148.12,408.797,146.893L408.797,146.893z"/>
		</g>
	</g>
	<g>
		<g>
			<path d="M425,160c2.157,0.012,12.638-0.977,12.768,2.61c0.171,4.735-1.442,9.378-1.166,14.203
				c0.419,7.32,5.903,11.866,7.484,18.612c0.961,4.103-1.956,8.98-3.743,12.513c-2.258,4.464-5.305,6.42-10.344,6.062
				c-3.863-0.275-3.836,5.727,0,6c10.356,0.737,15.379-7.032,18.598-15.837c1.603-4.385,2.173-8.731,0.375-13.143
				c-1.839-4.513-5.661-8.188-6.278-13.175c-0.718-5.806,2.326-12.259,0.695-17.829c-2.001-6.833-13.119-5.987-18.39-6.016
				C421.13,153.979,421.132,159.979,425,160L425,160z"/>
		</g>
	</g>
	<g>
		<g>
			<path d="M404.797,201.893c20.342-7.08,41.057-12.984,62-18c3.762-0.901,2.166-6.687-1.595-5.786
				c-20.943,5.016-41.658,10.921-62,18C399.572,197.371,401.133,203.168,404.797,201.893L404.797,201.893z"/>
		</g>
	</g>
	<g>
		<g>
			<path d="M531,107c-0.484,19.075-17.98,34.194-28.591,48.486c-2.31,3.111,2.902,6.097,5.182,3.028
				c11.47-15.45,28.886-30.889,29.409-51.514C537.099,103.128,531.098,103.138,531,107L531,107z"/>
		</g>
	</g>
	<g>
		<g>
			<path d="M536.879,124.121c10.433,11.027,25.147,15.376,37.607,23.469c0.504-1.863,1.009-3.727,1.514-5.59c-1.333,0-2.667,0-4,0
				c-3.869,0-3.869,6,0,6c1.333,0,2.667,0,4,0c3.083,0,3.964-4,1.514-5.59c-11.994-7.791-26.36-11.928-36.393-22.531
				C538.457,117.063,534.222,121.313,536.879,124.121L536.879,124.121z"/>
		</g>
	</g>
	<g>
		<g>
			<path d="M524,156c7.01-0.058,14.227-1.099,21.202-0.107c3.783,0.538,5.413-5.243,1.596-5.786
				c-7.573-1.077-15.189-0.169-22.798-0.107C520.133,150.032,520.13,156.032,524,156L524,156z"/>
		</g>
	</g>
	<g>
		<g>
			<path d="M511.798,182.893c16.35-5.023,33.183-8.031,50-11c3.362-0.594,2.54-6.011-0.798-5.893
				c-3.769,0.133-7.226,0.927-10.798,2.107c-3.655,1.208-2.089,7.003,1.596,5.786c3.055-1.009,5.962-1.779,9.202-1.893
				c-0.266-1.964-0.531-3.929-0.798-5.893c-16.817,2.969-33.65,5.977-50,11C506.516,178.24,508.089,184.032,511.798,182.893
				L511.798,182.893z"/>
		</g>
	</g>
	<g>
		<g>
			<path d="M534.107,177.203c-3.236,10.227-8.809,19.392-14.698,28.283c-1.409,2.128,0.93,5.29,3.389,4.407
				c11.685-4.196,23.8-7.729,36.202-8.893c3.818-0.358,3.853-6.361,0-6c-12.968,1.217-25.571,4.717-37.798,9.107
				c1.13,1.469,2.259,2.938,3.389,4.407c6.181-9.333,11.908-18.989,15.302-29.717C541.063,175.098,535.27,173.527,534.107,177.203
				L534.107,177.203z"/>
		</g>
	</g>
	<g>
		<g>
			<path d="M557.486,192.59c5.519,2.335,6.851,9.201,5.621,14.612c-0.856,3.767,4.928,5.367,5.785,1.595
				c1.771-7.794-0.351-17.99-8.379-21.388C556.995,185.92,553.934,191.087,557.486,192.59L557.486,192.59z"/>
		</g>
	</g>
	<g>
		<g>
			<path d="M619,123c4,0,8,0,12,0c3.869,0,3.869-6,0-6c-4,0-8,0-12,0C615.131,117,615.131,123,619,123L619,123z"/>
		</g>
	</g>
	<g>
		<g>
			<path d="M615.514,159.59c4.292-2.092,8.709-3.908,13-6c-1.504-0.863-3.009-1.727-4.514-2.59
				c0.936,10.414,0.187,21.517,6.409,30.514c0.912,1.318,2.634,1.983,4.104,1.076c7.097-4.373,11.448-11.138,16.607-17.469
				c2.422-2.971-1.797-7.244-4.242-4.242c-4.783,5.869-8.814,12.477-15.393,16.531c1.367,0.359,2.736,0.717,4.104,1.076
				c-5.588-8.079-4.75-18.134-5.591-27.486c-0.21-2.34-2.366-3.637-4.514-2.59c-4.292,2.092-8.709,3.908-13,6
				C609.008,156.105,612.051,161.278,615.514,159.59L615.514,159.59z"/>
		</g>
	</g>
	<g>
		<g>
			<path d="M648.879,110.121c2.619,2.473,5.967,3.651,9.323,4.772c3.681,1.229,5.246-4.567,1.596-5.786
				c-2.329-0.777-4.851-1.505-6.677-3.228C650.311,103.226,646.06,107.46,648.879,110.121L648.879,110.121z"/>
		</g>
	</g>
	<g>
		<g>
			<path d="M667.409,105.486c-1.689,3.343-3.526,6.153-6.923,7.924c-3.433,1.789-0.398,6.966,3.027,5.181
				c4.255-2.217,6.954-5.878,9.077-10.076C674.331,105.07,669.155,102.032,667.409,105.486L667.409,105.486z"/>
		</g>
	</g>
	<g>
		<g>
			<path d="M646,131c-0.709,7.596,2.828,20.248,12,21c3.858,0.316,3.828-5.686,0-6c-2.29-0.188-3.93-3.853-4.666-5.624
				c-1.242-2.985-1.633-6.177-1.334-9.376C652.359,127.147,646.356,127.182,646,131L646,131z"/>
		</g>
	</g>
	<g>
		<g>
			<path d="M651.798,135.893c7.642-2.978,18.64-5.824,26.505-1.906c2.242,1.117,2.357,2.156,1.044,4.108
				c-3.088,4.592-10.056,7.218-14.86,9.314c-3.539,1.544-0.481,6.712,3.027,5.181c6.398-2.792,26.091-12.448,16.271-22.048
				c-3.413-3.335-8.961-4.016-13.48-4.199c-6.819-0.276-13.783,1.302-20.102,3.763C646.639,131.496,648.188,137.299,651.798,135.893
				L651.798,135.893z"/>
		</g>
	</g>
	<g>
		<g>
			<path d="M656.514,161.59c5.933-3.853,12.277-6.573,19.284-7.697c3.813-0.612,2.188-6.394-1.596-5.786
				c-7.464,1.199-14.397,4.199-20.716,8.303C650.255,158.508,653.259,163.705,656.514,161.59L656.514,161.59z"/>
		</g>
	</g>
	<g>
		<g>
			<path d="M658.107,162.203c-2.41,9.252-8.313,19.841-7,29.595c0.514,3.82,6.295,2.187,5.785-1.595
				c-0.506-3.755,1.509-8.41,2.572-11.927c1.46-4.831,3.155-9.592,4.428-14.479C664.869,160.05,659.082,158.461,658.107,162.203
				L658.107,162.203z"/>
		</g>
	</g>
	<g>
		<g>
			<path d="M671,162c0.021,10.72-0.841,24.847,6.192,33.805c7.951,10.127,22.601-2.155,28.929-7.684
				c2.919-2.55-1.342-6.776-4.242-4.242c-4.41,3.853-16.133,14.91-21.22,6.479c-4.67-7.741-3.642-19.727-3.659-28.358
				C676.992,158.131,670.992,158.13,671,162L671,162z"/>
		</g>
	</g>
	<g>
		<g>
			<path d="M739,114c0.004,5.993,0.017,12.102,2.107,17.797c1.321,3.601,7.121,2.046,5.785-1.595
				c-1.918-5.227-1.89-10.707-1.893-16.203C744.998,110.131,738.998,110.131,739,114L739,114z"/>
		</g>
	</g>
	<g>
		<g>
			<path d="M755.107,115.797c1.081,3.309,1.918,6.691,3,10c1.196,3.661,6.991,2.094,5.785-1.595c-1.081-3.309-1.918-6.691-3-10
				C759.696,110.542,753.901,112.109,755.107,115.797L755.107,115.797z"/>
		</g>
	</g>
	<g>
		<g>
			<path d="M797.798,127.893c16.979-3.011,33.975-6.648,51.202-7.893c3.836-0.277,3.862-6.279,0-6
				c-17.765,1.284-35.291,5.003-52.798,8.107C792.397,122.782,794.015,128.563,797.798,127.893L797.798,127.893z"/>
		</g>
	</g>
	<g>
		<g>
			<path d="M823.107,125.203c-3.092,11.641-6.994,23.089-12.273,33.93c-5.2,10.68-12.252,22.015-23.348,27.277
				c-3.495,1.657-0.448,6.829,3.027,5.181c11.645-5.522,19.198-17.129,24.899-28.225c5.935-11.553,10.152-24.04,13.479-36.568
				C829.888,123.053,824.1,121.466,823.107,125.203L823.107,125.203z"/>
		</g>
	</g>
	<g>
		<g>
			<path d="M818.107,155.797c4.069,13.895,3.891,28.845,3.893,43.203c0,3.869,6,3.869,6,0c-0.002-14.877,0.11-30.398-4.107-44.797
				C822.808,150.498,817.017,152.076,818.107,155.797L818.107,155.797z"/>
		</g>
	</g>
	<g>
		<g>
			<path d="M827.486,159.59c6.773,3.879,12.865,8.874,19.482,13.012c4.976,3.112,11.727,7.131,17.829,5.291
				c3.694-1.115,2.118-6.906-1.596-5.786c-5.281,1.594-12.331-4.065-16.426-6.749c-5.46-3.579-10.59-7.701-16.263-10.948
				C827.15,152.484,824.13,157.668,827.486,159.59L827.486,159.59z"/>
		</g>
	</g>
	<g>
		<g>
			<path d="M884,118c0.002,6.365,0.152,12.683,1,19c0.507,3.776,6.514,3.826,6,0c-0.848-6.317-0.998-12.635-1-19
				C889.999,114.131,883.999,114.131,884,118L884,118z"/>
		</g>
	</g>
	<g>
		<g>
			<path d="M900.107,120.797c1.813,7.165,0.702,14.331-1,21.405c-0.905,3.76,4.88,5.355,5.785,1.595
				c1.957-8.129,3.08-16.376,1-24.595C904.944,115.454,899.157,117.044,900.107,120.797L900.107,120.797z"/>
		</g>
	</g>
	<g>
		<g>
			<path d="M123.179,335.329c4.756,34.15,3.255,69.654-4,103.342c-1.354,6.288,8.285,8.961,9.643,2.658
				c7.663-35.58,9.019-72.62,4-108.658C131.935,326.307,122.301,329.025,123.179,335.329L123.179,335.329z"/>
		</g>
	</g>
	<g>
		<g>
			<path d="M162.179,337.329c4.55,14.327,1.247,31.104-0.007,45.729c-1.289,15.037-3.147,32.342,4.096,46.237
				c6.773,12.993,21.39,13.996,34.34,12.763c10.041-0.955,32.92-4.506,31.392-19.059c-0.667-6.346-10.673-6.411-10,0
				c0.365,3.476-5.152,5.326-8.403,6.404c-6.163,2.045-12.721,2.842-19.184,3.055c-4.777,0.156-9.776,0.115-14.033-2.283
				c-4.474-2.521-6.545-7.47-7.771-12.201c-3.476-13.412-1.008-28.549,0.196-42.118c1.188-13.384,3.168-28.113-0.983-41.186
				C169.877,328.549,160.221,331.166,162.179,337.329L162.179,337.329z"/>
		</g>
	</g>
	<g>
		<g>
			<path d="M298.477,313.317c0.165,0.111,1.68,1.231,0.782,0.522c0.407,0.321,0.783,0.676,1.148,1.044
				c0.368,0.419,0.325,0.342-0.129-0.229c0.118,0.166,0.225,0.341,0.32,0.521c-0.287-0.767-0.358-0.903-0.214-0.412
				c-0.237-0.885-0.051-1.484,0.298-2.287c-1.088,2.499-0.762,5.344,1.794,6.841c2.14,1.254,5.752,0.707,6.841-1.794
				c1.149-2.64,1.218-5.104-0.232-7.655c-1.255-2.208-3.511-3.798-5.562-5.186c-2.26-1.529-5.532-0.44-6.841,1.794
				C295.236,308.945,296.224,311.793,298.477,313.317L298.477,313.317z"/>
		</g>
	</g>
	<g>
		<g>
			<path d="M268.329,338.821c29.454-6.157,58.305-14.964,88-20c-1.284-3.046-2.568-6.093-3.853-9.139
				c-2.448,1.383-5.135,1.729-7.806,2.496c-6.187,1.775-3.554,11.426,2.658,9.643c3.547-1.019,6.942-1.667,10.194-3.504
				c5.242-2.961,1.472-10.042-3.853-9.139c-29.695,5.036-58.546,13.842-88,20C259.36,330.498,262.038,340.137,268.329,338.821
				L268.329,338.821z"/>
		</g>
	</g>
	<g>
		<g>
			<path d="M288.671,346.821c4.394,1.164,8.542,3.043,13,4c6.288,1.35,8.962-8.29,2.658-9.643c-4.458-0.957-8.606-2.836-13-4
				C285.088,335.525,282.442,345.172,288.671,346.821L288.671,346.821z"/>
		</g>
	</g>
	<g>
		<g>
			<path d="M329.683,328.477c-5.515,8.057-12.744,14.39-21.206,19.206c-5.603,3.188-0.566,11.829,5.047,8.635
				c9.979-5.68,18.309-13.319,24.794-22.794C341.971,328.186,333.3,323.191,329.683,328.477L329.683,328.477z"/>
		</g>
	</g>
	<g>
		<g>
			<path d="M257.523,380.317c17.994-9.968,38.358-15.037,58.496-18.517c10.399-1.796,20.897-2.956,31.417-3.76
				c9.269-0.708,19.377-1.945,28.654-1.018c-0.443-3.273-0.886-6.548-1.329-9.821c-1.533,0.28-2.947,0.631-4.285,1.48
				c-5.426,3.445-0.415,12.103,5.047,8.635c0.538-0.341,1.269-0.358,1.896-0.473c5.961-1.089,3.868-9.302-1.329-9.821
				c-9.291-0.93-19.37,0.346-28.654,1.018c-11.413,0.826-22.791,2.228-34.075,4.117c-20.985,3.515-42.171,9.158-60.884,19.524
				C246.835,374.808,251.878,383.444,257.523,380.317L257.523,380.317z"/>
		</g>
	</g>
	<g>
		<g>
			<path d="M283.683,385.523c4.632,6.86,9.939,13.072,16.794,17.794c4.783,3.295,9.966-3.91,6.059-7.853
				c-0.938-0.947-1.577-1.807-2.218-2.988c-3.077-5.669-11.711-0.621-8.635,5.047c1.013,1.866,2.289,3.505,3.782,5.012
				c2.02-2.617,4.04-5.235,6.059-7.853c-5.376-3.703-9.581-8.836-13.206-14.206C288.73,375.164,280.063,380.162,283.683,385.523
				L283.683,385.523z"/>
		</g>
	</g>
	<g>
		<g>
			<path d="M301.523,382.317c11.867-5.276,26.111-8.792,39.121-8.42c4.41,0.126,13.333,2.53,12.455,8.493
				c-0.998,6.779-9.074,11.621-14.622,14.292c-5.81,2.796-0.735,11.418,5.047,8.635c8.205-3.949,16.095-10.373,18.986-19.291
				c3.089-9.53-4.683-17.173-12.714-20.553c-7.985-3.359-18.459-1.401-26.625,0.08c-9.133,1.657-18.209,4.356-26.694,8.129
				C290.594,376.298,295.686,384.913,301.523,382.317L301.523,382.317z"/>
		</g>
	</g>
	<g>
		<g>
			<path d="M304.329,395.821c10.735-2.876,21.598-4.846,32.671-5.821c6.372-0.562,6.426-10.566,0-10
				c-11.956,1.054-23.734,3.072-35.329,6.179C295.448,387.846,298.092,397.492,304.329,395.821L304.329,395.821z"/>
		</g>
	</g>
	<g>
		<g>
			<path d="M309.329,411.821c13.262-3.095,26.387-6.827,39-12c5.881-2.412,3.31-12.091-2.658-9.643
				c-12.613,5.173-25.738,8.905-39,12C300.392,403.644,303.055,413.285,309.329,411.821L309.329,411.821z"/>
		</g>
	</g>
	<g>
		<g>
			<path d="M315.683,380.523c4.426,9.161,5.977,20.217,7.124,30.218c0.637,5.555,0.951,11.154,0.842,16.745
				c-0.068,3.521-0.111,7.963-1.965,10.99c-3.378,5.515,5.273,10.535,8.635,5.047c5.316-8.68,3.568-21.96,2.624-31.516
				c-1.212-12.269-3.212-25.329-8.624-36.531C321.513,369.671,312.891,374.745,315.683,380.523L315.683,380.523z"/>
		</g>
	</g>
	<g>
		<g>
			<path d="M302.523,434.317C317.182,427.18,333.938,424.055,350,422c6.306-0.807,6.384-10.816,0-10
				c-17.941,2.296-36.145,5.707-52.523,13.683C291.679,428.506,296.751,437.128,302.523,434.317L302.523,434.317z"/>
		</g>
	</g>
	<g>
		<g>
			<path d="M284,453c20.429-2.232,40.964-3.379,61.392-5.685c10.843-1.224,21.736-2.564,32.414-4.852
				c5.984-1.281,14.441-2.778,17.016-9.135c2.422-5.98-7.254-8.555-9.643-2.658c0.032-0.079,1.189-1.805,0.576-1.178
				c-0.448,0.458,0.816-0.498-0.385,0.211c-1.202,0.709-1.198,0.628-2.885,1.194c-3.698,1.241-7.564,2.01-11.389,2.742
				c-10.327,1.978-20.807,3.165-31.255,4.286C321.256,439.919,302.578,440.97,284,443C277.661,443.692,277.594,453.7,284,453
				L284,453z"/>
		</g>
	</g>
	<g>
		<g>
			<path d="M448.179,321.329c2.624,16.387-2.175,32.827-7,48.342c-1.42,4.566,3.629,7.344,7.345,5.646
				c11.127-5.081,24.075-7.64,36.17-8.884c8.561-0.881,25.063-2.76,28.839,7.564c4.207,11.508,1.581,26.043-0.62,37.688
				c-2.117,11.196-4.772,24.158-11.229,33.79c2.617-0.338,5.235-0.675,7.853-1.012c-8.443-6.664-13.271-16.558-23.012-21.782
				c-5.681-3.047-10.731,5.586-5.047,8.635c8.847,4.745,13.267,14.124,20.988,20.218c2.614,2.063,5.91,1.886,7.853-1.012
				c7.373-10.997,10.364-25.821,12.688-38.612c2.536-13.959,4.818-30.572-1.224-43.951c-5.648-12.506-23.178-12.542-34.682-11.735
				c-14.725,1.031-30.15,4.306-43.624,10.458c2.448,1.882,4.896,3.765,7.345,5.646c5.429-17.458,9.939-35.301,7-53.658
				C456.804,312.316,447.169,315.022,448.179,321.329L448.179,321.329z"/>
		</g>
	</g>
	<g>
		<g>
			<path d="M430.671,406.821c24.59,3.877,47.907-6.547,72.329-6.821c0-3.333,0-6.667,0-10c-3.786,0.236-7.075,1.127-10.523,2.683
				c-5.87,2.648-0.781,11.265,5.047,8.635c1.781-0.804,3.526-1.195,5.477-1.317c6.379-0.398,6.498-10.073,0-10
				c-23.288,0.262-46.351,10.855-69.671,7.179C427.023,396.185,424.315,405.819,430.671,406.821L430.671,406.821z"/>
		</g>
	</g>
	<g>
		<g>
			<path d="M456,334c18.025-1.002,36.049-2.041,54-4c-1.179-2.845-2.357-5.69-3.535-8.535c-0.646,0.5-2.232,0.88-2.988,1.218
				c-5.878,2.628-0.787,11.243,5.047,8.635c1.872-0.837,3.386-1.521,5.012-2.782c3.359-2.604,0.619-8.988-3.535-8.535
				c-17.951,1.959-35.975,2.998-54,4C449.588,324.356,449.554,334.358,456,334L456,334z"/>
		</g>
	</g>
	<g>
		<g>
			<path d="M581.683,336.523c6.845,14.629,1.371,32.859,2.595,48.346c1.316,16.675,5.89,36.794-1.595,52.607
				c3.105,0.841,6.212,1.683,9.317,2.523c0.21-2.013,0.789-3.973,1-6c0.668-6.412-9.339-6.348-10,0c-0.21,2.013-0.789,3.973-1,6
				c-0.511,4.9,7.24,6.912,9.317,2.523c8.459-17.872,4.563-38.736,2.96-57.654c-1.503-17.743,3.927-36.536-3.96-53.393
				C587.586,325.64,578.967,330.721,581.683,336.523L581.683,336.523z"/>
		</g>
	</g>
	<g>
		<g>
			<path d="M568,369c-0.053,7.012-0.693,14.014-0.864,21.024c-0.063,2.614-0.223,5.526,0.505,8.072
				c0.926,3.238,4.907,5.266,7.883,3.221c5.277-3.626,0.283-12.298-5.047-8.635c0.739-0.192,1.479-0.385,2.219-0.577
				c1.179,0.488,2.357,0.977,3.535,1.465c0.708,0.659,1.059,2.652,0.953,1.372c-0.083-1.012-0.07-2.034-0.072-3.049
				c-0.005-2.769,0.134-5.54,0.259-8.305c0.22-4.859,0.594-9.723,0.63-14.589C578.048,362.55,568.048,362.554,568,369L568,369z"/>
		</g>
	</g>
	<g>
		<g>
			<path d="M600.465,376.535c2.958,2.474,4.573,5.591,7.104,8.73c2.88,3.57,7.433,4.415,10.966,1.27
				c4.826-4.296-2.271-11.343-7.07-7.07c0.82-0.731,2.028-1.044,3.1-0.772c0.717,0.183,1.579,1.093,0.627,0.128
				c-0.19-0.202-0.374-0.411-0.551-0.626c0.313,0.424,0.288,0.393-0.073-0.093c-0.414-0.555-0.808-1.124-1.206-1.689
				c-1.736-2.463-3.499-5.003-5.826-6.947c-2.089-1.747-5.017-2.055-7.07,0C598.667,371.263,598.371,374.785,600.465,376.535
				L600.465,376.535z"/>
		</g>
	</g>
	<g>
		<g>
			<path d="M623,324c-0.017,6.434-0.294,12.853-1.014,19.248c-0.656,5.843-1.67,13.489-5.521,18.217
				c-4.036,4.952,2.995,12.072,7.07,7.07c9.552-11.722,9.429-30.168,9.465-44.535C633.017,317.551,623.017,317.552,623,324L623,324z
				"/>
		</g>
	</g>
	<g>
		<g>
			<path d="M634,349c14.028-0.088,27.972-1.912,42-2c-0.841-3.105-1.683-6.212-2.523-9.317c-2.372,1.268-4.629,2.732-7,4
				c-5.688,3.04-0.638,11.673,5.047,8.635c2.372-1.268,4.629-2.732,7-4c4.443-2.375,2.349-9.348-2.523-9.317
				c-14.028,0.088-27.972,1.912-42,2C627.554,339.041,627.55,349.041,634,349L634,349z"/>
		</g>
	</g>
	<g>
		<g>
			<path d="M632,387c16.43-0.127,33.473-2.942,49.329-7.179c6.225-1.663,3.58-11.31-2.658-9.643
				C663.627,374.197,647.588,376.88,632,377C625.554,377.05,625.549,387.05,632,387L632,387z"/>
		</g>
	</g>
	<g>
		<g>
			<path d="M644.683,336.523c6.062,8.355,5.757,19.772,5.486,29.632c-0.237,8.629-1.501,17.308-1.099,25.942
				c0.319,6.856,0.741,13.693,0.601,20.562c-0.07,3.422-0.27,6.855-1.005,10.204c-0.252,1.145-0.528,2.07-1.088,3.042
				c0.014-0.024,2.628,0.021,0.751-0.727c-5.996-2.39-8.573,7.286-2.658,9.643c17.361,6.918,14.023-30.976,13.608-38.808
				c-0.505-9.523,0.447-18.945,0.841-28.462c0.491-11.887,0.499-26.012-6.803-36.075
				C649.57,326.312,640.889,331.294,644.683,336.523L644.683,336.523z"/>
		</g>
	</g>
	<g>
		<g>
			<path d="M624,440c13.433,1.006,27.349-0.643,40.759-1.407c7.497-0.428,14.993-0.885,22.491-1.292
				c2.66-0.145,5.321-0.281,7.983-0.379c0.819-0.029,1.64-0.05,2.46-0.055c2.157-0.013-1.311-0.604-2.219-1.36
				c-0.429-1.622-0.857-3.243-1.285-4.865c-0.004,0.01-0.008,0.02-0.011,0.029c-2.168,6.091,7.496,8.688,9.643,2.658
				c0.004-0.01,0.007-0.02,0.011-0.029c0.546-1.533-0.022-3.812-1.286-4.864c-3.018-2.514-7.904-1.506-11.531-1.33
				c-7.681,0.372-15.356,0.857-23.032,1.302C653.52,429.245,638.487,431.085,624,430C617.564,429.518,617.61,439.521,624,440
				L624,440z"/>
		</g>
	</g>
	<g>
		<g>
			<path d="M754.179,323.671c-5.472,17.696-19.016,34.035-33.702,45.012c-5.101,3.812-0.124,12.5,5.047,8.635
				c16.857-12.599,32.005-30.635,38.298-50.988C765.731,320.151,756.077,317.53,754.179,323.671L754.179,323.671z"/>
		</g>
	</g>
	<g>
		<g>
			<path d="M742.683,361.523c4.906,10.209,5.413,22.358,5.067,33.477c-0.349,11.233-2.123,23.272-7.067,33.477
				c3.105,0.841,6.212,1.683,9.317,2.523c0-2.667,0-5.333,0-8c0-6.448-10-6.448-10,0c0,2.667,0,5.333,0,8
				c0,4.742,7.081,7.14,9.317,2.523c5.783-11.937,7.867-25.375,8.433-38.523c0.557-12.944-0.762-26.725-6.433-38.523
				C748.524,350.666,739.903,355.74,742.683,361.523L742.683,361.523z"/>
		</g>
	</g>
	<g>
		<g>
			<path d="M791.523,316.317c7.401-3.55,18.436-6.737,26.682-5.595c4.389,0.608,3.624,5.004,1.382,7.784
				c-3.107,3.852-8.02,6.879-12.916,7.672c-6.354,1.029-3.648,10.664,2.658,9.643c13.413-2.173,30.165-19.027,17.772-31.804
				c-4.898-5.051-14.31-3.404-20.393-2.422c-6.871,1.11-13.94,3.068-20.232,6.087C780.664,310.471,785.739,319.092,791.523,316.317
				L791.523,316.317z"/>
		</g>
	</g>
	<g>
		<g>
			<path d="M794.329,332.821c6.858-0.969,13.738-1.753,20.671-1.821c-1.667-1.667-3.333-3.333-5-5
				c0.197-1.885,2.104-2.554-0.139-0.679c-0.934,0.78-1.5,2.203-1.683,3.35c-1.007,6.307,8.628,9.013,9.643,2.658
				c-1.436,1.438-1.46,1.575-0.073,0.41c0.419-0.464,0.811-0.95,1.173-1.461c0.785-1.341,0.922-2.771,1.079-4.278
				c0.281-2.697-2.487-5.024-5-5c-7.829,0.077-15.588,1.085-23.329,2.179C785.308,324.077,788.025,333.712,794.329,332.821
				L794.329,332.821z"/>
		</g>
	</g>
	<g>
		<g>
			<path d="M792.329,350.821c6.244-2.079,12.479-3.998,19-5c2.698-0.414,4.15-3.757,3.492-6.15c-0.785-2.854-3.459-3.905-6.15-3.492
				c-6.521,1.001-12.756,2.921-19,5C783.584,343.205,786.193,352.864,792.329,350.821L792.329,350.821z"/>
		</g>
	</g>
	<g>
		<g>
			<path d="M764.683,367.523c2.112,4.187,4.515,8.325,7.692,11.803c3.12,3.415,8.687,5.3,12.16,1.209
				c1.763-2.075,2.044-5.027,0-7.07c-1.809-1.81-5.305-2.079-7.07,0c-0.084,0.098-0.167,0.195-0.25,0.294
				c0.573-0.54,1.278-0.819,2.114-0.841c0.438-0.021,0.846,0.078,1.223,0.295c-0.446-0.29-0.456-0.269-0.029,0.063
				c-1.002-0.785-1.866-1.883-2.478-2.729c-1.82-2.527-3.327-5.294-4.728-8.07c-1.227-2.432-4.6-3.106-6.841-1.794
				C764.02,362.122,763.455,365.09,764.683,367.523L764.683,367.523z"/>
		</g>
	</g>
	<g>
		<g>
			<path d="M780.523,368.317c17.257-7.459,37.887-9.112,56.469-8.301c4.517,0.197,8.985,0.698,13.379,1.779
				c1.391,0.343,3.026,0.785,4.102,1.782c-0.396-0.367-0.238-1.247-0.633-0.738c-4.439,5.727-12.958,9.005-19.363,11.843
				c-5.886,2.607-0.793,11.222,5.047,8.635c8.034-3.56,18.951-8.11,23.392-16.266c5.688-10.448-8.238-14.924-15.741-16.046
				c-12.082-1.807-24.465-1.33-36.563,0.041c-12.039,1.364-23.98,3.814-35.135,8.636
				C769.571,362.235,774.669,370.848,780.523,368.317L780.523,368.317z"/>
		</g>
	</g>
	<g>
		<g>
			<path d="M795.329,389.821c9.038-2.54,18.34-4.711,27.671-5.821c-1.607-2.109-3.214-4.22-4.821-6.329
				C812.48,394.314,798.691,417.602,779,419c-6.395,0.454-6.438,10.457,0,10c24.737-1.757,41.506-27.303,48.821-48.671
				c0.973-2.841-1.666-6.705-4.821-6.329c-10.244,1.219-20.401,3.389-30.329,6.179C786.473,381.921,789.108,391.569,795.329,389.821
				L795.329,389.821z"/>
		</g>
	</g>
	<g>
		<g>
			<path d="M778.671,402.821c8.625,2.353,15.36,7.545,21.954,13.381c6.242,5.525,12.614,10.733,19.603,15.303
				c14.032,9.173,30.008,14.494,46.443,17.316c6.306,1.083,9.005-8.553,2.658-9.643c-16.297-2.799-31.426-8.053-45.309-17.129
				c-14.525-9.496-25.361-24.146-42.691-28.871C775.098,391.479,772.457,401.127,778.671,402.821L778.671,402.821z"/>
		</g>
	</g>
	<g>
	</g>
	<g>
	</g>
	<g>
	</g>
	<g>
	</g>
	<g>
	</g>
	<g>
	</g>
	<g>
	</g>
	<g>
	</g>
	<g>
	</g>
	<g>
	</g>
	<g>
	</g>
	<g>
	</g>
	<g>
	</g>
	<g>
	</g>
	<g>
	</g>
</g>
</svg>
