<?xml version="1.0" encoding="utf-8"?>
<!-- Generator: Adobe Illustrator 16.2.0, SVG Export Plug-In . SVG Version: 6.00 Build 0)  -->
<!DOCTYPE svg PUBLIC "-//W3C//DTD SVG 1.1//EN" "http://www.w3.org/Graphics/SVG/1.1/DTD/svg11.dtd">
<svg version="1.1" id="图层_1" xmlns="http://www.w3.org/2000/svg" xmlns:xlink="http://www.w3.org/1999/xlink" x="0px" y="0px"
	 width="560px" height="960px" viewBox="0 0 560 960" enable-background="new 0 0 560 960" xml:space="preserve">
<g>
	<path fill="#FFFFFF" d="M278.59,523.589c-53.997-12-100.495-29.999-148.493-65.997C59.602,403.594,29.603,348.097,26.603,258.102
		c-1.5-38.998-7.5-77.996,13.5-112.494C61.102,108.109,98.6,82.61,134.598,60.111c32.998-20.999,73.496-29.998,112.494-29.998
		s73.496-9,110.994,3c22.499,7.5,34.499,15,50.998,28.499c16.499,13.5,35.998,19.499,50.997,31.499
		c31.499,23.999,44.998,53.998,53.997,89.996c9,35.998,9,59.997,6,94.495c-1.5,17.999,1.5,31.499-4.5,47.998
		c-5.999,16.5-19.498,32.999-28.498,49.498c-34.498,70.497-115.494,149.992-197.99,148.493"/>
	<g>
		<path d="M279.919,518.768c-54.862-12.272-106.667-33.557-151.139-68.481c-35.045-27.521-65.231-61.161-81.214-103.289
			c-8.037-21.184-12.418-43.61-14.554-66.116c-1.269-13.373-1.539-26.82-2.277-40.227c-0.789-14.333-1.519-28.68-0.677-43.028
			c0.844-14.374,3.884-28.66,10.098-41.699c5.89-12.358,14.056-23.776,23.103-33.997c17.959-20.288,40.381-36.076,63.035-50.653
			c11.855-7.628,23.78-14.941,36.828-20.382c13.184-5.498,27.037-9.311,41.056-11.967c14.135-2.678,28.54-3.768,42.913-3.815
			c15.196-0.051,30.321-1.418,45.472-2.423c14.797-0.981,29.752-1.434,44.476,0.673c13.952,1.996,27.571,6.614,40.196,12.821
			c10.825,5.322,20.327,12.56,29.694,20.071c10.937,8.769,23.663,14.679,35.832,21.468c22.5,12.553,40.228,31.829,51.795,54.745
			c11.896,23.567,18.389,51.145,21.166,77.259c1.423,13.377,1.354,26.851,0.642,40.268c-0.763,14.361-1.519,28.583-1.87,42.961
			c-0.367,15.021-5.75,27.549-13.453,40.227c-7.463,12.28-15.347,24.071-22.057,36.795c-19.239,36.489-46.765,69.002-78.879,94.8
			c-31.313,25.155-70.104,44.321-111.016,43.81c-6.451-0.08-6.443,9.92,0,10c50.765,0.634,97.216-26.73,133.605-60.066
			c18.972-17.38,35.693-37.28,50.025-58.628c6.679-9.948,12.715-20.328,18.07-31.045c6.69-13.388,16.139-25.265,23.387-38.354
			c6.823-12.324,10.012-25.095,10.355-39.13c0.353-14.406,1.156-28.66,1.92-43.05c1.487-28.018-1.857-55.404-9.098-82.484
			c-6.287-23.518-15.903-45.896-31.367-64.87c-8.127-9.972-17.985-18.646-28.54-25.966c-11.348-7.872-24.252-13.232-35.931-20.58
			c-10.742-6.758-19.939-15.625-30.817-22.249c-10.78-6.564-22.823-11.416-34.905-14.973c-28.804-8.483-58.92-4.568-88.329-2.764
			c-14.742,0.905-29.504,0.455-44.222,1.819c-14.122,1.309-28.123,3.896-41.774,7.731c-27.106,7.616-50.597,21.898-73.717,37.558
			c-22.113,14.977-43.3,31.925-59.719,53.165c-8.336,10.784-15.478,22.6-20.456,35.307c-5.095,13.008-7.016,27.128-7.703,41.004
			c-0.711,14.367,0.265,28.782,1.051,43.125c0.726,13.234,1.061,26.471,2.37,39.667c2.228,22.447,6.742,44.683,14.627,65.849
			c15.617,41.921,44.729,75.938,79.063,103.924c43.144,35.167,93.366,58.37,147.196,71.765c4.345,1.082,8.709,2.088,13.079,3.065
			C283.543,529.815,286.212,520.175,279.919,518.768L279.919,518.768z"/>
	</g>
</g>
<g>
	<g>
		<path d="M279.59,325.598c6.951,65.294,5.952,131.012,2.646,196.497c-1.656,32.813-4.516,65.597-5.794,98.422
			c-1.261,32.359-4.137,64.666-3.012,97.075c1.295,37.301,9.049,74.036,13.971,110.94c2.519,18.885,4.602,38.025,4.023,57.098
			c-0.571,18.836-2.764,37.579-2.834,56.438c-0.024,6.45,9.976,6.447,10,0c0.059-15.706,1.503-31.341,2.405-47.01
			c0.921-15.997,0.204-31.764-1.379-47.698c-3.103-31.23-9.17-62.067-13.058-93.196c-4.023-32.218-3.682-64.252-1.99-96.616
			c1.711-32.721,3.602-65.417,5.574-98.124c4.698-77.86,7.724-156.09-0.553-233.825C288.914,319.255,278.907,319.189,279.59,325.598
			L279.59,325.598z"/>
	</g>
</g>
<g>
</g>
<g>
</g>
<g>
</g>
<g>
</g>
<g>
</g>
<g>
</g>
<g>
</g>
<g>
</g>
<g>
</g>
<g>
</g>
<g>
</g>
<g>
</g>
<g>
</g>
<g>
</g>
<g>
</g>
</svg>
